%TF.GenerationSoftware,Altium Limited,Altium Designer,25.8.1 (18)*%
G04 Layer_Physical_Order=3*
G04 Layer_Color=16440176*
%FSLAX45Y45*%
%MOMM*%
%TF.SameCoordinates,5F8AD7AF-A6C7-491F-921A-1EE88451CE46*%
%TF.FilePolarity,Positive*%
%TF.FileFunction,Copper,L3,Inr,Signal*%
%TF.Part,Single*%
G01*
G75*
%TA.AperFunction,NonConductor*%
%ADD49C,0.16000*%
%TA.AperFunction,ComponentPad*%
%ADD50C,5.08000*%
G04:AMPARAMS|DCode=51|XSize=5.08mm|YSize=5.08mm|CornerRadius=1.27mm|HoleSize=0mm|Usage=FLASHONLY|Rotation=0.000|XOffset=0mm|YOffset=0mm|HoleType=Round|Shape=RoundedRectangle|*
%AMROUNDEDRECTD51*
21,1,5.08000,2.54000,0,0,0.0*
21,1,2.54000,5.08000,0,0,0.0*
1,1,2.54000,1.27000,-1.27000*
1,1,2.54000,-1.27000,-1.27000*
1,1,2.54000,-1.27000,1.27000*
1,1,2.54000,1.27000,1.27000*
%
%ADD51ROUNDEDRECTD51*%
%ADD53C,1.55000*%
%ADD54C,3.00000*%
%ADD55R,1.55000X1.55000*%
%ADD56C,1.45000*%
%ADD57C,0.80000*%
%ADD58C,6.00000*%
%TA.AperFunction,ViaPad*%
%ADD59C,0.65000*%
%TA.AperFunction,ComponentPad*%
G04:AMPARAMS|DCode=60|XSize=2.2mm|YSize=2.2mm|CornerRadius=1.1mm|HoleSize=0mm|Usage=FLASHONLY|Rotation=0.000|XOffset=0mm|YOffset=0mm|HoleType=Round|Shape=RoundedRectangle|*
%AMROUNDEDRECTD60*
21,1,2.20000,0.00000,0,0,0.0*
21,1,0.00000,2.20000,0,0,0.0*
1,1,2.20000,0.00000,0.00000*
1,1,2.20000,0.00000,0.00000*
1,1,2.20000,0.00000,0.00000*
1,1,2.20000,0.00000,0.00000*
%
%ADD60ROUNDEDRECTD60*%
G36*
X9589780Y9951360D02*
X9647928Y9935780D01*
X9703541Y9912744D01*
X9755673Y9882645D01*
X9803432Y9845999D01*
X9845998Y9803433D01*
X9882644Y9755675D01*
X9912744Y9703541D01*
X9935780Y9647928D01*
X9951360Y9589780D01*
X9959218Y9530099D01*
Y9500000D01*
Y5862500D01*
X8937500D01*
X8825000Y5750000D01*
X7750000D01*
X7550000Y5550000D01*
Y3800000D01*
X7487500Y3737500D01*
X7225000D01*
X7137500Y3825000D01*
X6718536Y3825000D01*
X6718536Y3825000D01*
X6712499D01*
X6712499Y3812500D01*
X6712500Y3810000D01*
Y3775000D01*
X7137500D01*
X7237500Y3675000D01*
X8425000D01*
X8650000Y3450000D01*
Y2937500D01*
X9000000Y2587500D01*
X9537500D01*
X9562500Y2562500D01*
Y1275000D01*
X9175000Y887500D01*
Y350000D01*
X9350000Y175000D01*
X9625000D01*
Y62500D01*
X9618957Y56457D01*
X9589780Y48639D01*
X9530099Y40782D01*
X469900D01*
X410219Y48639D01*
X352071Y64220D01*
X296459Y87256D01*
X244326Y117354D01*
X196568Y154000D01*
X154001Y196567D01*
X117355Y244325D01*
X87256Y296459D01*
X64220Y352071D01*
X48639Y410220D01*
X40782Y469901D01*
Y500000D01*
Y3812500D01*
X2975000D01*
X3550000Y4387500D01*
X4137500D01*
X4250000Y4275000D01*
Y4150000D01*
X4368750Y4031250D01*
X5368749D01*
X5625000Y3775000D01*
X6225000D01*
Y3825000D01*
X5650000D01*
X5275000Y4200000D01*
X5025000Y4450000D01*
X3550000Y4450000D01*
X2962500Y3862500D01*
X40782Y3862500D01*
Y4305833D01*
X43058Y4317273D01*
X47522Y4328049D01*
X54002Y4337749D01*
X62250Y4345997D01*
X71950Y4352478D01*
X82727Y4356942D01*
X94168Y4359218D01*
X100001Y4359218D01*
X145677D01*
Y4225000D01*
X146957Y4218562D01*
X150604Y4213104D01*
X156062Y4209457D01*
X162500Y4208176D01*
X320842D01*
Y4207513D01*
X479158D01*
Y4208176D01*
X562500D01*
X568938Y4209457D01*
X574396Y4213104D01*
X578043Y4218562D01*
X579323Y4225000D01*
Y4359381D01*
X586802Y4359748D01*
X589735Y4360483D01*
X592758D01*
X611985Y4364307D01*
X615696Y4365845D01*
X619635Y4366628D01*
X637746Y4374130D01*
X641086Y4376361D01*
X644797Y4377899D01*
X661097Y4388790D01*
X663937Y4391630D01*
X667277Y4393861D01*
X681138Y4407723D01*
X683369Y4411062D01*
X686210Y4413903D01*
X697101Y4430202D01*
X698639Y4433914D01*
X700870Y4437254D01*
X708372Y4455365D01*
X709155Y4459304D01*
X710693Y4463015D01*
X714517Y4482242D01*
Y4485265D01*
X715251Y4488196D01*
X715733Y4497998D01*
X715584Y4499003D01*
X715782Y4500000D01*
Y6274999D01*
X715584Y6275995D01*
X715733Y6277001D01*
X715252Y6286802D01*
X714517Y6289734D01*
Y6292757D01*
X710693Y6311984D01*
X709155Y6315695D01*
X708372Y6319634D01*
X700870Y6337745D01*
X698639Y6341085D01*
X697101Y6344797D01*
X686210Y6361096D01*
X683370Y6363936D01*
X681138Y6367276D01*
X667277Y6381137D01*
X663938Y6383368D01*
X661097Y6386209D01*
X644798Y6397100D01*
X641086Y6398638D01*
X637746Y6400869D01*
X619635Y6408371D01*
X615696Y6409155D01*
X611985Y6410692D01*
X592758Y6414516D01*
X589735D01*
X586803Y6415251D01*
X577001Y6415732D01*
X575996Y6415583D01*
X575000Y6415781D01*
X94167D01*
X82727Y6418057D01*
X71950Y6422521D01*
X62251Y6429002D01*
X54003Y6437250D01*
X47522Y6446950D01*
X43058Y6457726D01*
X40782Y6469167D01*
X40782Y6475000D01*
X40782Y8700000D01*
X650000D01*
X712500Y8637500D01*
X712500Y8000000D01*
X887500Y7825000D01*
X1225000D01*
X1350000Y7700000D01*
X7950000D01*
X8762500Y6887500D01*
X8812500Y6937500D01*
X8000000Y7750000D01*
X1350000D01*
X1237500Y7862500D01*
X924999D01*
X800000Y7987500D01*
Y8700000D01*
X750000Y8750000D01*
X40782D01*
Y9500000D01*
Y9530099D01*
X48639Y9589780D01*
X64220Y9647928D01*
X87256Y9703541D01*
X117354Y9755673D01*
X154000Y9803432D01*
X196567Y9845998D01*
X244325Y9882644D01*
X296459Y9912744D01*
X352071Y9935780D01*
X410220Y9951360D01*
X469901Y9959218D01*
X9530099D01*
X9589780Y9951360D01*
D02*
G37*
%LPC*%
G36*
X9500000Y9817478D02*
X9450335Y9813570D01*
X9401894Y9801940D01*
X9355867Y9782875D01*
X9313391Y9756845D01*
X9275508Y9724491D01*
X9243154Y9686609D01*
X9217124Y9644132D01*
X9198060Y9598106D01*
X9186430Y9549664D01*
X9182521Y9500000D01*
X9186430Y9450335D01*
X9198060Y9401894D01*
X9217124Y9355867D01*
X9243154Y9313391D01*
X9275508Y9275508D01*
X9313391Y9243154D01*
X9355867Y9217124D01*
X9401894Y9198060D01*
X9450335Y9186430D01*
X9500000Y9182521D01*
X9549664Y9186430D01*
X9598106Y9198060D01*
X9644132Y9217124D01*
X9686609Y9243154D01*
X9724491Y9275508D01*
X9756845Y9313391D01*
X9782875Y9355867D01*
X9801940Y9401894D01*
X9813570Y9450335D01*
X9817478Y9500000D01*
X9813570Y9549664D01*
X9801940Y9598106D01*
X9782875Y9644132D01*
X9756845Y9686609D01*
X9724491Y9724491D01*
X9686609Y9756845D01*
X9644132Y9782875D01*
X9598106Y9801940D01*
X9549664Y9813570D01*
X9500000Y9817478D01*
D02*
G37*
G36*
X500000D02*
X450335Y9813570D01*
X401894Y9801940D01*
X355868Y9782875D01*
X313391Y9756845D01*
X275509Y9724491D01*
X243154Y9686609D01*
X217125Y9644132D01*
X198060Y9598106D01*
X186430Y9549664D01*
X182521Y9500000D01*
X186430Y9450335D01*
X198060Y9401894D01*
X217125Y9355867D01*
X243154Y9313391D01*
X275509Y9275508D01*
X313391Y9243154D01*
X355868Y9217124D01*
X401894Y9198060D01*
X450335Y9186430D01*
X500000Y9182521D01*
X549665Y9186430D01*
X598106Y9198060D01*
X644132Y9217124D01*
X686609Y9243154D01*
X724491Y9275508D01*
X756846Y9313391D01*
X782875Y9355867D01*
X801940Y9401894D01*
X813570Y9450335D01*
X817479Y9500000D01*
X813570Y9549664D01*
X801940Y9598106D01*
X782875Y9644132D01*
X756846Y9686609D01*
X724491Y9724491D01*
X686609Y9756845D01*
X644132Y9782875D01*
X598106Y9801940D01*
X549665Y9813570D01*
X500000Y9817478D01*
D02*
G37*
G36*
X8694000Y9265306D02*
X8661360Y9262091D01*
X8629975Y9252571D01*
X8601050Y9237110D01*
X8575697Y9216303D01*
X8554890Y9190950D01*
X8539429Y9162025D01*
X8529909Y9130640D01*
X8526694Y9098000D01*
X8529909Y9065360D01*
X8539429Y9033975D01*
X8554890Y9005050D01*
X8575697Y8979697D01*
X8601050Y8958890D01*
X8629975Y8943430D01*
X8661360Y8933909D01*
X8694000Y8930694D01*
X8726640Y8933909D01*
X8758025Y8943430D01*
X8786950Y8958890D01*
X8812303Y8979697D01*
X8833110Y9005050D01*
X8848570Y9033975D01*
X8858091Y9065360D01*
X8861306Y9098000D01*
X8858091Y9130640D01*
X8848570Y9162025D01*
X8833110Y9190950D01*
X8812303Y9216303D01*
X8786950Y9237110D01*
X8758025Y9252571D01*
X8726640Y9262091D01*
X8694000Y9265306D01*
D02*
G37*
G36*
X8194000D02*
X8161360Y9262091D01*
X8129975Y9252571D01*
X8101050Y9237110D01*
X8075697Y9216303D01*
X8054890Y9190950D01*
X8039429Y9162025D01*
X8029909Y9130640D01*
X8026694Y9098000D01*
X8029909Y9065360D01*
X8039429Y9033975D01*
X8054890Y9005050D01*
X8075697Y8979697D01*
X8101050Y8958890D01*
X8129975Y8943430D01*
X8161360Y8933909D01*
X8194000Y8930694D01*
X8226640Y8933909D01*
X8258025Y8943430D01*
X8286950Y8958890D01*
X8312303Y8979697D01*
X8333110Y9005050D01*
X8348570Y9033975D01*
X8358091Y9065360D01*
X8361306Y9098000D01*
X8358091Y9130640D01*
X8348570Y9162025D01*
X8333110Y9190950D01*
X8312303Y9216303D01*
X8286950Y9237110D01*
X8258025Y9252571D01*
X8226640Y9262091D01*
X8194000Y9265306D01*
D02*
G37*
G36*
X7694000D02*
X7661360Y9262091D01*
X7629975Y9252571D01*
X7601050Y9237110D01*
X7575697Y9216303D01*
X7554890Y9190950D01*
X7539430Y9162025D01*
X7529909Y9130640D01*
X7526694Y9098000D01*
X7529909Y9065360D01*
X7539430Y9033975D01*
X7554890Y9005050D01*
X7575697Y8979697D01*
X7601050Y8958890D01*
X7629975Y8943430D01*
X7661360Y8933909D01*
X7694000Y8930694D01*
X7726640Y8933909D01*
X7758025Y8943430D01*
X7786950Y8958890D01*
X7812303Y8979697D01*
X7833110Y9005050D01*
X7848571Y9033975D01*
X7858091Y9065360D01*
X7861306Y9098000D01*
X7858091Y9130640D01*
X7848571Y9162025D01*
X7833110Y9190950D01*
X7812303Y9216303D01*
X7786950Y9237110D01*
X7758025Y9252571D01*
X7726640Y9262091D01*
X7694000Y9265306D01*
D02*
G37*
G36*
X6694000D02*
X6661360Y9262091D01*
X6629975Y9252571D01*
X6601050Y9237110D01*
X6575697Y9216303D01*
X6554890Y9190950D01*
X6539430Y9162025D01*
X6529909Y9130640D01*
X6526694Y9098000D01*
X6529909Y9065360D01*
X6539430Y9033975D01*
X6554890Y9005050D01*
X6575697Y8979697D01*
X6601050Y8958890D01*
X6629975Y8943430D01*
X6661360Y8933909D01*
X6694000Y8930694D01*
X6726640Y8933909D01*
X6758025Y8943430D01*
X6786950Y8958890D01*
X6812303Y8979697D01*
X6833110Y9005050D01*
X6848571Y9033975D01*
X6858091Y9065360D01*
X6861306Y9098000D01*
X6858091Y9130640D01*
X6848571Y9162025D01*
X6833110Y9190950D01*
X6812303Y9216303D01*
X6786950Y9237110D01*
X6758025Y9252571D01*
X6726640Y9262091D01*
X6694000Y9265306D01*
D02*
G37*
G36*
X6194000D02*
X6161360Y9262091D01*
X6129975Y9252571D01*
X6101050Y9237110D01*
X6075697Y9216303D01*
X6054890Y9190950D01*
X6039430Y9162025D01*
X6029909Y9130640D01*
X6026694Y9098000D01*
X6029909Y9065360D01*
X6039430Y9033975D01*
X6054890Y9005050D01*
X6075697Y8979697D01*
X6101050Y8958890D01*
X6129975Y8943430D01*
X6161360Y8933909D01*
X6194000Y8930694D01*
X6226640Y8933909D01*
X6258025Y8943430D01*
X6286950Y8958890D01*
X6312303Y8979697D01*
X6333110Y9005050D01*
X6348570Y9033975D01*
X6358091Y9065360D01*
X6361306Y9098000D01*
X6358091Y9130640D01*
X6348570Y9162025D01*
X6333110Y9190950D01*
X6312303Y9216303D01*
X6286950Y9237110D01*
X6258025Y9252571D01*
X6226640Y9262091D01*
X6194000Y9265306D01*
D02*
G37*
G36*
X5694000D02*
X5661360Y9262091D01*
X5629975Y9252571D01*
X5601050Y9237110D01*
X5575697Y9216303D01*
X5554890Y9190950D01*
X5539430Y9162025D01*
X5529909Y9130640D01*
X5526694Y9098000D01*
X5529909Y9065360D01*
X5539430Y9033975D01*
X5554890Y9005050D01*
X5575697Y8979697D01*
X5601050Y8958890D01*
X5629975Y8943430D01*
X5661360Y8933909D01*
X5694000Y8930694D01*
X5726640Y8933909D01*
X5758025Y8943430D01*
X5786950Y8958890D01*
X5812303Y8979697D01*
X5833110Y9005050D01*
X5848570Y9033975D01*
X5858091Y9065360D01*
X5861306Y9098000D01*
X5858091Y9130640D01*
X5848570Y9162025D01*
X5833110Y9190950D01*
X5812303Y9216303D01*
X5786950Y9237110D01*
X5758025Y9252571D01*
X5726640Y9262091D01*
X5694000Y9265306D01*
D02*
G37*
G36*
X4694000D02*
X4661360Y9262091D01*
X4629975Y9252571D01*
X4601050Y9237110D01*
X4575697Y9216303D01*
X4554890Y9190950D01*
X4539430Y9162025D01*
X4529909Y9130640D01*
X4526694Y9098000D01*
X4529909Y9065360D01*
X4539430Y9033975D01*
X4554890Y9005050D01*
X4575697Y8979697D01*
X4601050Y8958890D01*
X4629975Y8943430D01*
X4661360Y8933909D01*
X4694000Y8930694D01*
X4726640Y8933909D01*
X4758025Y8943430D01*
X4786950Y8958890D01*
X4812303Y8979697D01*
X4833110Y9005050D01*
X4848570Y9033975D01*
X4858091Y9065360D01*
X4861306Y9098000D01*
X4858091Y9130640D01*
X4848570Y9162025D01*
X4833110Y9190950D01*
X4812303Y9216303D01*
X4786950Y9237110D01*
X4758025Y9252571D01*
X4726640Y9262091D01*
X4694000Y9265306D01*
D02*
G37*
G36*
X4194000D02*
X4161360Y9262091D01*
X4129975Y9252571D01*
X4101050Y9237110D01*
X4075697Y9216303D01*
X4054890Y9190950D01*
X4039430Y9162025D01*
X4029909Y9130640D01*
X4026694Y9098000D01*
X4029909Y9065360D01*
X4039430Y9033975D01*
X4054890Y9005050D01*
X4075697Y8979697D01*
X4101050Y8958890D01*
X4129975Y8943430D01*
X4161360Y8933909D01*
X4194000Y8930694D01*
X4226640Y8933909D01*
X4258025Y8943430D01*
X4286950Y8958890D01*
X4312303Y8979697D01*
X4333110Y9005050D01*
X4348570Y9033975D01*
X4358091Y9065360D01*
X4361306Y9098000D01*
X4358091Y9130640D01*
X4348570Y9162025D01*
X4333110Y9190950D01*
X4312303Y9216303D01*
X4286950Y9237110D01*
X4258025Y9252571D01*
X4226640Y9262091D01*
X4194000Y9265306D01*
D02*
G37*
G36*
X3694000D02*
X3661360Y9262091D01*
X3629975Y9252571D01*
X3601050Y9237110D01*
X3575697Y9216303D01*
X3554890Y9190950D01*
X3539430Y9162025D01*
X3529909Y9130640D01*
X3526694Y9098000D01*
X3529909Y9065360D01*
X3539430Y9033975D01*
X3554890Y9005050D01*
X3575697Y8979697D01*
X3601050Y8958890D01*
X3629975Y8943430D01*
X3661360Y8933909D01*
X3694000Y8930694D01*
X3726640Y8933909D01*
X3758025Y8943430D01*
X3786950Y8958890D01*
X3812303Y8979697D01*
X3833110Y9005050D01*
X3848570Y9033975D01*
X3858091Y9065360D01*
X3861306Y9098000D01*
X3858091Y9130640D01*
X3848570Y9162025D01*
X3833110Y9190950D01*
X3812303Y9216303D01*
X3786950Y9237110D01*
X3758025Y9252571D01*
X3726640Y9262091D01*
X3694000Y9265306D01*
D02*
G37*
G36*
X2694000D02*
X2661360Y9262091D01*
X2629975Y9252571D01*
X2601050Y9237110D01*
X2575697Y9216303D01*
X2554890Y9190950D01*
X2539430Y9162025D01*
X2529909Y9130640D01*
X2526694Y9098000D01*
X2529909Y9065360D01*
X2539430Y9033975D01*
X2554890Y9005050D01*
X2575697Y8979697D01*
X2601050Y8958890D01*
X2629975Y8943430D01*
X2661360Y8933909D01*
X2694000Y8930694D01*
X2726640Y8933909D01*
X2758025Y8943430D01*
X2786950Y8958890D01*
X2812303Y8979697D01*
X2833110Y9005050D01*
X2848570Y9033975D01*
X2858091Y9065360D01*
X2861306Y9098000D01*
X2858091Y9130640D01*
X2848570Y9162025D01*
X2833110Y9190950D01*
X2812303Y9216303D01*
X2786950Y9237110D01*
X2758025Y9252571D01*
X2726640Y9262091D01*
X2694000Y9265306D01*
D02*
G37*
G36*
X2194000D02*
X2161360Y9262091D01*
X2129975Y9252571D01*
X2101050Y9237110D01*
X2075697Y9216303D01*
X2054890Y9190950D01*
X2039429Y9162025D01*
X2029909Y9130640D01*
X2026694Y9098000D01*
X2029909Y9065360D01*
X2039429Y9033975D01*
X2054890Y9005050D01*
X2075697Y8979697D01*
X2101050Y8958890D01*
X2129975Y8943430D01*
X2161360Y8933909D01*
X2194000Y8930694D01*
X2226640Y8933909D01*
X2258025Y8943430D01*
X2286950Y8958890D01*
X2312303Y8979697D01*
X2333110Y9005050D01*
X2348570Y9033975D01*
X2358091Y9065360D01*
X2361306Y9098000D01*
X2358091Y9130640D01*
X2348570Y9162025D01*
X2333110Y9190950D01*
X2312303Y9216303D01*
X2286950Y9237110D01*
X2258025Y9252571D01*
X2226640Y9262091D01*
X2194000Y9265306D01*
D02*
G37*
G36*
X1694000D02*
X1661360Y9262091D01*
X1629975Y9252571D01*
X1601050Y9237110D01*
X1575697Y9216303D01*
X1554890Y9190950D01*
X1539429Y9162025D01*
X1529909Y9130640D01*
X1526694Y9098000D01*
X1529909Y9065360D01*
X1539429Y9033975D01*
X1554890Y9005050D01*
X1575697Y8979697D01*
X1601050Y8958890D01*
X1629975Y8943430D01*
X1661360Y8933909D01*
X1694000Y8930694D01*
X1726639Y8933909D01*
X1758025Y8943430D01*
X1786950Y8958890D01*
X1812303Y8979697D01*
X1833109Y9005050D01*
X1848570Y9033975D01*
X1858091Y9065360D01*
X1861305Y9098000D01*
X1858091Y9130640D01*
X1848570Y9162025D01*
X1833109Y9190950D01*
X1812303Y9216303D01*
X1786950Y9237110D01*
X1758025Y9252571D01*
X1726639Y9262091D01*
X1694000Y9265306D01*
D02*
G37*
G36*
X8925000Y8497592D02*
X8891977Y8493244D01*
X8861204Y8480498D01*
X8834779Y8460221D01*
X8814502Y8433796D01*
X8801756Y8403023D01*
X8797408Y8370000D01*
X8801756Y8336977D01*
X8814502Y8306204D01*
X8834779Y8279779D01*
X8861204Y8259502D01*
X8891977Y8246756D01*
X8925000Y8242408D01*
X8958023Y8246756D01*
X8988796Y8259502D01*
X9015221Y8279779D01*
X9035498Y8306204D01*
X9048244Y8336977D01*
X9052591Y8370000D01*
X9048244Y8403023D01*
X9035498Y8433796D01*
X9015221Y8460221D01*
X8988796Y8480498D01*
X8958023Y8493244D01*
X8925000Y8497592D01*
D02*
G37*
G36*
X7575000D02*
X7541977Y8493244D01*
X7511204Y8480498D01*
X7484779Y8460221D01*
X7464502Y8433796D01*
X7451756Y8403023D01*
X7447409Y8370000D01*
X7451756Y8336977D01*
X7464502Y8306204D01*
X7484779Y8279779D01*
X7511204Y8259502D01*
X7541977Y8246756D01*
X7575000Y8242408D01*
X7608023Y8246756D01*
X7638796Y8259502D01*
X7665221Y8279779D01*
X7685498Y8306204D01*
X7698244Y8336977D01*
X7702592Y8370000D01*
X7698244Y8403023D01*
X7685498Y8433796D01*
X7665221Y8460221D01*
X7638796Y8480498D01*
X7608023Y8493244D01*
X7575000Y8497592D01*
D02*
G37*
G36*
X6775000D02*
X6741977Y8493244D01*
X6711204Y8480498D01*
X6684779Y8460221D01*
X6664502Y8433796D01*
X6651756Y8403023D01*
X6647408Y8370000D01*
X6651756Y8336977D01*
X6664502Y8306204D01*
X6684779Y8279779D01*
X6711204Y8259502D01*
X6741977Y8246756D01*
X6775000Y8242408D01*
X6808023Y8246756D01*
X6838796Y8259502D01*
X6865221Y8279779D01*
X6885498Y8306204D01*
X6898244Y8336977D01*
X6902591Y8370000D01*
X6898244Y8403023D01*
X6885498Y8433796D01*
X6865221Y8460221D01*
X6838796Y8480498D01*
X6808023Y8493244D01*
X6775000Y8497592D01*
D02*
G37*
G36*
X5425000D02*
X5391977Y8493244D01*
X5361204Y8480498D01*
X5334779Y8460221D01*
X5314502Y8433796D01*
X5301756Y8403023D01*
X5297409Y8370000D01*
X5301756Y8336977D01*
X5314502Y8306204D01*
X5334779Y8279779D01*
X5361204Y8259502D01*
X5391977Y8246756D01*
X5425000Y8242408D01*
X5458023Y8246756D01*
X5488796Y8259502D01*
X5515221Y8279779D01*
X5535498Y8306204D01*
X5548244Y8336977D01*
X5552592Y8370000D01*
X5548244Y8403023D01*
X5535498Y8433796D01*
X5515221Y8460221D01*
X5488796Y8480498D01*
X5458023Y8493244D01*
X5425000Y8497592D01*
D02*
G37*
G36*
X4625000D02*
X4591977Y8493244D01*
X4561204Y8480498D01*
X4534779Y8460221D01*
X4514502Y8433796D01*
X4501756Y8403023D01*
X4497408Y8370000D01*
X4501756Y8336977D01*
X4514502Y8306204D01*
X4534779Y8279779D01*
X4561204Y8259502D01*
X4591977Y8246756D01*
X4625000Y8242408D01*
X4658023Y8246756D01*
X4688795Y8259502D01*
X4715220Y8279779D01*
X4735497Y8306204D01*
X4748244Y8336977D01*
X4752591Y8370000D01*
X4748244Y8403023D01*
X4735497Y8433796D01*
X4715220Y8460221D01*
X4688795Y8480498D01*
X4658023Y8493244D01*
X4625000Y8497592D01*
D02*
G37*
G36*
X3275000D02*
X3241977Y8493244D01*
X3211204Y8480498D01*
X3184779Y8460221D01*
X3164502Y8433796D01*
X3151756Y8403023D01*
X3147408Y8370000D01*
X3151756Y8336977D01*
X3164502Y8306204D01*
X3184779Y8279779D01*
X3211204Y8259502D01*
X3241977Y8246756D01*
X3275000Y8242408D01*
X3308023Y8246756D01*
X3338795Y8259502D01*
X3365221Y8279779D01*
X3385497Y8306204D01*
X3398244Y8336977D01*
X3402591Y8370000D01*
X3398244Y8403023D01*
X3385497Y8433796D01*
X3365221Y8460221D01*
X3338795Y8480498D01*
X3308023Y8493244D01*
X3275000Y8497592D01*
D02*
G37*
G36*
X2475000D02*
X2441977Y8493244D01*
X2411204Y8480498D01*
X2384779Y8460221D01*
X2364502Y8433796D01*
X2351756Y8403023D01*
X2347408Y8370000D01*
X2351756Y8336977D01*
X2364502Y8306204D01*
X2384779Y8279779D01*
X2411204Y8259502D01*
X2441977Y8246756D01*
X2475000Y8242408D01*
X2508023Y8246756D01*
X2538796Y8259502D01*
X2565221Y8279779D01*
X2585497Y8306204D01*
X2598244Y8336977D01*
X2602591Y8370000D01*
X2598244Y8403023D01*
X2585497Y8433796D01*
X2565221Y8460221D01*
X2538796Y8480498D01*
X2508023Y8493244D01*
X2475000Y8497592D01*
D02*
G37*
G36*
X1125000D02*
X1091977Y8493244D01*
X1061204Y8480498D01*
X1034779Y8460221D01*
X1014502Y8433796D01*
X1001756Y8403023D01*
X997408Y8370000D01*
X1001756Y8336977D01*
X1014502Y8306204D01*
X1034779Y8279779D01*
X1061204Y8259502D01*
X1091977Y8246756D01*
X1125000Y8242408D01*
X1158023Y8246756D01*
X1188796Y8259502D01*
X1215221Y8279779D01*
X1235498Y8306204D01*
X1248244Y8336977D01*
X1252592Y8370000D01*
X1248244Y8403023D01*
X1235498Y8433796D01*
X1215221Y8460221D01*
X1188796Y8480498D01*
X1158023Y8493244D01*
X1125000Y8497592D01*
D02*
G37*
G36*
X637500Y8149960D02*
X618381Y8146157D01*
X602173Y8135327D01*
X591342Y8119118D01*
X587540Y8100000D01*
X591342Y8080881D01*
X602173Y8064672D01*
X618381Y8053842D01*
X637500Y8050040D01*
X656618Y8053842D01*
X672827Y8064672D01*
X683657Y8080881D01*
X687460Y8100000D01*
X683657Y8119118D01*
X672827Y8135327D01*
X656618Y8146157D01*
X637500Y8149960D01*
D02*
G37*
G36*
X8925000Y8157592D02*
X8891977Y8153244D01*
X8861204Y8140498D01*
X8834779Y8120221D01*
X8814502Y8093796D01*
X8801756Y8063023D01*
X8797408Y8030000D01*
X8801756Y7996977D01*
X8814502Y7966205D01*
X8834779Y7939779D01*
X8861204Y7919503D01*
X8891977Y7906756D01*
X8925000Y7902409D01*
X8958023Y7906756D01*
X8988796Y7919503D01*
X9015221Y7939779D01*
X9035498Y7966205D01*
X9048244Y7996977D01*
X9052591Y8030000D01*
X9048244Y8063023D01*
X9035498Y8093796D01*
X9015221Y8120221D01*
X8988796Y8140498D01*
X8958023Y8153244D01*
X8925000Y8157592D01*
D02*
G37*
G36*
X7575000D02*
X7541977Y8153244D01*
X7511204Y8140498D01*
X7484779Y8120221D01*
X7464502Y8093796D01*
X7451756Y8063023D01*
X7447409Y8030000D01*
X7451756Y7996977D01*
X7464502Y7966205D01*
X7484779Y7939779D01*
X7511204Y7919503D01*
X7541977Y7906756D01*
X7575000Y7902409D01*
X7608023Y7906756D01*
X7638796Y7919503D01*
X7665221Y7939779D01*
X7685498Y7966205D01*
X7698244Y7996977D01*
X7702592Y8030000D01*
X7698244Y8063023D01*
X7685498Y8093796D01*
X7665221Y8120221D01*
X7638796Y8140498D01*
X7608023Y8153244D01*
X7575000Y8157592D01*
D02*
G37*
G36*
X6775000D02*
X6741977Y8153244D01*
X6711204Y8140498D01*
X6684779Y8120221D01*
X6664502Y8093796D01*
X6651756Y8063023D01*
X6647408Y8030000D01*
X6651756Y7996977D01*
X6664502Y7966205D01*
X6684779Y7939779D01*
X6711204Y7919503D01*
X6741977Y7906756D01*
X6775000Y7902409D01*
X6808023Y7906756D01*
X6838796Y7919503D01*
X6865221Y7939779D01*
X6885498Y7966205D01*
X6898244Y7996977D01*
X6902591Y8030000D01*
X6898244Y8063023D01*
X6885498Y8093796D01*
X6865221Y8120221D01*
X6838796Y8140498D01*
X6808023Y8153244D01*
X6775000Y8157592D01*
D02*
G37*
G36*
X5425000D02*
X5391977Y8153244D01*
X5361204Y8140498D01*
X5334779Y8120221D01*
X5314502Y8093796D01*
X5301756Y8063023D01*
X5297409Y8030000D01*
X5301756Y7996977D01*
X5314502Y7966205D01*
X5334779Y7939779D01*
X5361204Y7919503D01*
X5391977Y7906756D01*
X5425000Y7902409D01*
X5458023Y7906756D01*
X5488796Y7919503D01*
X5515221Y7939779D01*
X5535498Y7966205D01*
X5548244Y7996977D01*
X5552592Y8030000D01*
X5548244Y8063023D01*
X5535498Y8093796D01*
X5515221Y8120221D01*
X5488796Y8140498D01*
X5458023Y8153244D01*
X5425000Y8157592D01*
D02*
G37*
G36*
X4625000D02*
X4591977Y8153244D01*
X4561204Y8140498D01*
X4534779Y8120221D01*
X4514502Y8093796D01*
X4501756Y8063023D01*
X4497408Y8030000D01*
X4501756Y7996977D01*
X4514502Y7966205D01*
X4534779Y7939779D01*
X4561204Y7919503D01*
X4591977Y7906756D01*
X4625000Y7902409D01*
X4658023Y7906756D01*
X4688795Y7919503D01*
X4715220Y7939779D01*
X4735497Y7966205D01*
X4748244Y7996977D01*
X4752591Y8030000D01*
X4748244Y8063023D01*
X4735497Y8093796D01*
X4715220Y8120221D01*
X4688795Y8140498D01*
X4658023Y8153244D01*
X4625000Y8157592D01*
D02*
G37*
G36*
X3275000D02*
X3241977Y8153244D01*
X3211204Y8140498D01*
X3184779Y8120221D01*
X3164502Y8093796D01*
X3151756Y8063023D01*
X3147408Y8030000D01*
X3151756Y7996977D01*
X3164502Y7966205D01*
X3184779Y7939779D01*
X3211204Y7919503D01*
X3241977Y7906756D01*
X3275000Y7902409D01*
X3308023Y7906756D01*
X3338795Y7919503D01*
X3365221Y7939779D01*
X3385497Y7966205D01*
X3398244Y7996977D01*
X3402591Y8030000D01*
X3398244Y8063023D01*
X3385497Y8093796D01*
X3365221Y8120221D01*
X3338795Y8140498D01*
X3308023Y8153244D01*
X3275000Y8157592D01*
D02*
G37*
G36*
X2475000D02*
X2441977Y8153244D01*
X2411204Y8140498D01*
X2384779Y8120221D01*
X2364502Y8093796D01*
X2351756Y8063023D01*
X2347408Y8030000D01*
X2351756Y7996977D01*
X2364502Y7966205D01*
X2384779Y7939779D01*
X2411204Y7919503D01*
X2441977Y7906756D01*
X2475000Y7902409D01*
X2508023Y7906756D01*
X2538796Y7919503D01*
X2565221Y7939779D01*
X2585497Y7966205D01*
X2598244Y7996977D01*
X2602591Y8030000D01*
X2598244Y8063023D01*
X2585497Y8093796D01*
X2565221Y8120221D01*
X2538796Y8140498D01*
X2508023Y8153244D01*
X2475000Y8157592D01*
D02*
G37*
G36*
X1125000D02*
X1091977Y8153244D01*
X1061204Y8140498D01*
X1034779Y8120221D01*
X1014502Y8093796D01*
X1001756Y8063023D01*
X997408Y8030000D01*
X1001756Y7996977D01*
X1014502Y7966205D01*
X1034779Y7939779D01*
X1061204Y7919503D01*
X1091977Y7906756D01*
X1125000Y7902409D01*
X1158023Y7906756D01*
X1188796Y7919503D01*
X1215221Y7939779D01*
X1235498Y7966205D01*
X1248244Y7996977D01*
X1252592Y8030000D01*
X1248244Y8063023D01*
X1235498Y8093796D01*
X1215221Y8120221D01*
X1188796Y8140498D01*
X1158023Y8153244D01*
X1125000Y8157592D01*
D02*
G37*
G36*
X162500Y7999960D02*
X143381Y7996157D01*
X127172Y7985327D01*
X116342Y7969118D01*
X112540Y7950000D01*
X116342Y7930881D01*
X127172Y7914673D01*
X143381Y7903842D01*
X162500Y7900040D01*
X181618Y7903842D01*
X197827Y7914673D01*
X208657Y7930881D01*
X212460Y7950000D01*
X208657Y7969118D01*
X197827Y7985327D01*
X181618Y7996157D01*
X162500Y7999960D01*
D02*
G37*
G36*
X375000Y7987460D02*
X355881Y7983657D01*
X339673Y7972827D01*
X328843Y7956619D01*
X325040Y7937500D01*
X328843Y7918381D01*
X339673Y7902173D01*
X355881Y7891343D01*
X375000Y7887540D01*
X394119Y7891343D01*
X410327Y7902173D01*
X421157Y7918381D01*
X424960Y7937500D01*
X421157Y7956619D01*
X410327Y7972827D01*
X394119Y7983657D01*
X375000Y7987460D01*
D02*
G37*
G36*
X9400000Y7887460D02*
X9380881Y7883657D01*
X9364673Y7872827D01*
X9353843Y7856619D01*
X9350040Y7837500D01*
X9353843Y7818381D01*
X9364673Y7802173D01*
X9380881Y7791343D01*
X9400000Y7787540D01*
X9419119Y7791343D01*
X9435327Y7802173D01*
X9446157Y7818381D01*
X9449960Y7837500D01*
X9446157Y7856619D01*
X9435327Y7872827D01*
X9419119Y7883657D01*
X9400000Y7887460D01*
D02*
G37*
G36*
X9567424Y7854157D02*
X9548305Y7850354D01*
X9532097Y7839524D01*
X9521267Y7823316D01*
X9517464Y7804197D01*
X9521267Y7785078D01*
X9532097Y7768870D01*
X9548305Y7758040D01*
X9567424Y7754237D01*
X9586543Y7758040D01*
X9602751Y7768870D01*
X9613581Y7785078D01*
X9617384Y7804197D01*
X9613581Y7823316D01*
X9602751Y7839524D01*
X9586543Y7850354D01*
X9567424Y7854157D01*
D02*
G37*
G36*
X9232576D02*
X9213457Y7850354D01*
X9197249Y7839524D01*
X9186419Y7823316D01*
X9182616Y7804197D01*
X9186419Y7785078D01*
X9197249Y7768870D01*
X9213457Y7758040D01*
X9232576Y7754237D01*
X9251695Y7758040D01*
X9267903Y7768870D01*
X9278733Y7785078D01*
X9282536Y7804197D01*
X9278733Y7823316D01*
X9267903Y7839524D01*
X9251695Y7850354D01*
X9232576Y7854157D01*
D02*
G37*
G36*
X546269Y7812312D02*
X527150Y7808509D01*
X510942Y7797679D01*
X500112Y7781471D01*
X496309Y7762352D01*
X500112Y7743233D01*
X510942Y7727025D01*
X527150Y7716195D01*
X546269Y7712392D01*
X565388Y7716195D01*
X581596Y7727025D01*
X592426Y7743233D01*
X596229Y7762352D01*
X592426Y7781471D01*
X581596Y7797679D01*
X565388Y7808509D01*
X546269Y7812312D01*
D02*
G37*
G36*
X999999Y7762460D02*
X980880Y7758657D01*
X964672Y7747827D01*
X953842Y7731619D01*
X950039Y7712500D01*
X953842Y7693381D01*
X964672Y7677173D01*
X980880Y7666343D01*
X999999Y7662540D01*
X1019118Y7666343D01*
X1035326Y7677173D01*
X1046156Y7693381D01*
X1049959Y7712500D01*
X1046156Y7731619D01*
X1035326Y7747827D01*
X1019118Y7758657D01*
X999999Y7762460D01*
D02*
G37*
G36*
X9090641Y7759319D02*
X9071522Y7755516D01*
X9055314Y7744686D01*
X9044484Y7728478D01*
X9040681Y7709359D01*
X9044484Y7690240D01*
X9055314Y7674032D01*
X9071522Y7663202D01*
X9090641Y7659399D01*
X9109760Y7663202D01*
X9125968Y7674032D01*
X9136798Y7690240D01*
X9140601Y7709359D01*
X9136798Y7728478D01*
X9125968Y7744686D01*
X9109760Y7755516D01*
X9090641Y7759319D01*
D02*
G37*
G36*
X762499Y7662460D02*
X743381Y7658657D01*
X727172Y7647827D01*
X716342Y7631618D01*
X712539Y7612500D01*
X716342Y7593381D01*
X727172Y7577173D01*
X743381Y7566343D01*
X762499Y7562540D01*
X781618Y7566343D01*
X797826Y7577173D01*
X808656Y7593381D01*
X812459Y7612500D01*
X808656Y7631618D01*
X797826Y7647827D01*
X781618Y7658657D01*
X762499Y7662460D01*
D02*
G37*
G36*
X8995803Y7617384D02*
X8976684Y7613581D01*
X8960476Y7602751D01*
X8949646Y7586543D01*
X8945843Y7567424D01*
X8949646Y7548305D01*
X8960476Y7532097D01*
X8976684Y7521267D01*
X8995803Y7517464D01*
X9014922Y7521267D01*
X9031130Y7532097D01*
X9041960Y7548305D01*
X9045763Y7567424D01*
X9041960Y7586543D01*
X9031130Y7602751D01*
X9014922Y7613581D01*
X8995803Y7617384D01*
D02*
G37*
G36*
X8962500Y7449960D02*
X8943381Y7446157D01*
X8927173Y7435327D01*
X8916343Y7419119D01*
X8912540Y7400000D01*
X8916343Y7380881D01*
X8927173Y7364673D01*
X8943381Y7353843D01*
X8962500Y7350040D01*
X8981619Y7353843D01*
X8997827Y7364673D01*
X9008657Y7380881D01*
X9012460Y7400000D01*
X9008657Y7419119D01*
X8997827Y7435327D01*
X8981619Y7446157D01*
X8962500Y7449960D01*
D02*
G37*
G36*
X786467Y7306073D02*
X767348Y7302270D01*
X751139Y7291440D01*
X740309Y7275232D01*
X736507Y7256113D01*
X740309Y7236994D01*
X751139Y7220786D01*
X767348Y7209956D01*
X786467Y7206153D01*
X805585Y7209956D01*
X821794Y7220786D01*
X832624Y7236994D01*
X836427Y7256113D01*
X832624Y7275232D01*
X821794Y7291440D01*
X805585Y7302270D01*
X786467Y7306073D01*
D02*
G37*
G36*
X8995803Y7282536D02*
X8976684Y7278733D01*
X8960476Y7267903D01*
X8949646Y7251695D01*
X8945843Y7232576D01*
X8949646Y7213457D01*
X8960476Y7197249D01*
X8976684Y7186419D01*
X8995803Y7182616D01*
X9014922Y7186419D01*
X9031130Y7197249D01*
X9041960Y7213457D01*
X9045763Y7232576D01*
X9041960Y7251695D01*
X9031130Y7267903D01*
X9014922Y7278733D01*
X8995803Y7282536D01*
D02*
G37*
G36*
X9400000Y7637644D02*
X9353638Y7633078D01*
X9309058Y7619554D01*
X9267972Y7597594D01*
X9231960Y7568040D01*
X9202406Y7532028D01*
X9180445Y7490942D01*
X9166922Y7446362D01*
X9162356Y7400000D01*
X9166922Y7353638D01*
X9180445Y7309058D01*
X9202406Y7267972D01*
X9231960Y7231960D01*
X9267972Y7202406D01*
X9309058Y7180445D01*
X9353638Y7166922D01*
X9400000Y7162356D01*
X9446362Y7166922D01*
X9490942Y7180445D01*
X9532028Y7202406D01*
X9568040Y7231960D01*
X9597594Y7267972D01*
X9619555Y7309058D01*
X9633078Y7353638D01*
X9637644Y7400000D01*
X9633078Y7446362D01*
X9619555Y7490942D01*
X9597594Y7532028D01*
X9568040Y7568040D01*
X9532028Y7597594D01*
X9490942Y7619554D01*
X9446362Y7633078D01*
X9400000Y7637644D01*
D02*
G37*
G36*
X4862500Y7199960D02*
X4843381Y7196157D01*
X4827173Y7185327D01*
X4816343Y7169119D01*
X4812540Y7150000D01*
X4816343Y7130881D01*
X4827173Y7114673D01*
X4843381Y7103843D01*
X4862500Y7100040D01*
X4881619Y7103843D01*
X4897827Y7114673D01*
X4908657Y7130881D01*
X4912460Y7150000D01*
X4908657Y7169119D01*
X4897827Y7185327D01*
X4881619Y7196157D01*
X4862500Y7199960D01*
D02*
G37*
G36*
X565786Y7136013D02*
X546667Y7132211D01*
X530459Y7121380D01*
X519629Y7105172D01*
X517461Y7094274D01*
X504987Y7085743D01*
X501615Y7085647D01*
X485000Y7088952D01*
X465881Y7085149D01*
X449672Y7074319D01*
X438842Y7058111D01*
X435040Y7038992D01*
X438842Y7019873D01*
X449672Y7003665D01*
X465881Y6992835D01*
X485000Y6989032D01*
X504118Y6992835D01*
X520327Y7003665D01*
X531157Y7019873D01*
X533325Y7030771D01*
X545799Y7039302D01*
X549170Y7039398D01*
X565786Y7036093D01*
X584905Y7039896D01*
X601113Y7050726D01*
X611943Y7066935D01*
X615746Y7086053D01*
X611943Y7105172D01*
X601113Y7121380D01*
X584905Y7132211D01*
X565786Y7136013D01*
D02*
G37*
G36*
X815255Y7146394D02*
X796136Y7142592D01*
X779928Y7131761D01*
X769098Y7115553D01*
X765295Y7096434D01*
X769098Y7077316D01*
X779928Y7061107D01*
X796136Y7050277D01*
X815255Y7046474D01*
X834374Y7050277D01*
X850582Y7061107D01*
X861412Y7077316D01*
X865215Y7096434D01*
X861412Y7115553D01*
X850582Y7131761D01*
X834374Y7142592D01*
X815255Y7146394D01*
D02*
G37*
G36*
X9090641Y7140601D02*
X9071522Y7136798D01*
X9055314Y7125968D01*
X9044484Y7109759D01*
X9040681Y7090641D01*
X9044484Y7071522D01*
X9055314Y7055314D01*
X9071522Y7044483D01*
X9090641Y7040681D01*
X9109760Y7044483D01*
X9125968Y7055314D01*
X9136798Y7071522D01*
X9140601Y7090641D01*
X9136798Y7109759D01*
X9125968Y7125968D01*
X9109760Y7136798D01*
X9090641Y7140601D01*
D02*
G37*
G36*
X1668750Y7074960D02*
X1649631Y7071157D01*
X1633423Y7060327D01*
X1622593Y7044119D01*
X1618790Y7025000D01*
X1622593Y7005881D01*
X1633423Y6989673D01*
X1649631Y6978843D01*
X1668750Y6975040D01*
X1687869Y6978843D01*
X1704077Y6989673D01*
X1714907Y7005881D01*
X1718710Y7025000D01*
X1714907Y7044119D01*
X1704077Y7060327D01*
X1687869Y7071157D01*
X1668750Y7074960D01*
D02*
G37*
G36*
X2687500Y7062460D02*
X2668381Y7058657D01*
X2652173Y7047827D01*
X2641343Y7031619D01*
X2637540Y7012500D01*
X2641343Y6993381D01*
X2652173Y6977173D01*
X2668381Y6966343D01*
X2687500Y6962540D01*
X2706619Y6966343D01*
X2722827Y6977173D01*
X2733657Y6993381D01*
X2737460Y7012500D01*
X2733657Y7031619D01*
X2722827Y7047827D01*
X2706619Y7058657D01*
X2687500Y7062460D01*
D02*
G37*
G36*
X9567424Y7045763D02*
X9548305Y7041960D01*
X9532097Y7031130D01*
X9521267Y7014921D01*
X9517464Y6995803D01*
X9521267Y6976684D01*
X9532097Y6960476D01*
X9548305Y6949645D01*
X9567424Y6945843D01*
X9586543Y6949645D01*
X9602751Y6960476D01*
X9613581Y6976684D01*
X9617384Y6995803D01*
X9613581Y7014921D01*
X9602751Y7031130D01*
X9586543Y7041960D01*
X9567424Y7045763D01*
D02*
G37*
G36*
X9232576D02*
X9213457Y7041960D01*
X9197249Y7031130D01*
X9186419Y7014921D01*
X9182616Y6995803D01*
X9186419Y6976684D01*
X9197249Y6960476D01*
X9213457Y6949645D01*
X9232576Y6945843D01*
X9251695Y6949645D01*
X9267903Y6960476D01*
X9278733Y6976684D01*
X9282536Y6995803D01*
X9278733Y7014921D01*
X9267903Y7031130D01*
X9251695Y7041960D01*
X9232576Y7045763D01*
D02*
G37*
G36*
X9400000Y7012460D02*
X9380881Y7008657D01*
X9364673Y6997827D01*
X9353843Y6981619D01*
X9350040Y6962500D01*
X9353843Y6943381D01*
X9364673Y6927173D01*
X9380881Y6916343D01*
X9400000Y6912540D01*
X9419119Y6916343D01*
X9435327Y6927173D01*
X9446157Y6943381D01*
X9449960Y6962500D01*
X9446157Y6981619D01*
X9435327Y6997827D01*
X9419119Y7008657D01*
X9400000Y7012460D01*
D02*
G37*
G36*
X1324999Y7012460D02*
X1305880Y7008657D01*
X1289672Y6997827D01*
X1278842Y6981618D01*
X1275039Y6962500D01*
X1278842Y6943381D01*
X1289672Y6927173D01*
X1305880Y6916343D01*
X1324999Y6912540D01*
X1344118Y6916343D01*
X1360326Y6927173D01*
X1371156Y6943381D01*
X1374959Y6962500D01*
X1371156Y6981618D01*
X1360326Y6997827D01*
X1344118Y7008657D01*
X1324999Y7012460D01*
D02*
G37*
G36*
X5650000Y6887460D02*
X5630881Y6883657D01*
X5614673Y6872827D01*
X5603843Y6856619D01*
X5601646Y6845575D01*
X5601396Y6844323D01*
X5586103D01*
X5585854Y6845574D01*
X5583657Y6856619D01*
X5572827Y6872827D01*
X5556619Y6883657D01*
X5537500Y6887460D01*
X5518381Y6883657D01*
X5502173Y6872827D01*
X5491343Y6856619D01*
X5489146Y6845575D01*
X5488897Y6844323D01*
X5473603D01*
X5473354Y6845574D01*
X5471157Y6856619D01*
X5460327Y6872827D01*
X5444119Y6883657D01*
X5425000Y6887460D01*
X5405881Y6883657D01*
X5389673Y6872827D01*
X5378843Y6856619D01*
X5375040Y6837500D01*
X5378843Y6818381D01*
X5389673Y6802173D01*
X5405881Y6791343D01*
X5425000Y6787540D01*
X5444119Y6791343D01*
X5460327Y6802173D01*
X5471157Y6818381D01*
X5473354Y6829425D01*
X5473603Y6830677D01*
X5488897D01*
X5489146Y6829426D01*
X5491343Y6818381D01*
X5502173Y6802173D01*
X5518381Y6791343D01*
X5537500Y6787540D01*
X5556619Y6791343D01*
X5572827Y6802173D01*
X5583657Y6818381D01*
X5585854Y6829425D01*
X5586103Y6830677D01*
X5601396D01*
X5601646Y6829426D01*
X5603843Y6818381D01*
X5614673Y6802173D01*
X5630881Y6791343D01*
X5650000Y6787540D01*
X5669119Y6791343D01*
X5685327Y6802173D01*
X5696157Y6818381D01*
X5699960Y6837500D01*
X5696157Y6856619D01*
X5685327Y6872827D01*
X5669119Y6883657D01*
X5650000Y6887460D01*
D02*
G37*
G36*
X1714373Y6896993D02*
X1695254Y6893190D01*
X1679046Y6882360D01*
X1668216Y6866152D01*
X1664413Y6847033D01*
X1668216Y6827914D01*
X1679046Y6811706D01*
X1695254Y6800876D01*
X1714373Y6797073D01*
X1733492Y6800876D01*
X1749700Y6811706D01*
X1760530Y6827914D01*
X1764333Y6847033D01*
X1760530Y6866152D01*
X1749700Y6882360D01*
X1733492Y6893190D01*
X1714373Y6896993D01*
D02*
G37*
G36*
X7650000Y6887460D02*
X7630881Y6883657D01*
X7614673Y6872827D01*
X7603843Y6856619D01*
X7600040Y6837500D01*
X7603843Y6818381D01*
X7614673Y6802173D01*
X7630881Y6791343D01*
X7650000Y6787540D01*
X7669119Y6791343D01*
X7685327Y6802173D01*
X7696157Y6818381D01*
X7699960Y6837500D01*
X7696157Y6856619D01*
X7685327Y6872827D01*
X7669119Y6883657D01*
X7650000Y6887460D01*
D02*
G37*
G36*
X3650000D02*
X3630881Y6883657D01*
X3614673Y6872827D01*
X3603843Y6856619D01*
X3600040Y6837500D01*
X3603843Y6818381D01*
X3614673Y6802173D01*
X3630881Y6791343D01*
X3650000Y6787540D01*
X3669119Y6791343D01*
X3685327Y6802173D01*
X3696157Y6818381D01*
X3699960Y6837500D01*
X3696157Y6856619D01*
X3685327Y6872827D01*
X3669119Y6883657D01*
X3650000Y6887460D01*
D02*
G37*
G36*
X2225000Y6587460D02*
X2205881Y6583657D01*
X2189673Y6572827D01*
X2178843Y6556619D01*
X2175040Y6537500D01*
X2178843Y6518381D01*
X2189673Y6502173D01*
X2205881Y6491343D01*
X2225000Y6487540D01*
X2244119Y6491343D01*
X2260327Y6502173D01*
X2271157Y6518381D01*
X2274960Y6537500D01*
X2271157Y6556619D01*
X2260327Y6572827D01*
X2244119Y6583657D01*
X2225000Y6587460D01*
D02*
G37*
G36*
X659999Y6551452D02*
X640881Y6547649D01*
X624672Y6536819D01*
X613842Y6520611D01*
X610039Y6501492D01*
X613842Y6482373D01*
X624672Y6466165D01*
X640881Y6455335D01*
X659999Y6451532D01*
X679118Y6455335D01*
X695326Y6466165D01*
X696111D01*
X705064Y6452766D01*
X721272Y6441936D01*
X740391Y6438133D01*
X759510Y6441936D01*
X775718Y6452766D01*
X786548Y6468974D01*
X790351Y6488093D01*
X786548Y6507212D01*
X775718Y6523420D01*
X759510Y6534250D01*
X740391Y6538053D01*
X721272Y6534250D01*
X705064Y6523420D01*
X704279D01*
X695327Y6536819D01*
X679118Y6547649D01*
X659999Y6551452D01*
D02*
G37*
G36*
X1012500Y6537460D02*
X993381Y6533657D01*
X977173Y6522827D01*
X966343Y6506619D01*
X962540Y6487500D01*
X966343Y6468381D01*
X977173Y6452173D01*
X993381Y6441343D01*
X1012500Y6437540D01*
X1031619Y6441343D01*
X1047827Y6452173D01*
X1058657Y6468381D01*
X1062460Y6487500D01*
X1058657Y6506619D01*
X1047827Y6522827D01*
X1031619Y6533657D01*
X1012500Y6537460D01*
D02*
G37*
G36*
X7350000Y6474960D02*
X7330881Y6471157D01*
X7314673Y6460327D01*
X7303843Y6444119D01*
X7300040Y6425000D01*
X7303843Y6405881D01*
X7314673Y6389673D01*
X7330881Y6378843D01*
X7350000Y6375040D01*
X7369119Y6378843D01*
X7385327Y6389673D01*
X7396157Y6405881D01*
X7399960Y6425000D01*
X7396157Y6444119D01*
X7385327Y6460327D01*
X7369119Y6471157D01*
X7350000Y6474960D01*
D02*
G37*
G36*
X2424999Y6435960D02*
X2405880Y6432157D01*
X2389672Y6421327D01*
X2378842Y6405119D01*
X2375039Y6386000D01*
X2378842Y6366881D01*
X2389672Y6350673D01*
X2405880Y6339843D01*
X2424999Y6336040D01*
X2444118Y6339843D01*
X2460326Y6350673D01*
X2471156Y6366881D01*
X2474959Y6386000D01*
X2471156Y6405119D01*
X2460326Y6421327D01*
X2444118Y6432157D01*
X2424999Y6435960D01*
D02*
G37*
G36*
X7350000Y6324960D02*
X7330881Y6321157D01*
X7314673Y6310327D01*
X7303843Y6294119D01*
X7300040Y6275000D01*
X7303843Y6255881D01*
X7314673Y6239673D01*
X7330881Y6228843D01*
X7350000Y6225040D01*
X7369119Y6228843D01*
X7385327Y6239673D01*
X7396157Y6255881D01*
X7399960Y6275000D01*
X7396157Y6294119D01*
X7385327Y6310327D01*
X7369119Y6321157D01*
X7350000Y6324960D01*
D02*
G37*
G36*
X3049999Y6324959D02*
X3030881Y6321156D01*
X3014672Y6310326D01*
X3003842Y6294118D01*
X3000039Y6274999D01*
X3003842Y6255880D01*
X3014672Y6239672D01*
X3030881Y6228842D01*
X3049999Y6225039D01*
X3069118Y6228842D01*
X3085327Y6239672D01*
X3096157Y6255880D01*
X3099960Y6274999D01*
X3096157Y6294118D01*
X3085327Y6310326D01*
X3069118Y6321156D01*
X3049999Y6324959D01*
D02*
G37*
G36*
X5312500Y6287460D02*
X5293381Y6283657D01*
X5277173Y6272827D01*
X5266343Y6256619D01*
X5262540Y6237500D01*
X5266343Y6218381D01*
X5277173Y6202173D01*
X5293381Y6191343D01*
X5312500Y6187540D01*
X5331619Y6191343D01*
X5347827Y6202173D01*
X5358657Y6218381D01*
X5362460Y6237500D01*
X5358657Y6256619D01*
X5347827Y6272827D01*
X5331619Y6283657D01*
X5312500Y6287460D01*
D02*
G37*
G36*
X5112500D02*
X5093381Y6283657D01*
X5077173Y6272827D01*
X5066343Y6256619D01*
X5062540Y6237500D01*
X5066343Y6218381D01*
X5077173Y6202173D01*
X5093381Y6191343D01*
X5112500Y6187540D01*
X5131619Y6191343D01*
X5147827Y6202173D01*
X5158657Y6218381D01*
X5162460Y6237500D01*
X5158657Y6256619D01*
X5147827Y6272827D01*
X5131619Y6283657D01*
X5112500Y6287460D01*
D02*
G37*
G36*
X4825000Y6274960D02*
X4805881Y6271157D01*
X4789673Y6260327D01*
X4778843Y6244119D01*
X4775040Y6225000D01*
X4778843Y6205881D01*
X4789673Y6189673D01*
X4805881Y6178843D01*
X4825000Y6175040D01*
X4844119Y6178843D01*
X4860327Y6189673D01*
X4871157Y6205881D01*
X4874960Y6225000D01*
X4871157Y6244119D01*
X4860327Y6260327D01*
X4844119Y6271157D01*
X4825000Y6274960D01*
D02*
G37*
G36*
X4625000D02*
X4605881Y6271157D01*
X4589673Y6260327D01*
X4578843Y6244119D01*
X4575040Y6225000D01*
X4578843Y6205881D01*
X4589673Y6189673D01*
X4605881Y6178843D01*
X4625000Y6175040D01*
X4644119Y6178843D01*
X4660327Y6189673D01*
X4671157Y6205881D01*
X4674960Y6225000D01*
X4671157Y6244119D01*
X4660327Y6260327D01*
X4644119Y6271157D01*
X4625000Y6274960D01*
D02*
G37*
G36*
X7325000Y6199960D02*
X7305881Y6196157D01*
X7289673Y6185327D01*
X7278843Y6169119D01*
X7275040Y6150000D01*
X7278843Y6130881D01*
X7289673Y6114673D01*
X7305881Y6103843D01*
X7325000Y6100040D01*
X7344119Y6103843D01*
X7360327Y6114673D01*
X7371157Y6130881D01*
X7374960Y6150000D01*
X7371157Y6169119D01*
X7360327Y6185327D01*
X7344119Y6196157D01*
X7325000Y6199960D01*
D02*
G37*
G36*
X2037500Y6174960D02*
X2018381Y6171157D01*
X2002173Y6160327D01*
X1991343Y6144119D01*
X1987540Y6125000D01*
X1991343Y6105881D01*
X2002173Y6089673D01*
X2018381Y6078843D01*
X2037500Y6075040D01*
X2056619Y6078843D01*
X2072827Y6089673D01*
X2083657Y6105881D01*
X2087460Y6125000D01*
X2083657Y6144119D01*
X2072827Y6160327D01*
X2056619Y6171157D01*
X2037500Y6174960D01*
D02*
G37*
G36*
X7700000Y6149960D02*
X7680881Y6146157D01*
X7664673Y6135327D01*
X7653843Y6119119D01*
X7650040Y6100000D01*
X7653843Y6080881D01*
X7664673Y6064673D01*
X7680881Y6053843D01*
X7700000Y6050040D01*
X7719119Y6053843D01*
X7735327Y6064673D01*
X7746157Y6080881D01*
X7749960Y6100000D01*
X7746157Y6119119D01*
X7735327Y6135327D01*
X7719119Y6146157D01*
X7700000Y6149960D01*
D02*
G37*
G36*
X3237500Y6324959D02*
X3218381Y6321157D01*
X3202173Y6310326D01*
X3191343Y6294118D01*
X3187540Y6274999D01*
X3191343Y6255881D01*
X3202173Y6239672D01*
X3203554Y6238749D01*
Y6226209D01*
X3201621Y6222001D01*
X3191342Y6206618D01*
X3187539Y6187499D01*
X3191342Y6168380D01*
X3201620Y6152998D01*
X3203553Y6148788D01*
Y6136249D01*
X3202173Y6135327D01*
X3191343Y6119118D01*
X3187540Y6099999D01*
X3191343Y6080881D01*
X3202173Y6064672D01*
X3218381Y6053842D01*
X3237500Y6050039D01*
X3256619Y6053842D01*
X3272827Y6064672D01*
X3283657Y6080881D01*
X3287460Y6099999D01*
X3283657Y6119118D01*
X3273379Y6134500D01*
X3271446Y6138710D01*
Y6151249D01*
X3272827Y6152172D01*
X3283657Y6168380D01*
X3287460Y6187499D01*
X3283657Y6206618D01*
X3272827Y6222826D01*
X3271445Y6223749D01*
Y6236289D01*
X3273379Y6240498D01*
X3283657Y6255881D01*
X3287460Y6274999D01*
X3283657Y6294118D01*
X3272827Y6310326D01*
X3256619Y6321157D01*
X3237500Y6324959D01*
D02*
G37*
G36*
X2862500D02*
X2843381Y6321157D01*
X2827173Y6310326D01*
X2816343Y6294118D01*
X2812540Y6274999D01*
X2816343Y6255881D01*
X2826621Y6240499D01*
X2828554Y6236289D01*
Y6223750D01*
X2827173Y6222827D01*
X2816343Y6206619D01*
X2812540Y6187500D01*
X2816343Y6168381D01*
X2827173Y6152173D01*
X2828554Y6151250D01*
Y6138710D01*
X2826621Y6134501D01*
X2816343Y6119118D01*
X2812540Y6099999D01*
X2816343Y6080881D01*
X2827173Y6064672D01*
X2843381Y6053842D01*
X2862500Y6050039D01*
X2881619Y6053842D01*
X2897827Y6064672D01*
X2908657Y6080881D01*
X2912460Y6099999D01*
X2908657Y6119118D01*
X2897827Y6135327D01*
X2896445Y6136250D01*
Y6148790D01*
X2898379Y6152998D01*
X2908657Y6168381D01*
X2912460Y6187500D01*
X2908657Y6206619D01*
X2898379Y6222001D01*
X2896446Y6226211D01*
Y6238750D01*
X2897827Y6239672D01*
X2908657Y6255881D01*
X2912460Y6274999D01*
X2908657Y6294118D01*
X2897827Y6310326D01*
X2881619Y6321157D01*
X2862500Y6324959D01*
D02*
G37*
G36*
X3049999Y6149959D02*
X3030881Y6146156D01*
X3014672Y6135326D01*
X3003842Y6119118D01*
X3000039Y6099999D01*
X3003842Y6080880D01*
X3014672Y6064672D01*
X3030881Y6053842D01*
X3049999Y6050039D01*
X3069118Y6053842D01*
X3085327Y6064672D01*
X3096157Y6080880D01*
X3099960Y6099999D01*
X3096157Y6119118D01*
X3085327Y6135326D01*
X3069118Y6146156D01*
X3049999Y6149959D01*
D02*
G37*
G36*
X3487500Y6211311D02*
X3462961Y6208081D01*
X3440094Y6198609D01*
X3420458Y6183542D01*
X3405391Y6163906D01*
X3395920Y6141039D01*
X3392689Y6116500D01*
X3395920Y6091961D01*
X3405391Y6069095D01*
X3420458Y6049459D01*
X3440094Y6034391D01*
X3462961Y6024920D01*
X3487500Y6021689D01*
X3512039Y6024920D01*
X3534906Y6034391D01*
X3554542Y6049459D01*
X3569609Y6069095D01*
X3579080Y6091961D01*
X3582311Y6116500D01*
X3579080Y6141039D01*
X3569609Y6163906D01*
X3554542Y6183542D01*
X3534906Y6198609D01*
X3512039Y6208081D01*
X3487500Y6211311D01*
D02*
G37*
G36*
X5312500Y6112460D02*
X5293381Y6108657D01*
X5277173Y6097827D01*
X5266343Y6081619D01*
X5262540Y6062500D01*
X5266343Y6043381D01*
X5277173Y6027173D01*
X5293381Y6016343D01*
X5312500Y6012540D01*
X5331619Y6016343D01*
X5347827Y6027173D01*
X5358657Y6043381D01*
X5362460Y6062500D01*
X5358657Y6081619D01*
X5347827Y6097827D01*
X5331619Y6108657D01*
X5312500Y6112460D01*
D02*
G37*
G36*
X5112500D02*
X5093381Y6108657D01*
X5077173Y6097827D01*
X5066343Y6081619D01*
X5062540Y6062500D01*
X5066343Y6043381D01*
X5077173Y6027173D01*
X5093381Y6016343D01*
X5112500Y6012540D01*
X5131619Y6016343D01*
X5147827Y6027173D01*
X5158657Y6043381D01*
X5162460Y6062500D01*
X5158657Y6081619D01*
X5147827Y6097827D01*
X5131619Y6108657D01*
X5112500Y6112460D01*
D02*
G37*
G36*
X4825000Y6062460D02*
X4805881Y6058657D01*
X4789673Y6047827D01*
X4778843Y6031619D01*
X4775040Y6012500D01*
X4778843Y5993381D01*
X4789673Y5977173D01*
X4805881Y5966343D01*
X4825000Y5962540D01*
X4844119Y5966343D01*
X4860327Y5977173D01*
X4871157Y5993381D01*
X4874960Y6012500D01*
X4871157Y6031619D01*
X4860327Y6047827D01*
X4844119Y6058657D01*
X4825000Y6062460D01*
D02*
G37*
G36*
X4625000D02*
X4605881Y6058657D01*
X4589673Y6047827D01*
X4578843Y6031619D01*
X4575040Y6012500D01*
X4578843Y5993381D01*
X4589673Y5977173D01*
X4605881Y5966343D01*
X4625000Y5962540D01*
X4644119Y5966343D01*
X4660327Y5977173D01*
X4671157Y5993381D01*
X4674960Y6012500D01*
X4671157Y6031619D01*
X4660327Y6047827D01*
X4644119Y6058657D01*
X4625000Y6062460D01*
D02*
G37*
G36*
X1125000Y6049960D02*
X1105881Y6046157D01*
X1089673Y6035327D01*
X1078843Y6019119D01*
X1075040Y6000000D01*
X1078843Y5980881D01*
X1089673Y5964673D01*
X1105881Y5953843D01*
X1125000Y5950040D01*
X1144119Y5953843D01*
X1160327Y5964673D01*
X1171157Y5980881D01*
X1174960Y6000000D01*
X1171157Y6019119D01*
X1160327Y6035327D01*
X1144119Y6046157D01*
X1125000Y6049960D01*
D02*
G37*
G36*
X6062500Y5974960D02*
X6043381Y5971157D01*
X6027173Y5960327D01*
X6016343Y5944119D01*
X6012540Y5925000D01*
X6016343Y5905881D01*
X6027173Y5889673D01*
X6043381Y5878843D01*
X6062500Y5875040D01*
X6081619Y5878843D01*
X6097827Y5889673D01*
X6108657Y5905881D01*
X6112460Y5925000D01*
X6108657Y5944119D01*
X6097827Y5960327D01*
X6081619Y5971157D01*
X6062500Y5974960D01*
D02*
G37*
G36*
X1125000Y5924960D02*
X1105881Y5921157D01*
X1089673Y5910327D01*
X1078843Y5894119D01*
X1075040Y5875000D01*
X1078843Y5855881D01*
X1089673Y5839673D01*
X1105881Y5828843D01*
X1125000Y5825040D01*
X1144119Y5828843D01*
X1160327Y5839673D01*
X1171157Y5855881D01*
X1174960Y5875000D01*
X1171157Y5894119D01*
X1160327Y5910327D01*
X1144119Y5921157D01*
X1125000Y5924960D01*
D02*
G37*
G36*
X3049999Y5923460D02*
X3030881Y5919657D01*
X3014672Y5908827D01*
X3003842Y5892619D01*
X3000039Y5873500D01*
X3003842Y5854381D01*
X3014672Y5838173D01*
X3030881Y5827343D01*
X3049999Y5823540D01*
X3069118Y5827343D01*
X3085327Y5838173D01*
X3096157Y5854381D01*
X3099960Y5873500D01*
X3096157Y5892619D01*
X3085327Y5908827D01*
X3069118Y5919657D01*
X3049999Y5923460D01*
D02*
G37*
G36*
X6406414Y5920621D02*
X6387295Y5916818D01*
X6371087Y5905988D01*
X6360257Y5889780D01*
X6356454Y5870661D01*
X6360257Y5851542D01*
X6371087Y5835334D01*
X6387295Y5824504D01*
X6406414Y5820701D01*
X6425532Y5824504D01*
X6441741Y5835334D01*
X6452571Y5851542D01*
X6456374Y5870661D01*
X6452571Y5889780D01*
X6441741Y5905988D01*
X6425532Y5916818D01*
X6406414Y5920621D01*
D02*
G37*
G36*
X2375000Y5899960D02*
X2355881Y5896157D01*
X2339673Y5885327D01*
X2328843Y5869119D01*
X2325040Y5850000D01*
X2328843Y5830881D01*
X2339673Y5814673D01*
X2355881Y5803843D01*
X2375000Y5800040D01*
X2394119Y5803843D01*
X2410327Y5814673D01*
X2421157Y5830881D01*
X2424960Y5850000D01*
X2421157Y5869119D01*
X2410327Y5885327D01*
X2394119Y5896157D01*
X2375000Y5899960D01*
D02*
G37*
G36*
X3487500Y5957311D02*
X3462961Y5954081D01*
X3440094Y5944609D01*
X3420458Y5929542D01*
X3405391Y5909906D01*
X3395920Y5887039D01*
X3392689Y5862500D01*
X3395920Y5837961D01*
X3405391Y5815095D01*
X3420458Y5795459D01*
X3440094Y5780391D01*
X3462961Y5770920D01*
X3487500Y5767689D01*
X3512039Y5770920D01*
X3534906Y5780391D01*
X3554542Y5795459D01*
X3569609Y5815095D01*
X3579080Y5837961D01*
X3582311Y5862500D01*
X3579080Y5887039D01*
X3569609Y5909906D01*
X3554542Y5929542D01*
X3534906Y5944609D01*
X3512039Y5954081D01*
X3487500Y5957311D01*
D02*
G37*
G36*
X4112500Y5849960D02*
X4093381Y5846157D01*
X4077173Y5835327D01*
X4066343Y5819119D01*
X4062540Y5800000D01*
X4066343Y5780881D01*
X4077173Y5764673D01*
X4093381Y5753843D01*
X4112500Y5750040D01*
X4131619Y5753843D01*
X4147827Y5764673D01*
X4158657Y5780881D01*
X4162460Y5800000D01*
X4158657Y5819119D01*
X4147827Y5835327D01*
X4131619Y5846157D01*
X4112500Y5849960D01*
D02*
G37*
G36*
X7175000Y5787460D02*
X7155881Y5783657D01*
X7139673Y5772827D01*
X7128843Y5756619D01*
X7125040Y5737500D01*
X7128843Y5718381D01*
X7139673Y5702173D01*
X7155881Y5691343D01*
X7175000Y5687540D01*
X7194119Y5691343D01*
X7210327Y5702173D01*
X7221157Y5718381D01*
X7224960Y5737500D01*
X7221157Y5756619D01*
X7210327Y5772827D01*
X7194119Y5783657D01*
X7175000Y5787460D01*
D02*
G37*
G36*
X6775000D02*
X6755881Y5783657D01*
X6739673Y5772827D01*
X6728843Y5756619D01*
X6725040Y5737500D01*
X6728843Y5718381D01*
X6739673Y5702173D01*
X6755881Y5691343D01*
X6775000Y5687540D01*
X6794119Y5691343D01*
X6810327Y5702173D01*
X6821157Y5718381D01*
X6824960Y5737500D01*
X6821157Y5756619D01*
X6810327Y5772827D01*
X6794119Y5783657D01*
X6775000Y5787460D01*
D02*
G37*
G36*
X6400000Y5774960D02*
X6380881Y5771157D01*
X6364673Y5760327D01*
X6353843Y5744119D01*
X6350040Y5725000D01*
X6353843Y5705881D01*
X6364673Y5689673D01*
X6380881Y5678843D01*
X6400000Y5675040D01*
X6419119Y5678843D01*
X6435327Y5689673D01*
X6446157Y5705881D01*
X6449960Y5725000D01*
X6446157Y5744119D01*
X6435327Y5760327D01*
X6419119Y5771157D01*
X6400000Y5774960D01*
D02*
G37*
G36*
X3237500Y5924959D02*
X3218381Y5921157D01*
X3202173Y5910327D01*
X3191343Y5894118D01*
X3187540Y5874999D01*
X3191343Y5855881D01*
X3202173Y5839672D01*
X3203554Y5838749D01*
Y5826209D01*
X3201621Y5822001D01*
X3191342Y5806618D01*
X3187539Y5787499D01*
X3191342Y5768380D01*
X3201620Y5752998D01*
X3203553Y5748788D01*
Y5736249D01*
X3202173Y5735327D01*
X3191343Y5719118D01*
X3187540Y5700000D01*
X3191343Y5680881D01*
X3202173Y5664672D01*
X3218381Y5653842D01*
X3237500Y5650039D01*
X3256619Y5653842D01*
X3272827Y5664672D01*
X3283657Y5680881D01*
X3287460Y5700000D01*
X3283657Y5719118D01*
X3273379Y5734500D01*
X3271446Y5738710D01*
Y5751249D01*
X3272827Y5752172D01*
X3283657Y5768380D01*
X3287460Y5787499D01*
X3283657Y5806618D01*
X3272827Y5822826D01*
X3271445Y5823749D01*
Y5836289D01*
X3273379Y5840498D01*
X3283657Y5855881D01*
X3287460Y5874999D01*
X3283657Y5894118D01*
X3272827Y5910327D01*
X3256619Y5921157D01*
X3237500Y5924959D01*
D02*
G37*
G36*
X2862500Y5923460D02*
X2843381Y5919657D01*
X2827173Y5908827D01*
X2816343Y5892619D01*
X2812540Y5873500D01*
X2816343Y5854381D01*
X2825928Y5840036D01*
X2827431Y5833969D01*
Y5823000D01*
X2827173Y5822827D01*
X2816343Y5806619D01*
X2812540Y5787500D01*
X2816343Y5768381D01*
X2827173Y5752173D01*
X2828554Y5751250D01*
Y5738710D01*
X2826621Y5734501D01*
X2816343Y5719118D01*
X2812540Y5700000D01*
X2816343Y5680881D01*
X2827173Y5664672D01*
X2843381Y5653842D01*
X2862500Y5650039D01*
X2881619Y5653842D01*
X2897827Y5664672D01*
X2908657Y5680881D01*
X2912460Y5700000D01*
X2908657Y5719118D01*
X2897827Y5735327D01*
X2896445Y5736250D01*
Y5748790D01*
X2898379Y5752998D01*
X2908657Y5768381D01*
X2912460Y5787500D01*
X2908657Y5806619D01*
X2899072Y5820964D01*
X2897568Y5827031D01*
Y5838000D01*
X2897827Y5838173D01*
X2908657Y5854381D01*
X2912460Y5873500D01*
X2908657Y5892619D01*
X2897827Y5908827D01*
X2881619Y5919657D01*
X2862500Y5923460D01*
D02*
G37*
G36*
X3049999Y5749959D02*
X3030881Y5746156D01*
X3014672Y5735326D01*
X3003842Y5719118D01*
X3000039Y5699999D01*
X3003842Y5680880D01*
X3014672Y5664672D01*
X3030881Y5653842D01*
X3049999Y5650039D01*
X3069118Y5653842D01*
X3085327Y5664672D01*
X3096157Y5680880D01*
X3099960Y5699999D01*
X3096157Y5719118D01*
X3085327Y5735326D01*
X3069118Y5746156D01*
X3049999Y5749959D01*
D02*
G37*
G36*
X6912500Y5712460D02*
X6893381Y5708657D01*
X6877173Y5697827D01*
X6866343Y5681619D01*
X6862540Y5662500D01*
X6866343Y5643381D01*
X6877173Y5627173D01*
X6893381Y5616343D01*
X6912500Y5612540D01*
X6931619Y5616343D01*
X6947827Y5627173D01*
X6958657Y5643381D01*
X6962460Y5662500D01*
X6958657Y5681619D01*
X6947827Y5697827D01*
X6931619Y5708657D01*
X6912500Y5712460D01*
D02*
G37*
G36*
X1487500Y5674960D02*
X1468381Y5671157D01*
X1452173Y5660327D01*
X1441343Y5644119D01*
X1437540Y5625000D01*
X1441343Y5605881D01*
X1452173Y5589673D01*
X1468381Y5578843D01*
X1487500Y5575040D01*
X1506619Y5578843D01*
X1522827Y5589673D01*
X1533657Y5605881D01*
X1537460Y5625000D01*
X1533657Y5644119D01*
X1522827Y5660327D01*
X1506619Y5671157D01*
X1487500Y5674960D01*
D02*
G37*
G36*
X1250000D02*
X1230881Y5671157D01*
X1214673Y5660327D01*
X1203843Y5644119D01*
X1200040Y5625000D01*
X1203843Y5605881D01*
X1214673Y5589673D01*
X1230881Y5578843D01*
X1250000Y5575040D01*
X1269119Y5578843D01*
X1285327Y5589673D01*
X1296157Y5605881D01*
X1299960Y5625000D01*
X1296157Y5644119D01*
X1285327Y5660327D01*
X1269119Y5671157D01*
X1250000Y5674960D01*
D02*
G37*
G36*
X6175000Y5549960D02*
X6155881Y5546157D01*
X6139673Y5535327D01*
X6128843Y5519119D01*
X6125040Y5500000D01*
X6128843Y5480881D01*
X6139673Y5464673D01*
X6155881Y5453843D01*
X6175000Y5450040D01*
X6194119Y5453843D01*
X6210327Y5464673D01*
X6221157Y5480881D01*
X6224960Y5500000D01*
X6221157Y5519119D01*
X6210327Y5535327D01*
X6194119Y5546157D01*
X6175000Y5549960D01*
D02*
G37*
G36*
X3049999Y5524959D02*
X3030881Y5521156D01*
X3014672Y5510326D01*
X3003842Y5494118D01*
X3000039Y5474999D01*
X3003842Y5455880D01*
X3014672Y5439672D01*
X3030881Y5428842D01*
X3049999Y5425039D01*
X3069118Y5428842D01*
X3085327Y5439672D01*
X3096157Y5455880D01*
X3099960Y5474999D01*
X3096157Y5494118D01*
X3085327Y5510326D01*
X3069118Y5521156D01*
X3049999Y5524959D01*
D02*
G37*
G36*
X6100000Y5449960D02*
X6080881Y5446157D01*
X6064673Y5435327D01*
X6053843Y5419119D01*
X6050040Y5400000D01*
X6053843Y5380881D01*
X6064673Y5364673D01*
X6080881Y5353843D01*
X6100000Y5350040D01*
X6119119Y5353843D01*
X6135327Y5364673D01*
X6146157Y5380881D01*
X6149960Y5400000D01*
X6146157Y5419119D01*
X6135327Y5435327D01*
X6119119Y5446157D01*
X6100000Y5449960D01*
D02*
G37*
G36*
X3237500Y5524959D02*
X3218381Y5521157D01*
X3202173Y5510327D01*
X3191343Y5494118D01*
X3187540Y5474999D01*
X3191343Y5455881D01*
X3201621Y5440498D01*
X3203554Y5436289D01*
Y5426209D01*
X3201621Y5422001D01*
X3191342Y5406618D01*
X3187539Y5387499D01*
X3191342Y5368380D01*
X3201620Y5352998D01*
X3203553Y5348788D01*
Y5338710D01*
X3201620Y5334500D01*
X3191343Y5319118D01*
X3187540Y5300000D01*
X3191343Y5280881D01*
X3202173Y5264672D01*
X3218381Y5253842D01*
X3237500Y5250040D01*
X3256619Y5253842D01*
X3272827Y5264672D01*
X3283657Y5280881D01*
X3287460Y5300000D01*
X3283657Y5319118D01*
X3272827Y5335327D01*
X3271446Y5336249D01*
Y5351249D01*
X3272827Y5352172D01*
X3283657Y5368380D01*
X3287460Y5387499D01*
X3283657Y5406618D01*
X3273378Y5422000D01*
X3271445Y5426209D01*
Y5436289D01*
X3273379Y5440498D01*
X3283657Y5455881D01*
X3287460Y5474999D01*
X3283657Y5494118D01*
X3272827Y5510327D01*
X3256619Y5521157D01*
X3237500Y5524959D01*
D02*
G37*
G36*
X2862500D02*
X2843381Y5521157D01*
X2827173Y5510327D01*
X2816343Y5494118D01*
X2812540Y5474999D01*
X2816343Y5455881D01*
X2827173Y5439672D01*
X2828554Y5438750D01*
Y5423750D01*
X2827173Y5422827D01*
X2816343Y5406619D01*
X2812540Y5387500D01*
X2816343Y5368381D01*
X2826621Y5352999D01*
X2828554Y5348790D01*
Y5338710D01*
X2826621Y5334501D01*
X2816343Y5319118D01*
X2812540Y5300000D01*
X2816343Y5280881D01*
X2827173Y5264672D01*
X2843381Y5253842D01*
X2862500Y5250040D01*
X2881619Y5253842D01*
X2897827Y5264672D01*
X2908657Y5280881D01*
X2912460Y5300000D01*
X2908657Y5319118D01*
X2898379Y5334501D01*
X2896445Y5338710D01*
Y5348790D01*
X2898379Y5352998D01*
X2908657Y5368381D01*
X2912460Y5387500D01*
X2908657Y5406619D01*
X2897827Y5422827D01*
X2896446Y5423750D01*
Y5438750D01*
X2897827Y5439672D01*
X2908657Y5455881D01*
X2912460Y5474999D01*
X2908657Y5494118D01*
X2897827Y5510327D01*
X2881619Y5521157D01*
X2862500Y5524959D01*
D02*
G37*
G36*
X3049999Y5349959D02*
X3030881Y5346156D01*
X3014672Y5335326D01*
X3003842Y5319118D01*
X3000039Y5299999D01*
X3003842Y5280880D01*
X3014672Y5264672D01*
X3030881Y5253842D01*
X3049999Y5250039D01*
X3069118Y5253842D01*
X3085327Y5264672D01*
X3096157Y5280880D01*
X3099960Y5299999D01*
X3096157Y5319118D01*
X3085327Y5335326D01*
X3069118Y5346156D01*
X3049999Y5349959D01*
D02*
G37*
G36*
X3487500Y5386311D02*
X3462961Y5383080D01*
X3440094Y5373609D01*
X3420458Y5358541D01*
X3405391Y5338906D01*
X3395920Y5316039D01*
X3392689Y5291500D01*
X3395920Y5266961D01*
X3405391Y5244094D01*
X3420458Y5224458D01*
X3440094Y5209391D01*
X3462961Y5199919D01*
X3487500Y5196689D01*
X3512039Y5199919D01*
X3534906Y5209391D01*
X3554542Y5224458D01*
X3569609Y5244094D01*
X3579080Y5266961D01*
X3582311Y5291500D01*
X3579080Y5316039D01*
X3569609Y5338906D01*
X3554542Y5358541D01*
X3534906Y5373609D01*
X3512039Y5383080D01*
X3487500Y5386311D01*
D02*
G37*
G36*
X3049999Y5124959D02*
X3030881Y5121156D01*
X3014672Y5110326D01*
X3003842Y5094118D01*
X3000039Y5074999D01*
X3003842Y5055880D01*
X3014672Y5039672D01*
X3030881Y5028842D01*
X3049999Y5025039D01*
X3069118Y5028842D01*
X3085327Y5039672D01*
X3096157Y5055880D01*
X3099960Y5074999D01*
X3096157Y5094118D01*
X3085327Y5110326D01*
X3069118Y5121156D01*
X3049999Y5124959D01*
D02*
G37*
G36*
X3487500Y5132311D02*
X3462961Y5129080D01*
X3440094Y5119609D01*
X3420458Y5104541D01*
X3405391Y5084906D01*
X3395920Y5062039D01*
X3392689Y5037500D01*
X3395920Y5012961D01*
X3405391Y4990094D01*
X3420458Y4970458D01*
X3440094Y4955391D01*
X3462961Y4945919D01*
X3487500Y4942689D01*
X3512039Y4945919D01*
X3534906Y4955391D01*
X3554542Y4970458D01*
X3569609Y4990094D01*
X3579080Y5012961D01*
X3582311Y5037500D01*
X3579080Y5062039D01*
X3569609Y5084906D01*
X3554542Y5104541D01*
X3534906Y5119609D01*
X3512039Y5129080D01*
X3487500Y5132311D01*
D02*
G37*
G36*
X6825000Y5049960D02*
X6805881Y5046157D01*
X6789673Y5035327D01*
X6778843Y5019119D01*
X6775040Y5000000D01*
X6778843Y4980881D01*
X6785897Y4970324D01*
X6789604Y4964545D01*
X6782529Y4951406D01*
X6777173Y4947827D01*
X6766343Y4931619D01*
X6762540Y4912500D01*
X6766343Y4893381D01*
X6777173Y4877173D01*
X6793381Y4866343D01*
X6812500Y4862540D01*
X6831619Y4866343D01*
X6847827Y4877173D01*
X6858657Y4893381D01*
X6862460Y4912500D01*
X6858657Y4931619D01*
X6851603Y4942176D01*
X6847896Y4947955D01*
X6854971Y4961094D01*
X6860327Y4964673D01*
X6871157Y4980881D01*
X6874960Y5000000D01*
X6871157Y5019119D01*
X6860327Y5035327D01*
X6844119Y5046157D01*
X6825000Y5049960D01*
D02*
G37*
G36*
X3237500Y5124960D02*
X3218381Y5121157D01*
X3202173Y5110327D01*
X3191343Y5094118D01*
X3187540Y5075000D01*
X3191343Y5055881D01*
X3201621Y5040498D01*
X3203554Y5036289D01*
Y5026209D01*
X3201621Y5022001D01*
X3191342Y5006618D01*
X3187539Y4987499D01*
X3191342Y4968380D01*
X3202172Y4952172D01*
X3203553Y4951249D01*
Y4936249D01*
X3202173Y4935327D01*
X3191343Y4919118D01*
X3187540Y4900000D01*
X3191343Y4880881D01*
X3202173Y4864673D01*
X3218381Y4853842D01*
X3237500Y4850040D01*
X3256619Y4853842D01*
X3272827Y4864673D01*
X3283657Y4880881D01*
X3287460Y4900000D01*
X3283657Y4919118D01*
X3272827Y4935327D01*
X3271446Y4936249D01*
Y4951249D01*
X3272827Y4952172D01*
X3283657Y4968380D01*
X3287460Y4987499D01*
X3283657Y5006618D01*
X3273378Y5022000D01*
X3271445Y5026209D01*
Y5036289D01*
X3273379Y5040498D01*
X3283657Y5055881D01*
X3287460Y5075000D01*
X3283657Y5094118D01*
X3272827Y5110327D01*
X3256619Y5121157D01*
X3237500Y5124960D01*
D02*
G37*
G36*
X2862500D02*
X2843381Y5121157D01*
X2827173Y5110327D01*
X2816343Y5094118D01*
X2812540Y5075000D01*
X2816343Y5055881D01*
X2827173Y5039672D01*
X2828554Y5038750D01*
Y5023750D01*
X2827173Y5022827D01*
X2816343Y5006619D01*
X2812540Y4987500D01*
X2816343Y4968381D01*
X2826621Y4952999D01*
X2828554Y4948790D01*
Y4938710D01*
X2826621Y4934501D01*
X2816343Y4919118D01*
X2812540Y4900000D01*
X2816343Y4880881D01*
X2827173Y4864673D01*
X2843381Y4853842D01*
X2862500Y4850040D01*
X2881619Y4853842D01*
X2897827Y4864673D01*
X2908657Y4880881D01*
X2912460Y4900000D01*
X2908657Y4919118D01*
X2898379Y4934501D01*
X2896445Y4938710D01*
Y4948790D01*
X2898379Y4952998D01*
X2908657Y4968381D01*
X2912460Y4987500D01*
X2908657Y5006619D01*
X2897827Y5022827D01*
X2896446Y5023750D01*
Y5038750D01*
X2897827Y5039672D01*
X2908657Y5055881D01*
X2912460Y5075000D01*
X2908657Y5094118D01*
X2897827Y5110327D01*
X2881619Y5121157D01*
X2862500Y5124960D01*
D02*
G37*
G36*
X3049999Y4949959D02*
X3030881Y4946156D01*
X3014672Y4935326D01*
X3003842Y4919118D01*
X3000039Y4899999D01*
X3003842Y4880880D01*
X3014672Y4864672D01*
X3030881Y4853842D01*
X3049999Y4850039D01*
X3069118Y4853842D01*
X3085327Y4864672D01*
X3096157Y4880880D01*
X3099960Y4899999D01*
X3096157Y4919118D01*
X3085327Y4935326D01*
X3069118Y4946156D01*
X3049999Y4949959D01*
D02*
G37*
G36*
X3237500Y4724960D02*
X3218381Y4721157D01*
X3202173Y4710327D01*
X3191343Y4694118D01*
X3187540Y4675000D01*
X3191343Y4655881D01*
X3202173Y4639672D01*
X3218381Y4628842D01*
X3237500Y4625040D01*
X3256619Y4628842D01*
X3272827Y4639672D01*
X3283657Y4655881D01*
X3287460Y4675000D01*
X3283657Y4694118D01*
X3272827Y4710327D01*
X3256619Y4721157D01*
X3237500Y4724960D01*
D02*
G37*
G36*
X3049999Y4724959D02*
X3030881Y4721156D01*
X3014672Y4710326D01*
X3003842Y4694118D01*
X3000039Y4674999D01*
X3003842Y4655880D01*
X3014672Y4639672D01*
X3030881Y4628842D01*
X3049999Y4625039D01*
X3069118Y4628842D01*
X3085327Y4639672D01*
X3096157Y4655880D01*
X3099960Y4674999D01*
X3096157Y4694118D01*
X3085327Y4710326D01*
X3069118Y4721156D01*
X3049999Y4724959D01*
D02*
G37*
G36*
X1537500Y4699960D02*
X1518381Y4696157D01*
X1502173Y4685327D01*
X1491343Y4669119D01*
X1487540Y4650000D01*
X1491343Y4630881D01*
X1502173Y4614673D01*
X1518381Y4603843D01*
X1537500Y4600040D01*
X1556619Y4603843D01*
X1572827Y4614673D01*
X1583657Y4630881D01*
X1587460Y4650000D01*
X1583657Y4669119D01*
X1572827Y4685327D01*
X1556619Y4696157D01*
X1537500Y4699960D01*
D02*
G37*
G36*
X6825000Y4599960D02*
X6805881Y4596157D01*
X6789673Y4585327D01*
X6778843Y4569119D01*
X6775040Y4550000D01*
X6778843Y4530881D01*
X6789673Y4514673D01*
X6805881Y4503843D01*
X6825000Y4500040D01*
X6844119Y4503843D01*
X6860327Y4514673D01*
X6871157Y4530881D01*
X6874960Y4550000D01*
X6871157Y4569119D01*
X6860327Y4585327D01*
X6844119Y4596157D01*
X6825000Y4599960D01*
D02*
G37*
G36*
X2862500Y4724960D02*
X2843381Y4721157D01*
X2827173Y4710327D01*
X2816343Y4694118D01*
X2812540Y4675000D01*
X2816343Y4655881D01*
X2827173Y4639672D01*
X2828554Y4638750D01*
Y4623750D01*
X2827173Y4622827D01*
X2816343Y4606619D01*
X2812540Y4587500D01*
X2816343Y4568381D01*
X2826621Y4552999D01*
X2828554Y4548790D01*
Y4538710D01*
X2826621Y4534501D01*
X2816343Y4519118D01*
X2812540Y4500000D01*
X2816343Y4480881D01*
X2827173Y4464673D01*
X2843381Y4453843D01*
X2862500Y4450040D01*
X2881619Y4453843D01*
X2897827Y4464673D01*
X2908657Y4480881D01*
X2912460Y4500000D01*
X2908657Y4519118D01*
X2898379Y4534501D01*
X2896445Y4538710D01*
Y4548790D01*
X2898379Y4552999D01*
X2908657Y4568381D01*
X2912460Y4587500D01*
X2908657Y4606619D01*
X2897827Y4622827D01*
X2896446Y4623750D01*
Y4638750D01*
X2897827Y4639672D01*
X2908657Y4655881D01*
X2912460Y4675000D01*
X2908657Y4694118D01*
X2897827Y4710327D01*
X2881619Y4721157D01*
X2862500Y4724960D01*
D02*
G37*
G36*
X3049999Y4549959D02*
X3030881Y4546156D01*
X3014672Y4535326D01*
X3003842Y4519118D01*
X3000039Y4499999D01*
X3003842Y4480880D01*
X3014672Y4464672D01*
X3030881Y4453842D01*
X3049999Y4450039D01*
X3069118Y4453842D01*
X3085327Y4464672D01*
X3096157Y4480880D01*
X3099960Y4499999D01*
X3096157Y4519118D01*
X3085327Y4535326D01*
X3069118Y4546156D01*
X3049999Y4549959D01*
D02*
G37*
G36*
X1024999Y4424960D02*
X1005880Y4421157D01*
X989672Y4410327D01*
X978842Y4394118D01*
X975039Y4375000D01*
X978842Y4355881D01*
X989672Y4339673D01*
X1005880Y4328842D01*
X1024999Y4325040D01*
X1044118Y4328842D01*
X1060326Y4339673D01*
X1071156Y4355881D01*
X1074959Y4375000D01*
X1071156Y4394118D01*
X1060326Y4410327D01*
X1044118Y4421157D01*
X1024999Y4424960D01*
D02*
G37*
G36*
X900000Y4412460D02*
X880881Y4408657D01*
X864673Y4397827D01*
X853843Y4381619D01*
X850040Y4362500D01*
X853843Y4343381D01*
X864673Y4327173D01*
X880881Y4316343D01*
X900000Y4312540D01*
X919119Y4316343D01*
X935327Y4327173D01*
X946157Y4343381D01*
X949960Y4362500D01*
X946157Y4381619D01*
X935327Y4397827D01*
X919119Y4408657D01*
X900000Y4412460D01*
D02*
G37*
G36*
X2600000Y4349960D02*
X2580881Y4346157D01*
X2564673Y4335327D01*
X2553843Y4319119D01*
X2550989Y4304770D01*
X2543750Y4306210D01*
X2524631Y4302407D01*
X2508423Y4291577D01*
X2497593Y4275369D01*
X2493790Y4256250D01*
X2497593Y4237131D01*
X2508423Y4220923D01*
X2524631Y4210093D01*
X2536292Y4207773D01*
X2550040Y4200000D01*
X2553843Y4180881D01*
X2564673Y4164673D01*
X2580881Y4153843D01*
X2600000Y4150040D01*
X2619119Y4153843D01*
X2635327Y4164673D01*
X2646157Y4180881D01*
X2649960Y4200000D01*
X2646157Y4219119D01*
X2635327Y4235327D01*
X2626550Y4241191D01*
Y4258809D01*
X2635327Y4264673D01*
X2646157Y4280881D01*
X2649960Y4300000D01*
X2646157Y4319119D01*
X2635327Y4335327D01*
X2619119Y4346157D01*
X2600000Y4349960D01*
D02*
G37*
G36*
X962500Y4237460D02*
X943381Y4233657D01*
X927173Y4222827D01*
X916343Y4206619D01*
X912540Y4187500D01*
X916343Y4168381D01*
X927173Y4152173D01*
X943381Y4141343D01*
X962500Y4137540D01*
X981619Y4141343D01*
X997827Y4152173D01*
X1008657Y4168381D01*
X1012460Y4187500D01*
X1008657Y4206619D01*
X997827Y4222827D01*
X981619Y4233657D01*
X962500Y4237460D01*
D02*
G37*
G36*
X2375001Y4149960D02*
X2355882Y4146157D01*
X2339674Y4135327D01*
X2328843Y4119119D01*
X2325041Y4100000D01*
X2328843Y4080881D01*
X2339674Y4064673D01*
X2355882Y4053843D01*
X2375001Y4050040D01*
X2394119Y4053843D01*
X2410328Y4064673D01*
X2421158Y4080881D01*
X2424961Y4100000D01*
X2421158Y4119119D01*
X2410328Y4135327D01*
X2394119Y4146157D01*
X2375001Y4149960D01*
D02*
G37*
G36*
X1925000D02*
X1905882Y4146157D01*
X1889673Y4135327D01*
X1878843Y4119119D01*
X1875040Y4100000D01*
X1878843Y4080881D01*
X1889673Y4064673D01*
X1905882Y4053843D01*
X1925000Y4050040D01*
X1944119Y4053843D01*
X1960328Y4064673D01*
X1971158Y4080881D01*
X1974960Y4100000D01*
X1971158Y4119119D01*
X1960328Y4135327D01*
X1944119Y4146157D01*
X1925000Y4149960D01*
D02*
G37*
G36*
X2150000Y4149960D02*
X2130881Y4146157D01*
X2114673Y4135327D01*
X2103843Y4119119D01*
X2100040Y4100000D01*
X2103843Y4080881D01*
X2114673Y4064673D01*
X2130881Y4053843D01*
X2150000Y4050040D01*
X2169119Y4053843D01*
X2185327Y4064673D01*
X2196157Y4080881D01*
X2199960Y4100000D01*
X2196157Y4119119D01*
X2185327Y4135327D01*
X2169119Y4146157D01*
X2150000Y4149960D01*
D02*
G37*
G36*
X1700000D02*
X1680881Y4146157D01*
X1664673Y4135327D01*
X1653843Y4119119D01*
X1650040Y4100000D01*
X1653843Y4080881D01*
X1664673Y4064673D01*
X1680881Y4053843D01*
X1700000Y4050040D01*
X1719119Y4053843D01*
X1735327Y4064673D01*
X1746157Y4080881D01*
X1749960Y4100000D01*
X1746157Y4119119D01*
X1735327Y4135327D01*
X1719119Y4146157D01*
X1700000Y4149960D01*
D02*
G37*
G36*
X962500Y4112460D02*
X943381Y4108657D01*
X927173Y4097827D01*
X916343Y4081619D01*
X912540Y4062500D01*
X916343Y4043381D01*
X927173Y4027173D01*
X943381Y4016343D01*
X962500Y4012540D01*
X981619Y4016343D01*
X997827Y4027173D01*
X1008657Y4043381D01*
X1012460Y4062500D01*
X1008657Y4081619D01*
X997827Y4097827D01*
X981619Y4108657D01*
X962500Y4112460D01*
D02*
G37*
G36*
X8225000Y3547591D02*
X8191977Y3543244D01*
X8161204Y3530497D01*
X8134779Y3510221D01*
X8114502Y3483795D01*
X8101755Y3453023D01*
X8097408Y3420000D01*
X8101755Y3386977D01*
X8114502Y3356204D01*
X8134779Y3329779D01*
X8161204Y3309502D01*
X8191977Y3296756D01*
X8225000Y3292408D01*
X8258023Y3296756D01*
X8288795Y3309502D01*
X8315220Y3329779D01*
X8335497Y3356204D01*
X8348244Y3386977D01*
X8352591Y3420000D01*
X8348244Y3453023D01*
X8335497Y3483795D01*
X8315220Y3510221D01*
X8288795Y3530497D01*
X8258023Y3543244D01*
X8225000Y3547591D01*
D02*
G37*
G36*
X6875000D02*
X6841977Y3543244D01*
X6811204Y3530497D01*
X6784779Y3510221D01*
X6764502Y3483795D01*
X6751756Y3453023D01*
X6747408Y3420000D01*
X6751756Y3386977D01*
X6764502Y3356204D01*
X6784779Y3329779D01*
X6811204Y3309502D01*
X6841977Y3296756D01*
X6875000Y3292408D01*
X6908023Y3296756D01*
X6938795Y3309502D01*
X6965221Y3329779D01*
X6985497Y3356204D01*
X6998244Y3386977D01*
X7002591Y3420000D01*
X6998244Y3453023D01*
X6985497Y3483795D01*
X6965221Y3510221D01*
X6938795Y3530497D01*
X6908023Y3543244D01*
X6875000Y3547591D01*
D02*
G37*
G36*
X6075000D02*
X6041976Y3543244D01*
X6011204Y3530497D01*
X5984779Y3510221D01*
X5964502Y3483795D01*
X5951755Y3453023D01*
X5947408Y3420000D01*
X5951755Y3386977D01*
X5964502Y3356204D01*
X5984779Y3329779D01*
X6011204Y3309502D01*
X6041976Y3296756D01*
X6075000Y3292408D01*
X6108023Y3296756D01*
X6138795Y3309502D01*
X6165220Y3329779D01*
X6185497Y3356204D01*
X6198244Y3386977D01*
X6202591Y3420000D01*
X6198244Y3453023D01*
X6185497Y3483795D01*
X6165220Y3510221D01*
X6138795Y3530497D01*
X6108023Y3543244D01*
X6075000Y3547591D01*
D02*
G37*
G36*
X4725000D02*
X4691977Y3543244D01*
X4661204Y3530497D01*
X4634779Y3510221D01*
X4614502Y3483795D01*
X4601756Y3453023D01*
X4597408Y3420000D01*
X4601756Y3386977D01*
X4614502Y3356204D01*
X4634779Y3329779D01*
X4661204Y3309502D01*
X4691977Y3296756D01*
X4725000Y3292408D01*
X4758023Y3296756D01*
X4788796Y3309502D01*
X4815220Y3329779D01*
X4835497Y3356204D01*
X4848244Y3386977D01*
X4852591Y3420000D01*
X4848244Y3453023D01*
X4835497Y3483795D01*
X4815220Y3510221D01*
X4788796Y3530497D01*
X4758023Y3543244D01*
X4725000Y3547591D01*
D02*
G37*
G36*
X3925000D02*
X3891976Y3543244D01*
X3861204Y3530497D01*
X3834779Y3510221D01*
X3814502Y3483795D01*
X3801755Y3453023D01*
X3797408Y3420000D01*
X3801755Y3386977D01*
X3814502Y3356204D01*
X3834779Y3329779D01*
X3861204Y3309502D01*
X3891976Y3296756D01*
X3925000Y3292408D01*
X3958023Y3296756D01*
X3988795Y3309502D01*
X4015220Y3329779D01*
X4035497Y3356204D01*
X4048244Y3386977D01*
X4052591Y3420000D01*
X4048244Y3453023D01*
X4035497Y3483795D01*
X4015220Y3510221D01*
X3988795Y3530497D01*
X3958023Y3543244D01*
X3925000Y3547591D01*
D02*
G37*
G36*
X2575000D02*
X2541977Y3543244D01*
X2511204Y3530497D01*
X2484779Y3510221D01*
X2464502Y3483795D01*
X2451756Y3453023D01*
X2447408Y3420000D01*
X2451756Y3386977D01*
X2464502Y3356204D01*
X2484779Y3329779D01*
X2511204Y3309502D01*
X2541977Y3296756D01*
X2575000Y3292408D01*
X2608023Y3296756D01*
X2638795Y3309502D01*
X2665220Y3329779D01*
X2685497Y3356204D01*
X2698244Y3386977D01*
X2702591Y3420000D01*
X2698244Y3453023D01*
X2685497Y3483795D01*
X2665220Y3510221D01*
X2638795Y3530497D01*
X2608023Y3543244D01*
X2575000Y3547591D01*
D02*
G37*
G36*
X1774999D02*
X1741976Y3543244D01*
X1711204Y3530497D01*
X1684779Y3510221D01*
X1664502Y3483795D01*
X1651755Y3453023D01*
X1647408Y3420000D01*
X1651755Y3386977D01*
X1664502Y3356204D01*
X1684779Y3329779D01*
X1711204Y3309502D01*
X1741976Y3296756D01*
X1774999Y3292408D01*
X1808023Y3296756D01*
X1838795Y3309502D01*
X1865220Y3329779D01*
X1885497Y3356204D01*
X1898244Y3386977D01*
X1902591Y3420000D01*
X1898244Y3453023D01*
X1885497Y3483795D01*
X1865220Y3510221D01*
X1838795Y3530497D01*
X1808023Y3543244D01*
X1774999Y3547591D01*
D02*
G37*
G36*
X425000D02*
X391977Y3543244D01*
X361204Y3530497D01*
X334779Y3510221D01*
X314502Y3483795D01*
X301756Y3453023D01*
X297408Y3420000D01*
X301756Y3386977D01*
X314502Y3356204D01*
X334779Y3329779D01*
X361204Y3309502D01*
X391977Y3296756D01*
X425000Y3292408D01*
X458023Y3296756D01*
X488796Y3309502D01*
X515220Y3329779D01*
X535497Y3356204D01*
X548244Y3386977D01*
X552591Y3420000D01*
X548244Y3453023D01*
X535497Y3483795D01*
X515220Y3510221D01*
X488796Y3530497D01*
X458023Y3543244D01*
X425000Y3547591D01*
D02*
G37*
G36*
X8225000Y3207592D02*
X8191977Y3203244D01*
X8161204Y3190498D01*
X8134779Y3170221D01*
X8114502Y3143796D01*
X8101755Y3113023D01*
X8097408Y3080000D01*
X8101755Y3046977D01*
X8114502Y3016204D01*
X8134779Y2989779D01*
X8161204Y2969502D01*
X8191977Y2956756D01*
X8225000Y2952408D01*
X8258023Y2956756D01*
X8288795Y2969502D01*
X8315220Y2989779D01*
X8335497Y3016204D01*
X8348244Y3046977D01*
X8352591Y3080000D01*
X8348244Y3113023D01*
X8335497Y3143796D01*
X8315220Y3170221D01*
X8288795Y3190498D01*
X8258023Y3203244D01*
X8225000Y3207592D01*
D02*
G37*
G36*
X6875000D02*
X6841977Y3203244D01*
X6811204Y3190498D01*
X6784779Y3170221D01*
X6764502Y3143796D01*
X6751756Y3113023D01*
X6747408Y3080000D01*
X6751756Y3046977D01*
X6764502Y3016204D01*
X6784779Y2989779D01*
X6811204Y2969502D01*
X6841977Y2956756D01*
X6875000Y2952408D01*
X6908023Y2956756D01*
X6938795Y2969502D01*
X6965221Y2989779D01*
X6985497Y3016204D01*
X6998244Y3046977D01*
X7002591Y3080000D01*
X6998244Y3113023D01*
X6985497Y3143796D01*
X6965221Y3170221D01*
X6938795Y3190498D01*
X6908023Y3203244D01*
X6875000Y3207592D01*
D02*
G37*
G36*
X6075000D02*
X6041976Y3203244D01*
X6011204Y3190498D01*
X5984779Y3170221D01*
X5964502Y3143796D01*
X5951755Y3113023D01*
X5947408Y3080000D01*
X5951755Y3046977D01*
X5964502Y3016204D01*
X5984779Y2989779D01*
X6011204Y2969502D01*
X6041976Y2956756D01*
X6075000Y2952408D01*
X6108023Y2956756D01*
X6138795Y2969502D01*
X6165220Y2989779D01*
X6185497Y3016204D01*
X6198244Y3046977D01*
X6202591Y3080000D01*
X6198244Y3113023D01*
X6185497Y3143796D01*
X6165220Y3170221D01*
X6138795Y3190498D01*
X6108023Y3203244D01*
X6075000Y3207592D01*
D02*
G37*
G36*
X4725000D02*
X4691977Y3203244D01*
X4661204Y3190498D01*
X4634779Y3170221D01*
X4614502Y3143796D01*
X4601756Y3113023D01*
X4597408Y3080000D01*
X4601756Y3046977D01*
X4614502Y3016204D01*
X4634779Y2989779D01*
X4661204Y2969502D01*
X4691977Y2956756D01*
X4725000Y2952408D01*
X4758023Y2956756D01*
X4788796Y2969502D01*
X4815220Y2989779D01*
X4835497Y3016204D01*
X4848244Y3046977D01*
X4852591Y3080000D01*
X4848244Y3113023D01*
X4835497Y3143796D01*
X4815220Y3170221D01*
X4788796Y3190498D01*
X4758023Y3203244D01*
X4725000Y3207592D01*
D02*
G37*
G36*
X3925000D02*
X3891976Y3203244D01*
X3861204Y3190498D01*
X3834779Y3170221D01*
X3814502Y3143796D01*
X3801755Y3113023D01*
X3797408Y3080000D01*
X3801755Y3046977D01*
X3814502Y3016204D01*
X3834779Y2989779D01*
X3861204Y2969502D01*
X3891976Y2956756D01*
X3925000Y2952408D01*
X3958023Y2956756D01*
X3988795Y2969502D01*
X4015220Y2989779D01*
X4035497Y3016204D01*
X4048244Y3046977D01*
X4052591Y3080000D01*
X4048244Y3113023D01*
X4035497Y3143796D01*
X4015220Y3170221D01*
X3988795Y3190498D01*
X3958023Y3203244D01*
X3925000Y3207592D01*
D02*
G37*
G36*
X2575000D02*
X2541977Y3203244D01*
X2511204Y3190498D01*
X2484779Y3170221D01*
X2464502Y3143796D01*
X2451756Y3113023D01*
X2447408Y3080000D01*
X2451756Y3046977D01*
X2464502Y3016204D01*
X2484779Y2989779D01*
X2511204Y2969502D01*
X2541977Y2956756D01*
X2575000Y2952408D01*
X2608023Y2956756D01*
X2638795Y2969502D01*
X2665220Y2989779D01*
X2685497Y3016204D01*
X2698244Y3046977D01*
X2702591Y3080000D01*
X2698244Y3113023D01*
X2685497Y3143796D01*
X2665220Y3170221D01*
X2638795Y3190498D01*
X2608023Y3203244D01*
X2575000Y3207592D01*
D02*
G37*
G36*
X1774999D02*
X1741976Y3203244D01*
X1711204Y3190498D01*
X1684779Y3170221D01*
X1664502Y3143796D01*
X1651755Y3113023D01*
X1647408Y3080000D01*
X1651755Y3046977D01*
X1664502Y3016204D01*
X1684779Y2989779D01*
X1711204Y2969502D01*
X1741976Y2956756D01*
X1774999Y2952408D01*
X1808023Y2956756D01*
X1838795Y2969502D01*
X1865220Y2989779D01*
X1885497Y3016204D01*
X1898244Y3046977D01*
X1902591Y3080000D01*
X1898244Y3113023D01*
X1885497Y3143796D01*
X1865220Y3170221D01*
X1838795Y3190498D01*
X1808023Y3203244D01*
X1774999Y3207592D01*
D02*
G37*
G36*
X425000D02*
X391977Y3203244D01*
X361204Y3190498D01*
X334779Y3170221D01*
X314502Y3143796D01*
X301756Y3113023D01*
X297408Y3080000D01*
X301756Y3046977D01*
X314502Y3016204D01*
X334779Y2989779D01*
X361204Y2969502D01*
X391977Y2956756D01*
X425000Y2952408D01*
X458023Y2956756D01*
X488796Y2969502D01*
X515220Y2989779D01*
X535497Y3016204D01*
X548244Y3046977D01*
X552591Y3080000D01*
X548244Y3113023D01*
X535497Y3143796D01*
X515220Y3170221D01*
X488796Y3190498D01*
X458023Y3203244D01*
X425000Y3207592D01*
D02*
G37*
G36*
X8324860Y2571336D02*
X8282413Y2567996D01*
X8241012Y2558056D01*
X8201676Y2541763D01*
X8165372Y2519516D01*
X8132996Y2491864D01*
X8105344Y2459488D01*
X8083097Y2423184D01*
X8066804Y2383848D01*
X8056864Y2342446D01*
X8053523Y2300000D01*
X8056864Y2257554D01*
X8066804Y2216152D01*
X8083097Y2176816D01*
X8105344Y2140512D01*
X8132996Y2108136D01*
X8165372Y2080484D01*
X8201676Y2058237D01*
X8241012Y2041944D01*
X8282413Y2032004D01*
X8324860Y2028663D01*
X8367306Y2032004D01*
X8408708Y2041944D01*
X8448044Y2058237D01*
X8484348Y2080484D01*
X8516724Y2108136D01*
X8544376Y2140512D01*
X8566622Y2176816D01*
X8582916Y2216152D01*
X8592856Y2257554D01*
X8596196Y2300000D01*
X8592856Y2342446D01*
X8582916Y2383848D01*
X8566622Y2423184D01*
X8544376Y2459488D01*
X8516724Y2491864D01*
X8484348Y2519516D01*
X8448044Y2541763D01*
X8408708Y2558056D01*
X8367306Y2567996D01*
X8324860Y2571336D01*
D02*
G37*
G36*
X7374900D02*
X7332453Y2567996D01*
X7291052Y2558056D01*
X7251716Y2541763D01*
X7215412Y2519516D01*
X7183036Y2491864D01*
X7155384Y2459488D01*
X7133137Y2423184D01*
X7116844Y2383848D01*
X7106904Y2342446D01*
X7103563Y2300000D01*
X7106904Y2257554D01*
X7116844Y2216152D01*
X7133137Y2176816D01*
X7155384Y2140512D01*
X7183036Y2108136D01*
X7215412Y2080484D01*
X7251716Y2058237D01*
X7291052Y2041944D01*
X7332453Y2032004D01*
X7374900Y2028663D01*
X7417346Y2032004D01*
X7458748Y2041944D01*
X7498084Y2058237D01*
X7534388Y2080484D01*
X7566764Y2108136D01*
X7594416Y2140512D01*
X7616662Y2176816D01*
X7632956Y2216152D01*
X7642896Y2257554D01*
X7646236Y2300000D01*
X7642896Y2342446D01*
X7632956Y2383848D01*
X7616662Y2423184D01*
X7594416Y2459488D01*
X7566764Y2491864D01*
X7534388Y2519516D01*
X7498084Y2541763D01*
X7458748Y2558056D01*
X7417346Y2567996D01*
X7374900Y2571336D01*
D02*
G37*
G36*
X6424940D02*
X6382493Y2567996D01*
X6341092Y2558056D01*
X6301756Y2541763D01*
X6265452Y2519516D01*
X6233076Y2491864D01*
X6205424Y2459488D01*
X6183177Y2423184D01*
X6166884Y2383848D01*
X6156944Y2342446D01*
X6153603Y2300000D01*
X6156944Y2257554D01*
X6166884Y2216152D01*
X6183177Y2176816D01*
X6205424Y2140512D01*
X6233076Y2108136D01*
X6265452Y2080484D01*
X6301756Y2058237D01*
X6341092Y2041944D01*
X6382493Y2032004D01*
X6424940Y2028663D01*
X6467386Y2032004D01*
X6508788Y2041944D01*
X6548124Y2058237D01*
X6584428Y2080484D01*
X6616804Y2108136D01*
X6644456Y2140512D01*
X6666702Y2176816D01*
X6682996Y2216152D01*
X6692936Y2257554D01*
X6696276Y2300000D01*
X6692936Y2342446D01*
X6682996Y2383848D01*
X6666702Y2423184D01*
X6644456Y2459488D01*
X6616804Y2491864D01*
X6584428Y2519516D01*
X6548124Y2541763D01*
X6508788Y2558056D01*
X6467386Y2567996D01*
X6424940Y2571336D01*
D02*
G37*
G36*
X5474980D02*
X5432533Y2567996D01*
X5391132Y2558056D01*
X5351796Y2541763D01*
X5315492Y2519516D01*
X5283116Y2491864D01*
X5255464Y2459488D01*
X5233217Y2423184D01*
X5216924Y2383848D01*
X5206984Y2342446D01*
X5203643Y2300000D01*
X5206984Y2257554D01*
X5216924Y2216152D01*
X5233217Y2176816D01*
X5255464Y2140512D01*
X5283116Y2108136D01*
X5315492Y2080484D01*
X5351796Y2058237D01*
X5391132Y2041944D01*
X5432533Y2032004D01*
X5474980Y2028663D01*
X5517426Y2032004D01*
X5558828Y2041944D01*
X5598164Y2058237D01*
X5634468Y2080484D01*
X5666844Y2108136D01*
X5694496Y2140512D01*
X5716742Y2176816D01*
X5733036Y2216152D01*
X5742976Y2257554D01*
X5746316Y2300000D01*
X5742976Y2342446D01*
X5733036Y2383848D01*
X5716742Y2423184D01*
X5694496Y2459488D01*
X5666844Y2491864D01*
X5634468Y2519516D01*
X5598164Y2541763D01*
X5558828Y2558056D01*
X5517426Y2567996D01*
X5474980Y2571336D01*
D02*
G37*
G36*
X4525020D02*
X4482573Y2567996D01*
X4441172Y2558056D01*
X4401836Y2541763D01*
X4365532Y2519516D01*
X4333156Y2491864D01*
X4305504Y2459488D01*
X4283257Y2423184D01*
X4266964Y2383848D01*
X4257024Y2342446D01*
X4253683Y2300000D01*
X4257024Y2257554D01*
X4266964Y2216152D01*
X4283257Y2176816D01*
X4305504Y2140512D01*
X4333156Y2108136D01*
X4365532Y2080484D01*
X4401836Y2058237D01*
X4441172Y2041944D01*
X4482573Y2032004D01*
X4525020Y2028663D01*
X4567466Y2032004D01*
X4608868Y2041944D01*
X4648204Y2058237D01*
X4684508Y2080484D01*
X4716884Y2108136D01*
X4744536Y2140512D01*
X4766782Y2176816D01*
X4783076Y2216152D01*
X4793016Y2257554D01*
X4796356Y2300000D01*
X4793016Y2342446D01*
X4783076Y2383848D01*
X4766782Y2423184D01*
X4744536Y2459488D01*
X4716884Y2491864D01*
X4684508Y2519516D01*
X4648204Y2541763D01*
X4608868Y2558056D01*
X4567466Y2567996D01*
X4525020Y2571336D01*
D02*
G37*
G36*
X3575060D02*
X3532613Y2567996D01*
X3491212Y2558056D01*
X3451876Y2541763D01*
X3415572Y2519516D01*
X3383196Y2491864D01*
X3355544Y2459488D01*
X3333297Y2423184D01*
X3317004Y2383848D01*
X3307064Y2342446D01*
X3303723Y2300000D01*
X3307064Y2257554D01*
X3317004Y2216152D01*
X3333297Y2176816D01*
X3355544Y2140512D01*
X3383196Y2108136D01*
X3415572Y2080484D01*
X3451876Y2058237D01*
X3491212Y2041944D01*
X3532613Y2032004D01*
X3575060Y2028663D01*
X3617506Y2032004D01*
X3658908Y2041944D01*
X3698244Y2058237D01*
X3734548Y2080484D01*
X3766924Y2108136D01*
X3794576Y2140512D01*
X3816822Y2176816D01*
X3833116Y2216152D01*
X3843056Y2257554D01*
X3846396Y2300000D01*
X3843056Y2342446D01*
X3833116Y2383848D01*
X3816822Y2423184D01*
X3794576Y2459488D01*
X3766924Y2491864D01*
X3734548Y2519516D01*
X3698244Y2541763D01*
X3658908Y2558056D01*
X3617506Y2567996D01*
X3575060Y2571336D01*
D02*
G37*
G36*
X2625100D02*
X2582653Y2567996D01*
X2541252Y2558056D01*
X2501916Y2541763D01*
X2465612Y2519516D01*
X2433236Y2491864D01*
X2405584Y2459488D01*
X2383337Y2423184D01*
X2367044Y2383848D01*
X2357104Y2342446D01*
X2353763Y2300000D01*
X2357104Y2257554D01*
X2367044Y2216152D01*
X2383337Y2176816D01*
X2405584Y2140512D01*
X2433236Y2108136D01*
X2465612Y2080484D01*
X2501916Y2058237D01*
X2541252Y2041944D01*
X2582653Y2032004D01*
X2625100Y2028663D01*
X2667546Y2032004D01*
X2708948Y2041944D01*
X2748284Y2058237D01*
X2784588Y2080484D01*
X2816964Y2108136D01*
X2844616Y2140512D01*
X2866862Y2176816D01*
X2883156Y2216152D01*
X2893096Y2257554D01*
X2896436Y2300000D01*
X2893096Y2342446D01*
X2883156Y2383848D01*
X2866862Y2423184D01*
X2844616Y2459488D01*
X2816964Y2491864D01*
X2784588Y2519516D01*
X2748284Y2541763D01*
X2708948Y2558056D01*
X2667546Y2567996D01*
X2625100Y2571336D01*
D02*
G37*
G36*
X725180D02*
X682733Y2567996D01*
X641332Y2558056D01*
X601996Y2541763D01*
X565692Y2519516D01*
X533316Y2491864D01*
X505664Y2459488D01*
X483417Y2423184D01*
X467124Y2383848D01*
X457184Y2342446D01*
X453843Y2300000D01*
X457184Y2257554D01*
X467124Y2216152D01*
X483417Y2176816D01*
X505664Y2140512D01*
X533316Y2108136D01*
X565692Y2080484D01*
X601996Y2058237D01*
X641332Y2041944D01*
X682733Y2032004D01*
X725180Y2028663D01*
X767626Y2032004D01*
X809028Y2041944D01*
X848364Y2058237D01*
X884668Y2080484D01*
X917044Y2108136D01*
X944696Y2140512D01*
X966942Y2176816D01*
X983236Y2216152D01*
X993176Y2257554D01*
X996516Y2300000D01*
X993176Y2342446D01*
X983236Y2383848D01*
X966942Y2423184D01*
X944696Y2459488D01*
X917044Y2491864D01*
X884668Y2519516D01*
X848364Y2541763D01*
X809028Y2558056D01*
X767626Y2567996D01*
X725180Y2571336D01*
D02*
G37*
G36*
X9401820Y2571738D02*
X9147820D01*
X9110359Y2566806D01*
X9075451Y2552347D01*
X9045474Y2529345D01*
X9022473Y2499369D01*
X9008013Y2464461D01*
X9003082Y2427000D01*
Y2173000D01*
X9008013Y2135539D01*
X9022473Y2100631D01*
X9045474Y2070654D01*
X9075451Y2047653D01*
X9110359Y2033194D01*
X9147820Y2028262D01*
X9401820D01*
X9439281Y2033194D01*
X9474189Y2047653D01*
X9504165Y2070654D01*
X9527167Y2100631D01*
X9541626Y2135539D01*
X9546558Y2173000D01*
Y2427000D01*
X9541626Y2464461D01*
X9527167Y2499369D01*
X9504165Y2529345D01*
X9474189Y2552347D01*
X9439281Y2566806D01*
X9401820Y2571738D01*
D02*
G37*
G36*
X437500Y1162460D02*
X418381Y1158657D01*
X402173Y1147827D01*
X391343Y1131619D01*
X387540Y1112500D01*
X391343Y1093381D01*
X402173Y1077173D01*
X418381Y1066343D01*
X437500Y1062540D01*
X456619Y1066343D01*
X472827Y1077173D01*
X483657Y1093381D01*
X487460Y1112500D01*
X483657Y1131619D01*
X472827Y1147827D01*
X456619Y1158657D01*
X437500Y1162460D01*
D02*
G37*
G36*
X7000000Y874960D02*
X6980881Y871157D01*
X6964673Y860327D01*
X6953843Y844119D01*
X6950040Y825000D01*
X6953843Y805881D01*
X6964673Y789673D01*
X6980881Y778843D01*
X7000000Y775040D01*
X7019119Y778843D01*
X7035327Y789673D01*
X7046157Y805881D01*
X7049960Y825000D01*
X7046157Y844119D01*
X7035327Y860327D01*
X7019119Y871157D01*
X7000000Y874960D01*
D02*
G37*
G36*
X7881250Y787460D02*
X7862131Y783657D01*
X7846749Y773379D01*
X7842539Y771446D01*
X7832461D01*
X7828251Y773379D01*
X7812869Y783657D01*
X7793750Y787460D01*
X7774631Y783657D01*
X7758423Y772827D01*
X7747593Y756619D01*
X7743790Y737500D01*
X7747593Y718381D01*
X7758423Y702173D01*
X7774631Y691343D01*
X7793750Y687540D01*
X7812869Y691343D01*
X7828251Y701621D01*
X7832461Y703554D01*
X7842539D01*
X7846749Y701621D01*
X7862131Y691343D01*
X7881250Y687540D01*
X7900369Y691343D01*
X7916577Y702173D01*
X7927407Y718381D01*
X7931210Y737500D01*
X7927407Y756619D01*
X7916577Y772827D01*
X7900369Y783657D01*
X7881250Y787460D01*
D02*
G37*
G36*
X5100000Y862460D02*
X5080881Y858657D01*
X5064673Y847827D01*
X5053843Y831619D01*
X5050040Y812500D01*
X5053843Y793381D01*
X5064673Y777173D01*
X5080881Y766343D01*
X5100000Y762540D01*
X5119119Y766343D01*
X5135327Y777173D01*
X5146157Y793381D01*
X5149960Y812500D01*
X5146157Y831619D01*
X5135327Y847827D01*
X5119119Y858657D01*
X5100000Y862460D01*
D02*
G37*
G36*
X4037500Y787460D02*
X4018381Y783657D01*
X4002173Y772827D01*
X3991343Y756619D01*
X3987540Y737500D01*
X3991343Y718381D01*
X4002173Y702173D01*
X4018381Y691343D01*
X4037500Y687540D01*
X4056619Y691343D01*
X4072827Y702173D01*
X4083657Y718381D01*
X4087460Y737500D01*
X4083657Y756619D01*
X4072827Y772827D01*
X4056619Y783657D01*
X4037500Y787460D01*
D02*
G37*
G36*
X4317500Y748710D02*
X4298381Y744907D01*
X4282173Y734077D01*
X4271343Y717869D01*
X4267540Y698750D01*
X4271343Y679631D01*
X4282173Y663423D01*
X4298381Y652593D01*
X4317500Y648790D01*
X4336619Y652593D01*
X4352827Y663423D01*
X4363657Y679631D01*
X4367460Y698750D01*
X4363657Y717869D01*
X4352827Y734077D01*
X4336619Y744907D01*
X4317500Y748710D01*
D02*
G37*
G36*
X8117543Y748684D02*
X8098424Y744881D01*
X8082216Y734051D01*
X8071386Y717843D01*
X8067583Y698724D01*
X8071386Y679605D01*
X8082216Y663397D01*
X8098424Y652567D01*
X8117543Y648764D01*
X8136662Y652567D01*
X8152870Y663397D01*
X8163700Y679605D01*
X8167503Y698724D01*
X8163700Y717843D01*
X8152870Y734051D01*
X8136662Y744881D01*
X8117543Y748684D01*
D02*
G37*
G36*
X500000Y817479D02*
X450335Y813570D01*
X401894Y801940D01*
X355868Y782875D01*
X313391Y756846D01*
X275509Y724491D01*
X243154Y686609D01*
X217125Y644132D01*
X198060Y598106D01*
X186430Y549665D01*
X182521Y500000D01*
X186430Y450335D01*
X198060Y401894D01*
X217125Y355868D01*
X243154Y313391D01*
X275509Y275509D01*
X313391Y243154D01*
X355868Y217125D01*
X401894Y198060D01*
X450335Y186430D01*
X500000Y182521D01*
X549665Y186430D01*
X598106Y198060D01*
X644132Y217125D01*
X686609Y243154D01*
X724491Y275509D01*
X756846Y313391D01*
X782875Y355868D01*
X801940Y401894D01*
X813570Y450335D01*
X817479Y500000D01*
X813570Y549665D01*
X801940Y598106D01*
X782875Y644132D01*
X756846Y686609D01*
X724491Y724491D01*
X686609Y756846D01*
X644132Y782875D01*
X598106Y801940D01*
X549665Y813570D01*
X500000Y817479D01*
D02*
G37*
G36*
X4162500Y249960D02*
X4143381Y246157D01*
X4127173Y235327D01*
X4116343Y219119D01*
X4112540Y200000D01*
X4116343Y180881D01*
X4127173Y164673D01*
X4143381Y153843D01*
X4162500Y150040D01*
X4181619Y153843D01*
X4197827Y164673D01*
X4208657Y180881D01*
X4212460Y200000D01*
X4208657Y219119D01*
X4197827Y235327D01*
X4181619Y246157D01*
X4162500Y249960D01*
D02*
G37*
G36*
X8181250Y162460D02*
X8162131Y158657D01*
X8145923Y147827D01*
X8135093Y131619D01*
X8131290Y112500D01*
X8135093Y93381D01*
X8145923Y77173D01*
X8162131Y66343D01*
X8181250Y62540D01*
X8200369Y66343D01*
X8216577Y77173D01*
X8227407Y93381D01*
X8231210Y112500D01*
X8227407Y131619D01*
X8216577Y147827D01*
X8200369Y158657D01*
X8181250Y162460D01*
D02*
G37*
%LPD*%
D49*
X373342Y4326658D02*
X386671Y4339987D01*
X413329D01*
X426658Y4326658D01*
Y4313329D01*
X413329Y4300000D01*
X400000D01*
X413329D01*
X426658Y4286671D01*
Y4273342D01*
X413329Y4260013D01*
X386671D01*
X373342Y4273342D01*
D50*
X725180Y2300000D02*
D03*
X2625100D02*
D03*
X1675140D02*
D03*
X3575060D02*
D03*
X5474980D02*
D03*
X6424940D02*
D03*
X8324860D02*
D03*
X4525020D02*
D03*
X7374900D02*
D03*
D51*
X9274820D02*
D03*
D53*
X3487500Y6116500D02*
D03*
Y5291500D02*
D03*
Y5037500D02*
D03*
Y5862500D02*
D03*
D54*
X9150000Y5150000D02*
D03*
Y5650000D02*
D03*
Y4150000D02*
D03*
Y4650000D02*
D03*
Y3150000D02*
D03*
Y3650000D02*
D03*
X5694000Y9098000D02*
D03*
X7194000D02*
D03*
X5194000D02*
D03*
X3194000D02*
D03*
X1194000D02*
D03*
X4194000D02*
D03*
X4694000D02*
D03*
X2194000D02*
D03*
X2694000D02*
D03*
X6194000D02*
D03*
X6694000D02*
D03*
X3694000D02*
D03*
X8694000D02*
D03*
X8194000D02*
D03*
X7694000D02*
D03*
X1694000D02*
D03*
D55*
X3487500Y4783500D02*
D03*
Y5608500D02*
D03*
D56*
X419999Y7713991D02*
D03*
Y7213991D02*
D03*
D57*
X500000Y728600D02*
D03*
X338355Y661645D02*
D03*
X271400Y500000D02*
D03*
X338355Y338355D02*
D03*
X500000Y271400D02*
D03*
X661645Y338355D02*
D03*
X728600Y500000D02*
D03*
X661645Y661645D02*
D03*
X500000Y9728600D02*
D03*
X338355Y9661644D02*
D03*
X271400Y9500000D02*
D03*
X338355Y9338355D02*
D03*
X500000Y9271400D02*
D03*
X661645Y9338355D02*
D03*
X728600Y9500000D02*
D03*
X661645Y9661644D02*
D03*
X9500000Y728600D02*
D03*
X9338355Y661645D02*
D03*
X9271400Y500000D02*
D03*
X9338355Y338355D02*
D03*
X9500000Y271400D02*
D03*
X9661644Y338355D02*
D03*
X9728600Y500000D02*
D03*
X9661644Y661645D02*
D03*
X9500000Y9728600D02*
D03*
X9338355Y9661644D02*
D03*
X9271400Y9500000D02*
D03*
X9338355Y9338355D02*
D03*
X9500000Y9271400D02*
D03*
X9661644Y9338355D02*
D03*
X9728600Y9500000D02*
D03*
X9661644Y9661644D02*
D03*
D58*
X500000Y500000D02*
D03*
Y9500000D02*
D03*
X9500000Y500000D02*
D03*
Y9500000D02*
D03*
D59*
X8181250Y112500D02*
D03*
X875000Y87500D02*
D03*
X2000000D02*
D03*
X1250000D02*
D03*
X1625000D02*
D03*
X3125000D02*
D03*
X2375000D02*
D03*
X2750000D02*
D03*
X437500Y1112500D02*
D03*
X1700000Y4100000D02*
D03*
X5100000Y812500D02*
D03*
X1925000Y4100000D02*
D03*
X4162500Y200000D02*
D03*
X2375001Y4100000D02*
D03*
X7000000Y825000D02*
D03*
X2150000Y4100000D02*
D03*
X4840000Y4087500D02*
D03*
X4990000D02*
D03*
X5065000D02*
D03*
X4915000D02*
D03*
X5140000D02*
D03*
X4390000D02*
D03*
X4540000D02*
D03*
X4615000D02*
D03*
X4465000D02*
D03*
X4690000D02*
D03*
X1012500Y6487500D02*
D03*
X1668750Y7025000D02*
D03*
X5650000Y6531250D02*
D03*
X6062500Y5925000D02*
D03*
X1324999Y6962500D02*
D03*
X1024999Y4375000D02*
D03*
X5687500Y6950000D02*
D03*
X5525000Y7150000D02*
D03*
Y6950000D02*
D03*
X5350000Y7150000D02*
D03*
Y6950000D02*
D03*
X5175000Y7150000D02*
D03*
Y6950000D02*
D03*
X5312500Y6237500D02*
D03*
X5112500D02*
D03*
X5312500Y6062500D02*
D03*
X5112500D02*
D03*
X4625000Y6012500D02*
D03*
X4825000D02*
D03*
Y6225000D02*
D03*
X4625000D02*
D03*
X7925000Y5912500D02*
D03*
X8225000D02*
D03*
X6387500Y6075000D02*
D03*
X6400000Y5725000D02*
D03*
X6406414Y5870661D02*
D03*
X6612500Y5437500D02*
D03*
X6100000Y5400000D02*
D03*
X7350000Y6425000D02*
D03*
X6175000Y5500000D02*
D03*
X7350000Y6275000D02*
D03*
X6825000Y6412500D02*
D03*
Y4550000D02*
D03*
X1125000Y6000000D02*
D03*
Y5875000D02*
D03*
X6825000Y5000000D02*
D03*
X6912500Y5662500D02*
D03*
X2375000Y5850000D02*
D03*
X6812500Y4912500D02*
D03*
X1250000Y5625000D02*
D03*
X6825000Y6037500D02*
D03*
X7325000Y6150000D02*
D03*
X6775000Y5737500D02*
D03*
X7175000D02*
D03*
X3137500Y4093750D02*
D03*
X2818750Y4400000D02*
D03*
X2487500Y4156250D02*
D03*
X4970000Y4337500D02*
D03*
X4920000Y4387500D02*
D03*
X4970000Y4262500D02*
D03*
X4907500Y4300000D02*
D03*
X4920000Y4212500D02*
D03*
X4957500Y4150000D02*
D03*
X4882500D02*
D03*
X4807500D02*
D03*
X4657500D02*
D03*
X4400000Y4387500D02*
D03*
Y4212500D02*
D03*
X4350000Y4262500D02*
D03*
X4432500Y4150000D02*
D03*
X4582500D02*
D03*
X4507500D02*
D03*
X4412500Y4300000D02*
D03*
X4350000Y4337500D02*
D03*
X4357500Y4150000D02*
D03*
X5499998Y1162500D02*
D03*
X5424999D02*
D03*
X5349999D02*
D03*
X4349998D02*
D03*
X4274999D02*
D03*
X4199999D02*
D03*
X8150041Y1162474D02*
D03*
X8075041D02*
D03*
X8000041D02*
D03*
X9300041D02*
D03*
X9225041D02*
D03*
X9150041D02*
D03*
X8550043D02*
D03*
X8587542Y1099974D02*
D03*
X8625042Y1162474D02*
D03*
X8700042D02*
D03*
X8662542Y1099974D02*
D03*
X8775042Y1162474D02*
D03*
X8737542Y1099974D02*
D03*
X8962542D02*
D03*
X9000042Y1162474D02*
D03*
X8887542Y1099974D02*
D03*
X8925042Y1162474D02*
D03*
X8812542Y1099974D02*
D03*
X9187541D02*
D03*
X9112541D02*
D03*
X9075042Y1162474D02*
D03*
X9037541Y1099974D02*
D03*
X9262541D02*
D03*
X9337541D02*
D03*
X7400043Y1162474D02*
D03*
X7437542Y1099974D02*
D03*
X7475042Y1162474D02*
D03*
X7550042D02*
D03*
X7512542Y1099974D02*
D03*
X7625042Y1162474D02*
D03*
X7587542Y1099974D02*
D03*
X7812542D02*
D03*
X7850042Y1162474D02*
D03*
X7737542Y1099974D02*
D03*
X7775042Y1162474D02*
D03*
X7662542Y1099974D02*
D03*
X8037541D02*
D03*
X7962541D02*
D03*
X7925042Y1162474D02*
D03*
X7887542Y1099974D02*
D03*
X8112541D02*
D03*
X8187541D02*
D03*
X4750000Y1162500D02*
D03*
X4787500Y1100000D02*
D03*
X4825000Y1162500D02*
D03*
X4900000D02*
D03*
X4862500Y1100000D02*
D03*
X4974999Y1162500D02*
D03*
X4937499Y1100000D02*
D03*
X5162499D02*
D03*
X5199999Y1162500D02*
D03*
X5087499Y1100000D02*
D03*
X5124999Y1162500D02*
D03*
X5012499Y1100000D02*
D03*
X5387498D02*
D03*
X5312499D02*
D03*
X5274999Y1162500D02*
D03*
X5237499Y1100000D02*
D03*
X5462498D02*
D03*
X5537498D02*
D03*
X4387498D02*
D03*
X4312498D02*
D03*
X4087499D02*
D03*
X4124999Y1162500D02*
D03*
X4162499Y1100000D02*
D03*
X4237499D02*
D03*
X3862499D02*
D03*
X3974999Y1162500D02*
D03*
X3937499Y1100000D02*
D03*
X4049999Y1162500D02*
D03*
X4012499Y1100000D02*
D03*
X3787499D02*
D03*
X3824999Y1162500D02*
D03*
X3712500Y1100000D02*
D03*
X3750000Y1162500D02*
D03*
X3675000D02*
D03*
X3637500Y1100000D02*
D03*
X3237500Y4675000D02*
D03*
X2862500Y4500000D02*
D03*
Y4675000D02*
D03*
X2862500Y4587500D02*
D03*
X3049999Y4499999D02*
D03*
Y4674999D02*
D03*
X8562500Y6562500D02*
D03*
X8775000Y6350000D02*
D03*
X8762500Y6725000D02*
D03*
X7881250Y737500D02*
D03*
X7793750D02*
D03*
X2550000Y4406250D02*
D03*
X1812500Y4100000D02*
D03*
X5825000Y4275000D02*
D03*
X2543750Y4256250D02*
D03*
X2712500Y5212500D02*
D03*
X4037500Y5262500D02*
D03*
X2507500Y4712500D02*
D03*
X4650000Y4762500D02*
D03*
X3950000Y4756250D02*
D03*
X2375000Y4700000D02*
D03*
X1525000Y4825000D02*
D03*
X1750000Y4675000D02*
D03*
X1537500Y4650000D02*
D03*
X7137500Y4550000D02*
D03*
X7162500Y4775000D02*
D03*
X5950000Y4487500D02*
D03*
X5575000Y4706250D02*
D03*
X5350000Y4725000D02*
D03*
X6237500Y4337500D02*
D03*
X6212500Y5037500D02*
D03*
X5362500Y4875000D02*
D03*
X6887500Y3887500D02*
D03*
X7350000Y6612500D02*
D03*
X8995803Y6567424D02*
D03*
X7650000Y6837500D02*
D03*
X5650000D02*
D03*
X3650000D02*
D03*
X2687500Y7012500D02*
D03*
X5537500Y6837500D02*
D03*
X5425000D02*
D03*
X8117543Y698724D02*
D03*
X4317500Y698750D02*
D03*
X4037500Y737500D02*
D03*
X9400000Y6962500D02*
D03*
X9090641Y7090641D02*
D03*
X8962500Y7400000D02*
D03*
X9090641Y7709359D02*
D03*
X9400000Y7837500D02*
D03*
X9232576Y7804197D02*
D03*
X9567424D02*
D03*
Y6995803D02*
D03*
X9232576D02*
D03*
X8995803Y7232576D02*
D03*
Y7567424D02*
D03*
X4112500Y5800000D02*
D03*
X2600000Y4300000D02*
D03*
Y4200000D02*
D03*
X900000Y4362500D02*
D03*
X962500Y4187500D02*
D03*
Y4062500D02*
D03*
X5000000Y87500D02*
D03*
X4625000D02*
D03*
X5375000D02*
D03*
X3875000D02*
D03*
X3500000D02*
D03*
X4250000D02*
D03*
X9912500Y1437500D02*
D03*
Y1062500D02*
D03*
Y687500D02*
D03*
X9125000Y87500D02*
D03*
X9500000D02*
D03*
X8750000D02*
D03*
X6992000Y9098000D02*
D03*
X7396000Y9098000D02*
D03*
X7194000Y8896000D02*
D03*
X7194000Y9300000D02*
D03*
X7051165Y9240836D02*
D03*
X7336836Y9240835D02*
D03*
X7336835Y8955164D02*
D03*
X7051164Y8955165D02*
D03*
X4992000Y9098000D02*
D03*
X5396000Y9098000D02*
D03*
X5194000Y8896000D02*
D03*
X5194000Y9300000D02*
D03*
X5051165Y9240836D02*
D03*
X5336836Y9240835D02*
D03*
X5336835Y8955164D02*
D03*
X5051164Y8955165D02*
D03*
X2992000Y9098000D02*
D03*
X3396000Y9098000D02*
D03*
X3194000Y8896000D02*
D03*
X3194000Y9300000D02*
D03*
X3051165Y9240836D02*
D03*
X3336836Y9240835D02*
D03*
X3336835Y8955164D02*
D03*
X3051164Y8955165D02*
D03*
X1051164D02*
D03*
X1336835Y8955164D02*
D03*
X1336835Y9240835D02*
D03*
X1051164Y9240836D02*
D03*
X1194000Y9300000D02*
D03*
X1193999Y8896000D02*
D03*
X1395999Y9098000D02*
D03*
X992000Y9098000D02*
D03*
X546269Y7762352D02*
D03*
X9900000Y9225000D02*
D03*
Y9612500D02*
D03*
X9512500Y9912500D02*
D03*
X9125000D02*
D03*
Y9225000D02*
D03*
X7537501Y9575000D02*
D03*
Y9500000D02*
D03*
Y9425000D02*
D03*
Y9350000D02*
D03*
X5537500Y9575000D02*
D03*
Y9500000D02*
D03*
Y9425000D02*
D03*
Y9350000D02*
D03*
X3537500Y9575000D02*
D03*
Y9500000D02*
D03*
Y9425000D02*
D03*
Y9350000D02*
D03*
X1537500D02*
D03*
Y9425000D02*
D03*
Y9500000D02*
D03*
Y9575000D02*
D03*
X875000Y9225000D02*
D03*
Y9912500D02*
D03*
X487500D02*
D03*
X100000Y9612500D02*
D03*
Y9225000D02*
D03*
X875000Y8837500D02*
D03*
X487500D02*
D03*
X100000D02*
D03*
X1250000Y4037500D02*
D03*
X7000000Y4775000D02*
D03*
X8637500Y5968750D02*
D03*
X6043750Y5781250D02*
D03*
X8975000Y5968750D02*
D03*
X4862500Y7150000D02*
D03*
X4012460Y7262545D02*
D03*
X2212450Y7325025D02*
D03*
X3962459Y7325045D02*
D03*
X2274950Y7375025D02*
D03*
X2874951Y7525025D02*
D03*
X4862500Y7550000D02*
D03*
X4037460Y7550044D02*
D03*
X1987451Y7400025D02*
D03*
X6037500Y7549999D02*
D03*
X8037500Y7550000D02*
D03*
X7700000Y6100000D02*
D03*
X8375000Y87500D02*
D03*
X7625000D02*
D03*
X8000000D02*
D03*
X6875000D02*
D03*
X7250000D02*
D03*
X6125000D02*
D03*
X6500000D02*
D03*
X5750000D02*
D03*
X500000D02*
D03*
X87500Y687500D02*
D03*
Y1062500D02*
D03*
Y1437500D02*
D03*
Y1812500D02*
D03*
X4525000Y6737500D02*
D03*
X7187500Y5637500D02*
D03*
X7012500Y5737500D02*
D03*
X6612500Y5725000D02*
D03*
X7293750Y7437500D02*
D03*
X6725000Y7312500D02*
D03*
X6500000Y7375000D02*
D03*
X7487500Y6937500D02*
D03*
X6762500Y6762500D02*
D03*
X7437500D02*
D03*
X6525000Y6750000D02*
D03*
X5725000Y5912500D02*
D03*
X5512500Y5887500D02*
D03*
Y5562500D02*
D03*
X7562500Y6212500D02*
D03*
X7375000Y5950000D02*
D03*
X6275000Y6375000D02*
D03*
X6750000Y6937500D02*
D03*
X6450000Y5275000D02*
D03*
X5912500Y4812500D02*
D03*
X5987500Y5375000D02*
D03*
X5512500Y5112500D02*
D03*
Y5337500D02*
D03*
X5918750Y5931250D02*
D03*
X5712500Y6131250D02*
D03*
X5562500Y6275000D02*
D03*
X5412500Y6225000D02*
D03*
X6550000Y4162500D02*
D03*
X4987500Y5162500D02*
D03*
X4812500Y4987500D02*
D03*
X3950000Y4937500D02*
D03*
X2712500Y5987500D02*
D03*
X2762500Y5612500D02*
D03*
X3412500Y5987500D02*
D03*
X3312500Y5187500D02*
D03*
X2137500Y5175000D02*
D03*
X2400000Y5450000D02*
D03*
X1850000Y4875000D02*
D03*
X1812500Y5112500D02*
D03*
X2162500Y5487500D02*
D03*
X1875000D02*
D03*
X2175000Y5687500D02*
D03*
X1662500D02*
D03*
X1687500Y5825000D02*
D03*
X1675000Y6931250D02*
D03*
X5012500Y6531250D02*
D03*
X5025000Y5962500D02*
D03*
X5000000Y5562500D02*
D03*
X4637500D02*
D03*
X4750000Y5887500D02*
D03*
X4731250Y6525000D02*
D03*
X4437500Y6937500D02*
D03*
X5725000Y7500000D02*
D03*
X5000000Y7387500D02*
D03*
X5050000Y6750000D02*
D03*
X5075000Y6937500D02*
D03*
X6412500D02*
D03*
X7212500D02*
D03*
X7687500Y7087500D02*
D03*
X8425000Y6337500D02*
D03*
Y6875000D02*
D03*
X8350000Y7175000D02*
D03*
X7725000Y7662500D02*
D03*
X6325000D02*
D03*
X5812500D02*
D03*
X5375000D02*
D03*
X4962500D02*
D03*
X4487500D02*
D03*
X3750000D02*
D03*
X3112500D02*
D03*
X2362500D02*
D03*
X1962500D02*
D03*
X1612500Y7600000D02*
D03*
X1175000Y7787500D02*
D03*
X3787500Y6606250D02*
D03*
X3744955Y6134065D02*
D03*
X3462500Y6762500D02*
D03*
X3000000D02*
D03*
X2587500D02*
D03*
X2037500D02*
D03*
X1737500Y6425000D02*
D03*
X1593750Y6525000D02*
D03*
X906250Y6462500D02*
D03*
X625000Y7937500D02*
D03*
X87500Y8300000D02*
D03*
X637500Y8287500D02*
D03*
X625000Y8637500D02*
D03*
X87500D02*
D03*
X6437500Y4637500D02*
D03*
X6675000Y4712500D02*
D03*
X7062500Y3862500D02*
D03*
X7500000Y5400000D02*
D03*
Y5075000D02*
D03*
Y4425000D02*
D03*
Y4081250D02*
D03*
X9400000Y5962500D02*
D03*
X9090641Y6090641D02*
D03*
Y6709359D02*
D03*
X9400000Y6837500D02*
D03*
X9232576Y6804197D02*
D03*
X9567424D02*
D03*
Y5995803D02*
D03*
X9232576D02*
D03*
X8995803Y6232576D02*
D03*
X1150000Y4800000D02*
D03*
Y5500000D02*
D03*
X1700000Y6075000D02*
D03*
X1250000D02*
D03*
X2275000Y5900000D02*
D03*
X2375000Y4875000D02*
D03*
X775000Y6100000D02*
D03*
Y4675000D02*
D03*
X1475000Y4050000D02*
D03*
X625000D02*
D03*
X100000Y4300000D02*
D03*
Y4050000D02*
D03*
X7250000Y3775000D02*
D03*
X6425000Y4237500D02*
D03*
X6350000D02*
D03*
X6150000Y4337500D02*
D03*
X6062500D02*
D03*
X5425000Y4475000D02*
D03*
X4225000Y5025000D02*
D03*
X1250000Y4275000D02*
D03*
X236695Y6447498D02*
D03*
X3237500Y5874999D02*
D03*
X2862500Y5873500D02*
D03*
X3049999D02*
D03*
X2862500Y5787500D02*
D03*
X4100000Y4337500D02*
D03*
Y4262500D02*
D03*
X4037500Y4300000D02*
D03*
X4050000Y4212500D02*
D03*
X4087500Y4150000D02*
D03*
X4012500D02*
D03*
X3937500D02*
D03*
X3862500D02*
D03*
X3787500D02*
D03*
X3712500D02*
D03*
X3530000Y4212500D02*
D03*
X3542500Y4300000D02*
D03*
X3637500Y4150000D02*
D03*
X3480000Y4262500D02*
D03*
X3487500Y4150000D02*
D03*
X3562500D02*
D03*
X737498Y6380000D02*
D03*
X817498Y6380000D02*
D03*
X7550000Y2787500D02*
D03*
X7475000D02*
D03*
X7400000D02*
D03*
X7250000D02*
D03*
X7325000D02*
D03*
X7700000D02*
D03*
X7625000D02*
D03*
X7850000D02*
D03*
X7775000D02*
D03*
X5400000D02*
D03*
X5325000D02*
D03*
X5250000D02*
D03*
X5100000D02*
D03*
X5175000D02*
D03*
X5550000D02*
D03*
X5475000D02*
D03*
X5700000D02*
D03*
X5625000D02*
D03*
X3250000D02*
D03*
X3175000D02*
D03*
X3100000D02*
D03*
X2950000D02*
D03*
X3025000D02*
D03*
X3400000D02*
D03*
X3325000D02*
D03*
X3550000D02*
D03*
X3475000D02*
D03*
X1325000D02*
D03*
X1400000D02*
D03*
X1175000D02*
D03*
X1250000D02*
D03*
X875000D02*
D03*
X950000D02*
D03*
X1025000D02*
D03*
X1100000D02*
D03*
X3324950Y7650025D02*
D03*
X3012451Y7012525D02*
D03*
X4287459Y6212545D02*
D03*
X4037500Y5125000D02*
D03*
X4145000Y5062500D02*
D03*
X3950000Y5337500D02*
D03*
X7137500Y5000000D02*
D03*
X2225000Y6537500D02*
D03*
X2424999Y6386000D02*
D03*
X1618185Y5307323D02*
D03*
X1615823Y5165314D02*
D03*
X1473814Y5167676D02*
D03*
X1476176Y5309685D02*
D03*
X1487500Y5625000D02*
D03*
X3237499Y6187499D02*
D03*
X3237500Y6274999D02*
D03*
X2862500Y6187500D02*
D03*
X2862500Y6274999D02*
D03*
X3237500Y5300000D02*
D03*
X2862500D02*
D03*
X2862500Y5387500D02*
D03*
X3237499Y5387499D02*
D03*
X3237500Y5474999D02*
D03*
X3750001Y4900000D02*
D03*
X3750000Y5637500D02*
D03*
X3049999Y6274999D02*
D03*
Y6099999D02*
D03*
X2862500Y6099999D02*
D03*
X3237500D02*
D03*
X2862500Y5474999D02*
D03*
X3049999Y5299999D02*
D03*
Y5474999D02*
D03*
X2862500Y5700000D02*
D03*
X3049999Y5699999D02*
D03*
X3237500Y5700000D02*
D03*
X7137500Y3987500D02*
D03*
Y5562500D02*
D03*
X6287500Y6212500D02*
D03*
X3649959Y6525000D02*
D03*
X5425000D02*
D03*
X762499Y7612500D02*
D03*
X565786Y7086053D02*
D03*
X7962500Y7325001D02*
D03*
X8012500Y7262501D02*
D03*
X8162500Y6662501D02*
D03*
X7650000Y6525000D02*
D03*
X8287500Y6212500D02*
D03*
X6012500Y7262500D02*
D03*
X5962500Y7325000D02*
D03*
X6162500Y6662500D02*
D03*
X4162460Y6662545D02*
D03*
X8150043Y474974D02*
D03*
X7987543Y499974D02*
D03*
Y399974D02*
D03*
X4187500Y500000D02*
D03*
X4350000Y475000D02*
D03*
X4187500Y400000D02*
D03*
X999999Y7612500D02*
D03*
Y7312499D02*
D03*
Y7200000D02*
D03*
X687499Y7387500D02*
D03*
X587724D02*
D03*
X885888Y6862566D02*
D03*
X887499Y6712499D02*
D03*
X735888Y6862023D02*
D03*
X737499Y6712500D02*
D03*
X3600000Y1162500D02*
D03*
X2262500Y4100000D02*
D03*
X2037500Y4100000D02*
D03*
X362499Y6487500D02*
D03*
X1587500Y4100000D02*
D03*
X696302Y4367365D02*
D03*
X675000Y4250000D02*
D03*
Y4125000D02*
D03*
X2037500Y6125000D02*
D03*
X3049999Y5074999D02*
D03*
Y4899999D02*
D03*
X2862500Y4987500D02*
D03*
X2862500Y5075000D02*
D03*
Y4900000D02*
D03*
X3237500Y5075000D02*
D03*
Y4900000D02*
D03*
X3237499Y4987499D02*
D03*
Y5787499D02*
D03*
X999999Y7712500D02*
D03*
X637500Y8100000D02*
D03*
X485000Y7038992D02*
D03*
X1714373Y6847033D02*
D03*
X740391Y6488093D02*
D03*
X659999Y6501492D02*
D03*
X815255Y7096434D02*
D03*
X786467Y7256113D02*
D03*
X162500Y7950000D02*
D03*
X375000Y7937500D02*
D03*
D60*
X3925000Y3420000D02*
D03*
Y3080000D02*
D03*
X2575000Y3420000D02*
D03*
Y3080000D02*
D03*
X4725000Y3420000D02*
D03*
Y3080000D02*
D03*
X6875000Y3420000D02*
D03*
Y3080000D02*
D03*
X425000Y3420000D02*
D03*
Y3080000D02*
D03*
X7575000Y8030000D02*
D03*
Y8370000D02*
D03*
X3275000Y8030000D02*
D03*
Y8370000D02*
D03*
X5425000Y8030000D02*
D03*
Y8370000D02*
D03*
X1125000D02*
D03*
Y8030000D02*
D03*
X1774999Y3080000D02*
D03*
Y3420000D02*
D03*
X6075000Y3080000D02*
D03*
Y3420000D02*
D03*
X8225000Y3080000D02*
D03*
Y3420000D02*
D03*
X2475000Y8370000D02*
D03*
Y8030000D02*
D03*
X6775000Y8370000D02*
D03*
Y8030000D02*
D03*
X4625000Y8370000D02*
D03*
Y8030000D02*
D03*
X8925000Y8370000D02*
D03*
Y8030000D02*
D03*
%TF.MD5,45d3248fb180617fb11bdb4368759a8d*%
M02*
