%TF.GenerationSoftware,Altium Limited,Altium Designer,25.8.1 (18)*%
G04 Layer_Color=8421504*
%FSLAX45Y45*%
%MOMM*%
%TF.SameCoordinates,5F8AD7AF-A6C7-491F-921A-1EE88451CE46*%
%TF.FilePolarity,Positive*%
%TF.FileFunction,Paste,Top*%
%TF.Part,Single*%
G01*
G75*
%TA.AperFunction,Conductor*%
%ADD10C,0.50000*%
%TA.AperFunction,SMDPad,CuDef*%
%ADD11R,1.80000X7.50000*%
G04:AMPARAMS|DCode=12|XSize=0.8mm|YSize=0.8mm|CornerRadius=0.1mm|HoleSize=0mm|Usage=FLASHONLY|Rotation=270.000|XOffset=0mm|YOffset=0mm|HoleType=Round|Shape=RoundedRectangle|*
%AMROUNDEDRECTD12*
21,1,0.80000,0.60000,0,0,270.0*
21,1,0.60000,0.80000,0,0,270.0*
1,1,0.20000,-0.30000,-0.30000*
1,1,0.20000,-0.30000,0.30000*
1,1,0.20000,0.30000,0.30000*
1,1,0.20000,0.30000,-0.30000*
%
%ADD12ROUNDEDRECTD12*%
G04:AMPARAMS|DCode=13|XSize=0.76mm|YSize=0.6604mm|CornerRadius=0.08255mm|HoleSize=0mm|Usage=FLASHONLY|Rotation=0.000|XOffset=0mm|YOffset=0mm|HoleType=Round|Shape=RoundedRectangle|*
%AMROUNDEDRECTD13*
21,1,0.76000,0.49530,0,0,0.0*
21,1,0.59490,0.66040,0,0,0.0*
1,1,0.16510,0.29745,-0.24765*
1,1,0.16510,-0.29745,-0.24765*
1,1,0.16510,-0.29745,0.24765*
1,1,0.16510,0.29745,0.24765*
%
%ADD13ROUNDEDRECTD13*%
%ADD14R,0.90000X1.50000*%
%TA.AperFunction,BGAPad,CuDef*%
%ADD15R,0.90000X0.90000*%
%TA.AperFunction,SMDPad,CuDef*%
%ADD16R,1.50000X0.90000*%
G04:AMPARAMS|DCode=17|XSize=0.76mm|YSize=0.6604mm|CornerRadius=0.08255mm|HoleSize=0mm|Usage=FLASHONLY|Rotation=90.000|XOffset=0mm|YOffset=0mm|HoleType=Round|Shape=RoundedRectangle|*
%AMROUNDEDRECTD17*
21,1,0.76000,0.49530,0,0,90.0*
21,1,0.59490,0.66040,0,0,90.0*
1,1,0.16510,0.24765,0.29745*
1,1,0.16510,0.24765,-0.29745*
1,1,0.16510,-0.24765,-0.29745*
1,1,0.16510,-0.24765,0.29745*
%
%ADD17ROUNDEDRECTD17*%
%ADD18R,1.20000X0.70000*%
%TA.AperFunction,BGAPad,CuDef*%
%ADD19C,0.27000*%
%TA.AperFunction,SMDPad,CuDef*%
G04:AMPARAMS|DCode=20|XSize=3mm|YSize=5mm|CornerRadius=0.75mm|HoleSize=0mm|Usage=FLASHONLY|Rotation=180.000|XOffset=0mm|YOffset=0mm|HoleType=Round|Shape=RoundedRectangle|*
%AMROUNDEDRECTD20*
21,1,3.00000,3.50000,0,0,180.0*
21,1,1.50000,5.00000,0,0,180.0*
1,1,1.50000,-0.75000,1.75000*
1,1,1.50000,0.75000,1.75000*
1,1,1.50000,0.75000,-1.75000*
1,1,1.50000,-0.75000,-1.75000*
%
%ADD20ROUNDEDRECTD20*%
G04:AMPARAMS|DCode=21|XSize=3mm|YSize=5mm|CornerRadius=0.75mm|HoleSize=0mm|Usage=FLASHONLY|Rotation=90.000|XOffset=0mm|YOffset=0mm|HoleType=Round|Shape=RoundedRectangle|*
%AMROUNDEDRECTD21*
21,1,3.00000,3.50000,0,0,90.0*
21,1,1.50000,5.00000,0,0,90.0*
1,1,1.50000,1.75000,0.75000*
1,1,1.50000,1.75000,-0.75000*
1,1,1.50000,-1.75000,-0.75000*
1,1,1.50000,-1.75000,0.75000*
%
%ADD21ROUNDEDRECTD21*%
G04:AMPARAMS|DCode=22|XSize=0.8mm|YSize=0.8mm|CornerRadius=0.1mm|HoleSize=0mm|Usage=FLASHONLY|Rotation=180.000|XOffset=0mm|YOffset=0mm|HoleType=Round|Shape=RoundedRectangle|*
%AMROUNDEDRECTD22*
21,1,0.80000,0.60000,0,0,180.0*
21,1,0.60000,0.80000,0,0,180.0*
1,1,0.20000,-0.30000,0.30000*
1,1,0.20000,0.30000,0.30000*
1,1,0.20000,0.30000,-0.30000*
1,1,0.20000,-0.30000,-0.30000*
%
%ADD22ROUNDEDRECTD22*%
%ADD23R,4.10000X2.00000*%
G04:AMPARAMS|DCode=24|XSize=0.8mm|YSize=1mm|CornerRadius=0.1mm|HoleSize=0mm|Usage=FLASHONLY|Rotation=90.000|XOffset=0mm|YOffset=0mm|HoleType=Round|Shape=RoundedRectangle|*
%AMROUNDEDRECTD24*
21,1,0.80000,0.80000,0,0,90.0*
21,1,0.60000,1.00000,0,0,90.0*
1,1,0.20000,0.40000,0.30000*
1,1,0.20000,0.40000,-0.30000*
1,1,0.20000,-0.40000,-0.30000*
1,1,0.20000,-0.40000,0.30000*
%
%ADD24ROUNDEDRECTD24*%
G04:AMPARAMS|DCode=25|XSize=2.16916mm|YSize=0.58213mm|CornerRadius=0.29107mm|HoleSize=0mm|Usage=FLASHONLY|Rotation=90.000|XOffset=0mm|YOffset=0mm|HoleType=Round|Shape=RoundedRectangle|*
%AMROUNDEDRECTD25*
21,1,2.16916,0.00000,0,0,90.0*
21,1,1.58703,0.58213,0,0,90.0*
1,1,0.58213,0.00000,0.79351*
1,1,0.58213,0.00000,-0.79351*
1,1,0.58213,0.00000,-0.79351*
1,1,0.58213,0.00000,0.79351*
%
%ADD25ROUNDEDRECTD25*%
G04:AMPARAMS|DCode=26|XSize=2.16916mm|YSize=0.58213mm|CornerRadius=0.29107mm|HoleSize=0mm|Usage=FLASHONLY|Rotation=180.000|XOffset=0mm|YOffset=0mm|HoleType=Round|Shape=RoundedRectangle|*
%AMROUNDEDRECTD26*
21,1,2.16916,0.00000,0,0,180.0*
21,1,1.58703,0.58213,0,0,180.0*
1,1,0.58213,-0.79351,0.00000*
1,1,0.58213,0.79351,0.00000*
1,1,0.58213,0.79351,0.00000*
1,1,0.58213,-0.79351,0.00000*
%
%ADD26ROUNDEDRECTD26*%
G04:AMPARAMS|DCode=27|XSize=0.8mm|YSize=1mm|CornerRadius=0.1mm|HoleSize=0mm|Usage=FLASHONLY|Rotation=180.000|XOffset=0mm|YOffset=0mm|HoleType=Round|Shape=RoundedRectangle|*
%AMROUNDEDRECTD27*
21,1,0.80000,0.80000,0,0,180.0*
21,1,0.60000,1.00000,0,0,180.0*
1,1,0.20000,-0.30000,0.40000*
1,1,0.20000,0.30000,0.40000*
1,1,0.20000,0.30000,-0.40000*
1,1,0.20000,-0.30000,-0.40000*
%
%ADD27ROUNDEDRECTD27*%
G04:AMPARAMS|DCode=28|XSize=1.51466mm|YSize=0.59981mm|CornerRadius=0.2999mm|HoleSize=0mm|Usage=FLASHONLY|Rotation=180.000|XOffset=0mm|YOffset=0mm|HoleType=Round|Shape=RoundedRectangle|*
%AMROUNDEDRECTD28*
21,1,1.51466,0.00000,0,0,180.0*
21,1,0.91485,0.59981,0,0,180.0*
1,1,0.59981,-0.45743,0.00000*
1,1,0.59981,0.45743,0.00000*
1,1,0.59981,0.45743,0.00000*
1,1,0.59981,-0.45743,0.00000*
%
%ADD28ROUNDEDRECTD28*%
G04:AMPARAMS|DCode=29|XSize=1.90415mm|YSize=3.21981mm|CornerRadius=0.457mm|HoleSize=0mm|Usage=FLASHONLY|Rotation=90.000|XOffset=0mm|YOffset=0mm|HoleType=Round|Shape=RoundedRectangle|*
%AMROUNDEDRECTD29*
21,1,1.90415,2.30581,0,0,90.0*
21,1,0.99016,3.21981,0,0,90.0*
1,1,0.91399,1.15291,0.49508*
1,1,0.91399,1.15291,-0.49508*
1,1,0.91399,-1.15291,-0.49508*
1,1,0.91399,-1.15291,0.49508*
%
%ADD29ROUNDEDRECTD29*%
G04:AMPARAMS|DCode=30|XSize=1.90415mm|YSize=0.91981mm|CornerRadius=0.4599mm|HoleSize=0mm|Usage=FLASHONLY|Rotation=90.000|XOffset=0mm|YOffset=0mm|HoleType=Round|Shape=RoundedRectangle|*
%AMROUNDEDRECTD30*
21,1,1.90415,0.00000,0,0,90.0*
21,1,0.98435,0.91981,0,0,90.0*
1,1,0.91981,0.00000,0.49217*
1,1,0.91981,0.00000,-0.49217*
1,1,0.91981,0.00000,-0.49217*
1,1,0.91981,0.00000,0.49217*
%
%ADD30ROUNDEDRECTD30*%
%ADD31R,0.58213X2.16916*%
%ADD32R,1.10000X1.65000*%
%ADD33R,0.70000X1.20000*%
%ADD34R,0.91981X1.90415*%
%ADD35R,1.20000X0.60000*%
%TA.AperFunction,ConnectorPad*%
%ADD36R,1.35000X0.40000*%
%TA.AperFunction,SMDPad,CuDef*%
%ADD37R,1.75822X1.30550*%
G04:AMPARAMS|DCode=38|XSize=0.6mm|YSize=1mm|CornerRadius=0.051mm|HoleSize=0mm|Usage=FLASHONLY|Rotation=90.000|XOffset=0mm|YOffset=0mm|HoleType=Round|Shape=RoundedRectangle|*
%AMROUNDEDRECTD38*
21,1,0.60000,0.89800,0,0,90.0*
21,1,0.49800,1.00000,0,0,90.0*
1,1,0.10200,0.44900,0.24900*
1,1,0.10200,0.44900,-0.24900*
1,1,0.10200,-0.44900,-0.24900*
1,1,0.10200,-0.44900,0.24900*
%
%ADD38ROUNDEDRECTD38*%
G04:AMPARAMS|DCode=39|XSize=2.65mm|YSize=1.75mm|CornerRadius=0.21875mm|HoleSize=0mm|Usage=FLASHONLY|Rotation=270.000|XOffset=0mm|YOffset=0mm|HoleType=Round|Shape=RoundedRectangle|*
%AMROUNDEDRECTD39*
21,1,2.65000,1.31250,0,0,270.0*
21,1,2.21250,1.75000,0,0,270.0*
1,1,0.43750,-0.65625,-1.10625*
1,1,0.43750,-0.65625,1.10625*
1,1,0.43750,0.65625,1.10625*
1,1,0.43750,0.65625,-1.10625*
%
%ADD39ROUNDEDRECTD39*%
%TA.AperFunction,ConnectorPad*%
%ADD40R,1.90000X1.50000*%
%TA.AperFunction,SMDPad,CuDef*%
%ADD41C,2.29500*%
%ADD42R,1.65000X1.10000*%
%ADD43R,2.16916X0.58213*%
%ADD44R,1.51466X0.59981*%
G36*
X194999Y7823992D02*
X104997D01*
Y7873989D01*
X194999Y7873992D01*
Y7823992D01*
D02*
G37*
G36*
X245000Y7693991D02*
X54999D01*
Y7823991D01*
X245000D01*
Y7693991D01*
D02*
G37*
G36*
Y7103991D02*
X54999D01*
Y7233991D01*
X245000D01*
Y7103991D01*
D02*
G37*
G36*
X195002Y7053994D02*
X105000Y7053991D01*
Y7103991D01*
X195002D01*
Y7053994D01*
D02*
G37*
G36*
X954999Y6956492D02*
Y6953508D01*
X952716Y6947995D01*
X948496Y6943775D01*
X942983Y6941492D01*
X937016D01*
X931503Y6943775D01*
X927283Y6947995D01*
X924999Y6953508D01*
Y6956492D01*
Y7026491D01*
X954999D01*
Y6956492D01*
D02*
G37*
G36*
X904999D02*
Y6953508D01*
X902716Y6947995D01*
X898496Y6943775D01*
X892983Y6941492D01*
X887016D01*
X881503Y6943775D01*
X877283Y6947995D01*
X875000Y6953508D01*
Y6956492D01*
X874999D01*
Y7026491D01*
X904999D01*
Y6956492D01*
D02*
G37*
G36*
X854999D02*
Y6953508D01*
X852716Y6947995D01*
X848496Y6943775D01*
X842983Y6941492D01*
X837016D01*
X831503Y6943775D01*
X827283Y6947995D01*
X824999Y6953508D01*
Y6956492D01*
Y7026491D01*
X854999D01*
Y6956492D01*
D02*
G37*
G36*
X804999D02*
Y6953508D01*
X802716Y6947995D01*
X798496Y6943775D01*
X792983Y6941492D01*
X787016D01*
X781503Y6943775D01*
X777283Y6947995D01*
X774999Y6953508D01*
Y6956492D01*
Y7026491D01*
X804999D01*
Y6956492D01*
D02*
G37*
G36*
X754999D02*
Y6953508D01*
X752716Y6947995D01*
X748496Y6943775D01*
X742983Y6941492D01*
X737016D01*
X731502Y6943775D01*
X727283Y6947995D01*
X724999Y6953508D01*
Y6956492D01*
Y7026491D01*
X755000D01*
X754999Y6956492D01*
D02*
G37*
G36*
X704999D02*
Y6953508D01*
X702716Y6947995D01*
X698496Y6943775D01*
X692983Y6941492D01*
X687016D01*
X681503Y6943775D01*
X677283Y6947995D01*
X674999Y6953508D01*
Y6956492D01*
Y7026491D01*
X704999D01*
Y6956492D01*
D02*
G37*
G36*
X1052499Y6898992D02*
X979516D01*
X974003Y6901275D01*
X969783Y6905495D01*
X967499Y6911008D01*
Y6913992D01*
Y6916975D01*
X969783Y6922488D01*
X974003Y6926708D01*
X979516Y6928991D01*
X1052499D01*
Y6898992D01*
D02*
G37*
G36*
X655996Y6926708D02*
X660216Y6922488D01*
X662499Y6916975D01*
Y6913992D01*
Y6911008D01*
X660216Y6905495D01*
X655996Y6901275D01*
X650483Y6898992D01*
X577499D01*
Y6928991D01*
X650483D01*
X655996Y6926708D01*
D02*
G37*
G36*
X1052499Y6848991D02*
X982499Y6848992D01*
X979516D01*
X974003Y6851275D01*
X969783Y6855495D01*
X967499Y6861008D01*
Y6863992D01*
Y6866975D01*
X969783Y6872488D01*
X974003Y6876708D01*
X979516Y6878992D01*
X1052499D01*
Y6848991D01*
D02*
G37*
G36*
X655996Y6876708D02*
X660216Y6872488D01*
X662499Y6866975D01*
Y6863992D01*
Y6861008D01*
X660216Y6855495D01*
X655996Y6851275D01*
X650483Y6848992D01*
X647499D01*
Y6848991D01*
X577499D01*
Y6878992D01*
X650483D01*
X655996Y6876708D01*
D02*
G37*
G36*
X1052499Y6798991D02*
X979516D01*
X974003Y6801275D01*
X969783Y6805495D01*
X967499Y6811008D01*
Y6813991D01*
Y6816975D01*
X969783Y6822488D01*
X974003Y6826708D01*
X979516Y6828991D01*
X1052499D01*
Y6798991D01*
D02*
G37*
G36*
X655996Y6826708D02*
X660216Y6822488D01*
X662499Y6816975D01*
Y6813991D01*
Y6811008D01*
X660216Y6805495D01*
X655996Y6801275D01*
X650483Y6798991D01*
X577499D01*
Y6828991D01*
X650483D01*
X655996Y6826708D01*
D02*
G37*
G36*
X1052499Y6748992D02*
X979516D01*
X974003Y6751275D01*
X969783Y6755495D01*
X967499Y6761008D01*
Y6763992D01*
Y6766975D01*
X969783Y6772488D01*
X974003Y6776708D01*
X979516Y6778992D01*
X1052499D01*
Y6748992D01*
D02*
G37*
G36*
X655996Y6776708D02*
X660216Y6772488D01*
X662499Y6766975D01*
Y6763992D01*
Y6761008D01*
X660216Y6755495D01*
X655996Y6751275D01*
X650483Y6748992D01*
X577499D01*
Y6778992D01*
X650483D01*
X655996Y6776708D01*
D02*
G37*
G36*
X1052499Y6698991D02*
X979516D01*
X974003Y6701275D01*
X969783Y6705495D01*
X967499Y6711008D01*
Y6713991D01*
Y6716975D01*
X969783Y6722488D01*
X974003Y6726708D01*
X979516Y6728991D01*
X982499D01*
Y6728992D01*
X1052499D01*
Y6698991D01*
D02*
G37*
G36*
X647499Y6728991D02*
X650483D01*
X655996Y6726708D01*
X660216Y6722488D01*
X662499Y6716975D01*
Y6713991D01*
Y6711008D01*
X660216Y6705495D01*
X655996Y6701275D01*
X650483Y6698991D01*
X577499D01*
Y6728992D01*
X647499Y6728991D01*
D02*
G37*
G36*
X942500Y6891491D02*
Y6661491D01*
X687499D01*
Y6916492D01*
X917499D01*
X942500Y6891491D01*
D02*
G37*
G36*
X1052499Y6648992D02*
X979516D01*
X974003Y6651275D01*
X969783Y6655495D01*
X967499Y6661008D01*
Y6663991D01*
Y6666975D01*
X969783Y6672488D01*
X974003Y6676708D01*
X979516Y6678991D01*
X1052499D01*
Y6648992D01*
D02*
G37*
G36*
X655996Y6676708D02*
X660216Y6672488D01*
X662499Y6666975D01*
Y6663991D01*
Y6661008D01*
X660216Y6655495D01*
X655996Y6651275D01*
X650483Y6648992D01*
X577499D01*
Y6678991D01*
X650483D01*
X655996Y6676708D01*
D02*
G37*
G36*
X948496Y6634208D02*
X952716Y6629988D01*
X954999Y6624475D01*
Y6621491D01*
Y6551492D01*
X924999D01*
Y6621491D01*
Y6624475D01*
X927283Y6629988D01*
X931503Y6634208D01*
X937016Y6636491D01*
X942983D01*
X948496Y6634208D01*
D02*
G37*
G36*
X898496D02*
X902716Y6629988D01*
X904999Y6624475D01*
Y6621491D01*
Y6551492D01*
X874999D01*
X875000Y6621491D01*
Y6624475D01*
X877283Y6629988D01*
X881503Y6634208D01*
X887016Y6636491D01*
X892983D01*
X898496Y6634208D01*
D02*
G37*
G36*
X848496D02*
X852716Y6629988D01*
X854999Y6624475D01*
Y6621491D01*
Y6551492D01*
X824999D01*
Y6621491D01*
Y6624475D01*
X827283Y6629988D01*
X831503Y6634208D01*
X837016Y6636491D01*
X842983D01*
X848496Y6634208D01*
D02*
G37*
G36*
X798496D02*
X802716Y6629988D01*
X804999Y6624475D01*
Y6621491D01*
Y6551492D01*
X774999D01*
Y6621491D01*
Y6624475D01*
X777283Y6629988D01*
X781503Y6634208D01*
X787016Y6636491D01*
X792983D01*
X798496Y6634208D01*
D02*
G37*
G36*
X748496D02*
X752716Y6629988D01*
X754999Y6624475D01*
Y6621491D01*
X755000D01*
Y6551492D01*
X724999D01*
Y6621491D01*
Y6624475D01*
X727283Y6629988D01*
X731502Y6634208D01*
X737016Y6636491D01*
X742983D01*
X748496Y6634208D01*
D02*
G37*
G36*
X698496D02*
X702716Y6629988D01*
X704999Y6624475D01*
Y6621491D01*
Y6551492D01*
X674999D01*
Y6621491D01*
Y6624475D01*
X677283Y6629988D01*
X681503Y6634208D01*
X687016Y6636491D01*
X692983D01*
X698496Y6634208D01*
D02*
G37*
D10*
X219999Y7823991D02*
G03*
X219999Y7823991I-25000J0D01*
G01*
X129999D02*
G03*
X129999Y7823991I-25000J0D01*
G01*
X129999Y7103991D02*
G03*
X129999Y7103991I-25000J0D01*
G01*
X220000D02*
G03*
X220000Y7103991I-25000J0D01*
G01*
D11*
X5805000Y5462500D02*
D03*
X5245000D02*
D03*
D12*
X8799850Y575000D02*
D03*
Y425000D02*
D03*
X6899900Y575000D02*
D03*
Y425000D02*
D03*
X1200000D02*
D03*
Y575000D02*
D03*
X3100100Y425000D02*
D03*
X235000Y6563992D02*
D03*
X5000000Y425000D02*
D03*
X235000Y6713992D02*
D03*
X5000000Y575000D02*
D03*
X3100100D02*
D03*
D13*
X1925000Y4180000D02*
D03*
X3100100Y820000D02*
D03*
X7937500Y4207500D02*
D03*
Y4067500D02*
D03*
Y4317500D02*
D03*
Y4457500D02*
D03*
Y5330000D02*
D03*
Y5470000D02*
D03*
Y5080000D02*
D03*
Y5220000D02*
D03*
X1700000Y4180000D02*
D03*
Y4320000D02*
D03*
X1925000Y4320000D02*
D03*
X1587499Y4320000D02*
D03*
Y4180000D02*
D03*
X1812500Y4180000D02*
D03*
Y4320000D02*
D03*
X2150000Y4180000D02*
D03*
Y4320000D02*
D03*
X2037499D02*
D03*
Y4180000D02*
D03*
X2262500Y4320000D02*
D03*
Y4180000D02*
D03*
X2375000Y4320000D02*
D03*
Y4180000D02*
D03*
X5000000Y820000D02*
D03*
X8799850D02*
D03*
X6899900D02*
D03*
X1200000Y680000D02*
D03*
Y820000D02*
D03*
X1262499Y6907500D02*
D03*
X1262499Y7182500D02*
D03*
X5187500Y4657500D02*
D03*
X4312460Y6567545D02*
D03*
X3399950Y7242525D02*
D03*
X8312500Y6567500D02*
D03*
X6312500Y6567500D02*
D03*
X5650000Y6745000D02*
D03*
X3649959D02*
D03*
X7650000D02*
D03*
X5425000D02*
D03*
X3950000Y5557500D02*
D03*
X5000000Y680000D02*
D03*
X5425000Y6605000D02*
D03*
X3950000Y5417500D02*
D03*
X685000Y7168992D02*
D03*
X570001Y7166492D02*
D03*
X359999Y6958992D02*
D03*
X235000Y6953992D02*
D03*
X7650000Y6605000D02*
D03*
X8287500Y6132501D02*
D03*
X6287500Y6132500D02*
D03*
X5950000Y4567500D02*
D03*
X5650000Y6605000D02*
D03*
X4287460Y6132545D02*
D03*
X5300000Y4657500D02*
D03*
X2274951Y7455025D02*
D03*
X2149951Y7245025D02*
D03*
X3649959Y6605000D02*
D03*
X2274951Y7245025D02*
D03*
X685000Y7308992D02*
D03*
X570001Y7306492D02*
D03*
X359999Y6568992D02*
D03*
X5950000Y4707500D02*
D03*
X5837500D02*
D03*
X2274951Y7105025D02*
D03*
Y7595025D02*
D03*
X6162499Y6132500D02*
D03*
Y5992500D02*
D03*
X6287500D02*
D03*
X6312500Y6707500D02*
D03*
X8162500Y5992500D02*
D03*
Y6132501D02*
D03*
X8287500Y5992500D02*
D03*
X8312500Y6707501D02*
D03*
X359999Y6708992D02*
D03*
Y6818992D02*
D03*
X485000Y6958992D02*
D03*
Y6818992D02*
D03*
X1149999Y6607500D02*
D03*
Y6467499D02*
D03*
X1274999Y6607500D02*
D03*
Y6467499D02*
D03*
X1262499Y6767500D02*
D03*
X1262499Y7042500D02*
D03*
X2149951Y7105025D02*
D03*
X3399950Y7382525D02*
D03*
X4162459Y6132545D02*
D03*
Y5992545D02*
D03*
X4287460D02*
D03*
X4312460Y6707545D02*
D03*
X5187500Y4517500D02*
D03*
X5300000D02*
D03*
X5837500Y4567500D02*
D03*
X235000Y6813992D02*
D03*
X3100100Y680000D02*
D03*
X8799850D02*
D03*
X8312500Y3817500D02*
D03*
Y3957500D02*
D03*
Y4067500D02*
D03*
Y4207500D02*
D03*
Y4457500D02*
D03*
Y4317500D02*
D03*
Y4707500D02*
D03*
Y4567500D02*
D03*
Y4970000D02*
D03*
Y4830000D02*
D03*
Y5220000D02*
D03*
Y5080000D02*
D03*
Y5470000D02*
D03*
Y5330000D02*
D03*
Y5720000D02*
D03*
Y5580000D02*
D03*
X6899900Y680000D02*
D03*
D14*
X1916999Y4512499D02*
D03*
X1789999D02*
D03*
X2170999D02*
D03*
X2043999D02*
D03*
X773999D02*
D03*
Y6262500D02*
D03*
X2170999D02*
D03*
X1662999D02*
D03*
X1789999D02*
D03*
X1154999Y4512499D02*
D03*
X1281999D02*
D03*
X1408999D02*
D03*
X1535999D02*
D03*
X2297999D02*
D03*
X2424999D02*
D03*
Y6262500D02*
D03*
X2297999D02*
D03*
X2043999D02*
D03*
X1916999D02*
D03*
X1535999D02*
D03*
X1281999D02*
D03*
X1154999D02*
D03*
X900999Y4512499D02*
D03*
X1408999Y6262500D02*
D03*
X1662999Y4512499D02*
D03*
X900999Y6262500D02*
D03*
X1027999D02*
D03*
Y4512499D02*
D03*
D15*
X1405999Y5097500D02*
D03*
X1545999Y5237500D02*
D03*
Y5097500D02*
D03*
X1405999Y5237500D02*
D03*
Y5377500D02*
D03*
X1545999D02*
D03*
X1685999Y5097500D02*
D03*
Y5377500D02*
D03*
Y5237500D02*
D03*
D16*
X2549999Y4816500D02*
D03*
Y4943500D02*
D03*
Y5070500D02*
D03*
Y5197500D02*
D03*
Y5324500D02*
D03*
Y5451500D02*
D03*
Y5578500D02*
D03*
Y5705500D02*
D03*
Y5832500D02*
D03*
Y5959500D02*
D03*
D17*
X5880000Y6137500D02*
D03*
X6020000D02*
D03*
X1030000Y4275000D02*
D03*
X1170000Y4125000D02*
D03*
X7220000Y6475000D02*
D03*
X7080000D02*
D03*
X7220000Y6350000D02*
D03*
X7080000D02*
D03*
X7220000Y6600000D02*
D03*
X7080000D02*
D03*
X7220000Y6225000D02*
D03*
X7080000D02*
D03*
X6917499Y4325000D02*
D03*
Y4437500D02*
D03*
Y4550000D02*
D03*
Y5000000D02*
D03*
Y5112500D02*
D03*
Y5225000D02*
D03*
Y5337500D02*
D03*
Y5450000D02*
D03*
Y5562500D02*
D03*
Y4212500D02*
D03*
Y3987500D02*
D03*
Y4100000D02*
D03*
X7880000Y6137501D02*
D03*
X8020000D02*
D03*
X7080000Y5850000D02*
D03*
X7220000D02*
D03*
X7080000Y6100000D02*
D03*
X7220000D02*
D03*
Y5975000D02*
D03*
X7080000D02*
D03*
X5142500Y4875000D02*
D03*
Y4762500D02*
D03*
X3879959Y6137545D02*
D03*
X2969951Y7675025D02*
D03*
X2792450Y7012525D02*
D03*
X1029999Y4125000D02*
D03*
X895000Y4250000D02*
D03*
Y4125000D02*
D03*
X5742500Y7387500D02*
D03*
Y7262500D02*
D03*
X3544951Y7650025D02*
D03*
Y7525025D02*
D03*
X4445000Y5025000D02*
D03*
X4305000D02*
D03*
X8092500Y7262500D02*
D03*
X7882500D02*
D03*
Y7387500D02*
D03*
X7057500Y5112500D02*
D03*
Y5450000D02*
D03*
Y4550000D02*
D03*
Y5000000D02*
D03*
Y4437500D02*
D03*
Y5562500D02*
D03*
X6092500Y7262500D02*
D03*
X5882500Y7387500D02*
D03*
Y7262500D02*
D03*
X4092459Y7262545D02*
D03*
X5505000Y4475000D02*
D03*
X5282500Y4875000D02*
D03*
Y4762500D02*
D03*
X7057500Y4100000D02*
D03*
Y3987500D02*
D03*
X3404951Y7650025D02*
D03*
X3882460Y7387545D02*
D03*
Y7262545D02*
D03*
X2932451Y7012525D02*
D03*
X930000Y7318991D02*
D03*
X929999Y7193991D02*
D03*
X1170000Y4275000D02*
D03*
X755000Y4125000D02*
D03*
Y4250000D02*
D03*
X3742459Y7387545D02*
D03*
X7742500Y7262500D02*
D03*
X3742459Y7262545D02*
D03*
X4232460D02*
D03*
X7742500Y7387500D02*
D03*
X414999Y8038992D02*
D03*
X555000D02*
D03*
X2829950Y7675025D02*
D03*
X3404951Y7525025D02*
D03*
X4019959Y6137545D02*
D03*
X5645000Y4475000D02*
D03*
X7057500Y4212500D02*
D03*
Y4325000D02*
D03*
Y5225000D02*
D03*
Y5337500D02*
D03*
X417500Y8162500D02*
D03*
X557500D02*
D03*
X789999Y7193991D02*
D03*
X789999Y7318991D02*
D03*
X5720000Y4937500D02*
D03*
X5580000D02*
D03*
X6232500Y7262500D02*
D03*
X8232500Y7262500D02*
D03*
D18*
X1407499Y7017500D02*
D03*
X1667499Y7112500D02*
D03*
X1407499Y7207500D02*
D03*
X2117451Y7400025D02*
D03*
X1857451Y7305025D02*
D03*
Y7495025D02*
D03*
X1667499Y6762500D02*
D03*
X1407499Y6667500D02*
D03*
Y6857500D02*
D03*
D19*
X1010000Y6663991D02*
D03*
X619999Y6913992D02*
D03*
X889999Y6983992D02*
D03*
X939999D02*
D03*
X839999Y6985538D02*
D03*
X789999Y6983992D02*
D03*
X739999D02*
D03*
X689999Y7011491D02*
D03*
X619999Y6863992D02*
D03*
X618453Y6813991D02*
D03*
X619999Y6763992D02*
D03*
Y6713991D02*
D03*
X592499Y6663991D02*
D03*
X689999Y6593991D02*
D03*
X739999D02*
D03*
X789999Y6592445D02*
D03*
X839999Y6593991D02*
D03*
X889999D02*
D03*
X939999Y6592445D02*
D03*
X1010000Y6713991D02*
D03*
X1011546Y6763992D02*
D03*
X1010000Y6813991D02*
D03*
Y6863992D02*
D03*
X1011546Y6913992D02*
D03*
D20*
X4725000Y6200000D02*
D03*
X5212500Y6250000D02*
D03*
D21*
X5350000Y7050000D02*
D03*
X3050000Y6187499D02*
D03*
Y5387500D02*
D03*
Y4587500D02*
D03*
Y4987500D02*
D03*
Y5787499D02*
D03*
D22*
X6975000Y6475000D02*
D03*
X6825000D02*
D03*
X6975000Y6350000D02*
D03*
X6825000D02*
D03*
X6975000Y6225000D02*
D03*
X6825000D02*
D03*
X6975000Y6600000D02*
D03*
X6825000D02*
D03*
X6975000Y6100000D02*
D03*
X6825000D02*
D03*
X6975000Y5975000D02*
D03*
X6825000D02*
D03*
X6975000Y5850000D02*
D03*
X6825000D02*
D03*
X159999Y8038992D02*
D03*
X310000D02*
D03*
X162500Y8162500D02*
D03*
X312500D02*
D03*
D23*
X3790000Y4300000D02*
D03*
X4660000D02*
D03*
D24*
X6662500Y4588000D02*
D03*
X6512500Y5487000D02*
D03*
X4862500Y5363000D02*
D03*
Y5687000D02*
D03*
X6662500Y4912000D02*
D03*
X6512500Y5163000D02*
D03*
X8137500Y4174500D02*
D03*
Y3850500D02*
D03*
Y4350500D02*
D03*
Y4674500D02*
D03*
Y4863000D02*
D03*
Y5187000D02*
D03*
Y5363000D02*
D03*
Y5687000D02*
D03*
D25*
X7784500Y6823861D02*
D03*
X3784459Y6823905D02*
D03*
X5784500Y6823860D02*
D03*
X5911500Y6351140D02*
D03*
X6038500D02*
D03*
X6165500D02*
D03*
X6038500Y6823860D02*
D03*
X5911500D02*
D03*
X6165500D02*
D03*
X8165500Y6823861D02*
D03*
X4165459Y6823905D02*
D03*
X3911459D02*
D03*
X4038459D02*
D03*
X4165459Y6351185D02*
D03*
X4038459D02*
D03*
X3911459D02*
D03*
X7911500Y6823861D02*
D03*
X8038500D02*
D03*
X8165500Y6351141D02*
D03*
X8038500D02*
D03*
X7911500D02*
D03*
D26*
X2713590Y7147025D02*
D03*
Y7528025D02*
D03*
X3186310Y7274025D02*
D03*
Y7401025D02*
D03*
X2713590D02*
D03*
Y7274025D02*
D03*
X3186310Y7528025D02*
D03*
D27*
X4962000Y4975000D02*
D03*
X4638000D02*
D03*
D28*
X7218484Y5338500D02*
D03*
Y5084500D02*
D03*
Y4072000D02*
D03*
Y4326000D02*
D03*
X7756516D02*
D03*
Y5338500D02*
D03*
X7218484Y4199000D02*
D03*
Y4453000D02*
D03*
Y5211500D02*
D03*
Y5465500D02*
D03*
X7756516D02*
D03*
Y5211500D02*
D03*
Y4199000D02*
D03*
Y4453000D02*
D03*
D29*
X4375000Y5817500D02*
D03*
D30*
Y5207500D02*
D03*
X4605000D02*
D03*
D31*
X5784500Y6351140D02*
D03*
X3784459Y6351185D02*
D03*
X7784500Y6351141D02*
D03*
D32*
X5832500Y7087500D02*
D03*
X6117500D02*
D03*
X7832500Y7087500D02*
D03*
X8117500D02*
D03*
X3832459Y7087545D02*
D03*
X4117459D02*
D03*
D33*
X5942500Y7680000D02*
D03*
X8037500Y7420000D02*
D03*
X6037500Y7420000D02*
D03*
X4037460Y7420045D02*
D03*
X6132500Y7680000D02*
D03*
X7942500Y7680000D02*
D03*
X8132500D02*
D03*
X3942460Y7680045D02*
D03*
X4132460D02*
D03*
D34*
X4145000Y5207500D02*
D03*
D35*
X659999Y7612500D02*
D03*
X889999D02*
D03*
X659999Y7517500D02*
D03*
Y7707499D02*
D03*
X889999D02*
D03*
Y7517500D02*
D03*
D36*
X419999Y7593991D02*
D03*
Y7333991D02*
D03*
Y7528991D02*
D03*
Y7463991D02*
D03*
Y7398991D02*
D03*
D37*
X6112500Y4462364D02*
D03*
Y4737636D02*
D03*
D38*
X5437500Y4700000D02*
D03*
X5712500D02*
D03*
X5437500Y4795000D02*
D03*
Y4605000D02*
D03*
X5712500D02*
D03*
Y4795000D02*
D03*
D39*
X6387500Y4422500D02*
D03*
Y4852500D02*
D03*
D40*
X149999Y7363991D02*
D03*
Y7563991D02*
D03*
D41*
X814999Y6788992D02*
D03*
D42*
X2449951Y7195025D02*
D03*
Y7480025D02*
D03*
D43*
X3186310Y7147025D02*
D03*
D44*
X7756516Y4072000D02*
D03*
Y5084500D02*
D03*
%TF.MD5,206b4580c7c4f4bba45b6ab6403a433f*%
M02*
