%TF.GenerationSoftware,Altium Limited,Altium Designer,25.8.1 (18)*%
G04 Layer_Color=128*
%FSLAX45Y45*%
%MOMM*%
%TF.SameCoordinates,5F8AD7AF-A6C7-491F-921A-1EE88451CE46*%
%TF.FilePolarity,Positive*%
%TF.FileFunction,Paste,Bot*%
%TF.Part,Single*%
G01*
G75*
%TA.AperFunction,SMDPad,CuDef*%
G04:AMPARAMS|DCode=13|XSize=0.76mm|YSize=0.6604mm|CornerRadius=0.08255mm|HoleSize=0mm|Usage=FLASHONLY|Rotation=0.000|XOffset=0mm|YOffset=0mm|HoleType=Round|Shape=RoundedRectangle|*
%AMROUNDEDRECTD13*
21,1,0.76000,0.49530,0,0,0.0*
21,1,0.59490,0.66040,0,0,0.0*
1,1,0.16510,0.29745,-0.24765*
1,1,0.16510,-0.29745,-0.24765*
1,1,0.16510,-0.29745,0.24765*
1,1,0.16510,0.29745,0.24765*
%
%ADD13ROUNDEDRECTD13*%
G04:AMPARAMS|DCode=17|XSize=0.76mm|YSize=0.6604mm|CornerRadius=0.08255mm|HoleSize=0mm|Usage=FLASHONLY|Rotation=90.000|XOffset=0mm|YOffset=0mm|HoleType=Round|Shape=RoundedRectangle|*
%AMROUNDEDRECTD17*
21,1,0.76000,0.49530,0,0,90.0*
21,1,0.59490,0.66040,0,0,90.0*
1,1,0.16510,0.24765,0.29745*
1,1,0.16510,0.24765,-0.29745*
1,1,0.16510,-0.24765,-0.29745*
1,1,0.16510,-0.24765,0.29745*
%
%ADD17ROUNDEDRECTD17*%
%ADD32R,1.10000X1.65000*%
%ADD37R,1.75822X1.30550*%
G04:AMPARAMS|DCode=39|XSize=2.65mm|YSize=1.75mm|CornerRadius=0.21875mm|HoleSize=0mm|Usage=FLASHONLY|Rotation=270.000|XOffset=0mm|YOffset=0mm|HoleType=Round|Shape=RoundedRectangle|*
%AMROUNDEDRECTD39*
21,1,2.65000,1.31250,0,0,270.0*
21,1,2.21250,1.75000,0,0,270.0*
1,1,0.43750,-0.65625,-1.10625*
1,1,0.43750,-0.65625,1.10625*
1,1,0.43750,0.65625,1.10625*
1,1,0.43750,0.65625,-1.10625*
%
%ADD39ROUNDEDRECTD39*%
%ADD42R,1.65000X1.10000*%
%ADD61R,0.61000X1.27000*%
%ADD63R,5.40312X1.88209*%
G04:AMPARAMS|DCode=64|XSize=2.65mm|YSize=1.75mm|CornerRadius=0.21875mm|HoleSize=0mm|Usage=FLASHONLY|Rotation=180.000|XOffset=0mm|YOffset=0mm|HoleType=Round|Shape=RoundedRectangle|*
%AMROUNDEDRECTD64*
21,1,2.65000,1.31250,0,0,180.0*
21,1,2.21250,1.75000,0,0,180.0*
1,1,0.43750,-1.10625,0.65625*
1,1,0.43750,1.10625,0.65625*
1,1,0.43750,1.10625,-0.65625*
1,1,0.43750,-1.10625,-0.65625*
%
%ADD64ROUNDEDRECTD64*%
G04:AMPARAMS|DCode=65|XSize=0.3mm|YSize=0.8mm|CornerRadius=0.075mm|HoleSize=0mm|Usage=FLASHONLY|Rotation=180.000|XOffset=0mm|YOffset=0mm|HoleType=Round|Shape=RoundedRectangle|*
%AMROUNDEDRECTD65*
21,1,0.30000,0.65000,0,0,180.0*
21,1,0.15000,0.80000,0,0,180.0*
1,1,0.15000,-0.07500,0.32500*
1,1,0.15000,0.07500,0.32500*
1,1,0.15000,0.07500,-0.32500*
1,1,0.15000,-0.07500,-0.32500*
%
%ADD65ROUNDEDRECTD65*%
%ADD66R,2.05000X1.70000*%
G04:AMPARAMS|DCode=67|XSize=0.67mm|YSize=0.4mm|CornerRadius=0.04mm|HoleSize=0mm|Usage=FLASHONLY|Rotation=270.000|XOffset=0mm|YOffset=0mm|HoleType=Round|Shape=RoundedRectangle|*
%AMROUNDEDRECTD67*
21,1,0.67000,0.32000,0,0,270.0*
21,1,0.59000,0.40000,0,0,270.0*
1,1,0.08000,-0.16000,-0.29500*
1,1,0.08000,-0.16000,0.29500*
1,1,0.08000,0.16000,0.29500*
1,1,0.08000,0.16000,-0.29500*
%
%ADD67ROUNDEDRECTD67*%
%ADD68R,1.88209X5.40312*%
G36*
X9440001Y7761292D02*
X9460350Y7759039D01*
X9500282Y7749992D01*
X9538947Y7736518D01*
X9575854Y7718788D01*
X9610537Y7697027D01*
X9642557Y7671508D01*
X9671509Y7642556D01*
X9697028Y7610536D01*
X9718789Y7575853D01*
X9736519Y7538945D01*
X9749992Y7500281D01*
X9759039Y7460348D01*
X9761292Y7440000D01*
X9761292D01*
X9761292Y7440000D01*
Y7440000D01*
X9620387D01*
Y7440070D01*
X9616724Y7456626D01*
X9605703Y7488670D01*
X9589973Y7518685D01*
X9569896Y7545984D01*
X9545930Y7569942D01*
X9518624Y7590011D01*
X9488604Y7605731D01*
X9456556Y7616743D01*
X9439999Y7620400D01*
X9439999Y7620400D01*
X9440000Y7620404D01*
Y7761292D01*
X9440001Y7761292D01*
D02*
G37*
G36*
X9360000Y7620387D02*
X9359929D01*
X9343374Y7616724D01*
X9311330Y7605703D01*
X9281314Y7589973D01*
X9254015Y7569895D01*
X9230057Y7545930D01*
X9209989Y7518624D01*
X9194269Y7488604D01*
X9183257Y7456556D01*
X9179600Y7439999D01*
Y7439999D01*
X9179596Y7440000D01*
X9038708D01*
Y7440001D01*
X9040961Y7460350D01*
X9050008Y7500282D01*
X9063481Y7538947D01*
X9081211Y7575854D01*
X9102973Y7610537D01*
X9128491Y7642557D01*
X9157444Y7671509D01*
X9189464Y7697028D01*
X9224147Y7718789D01*
X9261054Y7736519D01*
X9299719Y7749992D01*
X9339652Y7759039D01*
X9360000Y7761292D01*
Y7620387D01*
D02*
G37*
G36*
X9620404Y7360000D02*
X9761292D01*
X9761292Y7359998D01*
X9759039Y7339650D01*
X9749992Y7299717D01*
X9736518Y7261053D01*
X9718789Y7224146D01*
X9697027Y7189463D01*
X9671508Y7157442D01*
X9642556Y7128490D01*
X9610536Y7102972D01*
X9575853Y7081210D01*
X9538945Y7063481D01*
X9500281Y7050007D01*
X9460348Y7040961D01*
X9440000Y7038708D01*
Y7179613D01*
X9440070Y7179613D01*
X9456626Y7183275D01*
X9488670Y7194297D01*
X9518686Y7210027D01*
X9545984Y7230104D01*
X9569943Y7254070D01*
X9590011Y7281375D01*
X9605731Y7311396D01*
X9616743Y7343444D01*
X9620400Y7360001D01*
X9620400D01*
X9620404Y7360000D01*
D02*
G37*
G36*
X9440000Y7038708D02*
X9440000D01*
X9440000D01*
D01*
D02*
G37*
G36*
X9179613Y7359929D02*
X9183275Y7343374D01*
X9194297Y7311330D01*
X9210027Y7281314D01*
X9230104Y7254015D01*
X9254070Y7230057D01*
X9281375Y7209989D01*
X9311396Y7194269D01*
X9343444Y7183257D01*
X9360001Y7179600D01*
X9360000Y7179596D01*
Y7038708D01*
X9359998D01*
X9339650Y7040961D01*
X9299717Y7050008D01*
X9261053Y7063481D01*
X9224146Y7081211D01*
X9189463Y7102973D01*
X9157442Y7128491D01*
X9128490Y7157444D01*
X9102972Y7189464D01*
X9081210Y7224147D01*
X9063481Y7261054D01*
X9050007Y7299719D01*
X9040961Y7339652D01*
X9038708Y7360000D01*
X9179613D01*
X9179613Y7359929D01*
D02*
G37*
G36*
X9440001Y6761292D02*
X9460350Y6759039D01*
X9500282Y6749992D01*
X9538947Y6736518D01*
X9575854Y6718788D01*
X9610537Y6697027D01*
X9642557Y6671508D01*
X9671509Y6642556D01*
X9697028Y6610536D01*
X9718789Y6575852D01*
X9736519Y6538945D01*
X9749992Y6500281D01*
X9759039Y6460348D01*
X9761292Y6440000D01*
X9761292D01*
X9761292Y6440000D01*
Y6440000D01*
X9620387D01*
Y6440070D01*
X9616724Y6456626D01*
X9605703Y6488670D01*
X9589973Y6518685D01*
X9569896Y6545984D01*
X9545930Y6569942D01*
X9518624Y6590011D01*
X9488604Y6605731D01*
X9456556Y6616743D01*
X9439999Y6620400D01*
X9439999Y6620400D01*
X9440000Y6620404D01*
Y6761292D01*
X9440001Y6761292D01*
D02*
G37*
G36*
X9360000Y6620387D02*
X9359929D01*
X9343374Y6616724D01*
X9311330Y6605703D01*
X9281314Y6589973D01*
X9254015Y6569895D01*
X9230057Y6545930D01*
X9209989Y6518624D01*
X9194269Y6488604D01*
X9183257Y6456556D01*
X9179600Y6439999D01*
Y6439999D01*
X9179596Y6440000D01*
X9038708D01*
Y6440001D01*
X9040961Y6460350D01*
X9050008Y6500282D01*
X9063481Y6538947D01*
X9081211Y6575854D01*
X9102973Y6610537D01*
X9128491Y6642557D01*
X9157444Y6671509D01*
X9189464Y6697028D01*
X9224147Y6718789D01*
X9261054Y6736519D01*
X9299719Y6749992D01*
X9339652Y6759039D01*
X9360000Y6761292D01*
Y6620387D01*
D02*
G37*
G36*
X9620404Y6360000D02*
X9761292D01*
X9761292Y6359998D01*
X9759039Y6339650D01*
X9749992Y6299717D01*
X9736518Y6261053D01*
X9718789Y6224146D01*
X9697027Y6189463D01*
X9671508Y6157442D01*
X9642556Y6128490D01*
X9610536Y6102972D01*
X9575853Y6081210D01*
X9538945Y6063481D01*
X9500281Y6050007D01*
X9460348Y6040960D01*
X9440000Y6038708D01*
Y6179613D01*
X9440070Y6179613D01*
X9456626Y6183275D01*
X9488670Y6194297D01*
X9518686Y6210027D01*
X9545984Y6230104D01*
X9569943Y6254070D01*
X9590011Y6281375D01*
X9605731Y6311396D01*
X9616743Y6343444D01*
X9620400Y6360001D01*
X9620400D01*
X9620404Y6360000D01*
D02*
G37*
G36*
X9440000Y6038708D02*
X9440000D01*
X9440000D01*
D01*
D02*
G37*
G36*
X9179613Y6359929D02*
X9183275Y6343374D01*
X9194297Y6311330D01*
X9210027Y6281314D01*
X9230104Y6254015D01*
X9254070Y6230057D01*
X9281375Y6209989D01*
X9311396Y6194269D01*
X9343444Y6183257D01*
X9360001Y6179600D01*
X9360000Y6179596D01*
Y6038708D01*
X9359998D01*
X9339650Y6040961D01*
X9299717Y6050008D01*
X9261053Y6063481D01*
X9224146Y6081211D01*
X9189463Y6102973D01*
X9157442Y6128491D01*
X9128490Y6157444D01*
X9102972Y6189464D01*
X9081210Y6224147D01*
X9063481Y6261054D01*
X9050007Y6299719D01*
X9040961Y6339652D01*
X9038708Y6360000D01*
X9179613D01*
X9179613Y6359929D01*
D02*
G37*
G36*
X5021000Y1766000D02*
X4995500D01*
Y1441000D01*
X4604500D01*
Y1766000D01*
X4579000D01*
Y1893000D01*
X4640000D01*
Y1816000D01*
X4706000D01*
Y1893000D01*
X4767000D01*
Y1816000D01*
X4833000D01*
Y1893000D01*
X4894000D01*
Y1816000D01*
X4960000D01*
Y1893000D01*
X5021000D01*
Y1766000D01*
D02*
G37*
G36*
X3871000D02*
X3845500D01*
Y1441000D01*
X3454500D01*
Y1766000D01*
X3429000D01*
Y1893000D01*
X3490000D01*
Y1816000D01*
X3556000D01*
Y1893000D01*
X3617000D01*
Y1816000D01*
X3683000D01*
Y1893000D01*
X3744000D01*
Y1816000D01*
X3810000D01*
Y1893000D01*
X3871000D01*
Y1766000D01*
D02*
G37*
G36*
X8821043Y1765974D02*
X8795543D01*
Y1440974D01*
X8404543D01*
Y1765974D01*
X8379043D01*
Y1892974D01*
X8440043D01*
Y1815974D01*
X8506043D01*
Y1892974D01*
X8567043D01*
Y1815974D01*
X8633043D01*
Y1892974D01*
X8694043D01*
Y1815974D01*
X8760043D01*
Y1892974D01*
X8821043D01*
Y1765974D01*
D02*
G37*
G36*
X7671043D02*
X7645543D01*
Y1440974D01*
X7254543D01*
Y1765974D01*
X7229043D01*
Y1892974D01*
X7290043D01*
Y1815974D01*
X7356043D01*
Y1892974D01*
X7417043D01*
Y1815974D01*
X7483043D01*
Y1892974D01*
X7544043D01*
Y1815974D01*
X7610043D01*
Y1892974D01*
X7671043D01*
Y1765974D01*
D02*
G37*
D13*
X3812501Y5295000D02*
D03*
Y5155000D02*
D03*
X3662501Y5045000D02*
D03*
X3812500Y5892500D02*
D03*
X3662500Y5782500D02*
D03*
X3662501Y4905000D02*
D03*
X8937543Y1279974D02*
D03*
X7787543D02*
D03*
X3662500Y5642500D02*
D03*
X5137500Y1280000D02*
D03*
X3987500D02*
D03*
X3812500Y6032500D02*
D03*
X8937543Y1419974D02*
D03*
X7787543D02*
D03*
X5137500Y1420000D02*
D03*
X3987500D02*
D03*
D17*
X8120043Y774974D02*
D03*
X4320000Y775000D02*
D03*
X7980042Y774974D02*
D03*
X4180000Y775000D02*
D03*
D32*
X3880000Y900000D02*
D03*
X7680043Y899974D02*
D03*
X3595000Y900000D02*
D03*
X7395043Y899974D02*
D03*
D37*
X7837543Y625110D02*
D03*
X4037500Y625136D02*
D03*
X7837543Y349838D02*
D03*
X4037500Y349864D02*
D03*
D39*
X5000000Y2558750D02*
D03*
Y2128750D02*
D03*
X5462500Y1765000D02*
D03*
X3100100Y2490000D02*
D03*
Y2060000D02*
D03*
X4312500Y1765000D02*
D03*
X8112543Y1764974D02*
D03*
X9262543D02*
D03*
Y1334974D02*
D03*
X8112543D02*
D03*
X5462500Y1335000D02*
D03*
X4312500D02*
D03*
D42*
X5187500Y1830000D02*
D03*
X4037500D02*
D03*
X7837543Y1829974D02*
D03*
X8987543D02*
D03*
X4612915Y832497D02*
D03*
X8412958Y832471D02*
D03*
X8987543Y1544974D02*
D03*
X8412958Y1117471D02*
D03*
X7837543Y1544974D02*
D03*
X5187500Y1545000D02*
D03*
X4612915Y1117497D02*
D03*
X4037500Y1545000D02*
D03*
D61*
X3459500Y1295500D02*
D03*
X3586500D02*
D03*
X3713500D02*
D03*
X3840500D02*
D03*
X8790543Y1295474D02*
D03*
X8663543D02*
D03*
X8536543D02*
D03*
X7640543D02*
D03*
X7386543D02*
D03*
X7513543D02*
D03*
X4863500Y1295500D02*
D03*
X4990500D02*
D03*
X4736500D02*
D03*
X8409543Y1295474D02*
D03*
X7259543D02*
D03*
X4609500Y1295500D02*
D03*
D63*
X3250000Y3451020D02*
D03*
X1100000D02*
D03*
Y2948980D02*
D03*
X3250000D02*
D03*
X5400000Y3451020D02*
D03*
Y2948980D02*
D03*
X7550000Y3451020D02*
D03*
Y2948980D02*
D03*
D64*
X6541250Y1775000D02*
D03*
X6971250D02*
D03*
X8597500Y2750000D02*
D03*
X9027500D02*
D03*
D65*
X4252500Y325000D02*
D03*
X4382500Y625000D02*
D03*
X4252500D02*
D03*
X8182543Y624974D02*
D03*
X8052543D02*
D03*
X4447500Y625000D02*
D03*
X4382500Y325000D02*
D03*
X4447500D02*
D03*
X4317500D02*
D03*
Y625000D02*
D03*
X8247543Y324974D02*
D03*
X8182543D02*
D03*
X8052543D02*
D03*
X8247543Y624974D02*
D03*
X8117543Y324974D02*
D03*
Y624974D02*
D03*
D66*
X4350000Y475000D02*
D03*
X8150043Y474974D02*
D03*
D67*
X3812501Y5049000D02*
D03*
X3812500Y5786500D02*
D03*
X3812501Y4901000D02*
D03*
X3812500Y5638500D02*
D03*
D68*
X1698980Y9600000D02*
D03*
X2201020D02*
D03*
X3698980D02*
D03*
X4201020D02*
D03*
X5698980D02*
D03*
X6201020D02*
D03*
X8201020D02*
D03*
X7698980D02*
D03*
%TF.MD5,37e1e2599d4b13002052c0d6a77dcfc3*%
M02*
