%TF.GenerationSoftware,Altium Limited,Altium Designer,25.8.1 (18)*%
G04 Layer_Physical_Order=4*
G04 Layer_Color=16711680*
%FSLAX45Y45*%
%MOMM*%
%TF.SameCoordinates,5F8AD7AF-A6C7-491F-921A-1EE88451CE46*%
%TF.FilePolarity,Positive*%
%TF.FileFunction,Copper,L4,Bot,Signal*%
%TF.Part,Single*%
G01*
G75*
%TA.AperFunction,Conductor*%
%ADD10C,0.50000*%
%TA.AperFunction,SMDPad,CuDef*%
G04:AMPARAMS|DCode=13|XSize=0.76mm|YSize=0.6604mm|CornerRadius=0.08255mm|HoleSize=0mm|Usage=FLASHONLY|Rotation=0.000|XOffset=0mm|YOffset=0mm|HoleType=Round|Shape=RoundedRectangle|*
%AMROUNDEDRECTD13*
21,1,0.76000,0.49530,0,0,0.0*
21,1,0.59490,0.66040,0,0,0.0*
1,1,0.16510,0.29745,-0.24765*
1,1,0.16510,-0.29745,-0.24765*
1,1,0.16510,-0.29745,0.24765*
1,1,0.16510,0.29745,0.24765*
%
%ADD13ROUNDEDRECTD13*%
G04:AMPARAMS|DCode=17|XSize=0.76mm|YSize=0.6604mm|CornerRadius=0.08255mm|HoleSize=0mm|Usage=FLASHONLY|Rotation=90.000|XOffset=0mm|YOffset=0mm|HoleType=Round|Shape=RoundedRectangle|*
%AMROUNDEDRECTD17*
21,1,0.76000,0.49530,0,0,90.0*
21,1,0.59490,0.66040,0,0,90.0*
1,1,0.16510,0.24765,0.29745*
1,1,0.16510,0.24765,-0.29745*
1,1,0.16510,-0.24765,-0.29745*
1,1,0.16510,-0.24765,0.29745*
%
%ADD17ROUNDEDRECTD17*%
%ADD32R,1.10000X1.65000*%
%ADD37R,1.75822X1.30550*%
G04:AMPARAMS|DCode=39|XSize=2.65mm|YSize=1.75mm|CornerRadius=0.21875mm|HoleSize=0mm|Usage=FLASHONLY|Rotation=270.000|XOffset=0mm|YOffset=0mm|HoleType=Round|Shape=RoundedRectangle|*
%AMROUNDEDRECTD39*
21,1,2.65000,1.31250,0,0,270.0*
21,1,2.21250,1.75000,0,0,270.0*
1,1,0.43750,-0.65625,-1.10625*
1,1,0.43750,-0.65625,1.10625*
1,1,0.43750,0.65625,1.10625*
1,1,0.43750,0.65625,-1.10625*
%
%ADD39ROUNDEDRECTD39*%
%ADD42R,1.65000X1.10000*%
%TA.AperFunction,Conductor*%
%ADD45C,0.30000*%
%ADD46C,0.20000*%
%ADD47C,0.60000*%
%ADD48C,0.40000*%
%TA.AperFunction,NonConductor*%
%ADD49C,0.16000*%
%TA.AperFunction,ComponentPad*%
%ADD50C,5.08000*%
G04:AMPARAMS|DCode=51|XSize=5.08mm|YSize=5.08mm|CornerRadius=1.27mm|HoleSize=0mm|Usage=FLASHONLY|Rotation=0.000|XOffset=0mm|YOffset=0mm|HoleType=Round|Shape=RoundedRectangle|*
%AMROUNDEDRECTD51*
21,1,5.08000,2.54000,0,0,0.0*
21,1,2.54000,5.08000,0,0,0.0*
1,1,2.54000,1.27000,-1.27000*
1,1,2.54000,-1.27000,-1.27000*
1,1,2.54000,-1.27000,1.27000*
1,1,2.54000,1.27000,1.27000*
%
%ADD51ROUNDEDRECTD51*%
%ADD53C,1.55000*%
%ADD54C,3.00000*%
%ADD55R,1.55000X1.55000*%
%ADD56C,1.45000*%
%ADD57C,0.80000*%
%ADD58C,6.00000*%
%TA.AperFunction,ViaPad*%
%ADD59C,0.65000*%
%TA.AperFunction,SMDPad,CuDef*%
%ADD61R,0.61000X1.27000*%
%AMCUSTOMSHAPE62*
4,1,21,2.14094,2.65531,1.53094,2.65531,1.53094,1.88531,0.87094,1.88531,0.87094,2.65531,0.26094,2.65531,0.26094,1.88531,-0.39906,1.88531,-0.39906,2.65531,-1.00906,2.65531,-1.00906,1.88531,-1.66906,1.88531,-1.66906,2.65531,-2.27906,2.65531,-2.27906,1.38531,-2.02406,1.38531,-2.02406,-1.86469,1.88594,-1.86469,1.88594,1.38531,2.14094,1.38531,2.14094,2.65531,2.14094,2.65531,0.0*%
%ADD62CUSTOMSHAPE62*%

%ADD63R,5.40312X1.88209*%
G04:AMPARAMS|DCode=64|XSize=2.65mm|YSize=1.75mm|CornerRadius=0.21875mm|HoleSize=0mm|Usage=FLASHONLY|Rotation=180.000|XOffset=0mm|YOffset=0mm|HoleType=Round|Shape=RoundedRectangle|*
%AMROUNDEDRECTD64*
21,1,2.65000,1.31250,0,0,180.0*
21,1,2.21250,1.75000,0,0,180.0*
1,1,0.43750,-1.10625,0.65625*
1,1,0.43750,1.10625,0.65625*
1,1,0.43750,1.10625,-0.65625*
1,1,0.43750,-1.10625,-0.65625*
%
%ADD64ROUNDEDRECTD64*%
G04:AMPARAMS|DCode=65|XSize=0.3mm|YSize=0.8mm|CornerRadius=0.075mm|HoleSize=0mm|Usage=FLASHONLY|Rotation=180.000|XOffset=0mm|YOffset=0mm|HoleType=Round|Shape=RoundedRectangle|*
%AMROUNDEDRECTD65*
21,1,0.30000,0.65000,0,0,180.0*
21,1,0.15000,0.80000,0,0,180.0*
1,1,0.15000,-0.07500,0.32500*
1,1,0.15000,0.07500,0.32500*
1,1,0.15000,0.07500,-0.32500*
1,1,0.15000,-0.07500,-0.32500*
%
%ADD65ROUNDEDRECTD65*%
%ADD66R,2.05000X1.70000*%
G04:AMPARAMS|DCode=67|XSize=0.67mm|YSize=0.4mm|CornerRadius=0.04mm|HoleSize=0mm|Usage=FLASHONLY|Rotation=270.000|XOffset=0mm|YOffset=0mm|HoleType=Round|Shape=RoundedRectangle|*
%AMROUNDEDRECTD67*
21,1,0.67000,0.32000,0,0,270.0*
21,1,0.59000,0.40000,0,0,270.0*
1,1,0.08000,-0.16000,-0.29500*
1,1,0.08000,-0.16000,0.29500*
1,1,0.08000,0.16000,0.29500*
1,1,0.08000,0.16000,-0.29500*
%
%ADD67ROUNDEDRECTD67*%
%ADD68R,1.88209X5.40312*%
%TA.AperFunction,Conductor*%
%ADD69C,0.80000*%
%TA.AperFunction,ComponentPad*%
G04:AMPARAMS|DCode=70|XSize=5mm|YSize=2.8mm|CornerRadius=1.4mm|HoleSize=0mm|Usage=FLASHONLY|Rotation=0.000|XOffset=0mm|YOffset=0mm|HoleType=Round|Shape=RoundedRectangle|*
%AMROUNDEDRECTD70*
21,1,5.00000,0.00000,0,0,0.0*
21,1,2.20000,2.80000,0,0,0.0*
1,1,2.80000,1.10000,0.00000*
1,1,2.80000,-1.10000,0.00000*
1,1,2.80000,-1.10000,0.00000*
1,1,2.80000,1.10000,0.00000*
%
%ADD70ROUNDEDRECTD70*%
%ADD71C,7.40000*%
G36*
X9591774Y9961381D02*
X9651212Y9945455D01*
X9708062Y9921907D01*
X9761350Y9891141D01*
X9810169Y9853681D01*
X9853680Y9810170D01*
X9891140Y9761351D01*
X9921907Y9708062D01*
X9945455Y9651212D01*
X9961381Y9591774D01*
X9969413Y9530766D01*
Y9500000D01*
Y8800000D01*
X9462500D01*
X9412500Y8850000D01*
X1000000D01*
X950000Y8800000D01*
X30586D01*
Y9500000D01*
Y9530766D01*
X38618Y9591774D01*
X54544Y9651212D01*
X78093Y9708062D01*
X108859Y9761350D01*
X146319Y9810169D01*
X189829Y9853680D01*
X238648Y9891140D01*
X291938Y9921907D01*
X348787Y9945455D01*
X408225Y9961381D01*
X469234Y9969413D01*
X9530766D01*
X9591774Y9961381D01*
D02*
G37*
G36*
X825000Y8650000D02*
Y7975000D01*
X937500Y7862500D01*
X1200000D01*
X1337500Y7725000D01*
X7987500D01*
X8740516Y6971984D01*
X7801139Y6032607D01*
X7587500D01*
X7577336Y6030585D01*
X7435211Y6172710D01*
X7424791Y6179672D01*
X7412500Y6182117D01*
X7362179D01*
X7352756Y6191540D01*
X7334747Y6199000D01*
X7333424D01*
X7327211Y6214000D01*
X7339516Y6226305D01*
X7340253Y6226000D01*
X7359747D01*
X7377756Y6233460D01*
X7391540Y6247244D01*
X7399000Y6265253D01*
Y6284747D01*
X7391540Y6302756D01*
X7377756Y6316540D01*
X7359747Y6324000D01*
X7340253D01*
X7322244Y6316540D01*
X7308460Y6302756D01*
X7301000Y6284747D01*
Y6265253D01*
X7301305Y6264516D01*
X7042308Y6005519D01*
X6653500D01*
X6643160Y6003462D01*
X6634394Y5997605D01*
X6410484Y5773695D01*
X6409747Y5774000D01*
X6390253D01*
X6372244Y5766540D01*
X6358460Y5752756D01*
X6351000Y5734747D01*
Y5715253D01*
X6355446Y5704519D01*
X6346585Y5689519D01*
X6073692D01*
X5447828Y6315383D01*
X5454041Y6330383D01*
X5611696D01*
X6013500Y5928579D01*
Y5915253D01*
X6020960Y5897244D01*
X6034744Y5883460D01*
X6052753Y5876000D01*
X6072247D01*
X6090256Y5883460D01*
X6104040Y5897244D01*
X6111500Y5915253D01*
Y5934747D01*
X6104040Y5952756D01*
X6090256Y5966540D01*
X6072247Y5974000D01*
X6058921D01*
X5647710Y6385210D01*
X5637291Y6392173D01*
X5625000Y6394617D01*
X2700000D01*
X2687709Y6392173D01*
X2677290Y6385210D01*
X2449196Y6157117D01*
X2074679D01*
X2065256Y6166540D01*
X2047247Y6174000D01*
X2027753D01*
X2009744Y6166540D01*
X1995960Y6152756D01*
X1988500Y6134747D01*
Y6115253D01*
X1995960Y6097244D01*
X2009744Y6083460D01*
X2027753Y6076000D01*
X2047247D01*
X2065256Y6083460D01*
X2074679Y6092883D01*
X2462500D01*
X2474791Y6095327D01*
X2485210Y6102290D01*
X2713303Y6330383D01*
X2822878D01*
X2829091Y6315383D01*
X2813104Y6299396D01*
X2809457Y6293938D01*
X2808176Y6287500D01*
X2808177Y6287499D01*
Y6088748D01*
X2805260Y6086278D01*
X2794340Y6081704D01*
X2794047Y6081644D01*
X2785340Y6087463D01*
X2775000Y6089519D01*
X2587500D01*
X2577160Y6087463D01*
X2568395Y6081606D01*
X2385484Y5898695D01*
X2384747Y5899000D01*
X2365253D01*
X2347244Y5891540D01*
X2333460Y5877756D01*
X2326000Y5859747D01*
Y5840253D01*
X2333460Y5822244D01*
X2347244Y5808460D01*
X2365253Y5801000D01*
X2384747D01*
X2402756Y5808460D01*
X2416540Y5822244D01*
X2424000Y5840253D01*
Y5859747D01*
X2423695Y5860484D01*
X2598692Y6035481D01*
X2763809D01*
X2805895Y5993394D01*
X2807952Y5992019D01*
X2803402Y5977019D01*
X2800000D01*
X2789660Y5974963D01*
X2780895Y5969106D01*
X2588808Y5777019D01*
X1398369D01*
X1174000Y6001388D01*
Y6009747D01*
X1166540Y6027756D01*
X1152756Y6041540D01*
X1134747Y6049000D01*
X1115253D01*
X1097244Y6041540D01*
X1083460Y6027756D01*
X1076000Y6009747D01*
Y5990253D01*
X1083460Y5972244D01*
X1097244Y5958460D01*
X1115253Y5951000D01*
X1134747D01*
X1144094Y5954872D01*
X1368072Y5730894D01*
X1376837Y5725037D01*
X1387177Y5722981D01*
X2600000D01*
X2610340Y5725037D01*
X2619105Y5730895D01*
X2803800Y5915589D01*
X2808623Y5914630D01*
X2813561Y5898354D01*
X2813104Y5897897D01*
X2809457Y5892439D01*
X2808176Y5886001D01*
X2808177Y5886000D01*
Y5711096D01*
X2805364Y5708067D01*
X2793176Y5700890D01*
X2787500Y5702019D01*
X2650000D01*
X2639660Y5699963D01*
X2630894Y5694105D01*
X2588808Y5652019D01*
X1529345D01*
X1529040Y5652756D01*
X1515256Y5666540D01*
X1497247Y5674000D01*
X1477753D01*
X1459744Y5666540D01*
X1445960Y5652756D01*
X1438500Y5634747D01*
Y5620924D01*
X1423883Y5614328D01*
X1173695Y5864516D01*
X1174000Y5865253D01*
Y5884747D01*
X1166540Y5902756D01*
X1152756Y5916540D01*
X1134747Y5924000D01*
X1115253D01*
X1097244Y5916540D01*
X1083460Y5902756D01*
X1076000Y5884747D01*
Y5865253D01*
X1083460Y5847244D01*
X1097244Y5833460D01*
X1115253Y5826000D01*
X1134747D01*
X1135484Y5826305D01*
X1279902Y5681888D01*
X1271405Y5669171D01*
X1259747Y5674000D01*
X1240253D01*
X1222244Y5666540D01*
X1208460Y5652756D01*
X1201000Y5634747D01*
Y5615253D01*
X1208460Y5597244D01*
X1222244Y5583460D01*
X1240253Y5576000D01*
X1259747D01*
X1260484Y5576305D01*
X1430894Y5405895D01*
X1439660Y5400037D01*
X1450000Y5397981D01*
X1670058D01*
X1780894Y5287145D01*
X1789660Y5281287D01*
X1800000Y5279231D01*
X2720059D01*
X2793394Y5205895D01*
X2802160Y5200037D01*
X2812500Y5197981D01*
X3262500D01*
X3272840Y5200037D01*
X3281605Y5205895D01*
X3378500Y5302789D01*
X3393500Y5296576D01*
Y5279125D01*
X3399906Y5255217D01*
X3412281Y5233783D01*
X3429783Y5216281D01*
X3451217Y5203906D01*
X3475125Y5197500D01*
X3499875D01*
X3523783Y5203906D01*
X3545217Y5216281D01*
X3562719Y5233783D01*
X3575094Y5255217D01*
X3581500Y5279125D01*
Y5303875D01*
X3575094Y5327783D01*
X3562719Y5349217D01*
X3557455Y5354481D01*
X3563669Y5369481D01*
X4554809D01*
X4980895Y4943394D01*
X4989660Y4937537D01*
X5000000Y4935481D01*
X6751308D01*
X6763805Y4922984D01*
X6763500Y4922247D01*
Y4902753D01*
X6770960Y4884744D01*
X6784744Y4870960D01*
X6802753Y4863500D01*
X6822247D01*
X6840256Y4870960D01*
X6854040Y4884744D01*
X6857981Y4894257D01*
X6872981Y4891273D01*
Y4636192D01*
X6835484Y4598695D01*
X6834747Y4599000D01*
X6815253D01*
X6797244Y4591540D01*
X6783460Y4577756D01*
X6776000Y4559747D01*
Y4540253D01*
X6783460Y4522244D01*
X6797244Y4508460D01*
X6815253Y4501000D01*
X6834747D01*
X6852756Y4508460D01*
X6866540Y4522244D01*
X6874000Y4540253D01*
Y4559747D01*
X6873695Y4560484D01*
X6919106Y4605895D01*
X6924963Y4614660D01*
X6927019Y4625000D01*
Y5050000D01*
X6924963Y5060340D01*
X6919106Y5069105D01*
X6469105Y5519105D01*
X6460340Y5524963D01*
X6450000Y5527019D01*
X6232292D01*
X6231715Y5527883D01*
X6239733Y5542883D01*
X7007221D01*
X7019512Y5545327D01*
X7029931Y5552290D01*
X7166142Y5688500D01*
X7184747D01*
X7202756Y5695960D01*
X7216540Y5709744D01*
X7224000Y5727753D01*
Y5747247D01*
X7216540Y5765256D01*
X7202756Y5779040D01*
X7199988Y5780187D01*
X7202972Y5795187D01*
X7392393D01*
Y5661362D01*
X7296766Y5565734D01*
X7284278Y5547045D01*
X7279893Y5525000D01*
Y4598862D01*
X6690516Y4009484D01*
X6625000Y4075000D01*
X6331229D01*
X6177269Y4228961D01*
X6166849Y4235923D01*
X6154558Y4238367D01*
X5616544D01*
X5283894Y4571018D01*
X5281240Y4574990D01*
X5164769Y4691461D01*
X5154349Y4698423D01*
X5142058Y4700867D01*
X3356251D01*
X3356250Y4700868D01*
X3343959Y4698423D01*
X3333540Y4691461D01*
X3333539Y4691460D01*
X3305681Y4663602D01*
X3291823Y4669342D01*
Y4687499D01*
X3291824Y4687500D01*
X3290543Y4693938D01*
X3286896Y4699396D01*
X3286895Y4699397D01*
X3261896Y4724396D01*
X3256438Y4728043D01*
X3250000Y4729324D01*
X3249999Y4729324D01*
X2850001D01*
X2850000Y4729324D01*
X2843562Y4728043D01*
X2838104Y4724396D01*
X2838103Y4724395D01*
X2813104Y4699396D01*
X2809457Y4693938D01*
X2808176Y4687500D01*
X2808177Y4687499D01*
Y4533176D01*
X2734267Y4459266D01*
X2675000Y4400000D01*
X2636896Y4361896D01*
X2624396D01*
X2618938Y4365543D01*
X2612500Y4366824D01*
X2612499Y4366823D01*
X1100001D01*
X1100000Y4366824D01*
X1093562Y4365543D01*
X1088104Y4361896D01*
X1088103Y4361895D01*
X1087858Y4361649D01*
X1085038Y4362382D01*
X1073999Y4369004D01*
Y4384746D01*
X1066539Y4402756D01*
X1052756Y4416540D01*
X1052018Y4416845D01*
Y6376308D01*
X1653846Y6978136D01*
X1659003Y6976000D01*
X1678497D01*
X1696506Y6983460D01*
X1710290Y6997244D01*
X1717750Y7015253D01*
Y7034747D01*
X1710290Y7052756D01*
X1696506Y7066540D01*
X1678497Y7074000D01*
X1659003D01*
X1640994Y7066540D01*
X1627210Y7052756D01*
X1619750Y7034747D01*
Y7020461D01*
X1084363Y6485075D01*
X1068467Y6490391D01*
X1067522Y6497102D01*
X1185210Y6614790D01*
X1192173Y6625210D01*
X1194617Y6637500D01*
Y6786697D01*
X1321420Y6913500D01*
X1334746D01*
X1352755Y6920959D01*
X1366539Y6934743D01*
X1373999Y6952753D01*
Y6972246D01*
X1366539Y6990256D01*
X1352755Y7004040D01*
X1334746Y7011500D01*
X1315252D01*
X1297243Y7004040D01*
X1283459Y6990256D01*
X1275999Y6972246D01*
Y6958920D01*
X1139790Y6822711D01*
X1132828Y6812291D01*
X1130383Y6800001D01*
Y6650804D01*
X1016079Y6536500D01*
X1002753D01*
X984744Y6529040D01*
X970960Y6515256D01*
X963500Y6497247D01*
Y6477753D01*
X970960Y6459744D01*
X984744Y6445960D01*
X1002753Y6438500D01*
X1016575D01*
X1023172Y6423883D01*
X1005894Y6406605D01*
X1000037Y6397840D01*
X997980Y6387500D01*
Y4416845D01*
X997243Y4416540D01*
X983459Y4402756D01*
X978036Y4389665D01*
X963092Y4386717D01*
X961891Y4386901D01*
X936896Y4411896D01*
X931438Y4415543D01*
X925000Y4416824D01*
X924999Y4416824D01*
X875000D01*
X868562Y4415543D01*
X863104Y4411896D01*
X863104Y4411895D01*
X838104Y4386896D01*
X834457Y4381438D01*
X833176Y4375000D01*
X833177Y4374999D01*
Y4100001D01*
X833176Y4100000D01*
X834457Y4093562D01*
X838104Y4088104D01*
X838105Y4088103D01*
X911208Y4015000D01*
X909832Y4007300D01*
X905716Y4000000D01*
X30586D01*
Y4306837D01*
X33253Y4320246D01*
X38487Y4332880D01*
X46083Y4344248D01*
X55751Y4353917D01*
X67119Y4361513D01*
X79753Y4366746D01*
X93163Y4369413D01*
X100001Y4369414D01*
X145677D01*
Y4225000D01*
X146957Y4218562D01*
X150604Y4213104D01*
X156062Y4209457D01*
X162500Y4208176D01*
X420842D01*
Y4207513D01*
X579158D01*
Y4224169D01*
X579323Y4225000D01*
Y4369589D01*
X586302Y4369932D01*
X588501Y4370483D01*
X590769D01*
X609995Y4374307D01*
X612778Y4375460D01*
X615733Y4376048D01*
X633844Y4383550D01*
X636349Y4385223D01*
X639133Y4386376D01*
X655432Y4397267D01*
X657562Y4399397D01*
X660067Y4401071D01*
X673928Y4414932D01*
X675602Y4417437D01*
X677732Y4419567D01*
X688623Y4435867D01*
X689776Y4438650D01*
X691450Y4441155D01*
X698952Y4459266D01*
X699540Y4462221D01*
X700693Y4465004D01*
X704517Y4484231D01*
Y4486498D01*
X705068Y4488696D01*
X705550Y4498498D01*
X705438Y4499252D01*
X705587Y4500000D01*
Y6274999D01*
X705438Y6275746D01*
X705550Y6276500D01*
X705068Y6286302D01*
X704517Y6288501D01*
Y6290768D01*
X700693Y6309995D01*
X699540Y6312778D01*
X698952Y6315732D01*
X691450Y6333844D01*
X689777Y6336349D01*
X688624Y6339132D01*
X677732Y6355432D01*
X675602Y6357562D01*
X673929Y6360067D01*
X660068Y6373928D01*
X657563Y6375601D01*
X655433Y6377731D01*
X639133Y6388623D01*
X636350Y6389776D01*
X633845Y6391450D01*
X637274Y6406265D01*
X685582D01*
X695922Y6408322D01*
X704688Y6414179D01*
X729907Y6439398D01*
X730644Y6439093D01*
X750138D01*
X768147Y6446553D01*
X781931Y6460337D01*
X789391Y6478346D01*
Y6497840D01*
X781931Y6515849D01*
X768147Y6529633D01*
X750138Y6537093D01*
X730644D01*
X712635Y6529633D01*
X710473Y6527471D01*
X701539Y6529248D01*
X687756Y6543032D01*
X669746Y6550492D01*
X650253D01*
X649516Y6550187D01*
X327019Y6872683D01*
Y7077672D01*
X340877Y7083412D01*
X403394Y7020895D01*
X412160Y7015038D01*
X422500Y7012981D01*
X442736D01*
X443459Y7011235D01*
X457243Y6997452D01*
X475253Y6989992D01*
X482914D01*
X497363Y6975542D01*
X507783Y6968580D01*
X520073Y6966135D01*
X596101D01*
X608392Y6968580D01*
X618812Y6975542D01*
X744118Y7100849D01*
X744119Y7100850D01*
X751081Y7111269D01*
X753526Y7123560D01*
Y7177752D01*
X782887Y7207113D01*
X796213D01*
X814223Y7214573D01*
X828007Y7228357D01*
X835467Y7246366D01*
Y7265860D01*
X828007Y7283869D01*
X814223Y7297653D01*
X796213Y7305113D01*
X776720D01*
X758710Y7297653D01*
X744926Y7283869D01*
X737466Y7265860D01*
Y7252534D01*
X698698Y7213766D01*
X691736Y7203346D01*
X689291Y7191055D01*
Y7136863D01*
X629786Y7077358D01*
X614786Y7083572D01*
Y7095800D01*
X607326Y7113810D01*
X597904Y7123233D01*
Y7275942D01*
X595459Y7288233D01*
X588497Y7298652D01*
X532117Y7355032D01*
Y7406623D01*
X580877Y7455383D01*
X725388D01*
X737679Y7457827D01*
X748098Y7464789D01*
X785210Y7501901D01*
X792172Y7512321D01*
X794617Y7524611D01*
Y7575320D01*
X804040Y7584743D01*
X811500Y7602753D01*
Y7622246D01*
X804812Y7638390D01*
Y7728183D01*
X829623Y7752994D01*
X951598D01*
X957522Y7737994D01*
X950999Y7722246D01*
Y7702753D01*
X951304Y7702016D01*
X868395Y7619106D01*
X862537Y7610340D01*
X860481Y7600000D01*
Y7179871D01*
X825739Y7145129D01*
X825002Y7145435D01*
X805508D01*
X787499Y7137975D01*
X773715Y7124191D01*
X766255Y7106181D01*
Y7086688D01*
X773715Y7068678D01*
X787499Y7054894D01*
X805508Y7047434D01*
X825002D01*
X843011Y7054894D01*
X856795Y7068678D01*
X864255Y7086688D01*
Y7106181D01*
X863950Y7106918D01*
X906605Y7149574D01*
X912462Y7158340D01*
X914519Y7168679D01*
Y7588809D01*
X989515Y7663805D01*
X990253Y7663500D01*
X1009746D01*
X1027756Y7670960D01*
X1030187Y7673391D01*
X1045187Y7667177D01*
Y7562500D01*
X1048408Y7546308D01*
X1057580Y7532580D01*
X1470080Y7120080D01*
X1483808Y7110908D01*
X1500000Y7107687D01*
X4836610D01*
X4852753Y7101000D01*
X4872247D01*
X4890256Y7108460D01*
X4904040Y7122244D01*
X4911500Y7140253D01*
Y7159747D01*
X4904040Y7177756D01*
X4890256Y7191540D01*
X4872247Y7199000D01*
X4852753D01*
X4836610Y7192313D01*
X1517527D01*
X1129813Y7580027D01*
Y7741217D01*
X1126592Y7757410D01*
X1117420Y7771137D01*
X1063330Y7825227D01*
X1049603Y7834399D01*
X1033410Y7837620D01*
X812097D01*
X812096Y7837620D01*
X795904Y7834399D01*
X782176Y7825227D01*
X732579Y7775630D01*
X723407Y7761902D01*
X720186Y7745710D01*
Y7654849D01*
X705186Y7648855D01*
X595269Y7758772D01*
Y7772099D01*
X587809Y7790108D01*
X574025Y7803892D01*
X556016Y7811352D01*
X536522D01*
X518513Y7803892D01*
X504729Y7790108D01*
X497269Y7772099D01*
Y7752605D01*
X504729Y7734595D01*
X518513Y7720812D01*
X536522Y7713352D01*
X549848D01*
X673411Y7589789D01*
X683830Y7582827D01*
X696121Y7580382D01*
X725320D01*
X730382Y7575320D01*
Y7537915D01*
X712084Y7519617D01*
X567575D01*
X567574Y7519617D01*
X555283Y7517172D01*
X544863Y7510210D01*
X477290Y7442637D01*
X470327Y7432217D01*
X467883Y7419926D01*
Y7341728D01*
X470327Y7329437D01*
X477290Y7319018D01*
X533669Y7262639D01*
Y7123233D01*
X524246Y7113810D01*
X516786Y7095800D01*
Y7095099D01*
X501786Y7085076D01*
X494746Y7087992D01*
X475253D01*
X457243Y7080532D01*
X443731Y7067020D01*
X433691D01*
X364519Y7136191D01*
Y7156484D01*
X362463Y7166824D01*
X356606Y7175589D01*
X277019Y7255175D01*
Y7633159D01*
X335604Y7691744D01*
X341461Y7700509D01*
X343518Y7710849D01*
Y7767807D01*
X627016Y8051305D01*
X627753Y8050999D01*
X647246D01*
X665256Y8058459D01*
X679040Y8072243D01*
X686500Y8090253D01*
Y8109746D01*
X679040Y8127756D01*
X665256Y8141540D01*
X647246Y8149000D01*
X627753D01*
X609743Y8141540D01*
X595959Y8127756D01*
X588499Y8109746D01*
Y8090253D01*
X588805Y8089516D01*
X439000Y7939711D01*
X424000Y7945924D01*
Y7947246D01*
X416540Y7965256D01*
X402756Y7979040D01*
X384747Y7986500D01*
X365253D01*
X347243Y7979040D01*
X333460Y7965256D01*
X326000Y7947246D01*
Y7927753D01*
X326305Y7927016D01*
X281541Y7882252D01*
X263920Y7885845D01*
X262016Y7888694D01*
X211194Y7939516D01*
X211500Y7940253D01*
Y7959746D01*
X204040Y7977756D01*
X190256Y7991540D01*
X172246Y7999000D01*
X152753D01*
X134743Y7991540D01*
X120959Y7977756D01*
X113499Y7959746D01*
Y7940253D01*
X120959Y7922243D01*
X134743Y7908459D01*
X152753Y7900999D01*
X172246D01*
X172983Y7901305D01*
X215892Y7858397D01*
Y7791602D01*
X157895Y7733605D01*
X152037Y7724840D01*
X149981Y7714500D01*
Y7213747D01*
X152037Y7203407D01*
X157895Y7194641D01*
X222981Y7129555D01*
Y6800000D01*
X225037Y6789660D01*
X230895Y6780895D01*
X592749Y6419040D01*
X592237Y6415284D01*
X591394Y6412855D01*
X588065Y6407762D01*
X585468Y6405108D01*
X576501Y6405549D01*
X575747Y6405437D01*
X575000Y6405586D01*
X93162D01*
X79753Y6408253D01*
X67120Y6413486D01*
X55751Y6421082D01*
X46082Y6430751D01*
X38487Y6442118D01*
X33253Y6454753D01*
X30586Y6468162D01*
X30586Y6475000D01*
X30586Y8775000D01*
X700000D01*
X825000Y8650000D01*
D02*
G37*
G36*
X9900000Y8300000D02*
Y7150000D01*
X9650000Y6900000D01*
X8850000D01*
X8000000Y7750000D01*
X1350000D01*
X1212500Y7887500D01*
X950000Y7887500D01*
X850000Y7987500D01*
X850000Y8650000D01*
X1025000Y8825000D01*
X9375000D01*
X9900000Y8300000D01*
D02*
G37*
G36*
X6043394Y5643395D02*
X6052160Y5637537D01*
X6062500Y5635481D01*
X6870655D01*
X6870960Y5634744D01*
X6883586Y5622117D01*
X6883003Y5616774D01*
X6878988Y5607117D01*
X6050803D01*
X5835210Y5822710D01*
X5824790Y5829673D01*
X5812500Y5832117D01*
X4149679D01*
X4140256Y5841540D01*
X4122247Y5849000D01*
X4102753D01*
X4084744Y5841540D01*
X4070960Y5827756D01*
X4063500Y5809747D01*
Y5790253D01*
X4070960Y5772244D01*
X4084744Y5758460D01*
X4094257Y5754519D01*
X4091274Y5739519D01*
X4023692D01*
X3964519Y5798691D01*
Y6075000D01*
X3962463Y6085340D01*
X3956606Y6094105D01*
X3794105Y6256605D01*
X3785340Y6262463D01*
X3775000Y6264519D01*
X3439372D01*
X3430875Y6279519D01*
X3431751Y6280981D01*
X4592909D01*
X4596529Y6268920D01*
X4596684Y6265981D01*
X4583460Y6252756D01*
X4576000Y6234747D01*
Y6215253D01*
X4583460Y6197244D01*
X4597244Y6183460D01*
X4615253Y6176000D01*
X4634747D01*
X4652756Y6183460D01*
X4666540Y6197244D01*
X4674000Y6215253D01*
Y6234747D01*
X4666540Y6252756D01*
X4653316Y6265981D01*
X4653471Y6268920D01*
X4657091Y6280981D01*
X4792909D01*
X4796529Y6268920D01*
X4796684Y6265981D01*
X4783460Y6252756D01*
X4776000Y6234747D01*
Y6215253D01*
X4783460Y6197244D01*
X4797244Y6183460D01*
X4815253Y6176000D01*
X4834747D01*
X4852756Y6183460D01*
X4866540Y6197244D01*
X4874000Y6215253D01*
Y6234747D01*
X4866540Y6252756D01*
X4853316Y6265981D01*
X4853471Y6268920D01*
X4857091Y6280981D01*
X5065471D01*
X5071684Y6265981D01*
X5070960Y6265256D01*
X5063500Y6247247D01*
Y6227753D01*
X5070960Y6209744D01*
X5084743Y6195960D01*
X5102753Y6188500D01*
X5122247D01*
X5140256Y6195960D01*
X5154040Y6209744D01*
X5161500Y6227753D01*
Y6247247D01*
X5154040Y6265256D01*
X5153316Y6265981D01*
X5159529Y6280981D01*
X5265471D01*
X5271684Y6265981D01*
X5270960Y6265256D01*
X5263500Y6247247D01*
Y6227753D01*
X5270960Y6209744D01*
X5284744Y6195960D01*
X5302753Y6188500D01*
X5322247D01*
X5340256Y6195960D01*
X5354040Y6209744D01*
X5361500Y6227753D01*
Y6247247D01*
X5354040Y6265256D01*
X5353316Y6265981D01*
X5359529Y6280981D01*
X5405808D01*
X6043394Y5643395D01*
D02*
G37*
G36*
X3275000Y6287500D02*
Y6087500D01*
X3250000Y6062500D01*
X2850000D01*
X2825000Y6087500D01*
Y6287500D01*
X2850000Y6312500D01*
X3250000D01*
X3275000Y6287500D01*
D02*
G37*
G36*
X3910481Y6063808D02*
Y5787500D01*
X3912538Y5777160D01*
X3918395Y5768395D01*
X3993395Y5693395D01*
X4002160Y5687537D01*
X4012500Y5685481D01*
X5763809D01*
X5957270Y5492019D01*
X5951056Y5477019D01*
X3398692D01*
X3306605Y5569105D01*
X3297840Y5574963D01*
X3287500Y5577019D01*
X1540753D01*
X1533116Y5592019D01*
X1537453Y5597981D01*
X2600000D01*
X2610340Y5600037D01*
X2619105Y5605895D01*
X2661192Y5647981D01*
X2776308D01*
X2818394Y5605895D01*
X2827160Y5600037D01*
X2837500Y5597981D01*
X3287500D01*
X3297840Y5600037D01*
X3306605Y5605895D01*
X3423692Y5722981D01*
X3556260D01*
X3566600Y5725037D01*
X3575365Y5730895D01*
X3593878Y5749407D01*
X3600174Y5748869D01*
X3610948Y5745815D01*
X3614908Y5739888D01*
X3623096Y5734417D01*
X3632755Y5732495D01*
X3692245D01*
X3701904Y5734417D01*
X3710092Y5739888D01*
X3715564Y5748076D01*
X3716421Y5752383D01*
X3776517D01*
X3777189Y5749001D01*
X3781720Y5742220D01*
X3788501Y5737690D01*
X3796500Y5736099D01*
X3828500D01*
X3836499Y5737690D01*
X3843280Y5742220D01*
X3847810Y5749001D01*
X3849401Y5757000D01*
Y5816000D01*
X3847810Y5823999D01*
X3844617Y5828778D01*
Y5842967D01*
X3851904Y5844416D01*
X3860092Y5849888D01*
X3865564Y5858076D01*
X3867485Y5867735D01*
Y5917265D01*
X3865564Y5926924D01*
X3860092Y5935112D01*
X3851904Y5940584D01*
X3842245Y5942505D01*
X3782755D01*
X3773096Y5940584D01*
X3764908Y5935112D01*
X3759436Y5926924D01*
X3757515Y5917265D01*
Y5867735D01*
X3759436Y5858076D01*
X3764908Y5849888D01*
X3773096Y5844416D01*
X3780383Y5842967D01*
Y5828779D01*
X3777189Y5823999D01*
X3775721Y5816618D01*
X3715625D01*
X3715564Y5816924D01*
X3710092Y5825113D01*
X3701904Y5830584D01*
X3692245Y5832505D01*
X3632755D01*
X3623096Y5830584D01*
X3614908Y5825113D01*
X3609437Y5816924D01*
X3607964Y5809519D01*
X3588760D01*
X3581997Y5808174D01*
X3573522Y5816705D01*
X3571646Y5820245D01*
X3575094Y5826217D01*
X3581500Y5850125D01*
Y5874875D01*
X3575094Y5898783D01*
X3572938Y5902517D01*
X3670804Y6000383D01*
X3758978D01*
X3759436Y5998076D01*
X3764908Y5989888D01*
X3773096Y5984417D01*
X3782755Y5982495D01*
X3842245D01*
X3851904Y5984417D01*
X3860092Y5989888D01*
X3865564Y5998076D01*
X3867485Y6007735D01*
Y6057265D01*
X3865564Y6066924D01*
X3860092Y6075113D01*
X3851904Y6080584D01*
X3842245Y6082505D01*
X3782755D01*
X3773096Y6080584D01*
X3764908Y6075113D01*
X3759436Y6066924D01*
X3758978Y6064618D01*
X3657500D01*
X3645209Y6062173D01*
X3634790Y6055211D01*
X3527517Y5947938D01*
X3523783Y5950094D01*
X3499875Y5956500D01*
X3475125D01*
X3451217Y5950094D01*
X3429783Y5937719D01*
X3412281Y5920218D01*
X3399906Y5898783D01*
X3393500Y5874875D01*
Y5850125D01*
X3399906Y5826217D01*
X3412281Y5804783D01*
X3425045Y5792019D01*
X3418831Y5777019D01*
X3412500D01*
X3402160Y5774963D01*
X3393394Y5769105D01*
X3306330Y5682041D01*
X3298401Y5684205D01*
X3291823Y5688748D01*
Y5886000D01*
X3291824Y5886001D01*
X3290543Y5892439D01*
X3286896Y5897897D01*
X3286895Y5897898D01*
X3276812Y5907981D01*
X3283026Y5922981D01*
X3287500D01*
X3297840Y5925037D01*
X3306606Y5930895D01*
X3385066Y6009356D01*
X3390924Y6018121D01*
X3392980Y6028461D01*
Y6062213D01*
X3407980Y6066232D01*
X3412281Y6058783D01*
X3429783Y6041281D01*
X3451217Y6028906D01*
X3475125Y6022500D01*
X3499875D01*
X3523783Y6028906D01*
X3545217Y6041281D01*
X3562719Y6058783D01*
X3575094Y6080217D01*
X3581500Y6104125D01*
Y6128875D01*
X3575094Y6152783D01*
X3562719Y6174218D01*
X3545217Y6191719D01*
X3538702Y6195481D01*
X3542721Y6210481D01*
X3763809D01*
X3910481Y6063808D01*
D02*
G37*
G36*
X9535825Y6881599D02*
X9573192Y6869457D01*
X9609491Y6854422D01*
X9644499Y6836584D01*
X9677999Y6816055D01*
X9709786Y6792961D01*
X9739662Y6767444D01*
X9767445Y6739662D01*
X9792961Y6709786D01*
X9816056Y6677999D01*
X9836585Y6644499D01*
X9854422Y6609491D01*
X9869458Y6573192D01*
X9881599Y6535825D01*
X9890771Y6497620D01*
X9896917Y6458814D01*
X9900000Y6419645D01*
Y6400000D01*
Y6380355D01*
X9896917Y6341186D01*
X9890771Y6302379D01*
X9881599Y6264175D01*
X9869458Y6226808D01*
X9854422Y6190508D01*
X9836585Y6155501D01*
X9816056Y6122000D01*
X9792961Y6090214D01*
X9767445Y6060338D01*
X9739662Y6032555D01*
X9709786Y6007038D01*
X9677999Y5983944D01*
X9644499Y5963415D01*
X9609491Y5945578D01*
X9573192Y5930542D01*
X9535825Y5918401D01*
X9497620Y5909229D01*
X9458814Y5903082D01*
X9419645Y5900000D01*
X9380355D01*
X9341186Y5903082D01*
X9302379Y5909229D01*
X9264175Y5918401D01*
X9226808Y5930542D01*
X9190508Y5945578D01*
X9155501Y5963415D01*
X9122000Y5983944D01*
X9090214Y6007038D01*
X9060338Y6032555D01*
X9032555Y6060338D01*
X9007038Y6090214D01*
X8983944Y6122000D01*
X8963415Y6155501D01*
X8945578Y6190508D01*
X8930542Y6226808D01*
X8918401Y6264175D01*
X8909229Y6302379D01*
X8903083Y6341186D01*
X8900000Y6380355D01*
Y6400000D01*
Y6419645D01*
X8903083Y6458814D01*
X8909229Y6497620D01*
X8918401Y6535825D01*
X8930542Y6573192D01*
X8945578Y6609491D01*
X8963415Y6644499D01*
X8983944Y6677999D01*
X9007038Y6709786D01*
X9032555Y6739662D01*
X9060338Y6767444D01*
X9090214Y6792961D01*
X9122000Y6816055D01*
X9155501Y6836584D01*
X9190508Y6854422D01*
X9226808Y6869457D01*
X9264175Y6881599D01*
X9270747Y6883176D01*
X9529253D01*
X9535825Y6881599D01*
D02*
G37*
G36*
X8837500Y6875000D02*
Y5937500D01*
X8762500Y5862500D01*
X7576067D01*
X7570327Y5876358D01*
X7611362Y5917393D01*
X7825000D01*
X7847045Y5921778D01*
X7865734Y5934266D01*
X8821984Y6890516D01*
X8837500Y6875000D01*
D02*
G37*
G36*
X7276000Y6141576D02*
Y6140253D01*
X7283460Y6122244D01*
X7297244Y6108460D01*
X7315253Y6101000D01*
X7334747D01*
X7352756Y6108460D01*
X7362179Y6117883D01*
X7399197D01*
X7524056Y5993024D01*
X7410845Y5879813D01*
X6875000D01*
X6858807Y5876592D01*
X6845080Y5867420D01*
X6763387Y5785727D01*
X6747244Y5779040D01*
X6733460Y5765256D01*
X6726000Y5747247D01*
Y5727753D01*
X6733460Y5709744D01*
X6738684Y5704519D01*
X6732471Y5689519D01*
X6453414D01*
X6444554Y5704519D01*
X6449000Y5715253D01*
Y5734747D01*
X6448695Y5735484D01*
X6664692Y5951481D01*
X7053500D01*
X7063840Y5953537D01*
X7072605Y5959394D01*
X7261000Y6147789D01*
X7276000Y6141576D01*
D02*
G37*
G36*
X3275000Y5886001D02*
Y5686001D01*
X3250000Y5661001D01*
X2850000D01*
X2825000Y5686001D01*
Y5886001D01*
X2850000Y5911001D01*
X3250000D01*
X3275000Y5886001D01*
D02*
G37*
G36*
X7150011Y5780187D02*
X7147244Y5779040D01*
X7133460Y5765256D01*
X7126000Y5747247D01*
Y5739200D01*
X6993917Y5607117D01*
X6946013D01*
X6941997Y5616774D01*
X6941414Y5622117D01*
X6954040Y5634744D01*
X6961500Y5652753D01*
Y5672247D01*
X6954040Y5690256D01*
X6940256Y5704040D01*
X6922247Y5711500D01*
X6902753D01*
X6884744Y5704040D01*
X6870960Y5690256D01*
X6870655Y5689519D01*
X6817529D01*
X6811316Y5704519D01*
X6816540Y5709744D01*
X6823227Y5725887D01*
X6892526Y5795187D01*
X7147028D01*
X7150011Y5780187D01*
D02*
G37*
G36*
X1430894Y5530895D02*
X1439660Y5525037D01*
X1450000Y5522981D01*
X2817090D01*
X2822831Y5509123D01*
X2813104Y5499396D01*
X2809457Y5493938D01*
X2808176Y5487500D01*
X2808177Y5487499D01*
Y5288748D01*
X2805302Y5286314D01*
X2794042Y5281668D01*
X2750355Y5325355D01*
X2741590Y5331213D01*
X2731250Y5333269D01*
X1811192D01*
X1700355Y5444105D01*
X1691590Y5449963D01*
X1681250Y5452019D01*
X1461192D01*
X1298695Y5614516D01*
X1299000Y5615253D01*
Y5634747D01*
X1294171Y5646405D01*
X1306888Y5654902D01*
X1430894Y5530895D01*
D02*
G37*
G36*
X3275000Y5487500D02*
Y5287500D01*
X3250000Y5262500D01*
X2850000D01*
X2825000Y5287500D01*
Y5487500D01*
X2850000Y5512500D01*
X3250000D01*
X3275000Y5487500D01*
D02*
G37*
G36*
X6054157Y5382633D02*
X6058460Y5372244D01*
X6072244Y5358460D01*
X6090253Y5351000D01*
X6109747D01*
X6127756Y5358460D01*
X6141540Y5372244D01*
X6141845Y5372981D01*
X6413808D01*
X6771616Y5015173D01*
X6771218Y4997591D01*
X6762521Y4989539D01*
X6762142Y4989519D01*
X5011192D01*
X4592730Y5407981D01*
X4598944Y5422981D01*
X6013809D01*
X6054157Y5382633D01*
D02*
G37*
G36*
X3275000Y4687500D02*
Y4632921D01*
X3104580Y4462500D01*
X2850000D01*
X2825000Y4487500D01*
Y4687500D01*
X2850000Y4712500D01*
X3250000D01*
X3275000Y4687500D01*
D02*
G37*
G36*
X950000Y4375000D02*
Y4325000D01*
X975000Y4300000D01*
X1050000Y4300000D01*
X1100000Y4350000D01*
X2612500D01*
X2637500Y4325000D01*
Y4175000D01*
X2612500Y4150000D01*
X2536500D01*
Y4162701D01*
X2533161Y4175163D01*
X2526710Y4186337D01*
X2517587Y4195460D01*
X2506413Y4201911D01*
X2493951Y4205250D01*
X2481049D01*
X2468587Y4201911D01*
X2457413Y4195460D01*
X2448290Y4186337D01*
X2441839Y4175163D01*
X2438500Y4162701D01*
Y4150000D01*
X1500000D01*
X1375000Y4025000D01*
X1303642D01*
X1299000Y4031049D01*
Y4043951D01*
X1295661Y4056413D01*
X1289210Y4067587D01*
X1280087Y4076710D01*
X1268913Y4083161D01*
X1256451Y4086500D01*
X1243549D01*
X1231087Y4083161D01*
X1219913Y4076710D01*
X1210790Y4067587D01*
X1204339Y4056413D01*
X1201000Y4043951D01*
Y4031049D01*
X1196358Y4025000D01*
X925000D01*
X850000Y4100000D01*
Y4375000D01*
X875000Y4400000D01*
X925000D01*
X950000Y4375000D01*
D02*
G37*
G36*
X2104492Y4118176D02*
X2101000Y4109746D01*
Y4090253D01*
X2108460Y4072243D01*
X2122244Y4058459D01*
X2140254Y4051000D01*
X2153580D01*
X2189579Y4015000D01*
X2183366Y4000000D01*
X2070421D01*
X1974001Y4096421D01*
Y4109747D01*
X1970509Y4118176D01*
X1980531Y4133177D01*
X2094469D01*
X2104492Y4118176D01*
D02*
G37*
G36*
X1879492D02*
X1876000Y4109747D01*
Y4090253D01*
X1883460Y4072244D01*
X1897244Y4058460D01*
X1915254Y4051000D01*
X1928580D01*
X1965722Y4013858D01*
X1959982Y4000000D01*
X1845421D01*
X1749000Y4096420D01*
Y4109746D01*
X1745508Y4118176D01*
X1755531Y4133177D01*
X1869469D01*
X1879492Y4118176D01*
D02*
G37*
G36*
X1654492D02*
X1651000Y4109746D01*
Y4090253D01*
X1658460Y4072243D01*
X1672244Y4058459D01*
X1690253Y4051000D01*
X1703580D01*
X1740721Y4013858D01*
X1734981Y4000000D01*
X1394284D01*
X1390167Y4007302D01*
X1388792Y4015000D01*
X1506969Y4133177D01*
X1644469D01*
X1654492Y4118176D01*
D02*
G37*
G36*
X7550000Y5836433D02*
Y3800000D01*
X7487500Y3737500D01*
X7225000D01*
X7137500Y3825000D01*
X6875000D01*
X6771984Y3928016D01*
X7378234Y4534266D01*
X7390722Y4552955D01*
X7395107Y4575000D01*
Y5501138D01*
X7490734Y5596766D01*
X7503222Y5615455D01*
X7507607Y5637500D01*
Y5813638D01*
X7536142Y5842173D01*
X7550000Y5836433D01*
D02*
G37*
G36*
X6325000Y3575000D02*
Y3006250D01*
X6218750Y2900000D01*
X5900000D01*
X5800000Y3000000D01*
Y3100000D01*
X5650000Y3250000D01*
X5150000D01*
X5100000Y3300000D01*
Y3550000D01*
X5150000Y3600000D01*
X6300000D01*
X6325000Y3575000D01*
D02*
G37*
G36*
X7900000Y3025000D02*
X7900000Y2775000D01*
X7875000Y2750000D01*
X7225000D01*
X7200000Y2775000D01*
Y2862500D01*
X7275000Y2937500D01*
Y3050000D01*
X7300000Y3075000D01*
X7850000D01*
X7900000Y3025000D01*
D02*
G37*
G36*
X5750000D02*
X5750000Y2775000D01*
X5725000Y2750000D01*
X5075000D01*
X5050000Y2775000D01*
Y2900000D01*
X5100000Y2950000D01*
Y3025000D01*
X5150000Y3075000D01*
X5700000D01*
X5750000Y3025000D01*
D02*
G37*
G36*
X3600000D02*
X3600000Y2775000D01*
X3575000Y2750000D01*
X2925000D01*
X2900000Y2775000D01*
Y2900000D01*
X2950000Y2950000D01*
Y3025000D01*
X3000000Y3075000D01*
X3550000D01*
X3600000Y3025000D01*
D02*
G37*
G36*
X1450000D02*
X1450000Y2775000D01*
X1425000Y2750000D01*
X825000D01*
X800000Y2775000D01*
Y3025000D01*
X850000Y3075000D01*
X1400000D01*
X1450000Y3025000D01*
D02*
G37*
G36*
X4200000Y3550000D02*
Y3206250D01*
X4687500Y2718750D01*
X5093750D01*
X5131250Y2681250D01*
X5131250Y2468750D01*
X5068750Y2406250D01*
X5000000Y2406250D01*
X4637500Y2043750D01*
X4406250D01*
X4250000Y2200000D01*
Y2400000D01*
X3650000Y3000000D01*
Y3100000D01*
X3500000Y3250000D01*
X3000000D01*
X2950000Y3300000D01*
Y3550000D01*
X3000000Y3600000D01*
X4150000D01*
X4200000Y3550000D01*
D02*
G37*
G36*
X8750000Y3300000D02*
Y2362500D01*
X8431250Y2043750D01*
X8212500D01*
X7950000Y2306250D01*
Y3100000D01*
X7800000Y3250000D01*
X7325000D01*
X7275000Y3300000D01*
Y3550000D01*
X7325000Y3600000D01*
X8450000D01*
X8750000Y3300000D01*
D02*
G37*
G36*
X2050000Y3550000D02*
Y3168750D01*
X2531250Y2687500D01*
X3156250D01*
X3218750Y2625000D01*
Y2375000D01*
X3156250Y2312500D01*
X3031250D01*
X2906250Y2187500D01*
Y2093750D01*
X2812500Y2000000D01*
X2450000D01*
X1500000Y2950000D01*
X1500000Y3100000D01*
X1350000Y3250000D01*
X850000D01*
X800000Y3300000D01*
Y3550000D01*
X850000Y3600000D01*
X2000000D01*
X2050000Y3550000D01*
D02*
G37*
G36*
X599999Y3600000D02*
X700000Y3500000D01*
Y3200000D01*
Y2750000D01*
X1000000Y2450000D01*
Y2150000D01*
X850000Y2000000D01*
X200000D01*
X150000Y2050000D01*
Y3500000D01*
X250000Y3600000D01*
X599999Y3600000D01*
D02*
G37*
G36*
X6687500Y2406250D02*
Y1700000D01*
X6662500Y1675000D01*
X6400000D01*
X6162500Y1912500D01*
Y2287500D01*
Y2406250D01*
X6312500Y2556250D01*
X6537500D01*
X6687500Y2406250D01*
D02*
G37*
G36*
X9537340Y2525000D02*
Y1787499D01*
X9362340Y1612500D01*
X9112340D01*
X9087340Y1637500D01*
X8874840D01*
X8849840Y1612500D01*
Y1462500D01*
X8824840Y1437500D01*
X8387340D01*
X8362340Y1462500D01*
X8362340Y1912500D01*
X8843750Y2393911D01*
Y2812500D01*
X8875000Y2843750D01*
X9218590D01*
X9537340Y2525000D01*
D02*
G37*
G36*
X8237340Y1887500D02*
Y1637500D01*
X8212340Y1612500D01*
X7962340D01*
X7937340Y1637500D01*
X7724840D01*
X7699840Y1612500D01*
Y1462500D01*
X7674840Y1437500D01*
X7068750D01*
X6837500Y1668750D01*
Y2262500D01*
X7137500Y2562500D01*
X7562340D01*
X8237340Y1887500D01*
D02*
G37*
G36*
X5737507Y2512492D02*
X5737500Y1787499D01*
X5562500Y1612500D01*
X5312500D01*
X5287500Y1637500D01*
X5075000D01*
X5050000Y1612500D01*
Y1462500D01*
X5025000Y1437500D01*
X4587500D01*
X4562500Y1462500D01*
Y1912500D01*
X4931250Y2281250D01*
X4987500D01*
X5268750Y2562500D01*
X5687500D01*
X5737507Y2512492D01*
D02*
G37*
G36*
X4437500Y1887500D02*
Y1637500D01*
X4412500Y1612500D01*
X4162500D01*
X4137500Y1637500D01*
X3925000D01*
X3900000Y1612500D01*
Y1462500D01*
X3875000Y1437500D01*
X3262500D01*
X2981250Y1718750D01*
Y2193750D01*
X3018750Y2231250D01*
X3137500D01*
X3281250Y2375000D01*
Y2500000D01*
X3343750Y2562500D01*
X3762500D01*
X4437500Y1887500D01*
D02*
G37*
G36*
X5587500Y1450000D02*
Y1075000D01*
X5562500Y1050000D01*
X4750000D01*
X4725000Y1075000D01*
Y1200412D01*
X4687500Y1237912D01*
Y1350000D01*
X4700000Y1362500D01*
X5225000Y1362500D01*
X5337500Y1475000D01*
X5562500D01*
X5587500Y1450000D01*
D02*
G37*
G36*
X4437500D02*
Y1075000D01*
X4412500Y1050000D01*
X3600000D01*
X3575000Y1075000D01*
Y1137500D01*
X3537500Y1175000D01*
Y1350000D01*
X3550000Y1362500D01*
X4075000Y1362500D01*
X4187500Y1475000D01*
X4412500D01*
X4437500Y1450000D01*
D02*
G37*
G36*
X9387543Y1449974D02*
Y1074974D01*
X9362543Y1049974D01*
X8550043D01*
X8525043Y1074974D01*
Y1200386D01*
X8487543Y1237886D01*
Y1349974D01*
X8500043Y1362474D01*
X9025042Y1362474D01*
X9137543Y1474974D01*
X9362543D01*
X9387543Y1449974D01*
D02*
G37*
G36*
X8237543D02*
Y1074974D01*
X8212543Y1049974D01*
X7400043D01*
X7375043Y1074974D01*
Y1137474D01*
X7337543Y1174974D01*
Y1349974D01*
X7350043Y1362474D01*
X7875042Y1362474D01*
X7987543Y1474974D01*
X8212543D01*
X8237543Y1449974D01*
D02*
G37*
G36*
X4218750Y818750D02*
Y568750D01*
X4237500Y550000D01*
X4437500D01*
Y400000D01*
X4250000D01*
X4125000Y275000D01*
X3950000D01*
X3937500Y287500D01*
Y412500D01*
X3950000Y425000D01*
X4025000D01*
X4143750Y543749D01*
Y818750D01*
X4150000Y825000D01*
X4212500D01*
X4218750Y818750D01*
D02*
G37*
G36*
X8018792Y818724D02*
Y568724D01*
X8037542Y549974D01*
X8237543D01*
Y399974D01*
X8050043D01*
X7925043Y274974D01*
X7750042D01*
X7737543Y287474D01*
Y412474D01*
X7750043Y424974D01*
X7825043D01*
X7943793Y543724D01*
Y818724D01*
X7950043Y824974D01*
X8012543D01*
X8018792Y818724D01*
D02*
G37*
%LPC*%
G36*
X8350000Y9916824D02*
X8349999Y9916823D01*
X8125001D01*
X8125000Y9916824D01*
X8119630Y9915755D01*
X8118562Y9915543D01*
X8113104Y9911896D01*
X8113103Y9911895D01*
X8063104Y9861896D01*
X8059457Y9856438D01*
X8059245Y9855370D01*
X8058176Y9850000D01*
X8058177Y9849999D01*
Y9350000D01*
X8059457Y9343562D01*
X8063104Y9338104D01*
X8063105Y9338103D01*
X8113104Y9288104D01*
X8118562Y9284457D01*
X8119630Y9284245D01*
X8125000Y9283176D01*
X8125002Y9283177D01*
X8293031D01*
X8483177Y9093031D01*
Y9000000D01*
X8484457Y8993562D01*
X8488104Y8988104D01*
X8488105Y8988103D01*
X8563104Y8913104D01*
X8568562Y8909457D01*
X8569630Y8909245D01*
X8575000Y8908176D01*
X8575001Y8908176D01*
X8825000D01*
X8831438Y8909457D01*
X8836896Y8913104D01*
X8836896Y8913105D01*
X8886896Y8963104D01*
X8890543Y8968562D01*
X8890755Y8969630D01*
X8891824Y8975000D01*
X8891823Y8975001D01*
Y9374999D01*
X8891824Y9375000D01*
X8890755Y9380370D01*
X8890543Y9381438D01*
X8886896Y9386896D01*
X8886895Y9386897D01*
X8361896Y9911896D01*
X8356438Y9915543D01*
X8355370Y9915755D01*
X8350000Y9916824D01*
D02*
G37*
G36*
X6350000D02*
X6349999Y9916823D01*
X6125001D01*
X6125000Y9916824D01*
X6119630Y9915755D01*
X6118562Y9915543D01*
X6113104Y9911896D01*
X6113104Y9911895D01*
X6063104Y9861896D01*
X6059458Y9856438D01*
X6059245Y9855370D01*
X6058177Y9850000D01*
X6058177Y9849999D01*
Y9350000D01*
X6059458Y9343562D01*
X6063104Y9338104D01*
X6063105Y9338103D01*
X6113104Y9288104D01*
X6118562Y9284457D01*
X6119631Y9284245D01*
X6125000Y9283176D01*
X6125002Y9283177D01*
X6293032D01*
X6483177Y9093031D01*
Y9000000D01*
X6484457Y8993562D01*
X6488104Y8988104D01*
X6488105Y8988103D01*
X6563104Y8913104D01*
X6568562Y8909457D01*
X6569630Y8909245D01*
X6575000Y8908176D01*
X6575002Y8908176D01*
X6825000D01*
X6831438Y8909457D01*
X6836896Y8913104D01*
X6836897Y8913105D01*
X6886896Y8963104D01*
X6890543Y8968562D01*
X6890756Y8969630D01*
X6891824Y8975000D01*
X6891824Y8975001D01*
Y9374999D01*
X6891824Y9375000D01*
X6890756Y9380370D01*
X6890543Y9381438D01*
X6886896Y9386896D01*
X6886896Y9386897D01*
X6361896Y9911896D01*
X6356438Y9915543D01*
X6355370Y9915755D01*
X6350000Y9916824D01*
D02*
G37*
G36*
X4350000D02*
X4349999Y9916823D01*
X4125001D01*
X4125000Y9916824D01*
X4119630Y9915755D01*
X4118562Y9915543D01*
X4113104Y9911896D01*
X4113104Y9911895D01*
X4063104Y9861896D01*
X4059457Y9856438D01*
X4059245Y9855370D01*
X4058177Y9850000D01*
X4058177Y9849999D01*
Y9350000D01*
X4059457Y9343562D01*
X4063104Y9338104D01*
X4063105Y9338103D01*
X4113104Y9288104D01*
X4118562Y9284457D01*
X4119631Y9284245D01*
X4125000Y9283176D01*
X4125002Y9283177D01*
X4293032D01*
X4483177Y9093031D01*
Y9000000D01*
X4484457Y8993562D01*
X4488104Y8988104D01*
X4488105Y8988103D01*
X4563104Y8913104D01*
X4568562Y8909457D01*
X4569630Y8909245D01*
X4575000Y8908176D01*
X4575002Y8908176D01*
X4825000D01*
X4831438Y8909457D01*
X4836896Y8913104D01*
X4836897Y8913105D01*
X4886896Y8963104D01*
X4890543Y8968562D01*
X4890756Y8969630D01*
X4891824Y8975000D01*
X4891824Y8975001D01*
Y9374999D01*
X4891824Y9375000D01*
X4890756Y9380370D01*
X4890543Y9381438D01*
X4886896Y9386896D01*
X4886895Y9386897D01*
X4361896Y9911896D01*
X4356438Y9915543D01*
X4355370Y9915755D01*
X4350000Y9916824D01*
D02*
G37*
G36*
X2350000D02*
X2349999Y9916823D01*
X2125001D01*
X2125000Y9916824D01*
X2119630Y9915755D01*
X2118562Y9915543D01*
X2113104Y9911896D01*
X2113103Y9911895D01*
X2063104Y9861896D01*
X2059457Y9856438D01*
X2059245Y9855370D01*
X2058176Y9850000D01*
X2058177Y9849999D01*
Y9350000D01*
X2059457Y9343562D01*
X2063104Y9338104D01*
X2063105Y9338103D01*
X2113104Y9288104D01*
X2118562Y9284457D01*
X2119631Y9284245D01*
X2125000Y9283176D01*
X2125002Y9283177D01*
X2293031D01*
X2483177Y9093031D01*
Y9000000D01*
X2484457Y8993562D01*
X2488104Y8988104D01*
X2488105Y8988103D01*
X2563104Y8913104D01*
X2568562Y8909457D01*
X2569630Y8909245D01*
X2575000Y8908176D01*
X2575001Y8908176D01*
X2825000D01*
X2831438Y8909457D01*
X2836896Y8913104D01*
X2836897Y8913105D01*
X2886896Y8963104D01*
X2890543Y8968562D01*
X2890755Y8969630D01*
X2891824Y8975000D01*
X2891824Y8975001D01*
Y9374999D01*
X2891824Y9375000D01*
X2890755Y9380370D01*
X2890543Y9381438D01*
X2886896Y9386896D01*
X2886895Y9386897D01*
X2361896Y9911896D01*
X2356438Y9915543D01*
X2355370Y9915755D01*
X2350000Y9916824D01*
D02*
G37*
G36*
X9517774Y9816500D02*
X9482226D01*
X9446901Y9812520D01*
X9412243Y9804609D01*
X9378690Y9792868D01*
X9346662Y9777445D01*
X9316562Y9758531D01*
X9288769Y9736367D01*
X9263632Y9711231D01*
X9241468Y9683438D01*
X9222555Y9653338D01*
X9207131Y9621310D01*
X9195390Y9587756D01*
X9187480Y9553099D01*
X9183500Y9517774D01*
Y9482226D01*
X9187480Y9446901D01*
X9195390Y9412243D01*
X9207131Y9378690D01*
X9222555Y9346662D01*
X9241468Y9316562D01*
X9263632Y9288769D01*
X9288769Y9263632D01*
X9316562Y9241468D01*
X9346662Y9222555D01*
X9378690Y9207131D01*
X9412243Y9195390D01*
X9446901Y9187480D01*
X9482226Y9183500D01*
X9517774D01*
X9553099Y9187480D01*
X9587756Y9195390D01*
X9621310Y9207131D01*
X9653338Y9222555D01*
X9683438Y9241468D01*
X9711231Y9263632D01*
X9736367Y9288769D01*
X9758531Y9316562D01*
X9777445Y9346662D01*
X9792868Y9378690D01*
X9804609Y9412243D01*
X9812520Y9446901D01*
X9816500Y9482226D01*
Y9517774D01*
X9812520Y9553099D01*
X9804609Y9587756D01*
X9792868Y9621310D01*
X9777445Y9653338D01*
X9758531Y9683438D01*
X9736367Y9711231D01*
X9711231Y9736367D01*
X9683438Y9758531D01*
X9653338Y9777445D01*
X9621310Y9792868D01*
X9587756Y9804609D01*
X9553099Y9812520D01*
X9517774Y9816500D01*
D02*
G37*
G36*
X517774D02*
X482226D01*
X446901Y9812520D01*
X412244Y9804609D01*
X378690Y9792868D01*
X346662Y9777445D01*
X316562Y9758531D01*
X288769Y9736367D01*
X263632Y9711231D01*
X241468Y9683438D01*
X222555Y9653338D01*
X207131Y9621310D01*
X195391Y9587756D01*
X187480Y9553099D01*
X183500Y9517774D01*
Y9482226D01*
X187480Y9446901D01*
X195391Y9412243D01*
X207131Y9378690D01*
X222555Y9346662D01*
X241468Y9316562D01*
X263632Y9288769D01*
X288769Y9263632D01*
X316562Y9241468D01*
X346662Y9222555D01*
X378690Y9207131D01*
X412244Y9195390D01*
X446901Y9187480D01*
X482226Y9183500D01*
X517774D01*
X553099Y9187480D01*
X587757Y9195390D01*
X621310Y9207131D01*
X653338Y9222555D01*
X683438Y9241468D01*
X711231Y9263632D01*
X736368Y9288769D01*
X758532Y9316562D01*
X777445Y9346662D01*
X792869Y9378690D01*
X804610Y9412243D01*
X812520Y9446901D01*
X816500Y9482226D01*
Y9517774D01*
X812520Y9553099D01*
X804610Y9587756D01*
X792869Y9621310D01*
X777445Y9653338D01*
X758532Y9683438D01*
X736368Y9711231D01*
X711231Y9736367D01*
X683438Y9758531D01*
X653338Y9777445D01*
X621310Y9792868D01*
X587757Y9804609D01*
X553099Y9812520D01*
X517774Y9816500D01*
D02*
G37*
G36*
X8204913Y9264500D02*
X8183087D01*
X8161447Y9261651D01*
X8140365Y9256002D01*
X8120201Y9247650D01*
X8101299Y9236737D01*
X8083983Y9223450D01*
X8068550Y9208017D01*
X8055263Y9190701D01*
X8044350Y9171799D01*
X8035998Y9151635D01*
X8030349Y9130552D01*
X8027500Y9108913D01*
Y9087087D01*
X8030349Y9065448D01*
X8035998Y9044365D01*
X8044350Y9024201D01*
X8055263Y9005299D01*
X8068550Y8987983D01*
X8083983Y8972550D01*
X8101299Y8959263D01*
X8120201Y8948350D01*
X8140365Y8939998D01*
X8161447Y8934349D01*
X8183087Y8931500D01*
X8204913D01*
X8226552Y8934349D01*
X8247635Y8939998D01*
X8267799Y8948350D01*
X8286701Y8959263D01*
X8304017Y8972550D01*
X8319450Y8987983D01*
X8332737Y9005299D01*
X8343650Y9024201D01*
X8352002Y9044365D01*
X8357651Y9065448D01*
X8360500Y9087087D01*
Y9108913D01*
X8357651Y9130552D01*
X8352002Y9151635D01*
X8343650Y9171799D01*
X8332737Y9190701D01*
X8319450Y9208017D01*
X8304017Y9223450D01*
X8286701Y9236737D01*
X8267799Y9247650D01*
X8247635Y9256002D01*
X8226552Y9261651D01*
X8204913Y9264500D01*
D02*
G37*
G36*
X7704913D02*
X7683087D01*
X7661448Y9261651D01*
X7640365Y9256002D01*
X7620201Y9247650D01*
X7601299Y9236737D01*
X7583983Y9223450D01*
X7568550Y9208017D01*
X7555263Y9190701D01*
X7544350Y9171799D01*
X7535998Y9151635D01*
X7530349Y9130552D01*
X7527500Y9108913D01*
Y9087087D01*
X7530349Y9065448D01*
X7535998Y9044365D01*
X7544350Y9024201D01*
X7555263Y9005299D01*
X7568550Y8987983D01*
X7583983Y8972550D01*
X7601299Y8959263D01*
X7620201Y8948350D01*
X7640365Y8939998D01*
X7661448Y8934349D01*
X7683087Y8931500D01*
X7704913D01*
X7726552Y8934349D01*
X7747635Y8939998D01*
X7767799Y8948350D01*
X7786701Y8959263D01*
X7804017Y8972550D01*
X7819450Y8987983D01*
X7832737Y9005299D01*
X7843650Y9024201D01*
X7852002Y9044365D01*
X7857651Y9065448D01*
X7860500Y9087087D01*
Y9108913D01*
X7857651Y9130552D01*
X7852002Y9151635D01*
X7843650Y9171799D01*
X7832737Y9190701D01*
X7819450Y9208017D01*
X7804017Y9223450D01*
X7786701Y9236737D01*
X7767799Y9247650D01*
X7747635Y9256002D01*
X7726552Y9261651D01*
X7704913Y9264500D01*
D02*
G37*
G36*
X6204913D02*
X6183087D01*
X6161448Y9261651D01*
X6140365Y9256002D01*
X6120201Y9247650D01*
X6101299Y9236737D01*
X6083983Y9223450D01*
X6068550Y9208017D01*
X6055263Y9190701D01*
X6044350Y9171799D01*
X6035998Y9151635D01*
X6030349Y9130552D01*
X6027500Y9108913D01*
Y9087087D01*
X6030349Y9065448D01*
X6035998Y9044365D01*
X6044350Y9024201D01*
X6055263Y9005299D01*
X6068550Y8987983D01*
X6083983Y8972550D01*
X6101299Y8959263D01*
X6120201Y8948350D01*
X6140365Y8939998D01*
X6161448Y8934349D01*
X6183087Y8931500D01*
X6204913D01*
X6226552Y8934349D01*
X6247635Y8939998D01*
X6267799Y8948350D01*
X6286701Y8959263D01*
X6304017Y8972550D01*
X6319450Y8987983D01*
X6332737Y9005299D01*
X6343650Y9024201D01*
X6352002Y9044365D01*
X6357651Y9065448D01*
X6360500Y9087087D01*
Y9108913D01*
X6357651Y9130552D01*
X6352002Y9151635D01*
X6343650Y9171799D01*
X6332737Y9190701D01*
X6319450Y9208017D01*
X6304017Y9223450D01*
X6286701Y9236737D01*
X6267799Y9247650D01*
X6247635Y9256002D01*
X6226552Y9261651D01*
X6204913Y9264500D01*
D02*
G37*
G36*
X5704913D02*
X5683087D01*
X5661448Y9261651D01*
X5640365Y9256002D01*
X5620201Y9247650D01*
X5601299Y9236737D01*
X5583983Y9223450D01*
X5568550Y9208017D01*
X5555263Y9190701D01*
X5544350Y9171799D01*
X5535998Y9151635D01*
X5530349Y9130552D01*
X5527500Y9108913D01*
Y9087087D01*
X5530349Y9065448D01*
X5535998Y9044365D01*
X5544350Y9024201D01*
X5555263Y9005299D01*
X5568550Y8987983D01*
X5583983Y8972550D01*
X5601299Y8959263D01*
X5620201Y8948350D01*
X5640365Y8939998D01*
X5661448Y8934349D01*
X5683087Y8931500D01*
X5704913D01*
X5726552Y8934349D01*
X5747635Y8939998D01*
X5767799Y8948350D01*
X5786701Y8959263D01*
X5804017Y8972550D01*
X5819450Y8987983D01*
X5832737Y9005299D01*
X5843650Y9024201D01*
X5852002Y9044365D01*
X5857651Y9065448D01*
X5860500Y9087087D01*
Y9108913D01*
X5857651Y9130552D01*
X5852002Y9151635D01*
X5843650Y9171799D01*
X5832737Y9190701D01*
X5819450Y9208017D01*
X5804017Y9223450D01*
X5786701Y9236737D01*
X5767799Y9247650D01*
X5747635Y9256002D01*
X5726552Y9261651D01*
X5704913Y9264500D01*
D02*
G37*
G36*
X4204913D02*
X4183087D01*
X4161448Y9261651D01*
X4140365Y9256002D01*
X4120201Y9247650D01*
X4101299Y9236737D01*
X4083983Y9223450D01*
X4068550Y9208017D01*
X4055263Y9190701D01*
X4044350Y9171799D01*
X4035998Y9151635D01*
X4030349Y9130552D01*
X4027500Y9108913D01*
Y9087087D01*
X4030349Y9065448D01*
X4035998Y9044365D01*
X4044350Y9024201D01*
X4055263Y9005299D01*
X4068550Y8987983D01*
X4083983Y8972550D01*
X4101299Y8959263D01*
X4120201Y8948350D01*
X4140365Y8939998D01*
X4161448Y8934349D01*
X4183087Y8931500D01*
X4204913D01*
X4226552Y8934349D01*
X4247635Y8939998D01*
X4267799Y8948350D01*
X4286701Y8959263D01*
X4304017Y8972550D01*
X4319450Y8987983D01*
X4332737Y9005299D01*
X4343650Y9024201D01*
X4352002Y9044365D01*
X4357651Y9065448D01*
X4360500Y9087087D01*
Y9108913D01*
X4357651Y9130552D01*
X4352002Y9151635D01*
X4343650Y9171799D01*
X4332737Y9190701D01*
X4319450Y9208017D01*
X4304017Y9223450D01*
X4286701Y9236737D01*
X4267799Y9247650D01*
X4247635Y9256002D01*
X4226552Y9261651D01*
X4204913Y9264500D01*
D02*
G37*
G36*
X3704913D02*
X3683087D01*
X3661448Y9261651D01*
X3640365Y9256002D01*
X3620201Y9247650D01*
X3601299Y9236737D01*
X3583983Y9223450D01*
X3568550Y9208017D01*
X3555263Y9190701D01*
X3544350Y9171799D01*
X3535998Y9151635D01*
X3530349Y9130552D01*
X3527500Y9108913D01*
Y9087087D01*
X3530349Y9065448D01*
X3535998Y9044365D01*
X3544350Y9024201D01*
X3555263Y9005299D01*
X3568550Y8987983D01*
X3583983Y8972550D01*
X3601299Y8959263D01*
X3620201Y8948350D01*
X3640365Y8939998D01*
X3661448Y8934349D01*
X3683087Y8931500D01*
X3704913D01*
X3726552Y8934349D01*
X3747635Y8939998D01*
X3767799Y8948350D01*
X3786701Y8959263D01*
X3804017Y8972550D01*
X3819450Y8987983D01*
X3832737Y9005299D01*
X3843650Y9024201D01*
X3852002Y9044365D01*
X3857651Y9065448D01*
X3860500Y9087087D01*
Y9108913D01*
X3857651Y9130552D01*
X3852002Y9151635D01*
X3843650Y9171799D01*
X3832737Y9190701D01*
X3819450Y9208017D01*
X3804017Y9223450D01*
X3786701Y9236737D01*
X3767799Y9247650D01*
X3747635Y9256002D01*
X3726552Y9261651D01*
X3704913Y9264500D01*
D02*
G37*
G36*
X2204913D02*
X2183087D01*
X2161448Y9261651D01*
X2140365Y9256002D01*
X2120201Y9247650D01*
X2101299Y9236737D01*
X2083983Y9223450D01*
X2068550Y9208017D01*
X2055263Y9190701D01*
X2044350Y9171799D01*
X2035998Y9151635D01*
X2030349Y9130552D01*
X2027500Y9108913D01*
Y9087087D01*
X2030349Y9065448D01*
X2035998Y9044365D01*
X2044350Y9024201D01*
X2055263Y9005299D01*
X2068550Y8987983D01*
X2083983Y8972550D01*
X2101299Y8959263D01*
X2120201Y8948350D01*
X2140365Y8939998D01*
X2161448Y8934349D01*
X2183087Y8931500D01*
X2204913D01*
X2226552Y8934349D01*
X2247635Y8939998D01*
X2267799Y8948350D01*
X2286701Y8959263D01*
X2304017Y8972550D01*
X2319450Y8987983D01*
X2332737Y9005299D01*
X2343650Y9024201D01*
X2352002Y9044365D01*
X2357651Y9065448D01*
X2360500Y9087087D01*
Y9108913D01*
X2357651Y9130552D01*
X2352002Y9151635D01*
X2343650Y9171799D01*
X2332737Y9190701D01*
X2319450Y9208017D01*
X2304017Y9223450D01*
X2286701Y9236737D01*
X2267799Y9247650D01*
X2247635Y9256002D01*
X2226552Y9261651D01*
X2204913Y9264500D01*
D02*
G37*
G36*
X1704913D02*
X1683087D01*
X1661447Y9261651D01*
X1640365Y9256002D01*
X1620200Y9247650D01*
X1601299Y9236737D01*
X1583983Y9223450D01*
X1568550Y9208017D01*
X1555263Y9190701D01*
X1544350Y9171799D01*
X1535997Y9151635D01*
X1530348Y9130552D01*
X1527500Y9108913D01*
Y9087087D01*
X1530348Y9065448D01*
X1535997Y9044365D01*
X1544350Y9024201D01*
X1555263Y9005299D01*
X1568550Y8987983D01*
X1583983Y8972550D01*
X1601299Y8959263D01*
X1620200Y8948350D01*
X1640365Y8939998D01*
X1661447Y8934349D01*
X1683087Y8931500D01*
X1704913D01*
X1726552Y8934349D01*
X1747634Y8939998D01*
X1767799Y8948350D01*
X1786701Y8959263D01*
X1804016Y8972550D01*
X1819450Y8987983D01*
X1832736Y9005299D01*
X1843650Y9024201D01*
X1852002Y9044365D01*
X1857651Y9065448D01*
X1860500Y9087087D01*
Y9108913D01*
X1857651Y9130552D01*
X1852002Y9151635D01*
X1843650Y9171799D01*
X1832736Y9190701D01*
X1819450Y9208017D01*
X1804016Y9223450D01*
X1786701Y9236737D01*
X1767799Y9247650D01*
X1747634Y9256002D01*
X1726552Y9261651D01*
X1704913Y9264500D01*
D02*
G37*
%LPD*%
G36*
X8875000Y9375000D02*
Y8975000D01*
X8825000Y8925000D01*
X8575000D01*
X8500000Y9000000D01*
Y9100000D01*
X8300000Y9300000D01*
X8125000D01*
X8075000Y9350000D01*
Y9850000D01*
X8125000Y9900000D01*
X8350000D01*
X8875000Y9375000D01*
D02*
G37*
G36*
X6875000D02*
Y8975000D01*
X6825000Y8925000D01*
X6575000D01*
X6500000Y9000000D01*
Y9100000D01*
X6300000Y9300000D01*
X6125000D01*
X6075000Y9350000D01*
Y9850000D01*
X6125000Y9900000D01*
X6350000D01*
X6875000Y9375000D01*
D02*
G37*
G36*
X4875000D02*
Y8975000D01*
X4825000Y8925000D01*
X4575000D01*
X4500000Y9000000D01*
Y9100000D01*
X4300000Y9300000D01*
X4125000D01*
X4075000Y9350000D01*
Y9850000D01*
X4125000Y9900000D01*
X4350000D01*
X4875000Y9375000D01*
D02*
G37*
G36*
X2875000D02*
Y8975000D01*
X2825000Y8925000D01*
X2575000D01*
X2500000Y9000000D01*
Y9100000D01*
X2300000Y9300000D01*
X2125000D01*
X2075000Y9350000D01*
Y9850000D01*
X2125000Y9900000D01*
X2350000D01*
X2875000Y9375000D01*
D02*
G37*
%LPC*%
G36*
X2697247Y7061500D02*
X2677753D01*
X2659744Y7054040D01*
X2645960Y7040256D01*
X2638500Y7022247D01*
Y7002753D01*
X2645960Y6984744D01*
X2659744Y6970960D01*
X2677753Y6963500D01*
X2683870D01*
X2836185Y6811185D01*
X2848259Y6803118D01*
X2862500Y6800285D01*
X3617919D01*
X3622244Y6795960D01*
X3640253Y6788500D01*
X3659747D01*
X3677756Y6795960D01*
X3682082Y6800285D01*
X5392919D01*
X5397244Y6795960D01*
X5415253Y6788500D01*
X5434747D01*
X5452756Y6795960D01*
X5457082Y6800285D01*
X5505419D01*
X5509744Y6795960D01*
X5527753Y6788500D01*
X5547247D01*
X5565256Y6795960D01*
X5569581Y6800285D01*
X5617918D01*
X5622244Y6795960D01*
X5640253Y6788500D01*
X5659747D01*
X5677756Y6795960D01*
X5682081Y6800285D01*
X7617918D01*
X7622244Y6795960D01*
X7640253Y6788500D01*
X7659747D01*
X7677756Y6795960D01*
X7691540Y6809744D01*
X7699000Y6827753D01*
Y6847247D01*
X7691540Y6865256D01*
X7677756Y6879040D01*
X7659747Y6886500D01*
X7640253D01*
X7622244Y6879040D01*
X7617918Y6874715D01*
X5682081D01*
X5677756Y6879040D01*
X5659747Y6886500D01*
X5640253D01*
X5622244Y6879040D01*
X5617918Y6874715D01*
X5569581D01*
X5565256Y6879040D01*
X5547247Y6886500D01*
X5527753D01*
X5509744Y6879040D01*
X5505419Y6874715D01*
X5457082D01*
X5452756Y6879040D01*
X5434747Y6886500D01*
X5415253D01*
X5397244Y6879040D01*
X5392919Y6874715D01*
X3682082D01*
X3677756Y6879040D01*
X3659747Y6886500D01*
X3640253D01*
X3622244Y6879040D01*
X3617919Y6874715D01*
X2877915D01*
X2736500Y7016130D01*
Y7022247D01*
X2729040Y7040256D01*
X2715256Y7054040D01*
X2697247Y7061500D01*
D02*
G37*
G36*
X7359747Y6474000D02*
X7340253D01*
X7322244Y6466540D01*
X7308460Y6452756D01*
X7301000Y6434747D01*
Y6415253D01*
X7301305Y6414516D01*
X7113808Y6227019D01*
X6735752D01*
X6725412Y6224962D01*
X6716647Y6219105D01*
X6416898Y5919356D01*
X6416160Y5919661D01*
X6396667D01*
X6378657Y5912201D01*
X6364873Y5898417D01*
X6357413Y5880408D01*
Y5860914D01*
X6364873Y5842905D01*
X6378657Y5829121D01*
X6396667Y5821661D01*
X6416160D01*
X6434170Y5829121D01*
X6447954Y5842905D01*
X6455414Y5860914D01*
Y5880408D01*
X6455108Y5881145D01*
X6746944Y6172981D01*
X7125000D01*
X7135340Y6175037D01*
X7144105Y6180894D01*
X7339516Y6376305D01*
X7340253Y6376000D01*
X7359747D01*
X7377756Y6383460D01*
X7391540Y6397244D01*
X7399000Y6415253D01*
Y6434747D01*
X7391540Y6452756D01*
X7377756Y6466540D01*
X7359747Y6474000D01*
D02*
G37*
G36*
X1724120Y6896033D02*
X1704627D01*
X1686617Y6888573D01*
X1672833Y6874789D01*
X1665373Y6856780D01*
Y6837286D01*
X1672833Y6819277D01*
X1686617Y6805493D01*
X1704627Y6798033D01*
X1717953D01*
X2151196Y6364789D01*
X2161616Y6357827D01*
X2173907Y6355382D01*
X2386320D01*
X2397243Y6344460D01*
X2415252Y6337000D01*
X2434746D01*
X2452756Y6344460D01*
X2466539Y6358244D01*
X2473999Y6376253D01*
Y6395747D01*
X2466539Y6413756D01*
X2452756Y6427540D01*
X2434746Y6435000D01*
X2415252D01*
X2397243Y6427540D01*
X2389320Y6419617D01*
X2187210D01*
X1763373Y6843454D01*
Y6856780D01*
X1755913Y6874789D01*
X1742130Y6888573D01*
X1724120Y6896033D01*
D02*
G37*
G36*
X2234747Y6586500D02*
X2215253D01*
X2197244Y6579040D01*
X2183460Y6565256D01*
X2176000Y6547247D01*
Y6527753D01*
X2183460Y6509744D01*
X2197244Y6495960D01*
X2215253Y6488500D01*
X2234747D01*
X2252756Y6495960D01*
X2262179Y6505383D01*
X3349197D01*
X3416290Y6438289D01*
X3426709Y6431327D01*
X3439000Y6428882D01*
X5736000D01*
X5748291Y6431327D01*
X5758710Y6438289D01*
X5813303Y6492883D01*
X7449196D01*
X7667883Y6274196D01*
Y6137179D01*
X7658460Y6127756D01*
X7651000Y6109747D01*
Y6090253D01*
X7658460Y6072244D01*
X7672244Y6058460D01*
X7690253Y6051000D01*
X7709747D01*
X7727756Y6058460D01*
X7741540Y6072244D01*
X7749000Y6090253D01*
Y6109747D01*
X7741540Y6127756D01*
X7732117Y6137179D01*
Y6287500D01*
X7729673Y6299791D01*
X7722710Y6310210D01*
X7485210Y6547710D01*
X7474791Y6554672D01*
X7462500Y6557117D01*
X5800000D01*
X5787709Y6554672D01*
X5777289Y6547710D01*
X5722696Y6493117D01*
X3452304D01*
X3385210Y6560210D01*
X3374791Y6567173D01*
X3362500Y6569617D01*
X2262179D01*
X2252756Y6579040D01*
X2234747Y6586500D01*
D02*
G37*
G36*
X3842246Y5345005D02*
X3782756D01*
X3773098Y5343084D01*
X3764909Y5337612D01*
X3759438Y5329424D01*
X3758979Y5327117D01*
X3745000D01*
X3732709Y5324673D01*
X3722290Y5317710D01*
X3527517Y5122938D01*
X3523783Y5125094D01*
X3499875Y5131500D01*
X3475125D01*
X3451217Y5125094D01*
X3429783Y5112719D01*
X3412281Y5095217D01*
X3399906Y5073783D01*
X3393500Y5049875D01*
Y5025125D01*
X3399906Y5001217D01*
X3412281Y4979783D01*
X3429783Y4962281D01*
X3447811Y4951872D01*
X3444046Y4936872D01*
X3409853D01*
X3399513Y4934816D01*
X3390747Y4928958D01*
X3288809Y4827019D01*
X1687500D01*
X1677160Y4824963D01*
X1668394Y4819105D01*
X1547984Y4698695D01*
X1547247Y4699000D01*
X1527753D01*
X1509744Y4691540D01*
X1495960Y4677756D01*
X1488500Y4659747D01*
Y4640253D01*
X1495960Y4622244D01*
X1509744Y4608460D01*
X1527753Y4601000D01*
X1547247D01*
X1565256Y4608460D01*
X1579040Y4622244D01*
X1586500Y4640253D01*
Y4659747D01*
X1586195Y4660484D01*
X1698692Y4772981D01*
X3300000D01*
X3310340Y4775037D01*
X3319105Y4780895D01*
X3421045Y4882834D01*
X3526714D01*
X3537054Y4884890D01*
X3545820Y4890748D01*
X3650067Y4994995D01*
X3692246D01*
X3701905Y4996916D01*
X3710094Y5002388D01*
X3715565Y5010576D01*
X3716422Y5014883D01*
X3776518D01*
X3777191Y5011501D01*
X3781721Y5004720D01*
X3788502Y5000189D01*
X3796501Y4998598D01*
X3828501D01*
X3836500Y5000189D01*
X3843281Y5004720D01*
X3847812Y5011501D01*
X3849403Y5019500D01*
Y5078500D01*
X3847812Y5086499D01*
X3844619Y5091278D01*
Y5105467D01*
X3851905Y5106916D01*
X3860094Y5112388D01*
X3865565Y5120576D01*
X3867486Y5130235D01*
Y5179765D01*
X3865565Y5189424D01*
X3860094Y5197612D01*
X3851905Y5203084D01*
X3842246Y5205005D01*
X3782756D01*
X3773098Y5203084D01*
X3764909Y5197612D01*
X3759438Y5189424D01*
X3757516Y5179765D01*
Y5130235D01*
X3759438Y5120576D01*
X3764909Y5112388D01*
X3773098Y5106916D01*
X3780384Y5105467D01*
Y5091278D01*
X3777191Y5086499D01*
X3775722Y5079117D01*
X3715626D01*
X3715565Y5079424D01*
X3710094Y5087612D01*
X3701905Y5093084D01*
X3692246Y5095005D01*
X3632757D01*
X3623098Y5093084D01*
X3614909Y5087612D01*
X3609438Y5079424D01*
X3607517Y5069765D01*
Y5028866D01*
X3594560Y5015910D01*
X3581111Y5023674D01*
X3581500Y5025125D01*
Y5049875D01*
X3575094Y5073783D01*
X3572938Y5077517D01*
X3747245Y5251824D01*
X3764909Y5252388D01*
X3773098Y5246916D01*
X3782756Y5244995D01*
X3842246D01*
X3851905Y5246916D01*
X3860094Y5252388D01*
X3865565Y5260576D01*
X3867486Y5270235D01*
Y5319765D01*
X3865565Y5329424D01*
X3860094Y5337612D01*
X3851905Y5343084D01*
X3842246Y5345005D01*
D02*
G37*
G36*
X3250000Y5129324D02*
X3249999Y5129323D01*
X2850001D01*
X2850000Y5129324D01*
X2843562Y5128043D01*
X2838104Y5124396D01*
X2838103Y5124395D01*
X2813104Y5099396D01*
X2809457Y5093938D01*
X2808176Y5087500D01*
X2808177Y5087499D01*
Y4887501D01*
X2808176Y4887500D01*
X2809457Y4881062D01*
X2813104Y4875604D01*
X2813105Y4875603D01*
X2838104Y4850604D01*
X2843562Y4846957D01*
X2850000Y4845676D01*
X2850001Y4845677D01*
X3249999D01*
X3250000Y4845676D01*
X3256438Y4846957D01*
X3261896Y4850604D01*
X3261897Y4850605D01*
X3286896Y4875604D01*
X3290543Y4881062D01*
X3291824Y4887500D01*
X3291823Y4887501D01*
Y5087499D01*
X3291824Y5087500D01*
X3290543Y5093938D01*
X3286896Y5099396D01*
X3286895Y5099397D01*
X3261896Y5124396D01*
X3256438Y5128043D01*
X3255370Y5128255D01*
X3250000Y5129324D01*
D02*
G37*
%LPD*%
G36*
X3275000Y5087500D02*
Y4887500D01*
X3250000Y4862500D01*
X2850000D01*
X2825000Y4887500D01*
Y5087500D01*
X2850000Y5112500D01*
X3250000D01*
X3275000Y5087500D01*
D02*
G37*
%LPC*%
G36*
X9035000Y8526984D02*
X8815000D01*
X8790442Y8525051D01*
X8766489Y8519301D01*
X8743731Y8509874D01*
X8722727Y8497003D01*
X8703996Y8481004D01*
X8687997Y8462273D01*
X8675126Y8441269D01*
X8665699Y8418511D01*
X8659949Y8394558D01*
X8658016Y8370000D01*
X8659949Y8345442D01*
X8665699Y8321489D01*
X8675126Y8298731D01*
X8687997Y8277727D01*
X8703996Y8258996D01*
X8722727Y8242997D01*
X8743731Y8230126D01*
X8766489Y8220699D01*
X8790442Y8214949D01*
X8815000Y8213016D01*
X9035000D01*
X9059558Y8214949D01*
X9083511Y8220699D01*
X9106269Y8230126D01*
X9127273Y8242997D01*
X9146004Y8258996D01*
X9162003Y8277727D01*
X9174874Y8298731D01*
X9184301Y8321489D01*
X9190051Y8345442D01*
X9191984Y8370000D01*
X9190051Y8394558D01*
X9184301Y8418511D01*
X9174874Y8441269D01*
X9162003Y8462273D01*
X9146004Y8481004D01*
X9127273Y8497003D01*
X9106269Y8509874D01*
X9083511Y8519301D01*
X9059558Y8525051D01*
X9035000Y8526984D01*
D02*
G37*
G36*
X6885000D02*
X6665000D01*
X6640442Y8525051D01*
X6616489Y8519301D01*
X6593731Y8509874D01*
X6572727Y8497003D01*
X6553996Y8481004D01*
X6537997Y8462273D01*
X6525126Y8441269D01*
X6515699Y8418511D01*
X6509949Y8394558D01*
X6508016Y8370000D01*
X6509949Y8345442D01*
X6515699Y8321489D01*
X6525126Y8298731D01*
X6537997Y8277727D01*
X6553996Y8258996D01*
X6572727Y8242997D01*
X6593731Y8230126D01*
X6616489Y8220699D01*
X6640442Y8214949D01*
X6665000Y8213016D01*
X6885000D01*
X6909558Y8214949D01*
X6933511Y8220699D01*
X6956269Y8230126D01*
X6977273Y8242997D01*
X6996004Y8258996D01*
X7012003Y8277727D01*
X7024874Y8298731D01*
X7034301Y8321489D01*
X7040051Y8345442D01*
X7041984Y8370000D01*
X7040051Y8394558D01*
X7034301Y8418511D01*
X7024874Y8441269D01*
X7012003Y8462273D01*
X6996004Y8481004D01*
X6977273Y8497003D01*
X6956269Y8509874D01*
X6933511Y8519301D01*
X6909558Y8525051D01*
X6885000Y8526984D01*
D02*
G37*
G36*
X4735000D02*
X4515000D01*
X4490442Y8525051D01*
X4466489Y8519301D01*
X4443731Y8509874D01*
X4422727Y8497003D01*
X4403995Y8481004D01*
X4387997Y8462273D01*
X4375126Y8441269D01*
X4365699Y8418511D01*
X4359948Y8394558D01*
X4358016Y8370000D01*
X4359948Y8345442D01*
X4365699Y8321489D01*
X4375126Y8298731D01*
X4387997Y8277727D01*
X4403995Y8258996D01*
X4422727Y8242997D01*
X4443731Y8230126D01*
X4466489Y8220699D01*
X4490442Y8214949D01*
X4515000Y8213016D01*
X4735000D01*
X4759557Y8214949D01*
X4783510Y8220699D01*
X4806269Y8230126D01*
X4827273Y8242997D01*
X4846004Y8258996D01*
X4862002Y8277727D01*
X4874873Y8298731D01*
X4884300Y8321489D01*
X4890051Y8345442D01*
X4891984Y8370000D01*
X4890051Y8394558D01*
X4884300Y8418511D01*
X4874873Y8441269D01*
X4862002Y8462273D01*
X4846004Y8481004D01*
X4827273Y8497003D01*
X4806269Y8509874D01*
X4783510Y8519301D01*
X4759557Y8525051D01*
X4735000Y8526984D01*
D02*
G37*
G36*
X2585000D02*
X2365000D01*
X2340442Y8525051D01*
X2316489Y8519301D01*
X2293731Y8509874D01*
X2272727Y8497003D01*
X2253995Y8481004D01*
X2237997Y8462273D01*
X2225126Y8441269D01*
X2215699Y8418511D01*
X2209949Y8394558D01*
X2208016Y8370000D01*
X2209949Y8345442D01*
X2215699Y8321489D01*
X2225126Y8298731D01*
X2237997Y8277727D01*
X2253995Y8258996D01*
X2272727Y8242997D01*
X2293731Y8230126D01*
X2316489Y8220699D01*
X2340442Y8214949D01*
X2365000Y8213016D01*
X2585000D01*
X2609558Y8214949D01*
X2633511Y8220699D01*
X2656269Y8230126D01*
X2677273Y8242997D01*
X2696004Y8258996D01*
X2712003Y8277727D01*
X2724874Y8298731D01*
X2734301Y8321489D01*
X2740051Y8345442D01*
X2741984Y8370000D01*
X2740051Y8394558D01*
X2734301Y8418511D01*
X2724874Y8441269D01*
X2712003Y8462273D01*
X2696004Y8481004D01*
X2677273Y8497003D01*
X2656269Y8509874D01*
X2633511Y8519301D01*
X2609558Y8525051D01*
X2585000Y8526984D01*
D02*
G37*
G36*
X9035000Y8186984D02*
X8815000D01*
X8790442Y8185051D01*
X8766489Y8179301D01*
X8743731Y8169874D01*
X8722727Y8157003D01*
X8703996Y8141005D01*
X8687997Y8122273D01*
X8675126Y8101269D01*
X8665699Y8078511D01*
X8659949Y8054558D01*
X8658016Y8030000D01*
X8659949Y8005442D01*
X8665699Y7981489D01*
X8675126Y7958731D01*
X8687997Y7937727D01*
X8703996Y7918996D01*
X8722727Y7902997D01*
X8743731Y7890126D01*
X8766489Y7880700D01*
X8790442Y7874949D01*
X8815000Y7873016D01*
X9035000D01*
X9059558Y7874949D01*
X9083511Y7880700D01*
X9106269Y7890126D01*
X9127273Y7902997D01*
X9146004Y7918996D01*
X9162003Y7937727D01*
X9174874Y7958731D01*
X9184301Y7981489D01*
X9190051Y8005442D01*
X9191984Y8030000D01*
X9190051Y8054558D01*
X9184301Y8078511D01*
X9174874Y8101269D01*
X9162003Y8122273D01*
X9146004Y8141005D01*
X9127273Y8157003D01*
X9106269Y8169874D01*
X9083511Y8179301D01*
X9059558Y8185051D01*
X9035000Y8186984D01*
D02*
G37*
G36*
X6885000D02*
X6665000D01*
X6640442Y8185051D01*
X6616489Y8179301D01*
X6593731Y8169874D01*
X6572727Y8157003D01*
X6553996Y8141005D01*
X6537997Y8122273D01*
X6525126Y8101269D01*
X6515699Y8078511D01*
X6509949Y8054558D01*
X6508016Y8030000D01*
X6509949Y8005442D01*
X6515699Y7981489D01*
X6525126Y7958731D01*
X6537997Y7937727D01*
X6553996Y7918996D01*
X6572727Y7902997D01*
X6593731Y7890126D01*
X6616489Y7880700D01*
X6640442Y7874949D01*
X6665000Y7873016D01*
X6885000D01*
X6909558Y7874949D01*
X6933511Y7880700D01*
X6956269Y7890126D01*
X6977273Y7902997D01*
X6996004Y7918996D01*
X7012003Y7937727D01*
X7024874Y7958731D01*
X7034301Y7981489D01*
X7040051Y8005442D01*
X7041984Y8030000D01*
X7040051Y8054558D01*
X7034301Y8078511D01*
X7024874Y8101269D01*
X7012003Y8122273D01*
X6996004Y8141005D01*
X6977273Y8157003D01*
X6956269Y8169874D01*
X6933511Y8179301D01*
X6909558Y8185051D01*
X6885000Y8186984D01*
D02*
G37*
G36*
X4735000D02*
X4515000D01*
X4490442Y8185051D01*
X4466489Y8179301D01*
X4443731Y8169874D01*
X4422727Y8157003D01*
X4403995Y8141005D01*
X4387997Y8122273D01*
X4375126Y8101269D01*
X4365699Y8078511D01*
X4359948Y8054558D01*
X4358016Y8030000D01*
X4359948Y8005442D01*
X4365699Y7981489D01*
X4375126Y7958731D01*
X4387997Y7937727D01*
X4403995Y7918996D01*
X4422727Y7902997D01*
X4443731Y7890126D01*
X4466489Y7880700D01*
X4490442Y7874949D01*
X4515000Y7873016D01*
X4735000D01*
X4759557Y7874949D01*
X4783510Y7880700D01*
X4806269Y7890126D01*
X4827273Y7902997D01*
X4846004Y7918996D01*
X4862002Y7937727D01*
X4874873Y7958731D01*
X4884300Y7981489D01*
X4890051Y8005442D01*
X4891984Y8030000D01*
X4890051Y8054558D01*
X4884300Y8078511D01*
X4874873Y8101269D01*
X4862002Y8122273D01*
X4846004Y8141005D01*
X4827273Y8157003D01*
X4806269Y8169874D01*
X4783510Y8179301D01*
X4759557Y8185051D01*
X4735000Y8186984D01*
D02*
G37*
G36*
X2585000D02*
X2365000D01*
X2340442Y8185051D01*
X2316489Y8179301D01*
X2293731Y8169874D01*
X2272727Y8157003D01*
X2253995Y8141005D01*
X2237997Y8122273D01*
X2225126Y8101269D01*
X2215699Y8078511D01*
X2209949Y8054558D01*
X2208016Y8030000D01*
X2209949Y8005442D01*
X2215699Y7981489D01*
X2225126Y7958731D01*
X2237997Y7937727D01*
X2253995Y7918996D01*
X2272727Y7902997D01*
X2293731Y7890126D01*
X2316489Y7880700D01*
X2340442Y7874949D01*
X2365000Y7873016D01*
X2585000D01*
X2609558Y7874949D01*
X2633511Y7880700D01*
X2656269Y7890126D01*
X2677273Y7902997D01*
X2696004Y7918996D01*
X2712003Y7937727D01*
X2724874Y7958731D01*
X2734301Y7981489D01*
X2740051Y8005442D01*
X2741984Y8030000D01*
X2740051Y8054558D01*
X2734301Y8078511D01*
X2724874Y8101269D01*
X2712003Y8122273D01*
X2696004Y8141005D01*
X2677273Y8157003D01*
X2656269Y8169874D01*
X2633511Y8179301D01*
X2609558Y8185051D01*
X2585000Y8186984D01*
D02*
G37*
G36*
X5322247Y6111500D02*
X5302753D01*
X5284744Y6104040D01*
X5270960Y6090256D01*
X5263500Y6072247D01*
Y6052753D01*
X5270960Y6034744D01*
X5284744Y6020960D01*
X5302753Y6013500D01*
X5322247D01*
X5340256Y6020960D01*
X5354040Y6034744D01*
X5361500Y6052753D01*
Y6072247D01*
X5354040Y6090256D01*
X5340256Y6104040D01*
X5322247Y6111500D01*
D02*
G37*
G36*
X5122247D02*
X5102753D01*
X5084743Y6104040D01*
X5070960Y6090256D01*
X5063500Y6072247D01*
Y6052753D01*
X5070960Y6034744D01*
X5084743Y6020960D01*
X5102753Y6013500D01*
X5122247D01*
X5140256Y6020960D01*
X5154040Y6034744D01*
X5161500Y6052753D01*
Y6072247D01*
X5154040Y6090256D01*
X5140256Y6104040D01*
X5122247Y6111500D01*
D02*
G37*
G36*
X4834747Y6061500D02*
X4815253D01*
X4797244Y6054040D01*
X4783460Y6040256D01*
X4776000Y6022247D01*
Y6002753D01*
X4783460Y5984744D01*
X4797244Y5970960D01*
X4815253Y5963500D01*
X4834747D01*
X4852756Y5970960D01*
X4866540Y5984744D01*
X4874000Y6002753D01*
Y6022247D01*
X4866540Y6040256D01*
X4852756Y6054040D01*
X4834747Y6061500D01*
D02*
G37*
G36*
X4634747D02*
X4615253D01*
X4597244Y6054040D01*
X4583460Y6040256D01*
X4576000Y6022247D01*
Y6002753D01*
X4583460Y5984744D01*
X4597244Y5970960D01*
X4615253Y5963500D01*
X4634747D01*
X4652756Y5970960D01*
X4666540Y5984744D01*
X4674000Y6002753D01*
Y6022247D01*
X4666540Y6040256D01*
X4652756Y6054040D01*
X4634747Y6061500D01*
D02*
G37*
G36*
X1256451Y4324000D02*
X1243549D01*
X1231087Y4320661D01*
X1219913Y4314210D01*
X1210790Y4305087D01*
X1204339Y4293913D01*
X1201000Y4281451D01*
Y4268549D01*
X1204339Y4256087D01*
X1210790Y4244913D01*
X1219913Y4235790D01*
X1231087Y4229339D01*
X1243549Y4226000D01*
X1256451D01*
X1268913Y4229339D01*
X1280087Y4235790D01*
X1289210Y4244913D01*
X1295661Y4256087D01*
X1299000Y4268549D01*
Y4281451D01*
X1295661Y4293913D01*
X1289210Y4305087D01*
X1280087Y4314210D01*
X1268913Y4320661D01*
X1256451Y4324000D01*
D02*
G37*
%LPD*%
D10*
X4424608Y724608D02*
X4502496Y802496D01*
X4581614D01*
X3880000Y900000D02*
X4225000D01*
X4252500Y872500D01*
X8224651Y724582D02*
X8302539Y802471D01*
X8381656D01*
X8412307Y833122D01*
X8025043Y899974D02*
X8052543Y872474D01*
X7680043Y899974D02*
X8025043D01*
X6875000Y5837500D02*
X7412500D01*
X6775000Y5737500D02*
X6875000Y5837500D01*
X1500000Y7150000D02*
X4862500D01*
X1087500Y7562500D02*
X1500000Y7150000D01*
X1087500Y7562500D02*
Y7741217D01*
X1033410Y7795307D02*
X1087500Y7741217D01*
X762499Y7745710D02*
X812096Y7795307D01*
X1033410D01*
X762499Y7612500D02*
Y7745710D01*
X5137500Y1420000D02*
Y1515000D01*
X3987500Y1420000D02*
Y1515000D01*
X8937543Y1419974D02*
Y1514974D01*
X7787543Y1419974D02*
Y1514974D01*
X4609500Y1120912D02*
Y1295500D01*
X8409543Y1120886D02*
X8412958Y1117471D01*
X8409543Y1120886D02*
Y1295474D01*
D13*
X3812501Y5295000D02*
D03*
Y5155000D02*
D03*
X3662501Y5045000D02*
D03*
X3812500Y5892500D02*
D03*
X3662500Y5782500D02*
D03*
X3662501Y4905000D02*
D03*
X8937543Y1279974D02*
D03*
X7787543D02*
D03*
X3662500Y5642500D02*
D03*
X5137500Y1280000D02*
D03*
X3987500D02*
D03*
X3812500Y6032500D02*
D03*
X8937543Y1419974D02*
D03*
X7787543D02*
D03*
X5137500Y1420000D02*
D03*
X3987500D02*
D03*
D17*
X8120043Y774974D02*
D03*
X4320000Y775000D02*
D03*
X7980042Y774974D02*
D03*
X4180000Y775000D02*
D03*
D32*
X3880000Y900000D02*
D03*
X7680043Y899974D02*
D03*
X3595000Y900000D02*
D03*
X7395043Y899974D02*
D03*
D37*
X7837543Y625110D02*
D03*
X4037500Y625136D02*
D03*
X7837543Y349838D02*
D03*
X4037500Y349864D02*
D03*
D39*
X5000000Y2558750D02*
D03*
Y2128750D02*
D03*
X5462500Y1765000D02*
D03*
X3100100Y2490000D02*
D03*
Y2060000D02*
D03*
X4312500Y1765000D02*
D03*
X8112543Y1764974D02*
D03*
X9262543D02*
D03*
Y1334974D02*
D03*
X8112543D02*
D03*
X5462500Y1335000D02*
D03*
X4312500D02*
D03*
D42*
X5187500Y1830000D02*
D03*
X4037500D02*
D03*
X7837543Y1829974D02*
D03*
X8987543D02*
D03*
X4612915Y832497D02*
D03*
X8412958Y832471D02*
D03*
X8987543Y1544974D02*
D03*
X8412958Y1117471D02*
D03*
X7837543Y1544974D02*
D03*
X5187500Y1545000D02*
D03*
X4612915Y1117497D02*
D03*
X4037500Y1545000D02*
D03*
D45*
X8112500Y112500D02*
X8181250D01*
X8046500Y178500D02*
X8112500Y112500D01*
X7484000Y178500D02*
X8046500D01*
X8182543Y113793D02*
Y324974D01*
X8181250Y112500D02*
X8182543Y113793D01*
X6006250Y1656250D02*
X7484000Y178500D01*
X6093750Y2443750D02*
X6562500Y2912500D01*
X6093750Y1731250D02*
Y2443750D01*
X6562500Y2912500D02*
Y3798308D01*
X5918750Y2443750D02*
X6443750Y2968750D01*
X5918750Y718750D02*
Y2443750D01*
X6443750Y2968750D02*
Y3747353D01*
X6006250Y1656250D02*
Y2443750D01*
X6500000Y2937500D01*
Y3775956D01*
X5843750Y2462500D02*
X6387500Y3006250D01*
Y3718750D01*
X5843750Y830074D02*
Y2462500D01*
X5100000Y812500D02*
X5826176D01*
X5843750Y830074D01*
X5364030Y164030D02*
X5918750Y718750D01*
X6093750Y1731250D02*
X7000000Y825000D01*
X7600000Y225000D01*
X6129705Y4146250D02*
X6500000Y3775956D01*
X437500Y1112500D02*
X725180Y1400180D01*
Y2300000D01*
X1700000Y4100000D02*
X1892499Y3907500D01*
X2845000D01*
X3426250Y4488750D01*
X5067500D02*
X5530000Y4026251D01*
X3426250Y4488750D02*
X5067500D01*
X4382500Y250944D02*
X4400074Y233370D01*
X4502205D01*
X4382500Y250944D02*
Y325000D01*
X4550000Y281166D02*
Y387500D01*
X4502205Y233370D02*
X4550000Y281166D01*
Y387500D02*
X4975000Y812500D01*
X5100000D01*
X5530000Y4026251D02*
X6080000D01*
X6387500Y3718750D01*
X4382500Y625000D02*
Y682500D01*
X4424608Y724608D01*
X4252500Y625000D02*
Y872500D01*
X8182543Y682474D02*
X8224651Y724582D01*
X8182543Y624974D02*
Y682474D01*
X8052543Y624974D02*
Y872474D01*
X4162500Y200000D02*
X4169197Y206697D01*
X4224197D01*
X4252500Y235000D01*
X5092353Y4548750D02*
X5554852Y4086250D01*
X2057500Y3967500D02*
X2817500D01*
X3398750Y4548750D01*
X5092353D01*
X4252500Y235000D02*
Y325000D01*
Y235000D02*
X4323470Y164030D01*
X5364030D01*
X1925000Y4100000D02*
X2057500Y3967500D01*
X5554852Y4086250D02*
X6104852D01*
X6443750Y3747353D01*
X2375001Y4100000D02*
X2387500Y4087500D01*
X5258529Y4550961D02*
Y4552279D01*
Y4550961D02*
X5603240Y4206250D01*
X6154558D01*
X6562500Y3798308D01*
X8025000Y225000D02*
X8052543Y252543D01*
Y324974D01*
X7600000Y225000D02*
X8025000D01*
X5142058Y4668750D02*
X5258529Y4552279D01*
X2387500Y4087500D02*
X2775000D01*
X3356250Y4668750D01*
X5142058D01*
X2150000Y4100000D02*
X2222500Y4027500D01*
X5579705Y4146250D02*
X6129705D01*
X5117205Y4608750D02*
X5579705Y4146250D01*
X2222500Y4027500D02*
X2790000D01*
X3371250Y4608750D01*
X5117205D01*
X1012500Y6487500D02*
X1162500Y6637500D01*
Y6800001D01*
X2700000Y6362500D02*
X5625000D01*
X6062500Y5925000D01*
X1162500Y6800001D02*
X1324999Y6962500D01*
X6037500Y5575000D02*
X7007221D01*
X5736000Y6461000D02*
X5800000Y6525000D01*
X3439000Y6461000D02*
X5736000D01*
X5800000Y6525000D02*
X7462500D01*
X7700000Y6287500D01*
X3362500Y6537500D02*
X3439000Y6461000D01*
X7412500Y6150000D02*
X7587500Y5975000D01*
X7325000Y6150000D02*
X7412500D01*
X7007221Y5575000D02*
X7169721Y5737500D01*
X7175000D01*
X7700000Y6100000D02*
Y6287500D01*
X8117543Y624974D02*
Y698724D01*
Y772474D01*
X4317500Y698750D02*
Y772500D01*
Y625000D02*
Y698750D01*
X4112500Y5800000D02*
X5812500D01*
X6037500Y5575000D01*
X546269Y7762352D02*
X696121Y7612500D01*
X762499D01*
X2037500Y6125000D02*
X2462500D01*
X2700000Y6362500D01*
X2225000Y6537500D02*
X3362500D01*
X2173907Y6387500D02*
X2423500D01*
X2424999Y6386000D01*
X1714373Y6847033D02*
X2173907Y6387500D01*
X3657500Y6032500D02*
X3812500D01*
X3487500Y5862500D02*
X3657500Y6032500D01*
X3487500Y5037500D02*
X3745000Y5295000D01*
X3812501D01*
X8117543Y442474D02*
X8150043Y474974D01*
X8117543Y324974D02*
Y442474D01*
X4317500Y442500D02*
X4350000Y475000D01*
X4317500Y325000D02*
Y442500D01*
X3662501Y4905000D02*
X3665002Y4902500D01*
X3747502D01*
X3750001Y4900000D01*
X3812001Y4900500D02*
X3812501Y4901000D01*
X3750501Y4900500D02*
X3812001D01*
X3750001Y4900000D02*
X3750501Y4900500D01*
X3750000Y5637500D02*
X3750500Y5638000D01*
X3812000D01*
X3812500Y5638500D01*
X3747500Y5640000D02*
X3750000Y5637500D01*
X3665000Y5640000D02*
X3747500D01*
X3662500Y5642500D02*
X3665000Y5640000D01*
X3810501Y5047000D02*
X3812501Y5049000D01*
Y5155000D01*
X3662501Y5045000D02*
X3664501Y5047000D01*
X3810501D01*
X3812500Y5786500D02*
Y5892500D01*
X3812500Y5786500D02*
X3812500Y5786500D01*
X3664500Y5784500D02*
X3810500D01*
X3812500Y5786500D01*
X3662500Y5782500D02*
X3664500Y5784500D01*
X762499Y7524611D02*
Y7612500D01*
X725388Y7487500D02*
X762499Y7524611D01*
X567574Y7487500D02*
X725388D01*
X500000Y7419926D02*
X567574Y7487500D01*
X500000Y7341728D02*
X565786Y7275942D01*
X500000Y7341728D02*
Y7419926D01*
X565786Y7086053D02*
Y7275942D01*
X485000Y7033327D02*
Y7038992D01*
Y7033327D02*
X520073Y6998253D01*
X596101D01*
X721409Y7123560D02*
Y7191055D01*
X596101Y6998253D02*
X721409Y7123560D01*
Y7191055D02*
X786467Y7256113D01*
D46*
X1024999Y6387500D02*
X1662499Y7025000D01*
X1668750D01*
X1024999Y4375000D02*
Y6387500D01*
X6653500Y5978500D02*
X7053500D01*
X6400000Y5725000D02*
X6653500Y5978500D01*
X6735752Y6200000D02*
X7125000D01*
X6406414Y5870661D02*
X6735752Y6200000D01*
X7125000D02*
X7350000Y6425000D01*
X6075000Y5400000D02*
X6425000D01*
X3387500Y5450000D02*
X6025000D01*
X6075000Y5400000D01*
X6425000D02*
X6825000Y5000000D01*
X5987500Y5500000D02*
X6450000D01*
X6900000Y5050000D01*
X5775000Y5712500D02*
X5987500Y5500000D01*
X7053500Y5978500D02*
X7350000Y6275000D01*
X6825000Y4550000D02*
X6900000Y4625000D01*
X1125000Y6000000D02*
X1137177D01*
X1387177Y5750000D01*
X6900000Y4625000D02*
Y5050000D01*
X4012500Y5712500D02*
X5775000D01*
X3937500Y5787500D02*
X4012500Y5712500D01*
X3937500Y5787500D02*
Y6075000D01*
X3365961Y6028461D02*
Y6178461D01*
X3425000Y6237500D01*
X3775000D01*
X3937500Y6075000D01*
X1387177Y5750000D02*
X2600000D01*
X3287500Y5950000D02*
X3365961Y6028461D01*
X2800000Y5950000D02*
X3287500D01*
X2600000Y5750000D02*
X2800000Y5950000D01*
X3287500Y5550000D02*
X3387500Y5450000D01*
X1125000Y5875000D02*
X1450000Y5550000D01*
X3287500D01*
X3312500Y6062500D02*
Y6212500D01*
X3408000Y6308000D01*
X5417000D01*
X6062500Y5662500D01*
X6912500D01*
X3262500Y6012500D02*
X3312500Y6062500D01*
X2825000Y6012500D02*
X3262500D01*
X2375000Y5850000D02*
X2587500Y6062500D01*
X2775000D01*
X2825000Y6012500D01*
X5000000Y4962500D02*
X6762500D01*
X4566000Y5396500D02*
X5000000Y4962500D01*
X6762500D02*
X6812500Y4912500D01*
X1250000Y5625000D02*
X1450000Y5425000D01*
X3434000Y5396500D02*
X4566000D01*
X1450000Y5425000D02*
X1681250D01*
X3262500Y5225000D02*
X3434000Y5396500D01*
X2812500Y5225000D02*
X3262500D01*
X1800000Y5306250D02*
X2731250D01*
X1681250Y5425000D02*
X1800000Y5306250D01*
X2731250D02*
X2812500Y5225000D01*
X1687500Y4800000D02*
X3300000D01*
X3409853Y4909853D01*
X1537500Y4650000D02*
X1687500Y4800000D01*
X250000Y7243984D02*
Y7644350D01*
X316499Y7710849D02*
Y7778999D01*
X250000Y7644350D02*
X316499Y7710849D01*
X279999Y7742499D02*
Y7842499D01*
X375000Y7937500D01*
X213500Y7676000D02*
X279999Y7742499D01*
X316499Y7778999D02*
X637500Y8100000D01*
X162500Y7950000D02*
X242911Y7869588D01*
X177000Y7714500D02*
X242911Y7780411D01*
Y7869588D01*
X2787500Y5675000D02*
X2837500Y5625000D01*
X2650000Y5675000D02*
X2787500D01*
X2600000Y5625000D02*
X2650000Y5675000D01*
X2837500Y5625000D02*
X3287500D01*
X1487500D02*
X2600000D01*
X3287500D02*
X3412500Y5750000D01*
X3634501Y5017640D02*
Y5021980D01*
X3657521Y5045000D01*
X3526714Y4909853D02*
X3634501Y5017640D01*
X3409853Y4909853D02*
X3526714D01*
X3556260Y5750000D02*
X3588760Y5782500D01*
X3412500Y5750000D02*
X3556260D01*
X3657521Y5045000D02*
X3661861D01*
X3588760Y5782500D02*
X3662500D01*
X887500Y7600000D02*
X999999Y7712500D01*
X250000Y7243984D02*
X337500Y7156484D01*
Y7125000D02*
Y7156484D01*
Y7125000D02*
X422500Y7040000D01*
X483991D01*
X485000Y7038992D01*
X250000Y6800000D02*
Y7140746D01*
X213500Y7228865D02*
Y7676000D01*
Y7228865D02*
X300000Y7142365D01*
X177000Y7213747D02*
X250000Y7140746D01*
X300000Y6861491D02*
Y7142365D01*
X177000Y7213747D02*
Y7714500D01*
X300000Y6861491D02*
X659999Y6501492D01*
X887500Y7168679D02*
Y7600000D01*
X815255Y7096434D02*
X887500Y7168679D01*
X685582Y6433284D02*
X740391Y6488093D01*
X616716Y6433284D02*
X685582D01*
X250000Y6800000D02*
X616716Y6433284D01*
D47*
X3459500Y1063000D02*
X3595000Y927500D01*
X3459500Y1063000D02*
Y1295500D01*
X7259543Y1062974D02*
Y1295474D01*
Y1062974D02*
X7395043Y927474D01*
D48*
X5537500Y6837500D02*
X5650000D01*
X5425000D02*
X5537500D01*
X3650000D02*
X5425000D01*
X5650000D02*
X7650000D01*
X2687500Y7012500D02*
X2862500Y6837500D01*
X3650000D01*
X4037500Y670411D02*
Y737500D01*
D49*
X513329Y4260013D02*
Y4339987D01*
X473342Y4300000D01*
X526658D01*
D50*
X725180Y2300000D02*
D03*
X2625100D02*
D03*
X1675140D02*
D03*
X3575060D02*
D03*
X5474980D02*
D03*
X6424940D02*
D03*
X8324860D02*
D03*
X4525020D02*
D03*
X7374900D02*
D03*
D51*
X9274820D02*
D03*
D53*
X3487500Y6116500D02*
D03*
Y5291500D02*
D03*
Y5037500D02*
D03*
Y5862500D02*
D03*
D54*
X9150000Y5150000D02*
D03*
Y5650000D02*
D03*
Y4150000D02*
D03*
Y4650000D02*
D03*
Y3150000D02*
D03*
Y3650000D02*
D03*
X5694000Y9098000D02*
D03*
X7194000D02*
D03*
X5194000D02*
D03*
X3194000D02*
D03*
X1194000D02*
D03*
X4194000D02*
D03*
X4694000D02*
D03*
X2194000D02*
D03*
X2694000D02*
D03*
X6194000D02*
D03*
X6694000D02*
D03*
X3694000D02*
D03*
X8694000D02*
D03*
X8194000D02*
D03*
X7694000D02*
D03*
X1694000D02*
D03*
D55*
X3487500Y4783500D02*
D03*
Y5608500D02*
D03*
D56*
X419999Y7713991D02*
D03*
Y7213991D02*
D03*
D57*
X500000Y728600D02*
D03*
X338355Y661645D02*
D03*
X271400Y500000D02*
D03*
X338355Y338355D02*
D03*
X500000Y271400D02*
D03*
X661645Y338355D02*
D03*
X728600Y500000D02*
D03*
X661645Y661645D02*
D03*
X500000Y9728600D02*
D03*
X338355Y9661644D02*
D03*
X271400Y9500000D02*
D03*
X338355Y9338355D02*
D03*
X500000Y9271400D02*
D03*
X661645Y9338355D02*
D03*
X728600Y9500000D02*
D03*
X661645Y9661644D02*
D03*
X9500000Y728600D02*
D03*
X9338355Y661645D02*
D03*
X9271400Y500000D02*
D03*
X9338355Y338355D02*
D03*
X9500000Y271400D02*
D03*
X9661644Y338355D02*
D03*
X9728600Y500000D02*
D03*
X9661644Y661645D02*
D03*
X9500000Y9728600D02*
D03*
X9338355Y9661644D02*
D03*
X9271400Y9500000D02*
D03*
X9338355Y9338355D02*
D03*
X9500000Y9271400D02*
D03*
X9661644Y9338355D02*
D03*
X9728600Y9500000D02*
D03*
X9661644Y9661644D02*
D03*
D58*
X500000Y500000D02*
D03*
Y9500000D02*
D03*
X9500000Y500000D02*
D03*
Y9500000D02*
D03*
D59*
X8181250Y112500D02*
D03*
X875000Y87500D02*
D03*
X2000000D02*
D03*
X1250000D02*
D03*
X1625000D02*
D03*
X3125000D02*
D03*
X2375000D02*
D03*
X2750000D02*
D03*
X437500Y1112500D02*
D03*
X1700000Y4100000D02*
D03*
X5100000Y812500D02*
D03*
X1925000Y4100000D02*
D03*
X4162500Y200000D02*
D03*
X2375001Y4100000D02*
D03*
X7000000Y825000D02*
D03*
X2150000Y4100000D02*
D03*
X4840000Y4087500D02*
D03*
X4990000D02*
D03*
X5065000D02*
D03*
X4915000D02*
D03*
X5140000D02*
D03*
X4390000D02*
D03*
X4540000D02*
D03*
X4615000D02*
D03*
X4465000D02*
D03*
X4690000D02*
D03*
X1012500Y6487500D02*
D03*
X1668750Y7025000D02*
D03*
X5650000Y6531250D02*
D03*
X6062500Y5925000D02*
D03*
X1324999Y6962500D02*
D03*
X1024999Y4375000D02*
D03*
X5687500Y6950000D02*
D03*
X5525000Y7150000D02*
D03*
Y6950000D02*
D03*
X5350000Y7150000D02*
D03*
Y6950000D02*
D03*
X5175000Y7150000D02*
D03*
Y6950000D02*
D03*
X5312500Y6237500D02*
D03*
X5112500D02*
D03*
X5312500Y6062500D02*
D03*
X5112500D02*
D03*
X4625000Y6012500D02*
D03*
X4825000D02*
D03*
Y6225000D02*
D03*
X4625000D02*
D03*
X7925000Y5912500D02*
D03*
X8225000D02*
D03*
X6387500Y6075000D02*
D03*
X6400000Y5725000D02*
D03*
X6406414Y5870661D02*
D03*
X6612500Y5437500D02*
D03*
X6100000Y5400000D02*
D03*
X7350000Y6425000D02*
D03*
X6175000Y5500000D02*
D03*
X7350000Y6275000D02*
D03*
X6825000Y6412500D02*
D03*
Y4550000D02*
D03*
X1125000Y6000000D02*
D03*
Y5875000D02*
D03*
X6825000Y5000000D02*
D03*
X6912500Y5662500D02*
D03*
X2375000Y5850000D02*
D03*
X6812500Y4912500D02*
D03*
X1250000Y5625000D02*
D03*
X6825000Y6037500D02*
D03*
X7325000Y6150000D02*
D03*
X6775000Y5737500D02*
D03*
X7175000D02*
D03*
X3137500Y4093750D02*
D03*
X2818750Y4400000D02*
D03*
X2487500Y4156250D02*
D03*
X4970000Y4337500D02*
D03*
X4920000Y4387500D02*
D03*
X4970000Y4262500D02*
D03*
X4907500Y4300000D02*
D03*
X4920000Y4212500D02*
D03*
X4957500Y4150000D02*
D03*
X4882500D02*
D03*
X4807500D02*
D03*
X4657500D02*
D03*
X4400000Y4387500D02*
D03*
Y4212500D02*
D03*
X4350000Y4262500D02*
D03*
X4432500Y4150000D02*
D03*
X4582500D02*
D03*
X4507500D02*
D03*
X4412500Y4300000D02*
D03*
X4350000Y4337500D02*
D03*
X4357500Y4150000D02*
D03*
X5499998Y1162500D02*
D03*
X5424999D02*
D03*
X5349999D02*
D03*
X4349998D02*
D03*
X4274999D02*
D03*
X4199999D02*
D03*
X8150041Y1162474D02*
D03*
X8075041D02*
D03*
X8000041D02*
D03*
X9300041D02*
D03*
X9225041D02*
D03*
X9150041D02*
D03*
X8550043D02*
D03*
X8587542Y1099974D02*
D03*
X8625042Y1162474D02*
D03*
X8700042D02*
D03*
X8662542Y1099974D02*
D03*
X8775042Y1162474D02*
D03*
X8737542Y1099974D02*
D03*
X8962542D02*
D03*
X9000042Y1162474D02*
D03*
X8887542Y1099974D02*
D03*
X8925042Y1162474D02*
D03*
X8812542Y1099974D02*
D03*
X9187541D02*
D03*
X9112541D02*
D03*
X9075042Y1162474D02*
D03*
X9037541Y1099974D02*
D03*
X9262541D02*
D03*
X9337541D02*
D03*
X7400043Y1162474D02*
D03*
X7437542Y1099974D02*
D03*
X7475042Y1162474D02*
D03*
X7550042D02*
D03*
X7512542Y1099974D02*
D03*
X7625042Y1162474D02*
D03*
X7587542Y1099974D02*
D03*
X7812542D02*
D03*
X7850042Y1162474D02*
D03*
X7737542Y1099974D02*
D03*
X7775042Y1162474D02*
D03*
X7662542Y1099974D02*
D03*
X8037541D02*
D03*
X7962541D02*
D03*
X7925042Y1162474D02*
D03*
X7887542Y1099974D02*
D03*
X8112541D02*
D03*
X8187541D02*
D03*
X4750000Y1162500D02*
D03*
X4787500Y1100000D02*
D03*
X4825000Y1162500D02*
D03*
X4900000D02*
D03*
X4862500Y1100000D02*
D03*
X4974999Y1162500D02*
D03*
X4937499Y1100000D02*
D03*
X5162499D02*
D03*
X5199999Y1162500D02*
D03*
X5087499Y1100000D02*
D03*
X5124999Y1162500D02*
D03*
X5012499Y1100000D02*
D03*
X5387498D02*
D03*
X5312499D02*
D03*
X5274999Y1162500D02*
D03*
X5237499Y1100000D02*
D03*
X5462498D02*
D03*
X5537498D02*
D03*
X4387498D02*
D03*
X4312498D02*
D03*
X4087499D02*
D03*
X4124999Y1162500D02*
D03*
X4162499Y1100000D02*
D03*
X4237499D02*
D03*
X3862499D02*
D03*
X3974999Y1162500D02*
D03*
X3937499Y1100000D02*
D03*
X4049999Y1162500D02*
D03*
X4012499Y1100000D02*
D03*
X3787499D02*
D03*
X3824999Y1162500D02*
D03*
X3712500Y1100000D02*
D03*
X3750000Y1162500D02*
D03*
X3675000D02*
D03*
X3637500Y1100000D02*
D03*
X3237500Y4675000D02*
D03*
X2862500Y4500000D02*
D03*
Y4675000D02*
D03*
X2862500Y4587500D02*
D03*
X3049999Y4499999D02*
D03*
Y4674999D02*
D03*
X8562500Y6562500D02*
D03*
X8775000Y6350000D02*
D03*
X8762500Y6725000D02*
D03*
X7881250Y737500D02*
D03*
X7793750D02*
D03*
X2550000Y4406250D02*
D03*
X1812500Y4100000D02*
D03*
X5825000Y4275000D02*
D03*
X2543750Y4256250D02*
D03*
X2712500Y5212500D02*
D03*
X4037500Y5262500D02*
D03*
X2507500Y4712500D02*
D03*
X4650000Y4762500D02*
D03*
X3950000Y4756250D02*
D03*
X2375000Y4700000D02*
D03*
X1525000Y4825000D02*
D03*
X1750000Y4675000D02*
D03*
X1537500Y4650000D02*
D03*
X7137500Y4550000D02*
D03*
X7162500Y4775000D02*
D03*
X5950000Y4487500D02*
D03*
X5575000Y4706250D02*
D03*
X5350000Y4725000D02*
D03*
X6237500Y4337500D02*
D03*
X6212500Y5037500D02*
D03*
X5362500Y4875000D02*
D03*
X6887500Y3887500D02*
D03*
X7350000Y6612500D02*
D03*
X8995803Y6567424D02*
D03*
X7650000Y6837500D02*
D03*
X5650000D02*
D03*
X3650000D02*
D03*
X2687500Y7012500D02*
D03*
X5537500Y6837500D02*
D03*
X5425000D02*
D03*
X8117543Y698724D02*
D03*
X4317500Y698750D02*
D03*
X4037500Y737500D02*
D03*
X9400000Y6962500D02*
D03*
X9090641Y7090641D02*
D03*
X8962500Y7400000D02*
D03*
X9090641Y7709359D02*
D03*
X9400000Y7837500D02*
D03*
X9232576Y7804197D02*
D03*
X9567424D02*
D03*
Y6995803D02*
D03*
X9232576D02*
D03*
X8995803Y7232576D02*
D03*
Y7567424D02*
D03*
X4112500Y5800000D02*
D03*
X2600000Y4300000D02*
D03*
Y4200000D02*
D03*
X900000Y4362500D02*
D03*
X962500Y4187500D02*
D03*
Y4062500D02*
D03*
X5000000Y87500D02*
D03*
X4625000D02*
D03*
X5375000D02*
D03*
X3875000D02*
D03*
X3500000D02*
D03*
X4250000D02*
D03*
X9912500Y1437500D02*
D03*
Y1062500D02*
D03*
Y687500D02*
D03*
X9125000Y87500D02*
D03*
X9500000D02*
D03*
X8750000D02*
D03*
X6992000Y9098000D02*
D03*
X7396000Y9098000D02*
D03*
X7194000Y8896000D02*
D03*
X7194000Y9300000D02*
D03*
X7051165Y9240836D02*
D03*
X7336836Y9240835D02*
D03*
X7336835Y8955164D02*
D03*
X7051164Y8955165D02*
D03*
X4992000Y9098000D02*
D03*
X5396000Y9098000D02*
D03*
X5194000Y8896000D02*
D03*
X5194000Y9300000D02*
D03*
X5051165Y9240836D02*
D03*
X5336836Y9240835D02*
D03*
X5336835Y8955164D02*
D03*
X5051164Y8955165D02*
D03*
X2992000Y9098000D02*
D03*
X3396000Y9098000D02*
D03*
X3194000Y8896000D02*
D03*
X3194000Y9300000D02*
D03*
X3051165Y9240836D02*
D03*
X3336836Y9240835D02*
D03*
X3336835Y8955164D02*
D03*
X3051164Y8955165D02*
D03*
X1051164D02*
D03*
X1336835Y8955164D02*
D03*
X1336835Y9240835D02*
D03*
X1051164Y9240836D02*
D03*
X1194000Y9300000D02*
D03*
X1193999Y8896000D02*
D03*
X1395999Y9098000D02*
D03*
X992000Y9098000D02*
D03*
X546269Y7762352D02*
D03*
X9900000Y9225000D02*
D03*
Y9612500D02*
D03*
X9512500Y9912500D02*
D03*
X9125000D02*
D03*
Y9225000D02*
D03*
X7537501Y9575000D02*
D03*
Y9500000D02*
D03*
Y9425000D02*
D03*
Y9350000D02*
D03*
X5537500Y9575000D02*
D03*
Y9500000D02*
D03*
Y9425000D02*
D03*
Y9350000D02*
D03*
X3537500Y9575000D02*
D03*
Y9500000D02*
D03*
Y9425000D02*
D03*
Y9350000D02*
D03*
X1537500D02*
D03*
Y9425000D02*
D03*
Y9500000D02*
D03*
Y9575000D02*
D03*
X875000Y9225000D02*
D03*
Y9912500D02*
D03*
X487500D02*
D03*
X100000Y9612500D02*
D03*
Y9225000D02*
D03*
X875000Y8837500D02*
D03*
X487500D02*
D03*
X100000D02*
D03*
X1250000Y4037500D02*
D03*
X7000000Y4775000D02*
D03*
X8637500Y5968750D02*
D03*
X6043750Y5781250D02*
D03*
X8975000Y5968750D02*
D03*
X4862500Y7150000D02*
D03*
X4012460Y7262545D02*
D03*
X2212450Y7325025D02*
D03*
X3962459Y7325045D02*
D03*
X2274950Y7375025D02*
D03*
X2874951Y7525025D02*
D03*
X4862500Y7550000D02*
D03*
X4037460Y7550044D02*
D03*
X1987451Y7400025D02*
D03*
X6037500Y7549999D02*
D03*
X8037500Y7550000D02*
D03*
X7700000Y6100000D02*
D03*
X8375000Y87500D02*
D03*
X7625000D02*
D03*
X8000000D02*
D03*
X6875000D02*
D03*
X7250000D02*
D03*
X6125000D02*
D03*
X6500000D02*
D03*
X5750000D02*
D03*
X500000D02*
D03*
X87500Y687500D02*
D03*
Y1062500D02*
D03*
Y1437500D02*
D03*
Y1812500D02*
D03*
X4525000Y6737500D02*
D03*
X7187500Y5637500D02*
D03*
X7012500Y5737500D02*
D03*
X6612500Y5725000D02*
D03*
X7293750Y7437500D02*
D03*
X6725000Y7312500D02*
D03*
X6500000Y7375000D02*
D03*
X7487500Y6937500D02*
D03*
X6762500Y6762500D02*
D03*
X7437500D02*
D03*
X6525000Y6750000D02*
D03*
X5725000Y5912500D02*
D03*
X5512500Y5887500D02*
D03*
Y5562500D02*
D03*
X7562500Y6212500D02*
D03*
X7375000Y5950000D02*
D03*
X6275000Y6375000D02*
D03*
X6750000Y6937500D02*
D03*
X6450000Y5275000D02*
D03*
X5912500Y4812500D02*
D03*
X5987500Y5375000D02*
D03*
X5512500Y5112500D02*
D03*
Y5337500D02*
D03*
X5918750Y5931250D02*
D03*
X5712500Y6131250D02*
D03*
X5562500Y6275000D02*
D03*
X5412500Y6225000D02*
D03*
X6550000Y4162500D02*
D03*
X4987500Y5162500D02*
D03*
X4812500Y4987500D02*
D03*
X3950000Y4937500D02*
D03*
X2712500Y5987500D02*
D03*
X2762500Y5612500D02*
D03*
X3412500Y5987500D02*
D03*
X3312500Y5187500D02*
D03*
X2137500Y5175000D02*
D03*
X2400000Y5450000D02*
D03*
X1850000Y4875000D02*
D03*
X1812500Y5112500D02*
D03*
X2162500Y5487500D02*
D03*
X1875000D02*
D03*
X2175000Y5687500D02*
D03*
X1662500D02*
D03*
X1687500Y5825000D02*
D03*
X1675000Y6931250D02*
D03*
X5012500Y6531250D02*
D03*
X5025000Y5962500D02*
D03*
X5000000Y5562500D02*
D03*
X4637500D02*
D03*
X4750000Y5887500D02*
D03*
X4731250Y6525000D02*
D03*
X4437500Y6937500D02*
D03*
X5725000Y7500000D02*
D03*
X5000000Y7387500D02*
D03*
X5050000Y6750000D02*
D03*
X5075000Y6937500D02*
D03*
X6412500D02*
D03*
X7212500D02*
D03*
X7687500Y7087500D02*
D03*
X8425000Y6337500D02*
D03*
Y6875000D02*
D03*
X8350000Y7175000D02*
D03*
X7725000Y7662500D02*
D03*
X6325000D02*
D03*
X5812500D02*
D03*
X5375000D02*
D03*
X4962500D02*
D03*
X4487500D02*
D03*
X3750000D02*
D03*
X3112500D02*
D03*
X2362500D02*
D03*
X1962500D02*
D03*
X1612500Y7600000D02*
D03*
X1175000Y7787500D02*
D03*
X3787500Y6606250D02*
D03*
X3744955Y6134065D02*
D03*
X3462500Y6762500D02*
D03*
X3000000D02*
D03*
X2587500D02*
D03*
X2037500D02*
D03*
X1737500Y6425000D02*
D03*
X1593750Y6525000D02*
D03*
X906250Y6462500D02*
D03*
X625000Y7937500D02*
D03*
X87500Y8300000D02*
D03*
X637500Y8287500D02*
D03*
X625000Y8637500D02*
D03*
X87500D02*
D03*
X6437500Y4637500D02*
D03*
X6675000Y4712500D02*
D03*
X7062500Y3862500D02*
D03*
X7500000Y5400000D02*
D03*
Y5075000D02*
D03*
Y4425000D02*
D03*
Y4081250D02*
D03*
X9400000Y5962500D02*
D03*
X9090641Y6090641D02*
D03*
Y6709359D02*
D03*
X9400000Y6837500D02*
D03*
X9232576Y6804197D02*
D03*
X9567424D02*
D03*
Y5995803D02*
D03*
X9232576D02*
D03*
X8995803Y6232576D02*
D03*
X1150000Y4800000D02*
D03*
Y5500000D02*
D03*
X1700000Y6075000D02*
D03*
X1250000D02*
D03*
X2275000Y5900000D02*
D03*
X2375000Y4875000D02*
D03*
X775000Y6100000D02*
D03*
Y4675000D02*
D03*
X1475000Y4050000D02*
D03*
X625000D02*
D03*
X100000Y4300000D02*
D03*
Y4050000D02*
D03*
X7250000Y3775000D02*
D03*
X6425000Y4237500D02*
D03*
X6350000D02*
D03*
X6150000Y4337500D02*
D03*
X6062500D02*
D03*
X5425000Y4475000D02*
D03*
X4225000Y5025000D02*
D03*
X1250000Y4275000D02*
D03*
X236695Y6447498D02*
D03*
X3237500Y5874999D02*
D03*
X2862500Y5873500D02*
D03*
X3049999D02*
D03*
X2862500Y5787500D02*
D03*
X4100000Y4337500D02*
D03*
Y4262500D02*
D03*
X4037500Y4300000D02*
D03*
X4050000Y4212500D02*
D03*
X4087500Y4150000D02*
D03*
X4012500D02*
D03*
X3937500D02*
D03*
X3862500D02*
D03*
X3787500D02*
D03*
X3712500D02*
D03*
X3530000Y4212500D02*
D03*
X3542500Y4300000D02*
D03*
X3637500Y4150000D02*
D03*
X3480000Y4262500D02*
D03*
X3487500Y4150000D02*
D03*
X3562500D02*
D03*
X737498Y6380000D02*
D03*
X817498Y6380000D02*
D03*
X7550000Y2787500D02*
D03*
X7475000D02*
D03*
X7400000D02*
D03*
X7250000D02*
D03*
X7325000D02*
D03*
X7700000D02*
D03*
X7625000D02*
D03*
X7850000D02*
D03*
X7775000D02*
D03*
X5400000D02*
D03*
X5325000D02*
D03*
X5250000D02*
D03*
X5100000D02*
D03*
X5175000D02*
D03*
X5550000D02*
D03*
X5475000D02*
D03*
X5700000D02*
D03*
X5625000D02*
D03*
X3250000D02*
D03*
X3175000D02*
D03*
X3100000D02*
D03*
X2950000D02*
D03*
X3025000D02*
D03*
X3400000D02*
D03*
X3325000D02*
D03*
X3550000D02*
D03*
X3475000D02*
D03*
X1325000D02*
D03*
X1400000D02*
D03*
X1175000D02*
D03*
X1250000D02*
D03*
X875000D02*
D03*
X950000D02*
D03*
X1025000D02*
D03*
X1100000D02*
D03*
X3324950Y7650025D02*
D03*
X3012451Y7012525D02*
D03*
X4287459Y6212545D02*
D03*
X4037500Y5125000D02*
D03*
X4145000Y5062500D02*
D03*
X3950000Y5337500D02*
D03*
X7137500Y5000000D02*
D03*
X2225000Y6537500D02*
D03*
X2424999Y6386000D02*
D03*
X1618185Y5307323D02*
D03*
X1615823Y5165314D02*
D03*
X1473814Y5167676D02*
D03*
X1476176Y5309685D02*
D03*
X1487500Y5625000D02*
D03*
X3237499Y6187499D02*
D03*
X3237500Y6274999D02*
D03*
X2862500Y6187500D02*
D03*
X2862500Y6274999D02*
D03*
X3237500Y5300000D02*
D03*
X2862500D02*
D03*
X2862500Y5387500D02*
D03*
X3237499Y5387499D02*
D03*
X3237500Y5474999D02*
D03*
X3750001Y4900000D02*
D03*
X3750000Y5637500D02*
D03*
X3049999Y6274999D02*
D03*
Y6099999D02*
D03*
X2862500Y6099999D02*
D03*
X3237500D02*
D03*
X2862500Y5474999D02*
D03*
X3049999Y5299999D02*
D03*
Y5474999D02*
D03*
X2862500Y5700000D02*
D03*
X3049999Y5699999D02*
D03*
X3237500Y5700000D02*
D03*
X7137500Y3987500D02*
D03*
Y5562500D02*
D03*
X6287500Y6212500D02*
D03*
X3649959Y6525000D02*
D03*
X5425000D02*
D03*
X762499Y7612500D02*
D03*
X565786Y7086053D02*
D03*
X7962500Y7325001D02*
D03*
X8012500Y7262501D02*
D03*
X8162500Y6662501D02*
D03*
X7650000Y6525000D02*
D03*
X8287500Y6212500D02*
D03*
X6012500Y7262500D02*
D03*
X5962500Y7325000D02*
D03*
X6162500Y6662500D02*
D03*
X4162460Y6662545D02*
D03*
X8150043Y474974D02*
D03*
X7987543Y499974D02*
D03*
Y399974D02*
D03*
X4187500Y500000D02*
D03*
X4350000Y475000D02*
D03*
X4187500Y400000D02*
D03*
X999999Y7612500D02*
D03*
Y7312499D02*
D03*
Y7200000D02*
D03*
X687499Y7387500D02*
D03*
X587724D02*
D03*
X885888Y6862566D02*
D03*
X887499Y6712499D02*
D03*
X735888Y6862023D02*
D03*
X737499Y6712500D02*
D03*
X3600000Y1162500D02*
D03*
X2262500Y4100000D02*
D03*
X2037500Y4100000D02*
D03*
X362499Y6487500D02*
D03*
X1587500Y4100000D02*
D03*
X696302Y4367365D02*
D03*
X675000Y4250000D02*
D03*
Y4125000D02*
D03*
X2037500Y6125000D02*
D03*
X3049999Y5074999D02*
D03*
Y4899999D02*
D03*
X2862500Y4987500D02*
D03*
X2862500Y5075000D02*
D03*
Y4900000D02*
D03*
X3237500Y5075000D02*
D03*
Y4900000D02*
D03*
X3237499Y4987499D02*
D03*
Y5787499D02*
D03*
X999999Y7712500D02*
D03*
X637500Y8100000D02*
D03*
X485000Y7038992D02*
D03*
X1714373Y6847033D02*
D03*
X740391Y6488093D02*
D03*
X659999Y6501492D02*
D03*
X815255Y7096434D02*
D03*
X786467Y7256113D02*
D03*
X162500Y7950000D02*
D03*
X375000Y7937500D02*
D03*
D61*
X3459500Y1295500D02*
D03*
X3586500D02*
D03*
X3713500D02*
D03*
X3840500D02*
D03*
X8790543Y1295474D02*
D03*
X8663543D02*
D03*
X8536543D02*
D03*
X7640543D02*
D03*
X7386543D02*
D03*
X7513543D02*
D03*
X4863500Y1295500D02*
D03*
X4990500D02*
D03*
X4736500D02*
D03*
X8409543Y1295474D02*
D03*
X7259543D02*
D03*
X4609500Y1295500D02*
D03*
D62*
X3656906Y1627469D02*
D03*
X4806906D02*
D03*
X7456949Y1627443D02*
D03*
X8606949D02*
D03*
D63*
X3250000Y3451020D02*
D03*
X1100000D02*
D03*
Y2948980D02*
D03*
X3250000D02*
D03*
X5400000Y3451020D02*
D03*
Y2948980D02*
D03*
X7550000Y3451020D02*
D03*
Y2948980D02*
D03*
D64*
X6541250Y1775000D02*
D03*
X6971250D02*
D03*
X8597500Y2750000D02*
D03*
X9027500D02*
D03*
D65*
X4252500Y325000D02*
D03*
X4382500Y625000D02*
D03*
X4252500D02*
D03*
X8182543Y624974D02*
D03*
X8052543D02*
D03*
X4447500Y625000D02*
D03*
X4382500Y325000D02*
D03*
X4447500D02*
D03*
X4317500D02*
D03*
Y625000D02*
D03*
X8247543Y324974D02*
D03*
X8182543D02*
D03*
X8052543D02*
D03*
X8247543Y624974D02*
D03*
X8117543Y324974D02*
D03*
Y624974D02*
D03*
D66*
X4350000Y475000D02*
D03*
X8150043Y474974D02*
D03*
D67*
X3812501Y5049000D02*
D03*
X3812500Y5786500D02*
D03*
X3812501Y4901000D02*
D03*
X3812500Y5638500D02*
D03*
D68*
X1698980Y9600000D02*
D03*
X2201020D02*
D03*
X3698980D02*
D03*
X4201020D02*
D03*
X5698980D02*
D03*
X6201020D02*
D03*
X8201020D02*
D03*
X7698980D02*
D03*
D69*
X6762500Y1260074D02*
X7397464Y625110D01*
X6762500Y1260074D02*
Y2525000D01*
X7397464Y625110D02*
X7837543D01*
X7450000Y5837500D02*
X7587500Y5975000D01*
X7337500Y5525000D02*
X7450000Y5637500D01*
X7587500Y5975000D02*
X7825000D01*
X7450000Y5637500D02*
Y5837500D01*
X6762500Y2525000D02*
X7200000Y2962500D01*
Y3545451D01*
X7095451Y3650000D02*
X7200000Y3545451D01*
X7837543Y625110D02*
X7855975D01*
X7881250Y650385D01*
Y737500D01*
X7793750Y650385D02*
X7819025Y625110D01*
X7793750Y650385D02*
Y737500D01*
X6737500Y3650000D02*
X7095451D01*
X6650000Y3737500D02*
X6737500Y3650000D01*
X6650000Y3737500D02*
Y3887500D01*
X7337500Y4575000D01*
Y5525000D01*
X7825000Y5975000D02*
X8845803Y6995803D01*
X9232576D01*
D70*
X3925000Y3420000D02*
D03*
Y3080000D02*
D03*
X2575000Y3420000D02*
D03*
Y3080000D02*
D03*
X4725000Y3420000D02*
D03*
Y3080000D02*
D03*
X6875000Y3420000D02*
D03*
Y3080000D02*
D03*
X425000Y3420000D02*
D03*
Y3080000D02*
D03*
X7575000Y8030000D02*
D03*
Y8370000D02*
D03*
X3275000Y8030000D02*
D03*
Y8370000D02*
D03*
X5425000Y8030000D02*
D03*
Y8370000D02*
D03*
X1125000D02*
D03*
Y8030000D02*
D03*
X1774999Y3080000D02*
D03*
Y3420000D02*
D03*
X6075000Y3080000D02*
D03*
Y3420000D02*
D03*
X8225000Y3080000D02*
D03*
Y3420000D02*
D03*
X2475000Y8370000D02*
D03*
Y8030000D02*
D03*
X6775000Y8370000D02*
D03*
Y8030000D02*
D03*
X4625000Y8370000D02*
D03*
Y8030000D02*
D03*
X8925000Y8370000D02*
D03*
Y8030000D02*
D03*
D71*
X9400000Y7400000D02*
D03*
Y6400000D02*
D03*
%TF.MD5,74838317e12533be15e0c921464db0f6*%
M02*
