%TF.GenerationSoftware,Altium Limited,Altium Designer,25.8.1 (18)*%
G04 Layer_Physical_Order=1*
G04 Layer_Color=255*
%FSLAX45Y45*%
%MOMM*%
%TF.SameCoordinates,5F8AD7AF-A6C7-491F-921A-1EE88451CE46*%
%TF.FilePolarity,Positive*%
%TF.FileFunction,Copper,L1,Top,Signal*%
%TF.Part,Single*%
G01*
G75*
%TA.AperFunction,Conductor*%
%ADD10C,0.50000*%
%TA.AperFunction,SMDPad,CuDef*%
%ADD11R,1.80000X7.50000*%
G04:AMPARAMS|DCode=12|XSize=0.8mm|YSize=0.8mm|CornerRadius=0.1mm|HoleSize=0mm|Usage=FLASHONLY|Rotation=270.000|XOffset=0mm|YOffset=0mm|HoleType=Round|Shape=RoundedRectangle|*
%AMROUNDEDRECTD12*
21,1,0.80000,0.60000,0,0,270.0*
21,1,0.60000,0.80000,0,0,270.0*
1,1,0.20000,-0.30000,-0.30000*
1,1,0.20000,-0.30000,0.30000*
1,1,0.20000,0.30000,0.30000*
1,1,0.20000,0.30000,-0.30000*
%
%ADD12ROUNDEDRECTD12*%
G04:AMPARAMS|DCode=13|XSize=0.76mm|YSize=0.6604mm|CornerRadius=0.08255mm|HoleSize=0mm|Usage=FLASHONLY|Rotation=0.000|XOffset=0mm|YOffset=0mm|HoleType=Round|Shape=RoundedRectangle|*
%AMROUNDEDRECTD13*
21,1,0.76000,0.49530,0,0,0.0*
21,1,0.59490,0.66040,0,0,0.0*
1,1,0.16510,0.29745,-0.24765*
1,1,0.16510,-0.29745,-0.24765*
1,1,0.16510,-0.29745,0.24765*
1,1,0.16510,0.29745,0.24765*
%
%ADD13ROUNDEDRECTD13*%
%ADD14R,0.90000X1.50000*%
%TA.AperFunction,BGAPad,CuDef*%
%ADD15R,0.90000X0.90000*%
%TA.AperFunction,SMDPad,CuDef*%
%ADD16R,1.50000X0.90000*%
G04:AMPARAMS|DCode=17|XSize=0.76mm|YSize=0.6604mm|CornerRadius=0.08255mm|HoleSize=0mm|Usage=FLASHONLY|Rotation=90.000|XOffset=0mm|YOffset=0mm|HoleType=Round|Shape=RoundedRectangle|*
%AMROUNDEDRECTD17*
21,1,0.76000,0.49530,0,0,90.0*
21,1,0.59490,0.66040,0,0,90.0*
1,1,0.16510,0.24765,0.29745*
1,1,0.16510,0.24765,-0.29745*
1,1,0.16510,-0.24765,-0.29745*
1,1,0.16510,-0.24765,0.29745*
%
%ADD17ROUNDEDRECTD17*%
%ADD18R,1.20000X0.70000*%
%TA.AperFunction,BGAPad,CuDef*%
%ADD19C,0.27000*%
%TA.AperFunction,SMDPad,CuDef*%
G04:AMPARAMS|DCode=20|XSize=3mm|YSize=5mm|CornerRadius=0.75mm|HoleSize=0mm|Usage=FLASHONLY|Rotation=180.000|XOffset=0mm|YOffset=0mm|HoleType=Round|Shape=RoundedRectangle|*
%AMROUNDEDRECTD20*
21,1,3.00000,3.50000,0,0,180.0*
21,1,1.50000,5.00000,0,0,180.0*
1,1,1.50000,-0.75000,1.75000*
1,1,1.50000,0.75000,1.75000*
1,1,1.50000,0.75000,-1.75000*
1,1,1.50000,-0.75000,-1.75000*
%
%ADD20ROUNDEDRECTD20*%
G04:AMPARAMS|DCode=21|XSize=3mm|YSize=5mm|CornerRadius=0.75mm|HoleSize=0mm|Usage=FLASHONLY|Rotation=90.000|XOffset=0mm|YOffset=0mm|HoleType=Round|Shape=RoundedRectangle|*
%AMROUNDEDRECTD21*
21,1,3.00000,3.50000,0,0,90.0*
21,1,1.50000,5.00000,0,0,90.0*
1,1,1.50000,1.75000,0.75000*
1,1,1.50000,1.75000,-0.75000*
1,1,1.50000,-1.75000,-0.75000*
1,1,1.50000,-1.75000,0.75000*
%
%ADD21ROUNDEDRECTD21*%
G04:AMPARAMS|DCode=22|XSize=0.8mm|YSize=0.8mm|CornerRadius=0.1mm|HoleSize=0mm|Usage=FLASHONLY|Rotation=180.000|XOffset=0mm|YOffset=0mm|HoleType=Round|Shape=RoundedRectangle|*
%AMROUNDEDRECTD22*
21,1,0.80000,0.60000,0,0,180.0*
21,1,0.60000,0.80000,0,0,180.0*
1,1,0.20000,-0.30000,0.30000*
1,1,0.20000,0.30000,0.30000*
1,1,0.20000,0.30000,-0.30000*
1,1,0.20000,-0.30000,-0.30000*
%
%ADD22ROUNDEDRECTD22*%
%ADD23R,4.10000X2.00000*%
G04:AMPARAMS|DCode=24|XSize=0.8mm|YSize=1mm|CornerRadius=0.1mm|HoleSize=0mm|Usage=FLASHONLY|Rotation=90.000|XOffset=0mm|YOffset=0mm|HoleType=Round|Shape=RoundedRectangle|*
%AMROUNDEDRECTD24*
21,1,0.80000,0.80000,0,0,90.0*
21,1,0.60000,1.00000,0,0,90.0*
1,1,0.20000,0.40000,0.30000*
1,1,0.20000,0.40000,-0.30000*
1,1,0.20000,-0.40000,-0.30000*
1,1,0.20000,-0.40000,0.30000*
%
%ADD24ROUNDEDRECTD24*%
G04:AMPARAMS|DCode=25|XSize=2.16916mm|YSize=0.58213mm|CornerRadius=0.29107mm|HoleSize=0mm|Usage=FLASHONLY|Rotation=90.000|XOffset=0mm|YOffset=0mm|HoleType=Round|Shape=RoundedRectangle|*
%AMROUNDEDRECTD25*
21,1,2.16916,0.00000,0,0,90.0*
21,1,1.58703,0.58213,0,0,90.0*
1,1,0.58213,0.00000,0.79351*
1,1,0.58213,0.00000,-0.79351*
1,1,0.58213,0.00000,-0.79351*
1,1,0.58213,0.00000,0.79351*
%
%ADD25ROUNDEDRECTD25*%
G04:AMPARAMS|DCode=26|XSize=2.16916mm|YSize=0.58213mm|CornerRadius=0.29107mm|HoleSize=0mm|Usage=FLASHONLY|Rotation=180.000|XOffset=0mm|YOffset=0mm|HoleType=Round|Shape=RoundedRectangle|*
%AMROUNDEDRECTD26*
21,1,2.16916,0.00000,0,0,180.0*
21,1,1.58703,0.58213,0,0,180.0*
1,1,0.58213,-0.79351,0.00000*
1,1,0.58213,0.79351,0.00000*
1,1,0.58213,0.79351,0.00000*
1,1,0.58213,-0.79351,0.00000*
%
%ADD26ROUNDEDRECTD26*%
G04:AMPARAMS|DCode=27|XSize=0.8mm|YSize=1mm|CornerRadius=0.1mm|HoleSize=0mm|Usage=FLASHONLY|Rotation=180.000|XOffset=0mm|YOffset=0mm|HoleType=Round|Shape=RoundedRectangle|*
%AMROUNDEDRECTD27*
21,1,0.80000,0.80000,0,0,180.0*
21,1,0.60000,1.00000,0,0,180.0*
1,1,0.20000,-0.30000,0.40000*
1,1,0.20000,0.30000,0.40000*
1,1,0.20000,0.30000,-0.40000*
1,1,0.20000,-0.30000,-0.40000*
%
%ADD27ROUNDEDRECTD27*%
G04:AMPARAMS|DCode=28|XSize=1.51466mm|YSize=0.59981mm|CornerRadius=0.2999mm|HoleSize=0mm|Usage=FLASHONLY|Rotation=180.000|XOffset=0mm|YOffset=0mm|HoleType=Round|Shape=RoundedRectangle|*
%AMROUNDEDRECTD28*
21,1,1.51466,0.00000,0,0,180.0*
21,1,0.91485,0.59981,0,0,180.0*
1,1,0.59981,-0.45743,0.00000*
1,1,0.59981,0.45743,0.00000*
1,1,0.59981,0.45743,0.00000*
1,1,0.59981,-0.45743,0.00000*
%
%ADD28ROUNDEDRECTD28*%
G04:AMPARAMS|DCode=29|XSize=1.90415mm|YSize=3.21981mm|CornerRadius=0.457mm|HoleSize=0mm|Usage=FLASHONLY|Rotation=90.000|XOffset=0mm|YOffset=0mm|HoleType=Round|Shape=RoundedRectangle|*
%AMROUNDEDRECTD29*
21,1,1.90415,2.30581,0,0,90.0*
21,1,0.99016,3.21981,0,0,90.0*
1,1,0.91399,1.15291,0.49508*
1,1,0.91399,1.15291,-0.49508*
1,1,0.91399,-1.15291,-0.49508*
1,1,0.91399,-1.15291,0.49508*
%
%ADD29ROUNDEDRECTD29*%
G04:AMPARAMS|DCode=30|XSize=1.90415mm|YSize=0.91981mm|CornerRadius=0.4599mm|HoleSize=0mm|Usage=FLASHONLY|Rotation=90.000|XOffset=0mm|YOffset=0mm|HoleType=Round|Shape=RoundedRectangle|*
%AMROUNDEDRECTD30*
21,1,1.90415,0.00000,0,0,90.0*
21,1,0.98435,0.91981,0,0,90.0*
1,1,0.91981,0.00000,0.49217*
1,1,0.91981,0.00000,-0.49217*
1,1,0.91981,0.00000,-0.49217*
1,1,0.91981,0.00000,0.49217*
%
%ADD30ROUNDEDRECTD30*%
%ADD31R,0.58213X2.16916*%
%ADD32R,1.10000X1.65000*%
%ADD33R,0.70000X1.20000*%
%ADD34R,0.91981X1.90415*%
%ADD35R,1.20000X0.60000*%
%TA.AperFunction,ConnectorPad*%
%ADD36R,1.35000X0.40000*%
%TA.AperFunction,SMDPad,CuDef*%
%ADD37R,1.75822X1.30550*%
G04:AMPARAMS|DCode=38|XSize=0.6mm|YSize=1mm|CornerRadius=0.051mm|HoleSize=0mm|Usage=FLASHONLY|Rotation=90.000|XOffset=0mm|YOffset=0mm|HoleType=Round|Shape=RoundedRectangle|*
%AMROUNDEDRECTD38*
21,1,0.60000,0.89800,0,0,90.0*
21,1,0.49800,1.00000,0,0,90.0*
1,1,0.10200,0.44900,0.24900*
1,1,0.10200,0.44900,-0.24900*
1,1,0.10200,-0.44900,-0.24900*
1,1,0.10200,-0.44900,0.24900*
%
%ADD38ROUNDEDRECTD38*%
G04:AMPARAMS|DCode=39|XSize=2.65mm|YSize=1.75mm|CornerRadius=0.21875mm|HoleSize=0mm|Usage=FLASHONLY|Rotation=270.000|XOffset=0mm|YOffset=0mm|HoleType=Round|Shape=RoundedRectangle|*
%AMROUNDEDRECTD39*
21,1,2.65000,1.31250,0,0,270.0*
21,1,2.21250,1.75000,0,0,270.0*
1,1,0.43750,-0.65625,-1.10625*
1,1,0.43750,-0.65625,1.10625*
1,1,0.43750,0.65625,1.10625*
1,1,0.43750,0.65625,-1.10625*
%
%ADD39ROUNDEDRECTD39*%
%TA.AperFunction,ConnectorPad*%
%ADD40R,1.90000X1.50000*%
%TA.AperFunction,SMDPad,CuDef*%
%ADD41C,2.29500*%
%ADD42R,1.65000X1.10000*%
%ADD43R,2.16916X0.58213*%
%ADD44R,1.51466X0.59981*%
%TA.AperFunction,Conductor*%
%ADD45C,0.30000*%
%ADD46C,0.20000*%
%ADD47C,0.60000*%
%ADD48C,0.40000*%
%TA.AperFunction,NonConductor*%
%ADD49C,0.16000*%
%TA.AperFunction,ComponentPad*%
%ADD50C,5.08000*%
G04:AMPARAMS|DCode=51|XSize=5.08mm|YSize=5.08mm|CornerRadius=1.27mm|HoleSize=0mm|Usage=FLASHONLY|Rotation=0.000|XOffset=0mm|YOffset=0mm|HoleType=Round|Shape=RoundedRectangle|*
%AMROUNDEDRECTD51*
21,1,5.08000,2.54000,0,0,0.0*
21,1,2.54000,5.08000,0,0,0.0*
1,1,2.54000,1.27000,-1.27000*
1,1,2.54000,-1.27000,-1.27000*
1,1,2.54000,-1.27000,1.27000*
1,1,2.54000,1.27000,1.27000*
%
%ADD51ROUNDEDRECTD51*%
G04:AMPARAMS|DCode=52|XSize=2.5mm|YSize=2.5mm|CornerRadius=1.25mm|HoleSize=0mm|Usage=FLASHONLY|Rotation=0.000|XOffset=0mm|YOffset=0mm|HoleType=Round|Shape=RoundedRectangle|*
%AMROUNDEDRECTD52*
21,1,2.50000,0.00000,0,0,0.0*
21,1,0.00000,2.50000,0,0,0.0*
1,1,2.50000,0.00000,0.00000*
1,1,2.50000,0.00000,0.00000*
1,1,2.50000,0.00000,0.00000*
1,1,2.50000,0.00000,0.00000*
%
%ADD52ROUNDEDRECTD52*%
%ADD53C,1.55000*%
%ADD54C,3.00000*%
%ADD55R,1.55000X1.55000*%
%ADD56C,1.45000*%
%ADD57C,0.80000*%
%ADD58C,6.00000*%
%TA.AperFunction,ViaPad*%
%ADD59C,0.65000*%
G36*
X712500Y8637500D02*
Y8164391D01*
X683748Y8148271D01*
X662500Y8142146D01*
X656413Y8145661D01*
X643951Y8149000D01*
X631049D01*
X608150Y8191059D01*
X607087Y8194343D01*
X605583Y8201904D01*
X600112Y8210092D01*
X591924Y8215563D01*
X582265Y8217485D01*
X532735D01*
X523076Y8215563D01*
X514888Y8210092D01*
X488263Y8205670D01*
X486736D01*
X460112Y8210092D01*
X451923Y8215563D01*
X442265Y8217485D01*
X392735D01*
X383075Y8215564D01*
X383075Y8215563D01*
X373810Y8210407D01*
X355864Y8215647D01*
X349418Y8218317D01*
X342500Y8219228D01*
X282500D01*
X275582Y8218317D01*
X269135Y8215647D01*
X263600Y8211400D01*
X250107Y8209842D01*
X224892D01*
X211399Y8211400D01*
X205864Y8215647D01*
X199417Y8218317D01*
X192499Y8219228D01*
X132500D01*
X125582Y8218317D01*
X119135Y8215647D01*
X113599Y8211400D01*
X109352Y8205864D01*
X106682Y8199417D01*
X105771Y8192499D01*
Y8132500D01*
X106682Y8125582D01*
X109352Y8119135D01*
X112870Y8106096D01*
X111569Y8092724D01*
X106852Y8082356D01*
X104182Y8075910D01*
X103271Y8068992D01*
Y8008992D01*
X104182Y8002074D01*
X106852Y7995627D01*
X111099Y7990092D01*
X116639Y7985545D01*
X116838Y7968913D01*
X113499Y7956451D01*
Y7943549D01*
X116838Y7931086D01*
X123290Y7919913D01*
X132413Y7910790D01*
X143586Y7904339D01*
X156048Y7900999D01*
X168951D01*
X181413Y7904339D01*
X192586Y7910790D01*
X201710Y7919913D01*
X204359Y7924502D01*
X240874Y7937649D01*
X253522Y7940186D01*
X259896Y7939677D01*
X280972Y7918601D01*
X280973Y7918600D01*
X286508Y7914352D01*
X292955Y7911682D01*
X299873Y7910771D01*
X299875Y7910771D01*
X333851D01*
X335790Y7907413D01*
X344913Y7898290D01*
X356086Y7891839D01*
X368549Y7888500D01*
X381451D01*
X393913Y7891839D01*
X405087Y7898290D01*
X414210Y7907413D01*
X420661Y7918586D01*
X424000Y7931049D01*
Y7943951D01*
X449423Y7985928D01*
X457611Y7991400D01*
X484236Y7995821D01*
X485763D01*
X512388Y7991400D01*
X520576Y7985928D01*
X530235Y7984007D01*
X579765D01*
X589424Y7985928D01*
X597612Y7991400D01*
X603083Y7999588D01*
X604537Y8006893D01*
X606062Y8010941D01*
X631049Y8050999D01*
X643951D01*
X656413Y8054338D01*
X662500Y8057853D01*
X683748Y8051728D01*
X712500Y8035608D01*
Y8000000D01*
X875000Y7837500D01*
X1670666D01*
Y7412476D01*
X1672092Y7401642D01*
X1676274Y7391547D01*
X1682926Y7382878D01*
X1780376Y7285427D01*
X1780951Y7284987D01*
Y7253525D01*
X1933950D01*
X1975916Y7234128D01*
X2094966Y7115078D01*
Y7080260D01*
X2096887Y7070601D01*
X2102359Y7062413D01*
X2110547Y7056941D01*
X2120206Y7055020D01*
X2179696D01*
X2189355Y7056941D01*
X2202385Y7062413D01*
X2222516D01*
X2235547Y7056941D01*
X2245206Y7055020D01*
X2304696D01*
X2314355Y7056941D01*
X2322543Y7062413D01*
X2328014Y7070601D01*
X2328542Y7073253D01*
X2357951D01*
X2366174Y7074336D01*
X2373837Y7077510D01*
X2380417Y7082559D01*
X2404917Y7107059D01*
X2409966Y7113639D01*
X2413140Y7121301D01*
X2413433Y7123525D01*
X2543160D01*
X2548951Y7123524D01*
X2597491Y7120000D01*
X2601712Y7114498D01*
X2611239Y7107187D01*
X2622334Y7102592D01*
X2634239Y7101025D01*
X2642829D01*
X2656666Y7054238D01*
X2656728Y7051025D01*
X2648290Y7042587D01*
X2641839Y7031413D01*
X2638500Y7018951D01*
Y7006049D01*
X2641839Y6993587D01*
X2627749Y6958358D01*
X2615721Y6944272D01*
X2062500D01*
X2054277Y6943189D01*
X2046614Y6940015D01*
X2040034Y6934966D01*
X1640533Y6535465D01*
X1635484Y6528885D01*
X1632310Y6521222D01*
X1631227Y6512999D01*
Y6390029D01*
X1597499Y6354000D01*
X1551499Y6353999D01*
X1474499Y6354000D01*
X1424499Y6353999D01*
X1347499Y6354000D01*
X1319418Y6369434D01*
X1316266Y6400855D01*
X1317744Y6421648D01*
X1322592Y6424887D01*
X1328063Y6433076D01*
X1329984Y6442734D01*
Y6492264D01*
X1328063Y6501923D01*
X1322592Y6510111D01*
X1318170Y6536736D01*
Y6538263D01*
X1322592Y6564888D01*
X1328063Y6573076D01*
Y6573078D01*
X1329985Y6582735D01*
X1329985Y6582762D01*
X1330999Y6615999D01*
X1366299Y6616000D01*
X1483999D01*
Y6674068D01*
X1540999Y6731068D01*
X1590999Y6710999D01*
X1591641Y6711000D01*
X1743999D01*
Y6780433D01*
X1744271Y6782500D01*
Y6807714D01*
X1744460Y6807823D01*
X1753583Y6816946D01*
X1760034Y6828120D01*
X1763373Y6840582D01*
Y6853484D01*
X1760034Y6865946D01*
X1753583Y6877120D01*
X1744460Y6886243D01*
X1733287Y6892694D01*
X1720824Y6896033D01*
X1707922D01*
X1695460Y6892694D01*
X1684286Y6886243D01*
X1675163Y6877120D01*
X1668712Y6865946D01*
X1665373Y6853484D01*
X1621224Y6826457D01*
X1579680Y6835360D01*
X1569272Y6855000D01*
Y6975107D01*
X1584059Y6994861D01*
X1607721Y7007219D01*
X1625088Y7002624D01*
X1629540Y6994913D01*
X1638663Y6985790D01*
X1649837Y6979339D01*
X1662299Y6976000D01*
X1675201D01*
X1687663Y6979339D01*
X1698837Y6985790D01*
X1707960Y6994913D01*
X1714411Y7006087D01*
X1717750Y7018549D01*
Y7031451D01*
X1743999Y7061000D01*
X1743999D01*
Y7164000D01*
X1590999D01*
Y7113276D01*
X1540999Y7092565D01*
X1514805Y7118760D01*
X1502006Y7134232D01*
X1491321Y7155657D01*
X1485044Y7175803D01*
X1483999Y7183316D01*
Y7259000D01*
X1330999D01*
Y7259000D01*
X1292244Y7232505D01*
X1232754D01*
X1223096Y7230583D01*
X1214907Y7225112D01*
X1209436Y7216924D01*
X1207514Y7207265D01*
Y7157735D01*
X1209436Y7148076D01*
X1214907Y7139888D01*
X1219329Y7113263D01*
Y7111736D01*
X1214907Y7085112D01*
X1209436Y7076923D01*
X1207514Y7067265D01*
Y7035601D01*
X1117084Y6945171D01*
X1099231Y6941625D01*
X1064395Y6940888D01*
X1058937Y6944534D01*
X1052499Y6945815D01*
X1020452D01*
X978465Y6952457D01*
X971823Y6994444D01*
Y7026491D01*
X970542Y7032930D01*
X966895Y7038387D01*
X961437Y7042034D01*
X954999Y7043315D01*
X945474D01*
X932796Y7049192D01*
X914512Y7061888D01*
X900984Y7085846D01*
X900984Y7085847D01*
Y7146073D01*
X900984Y7146075D01*
X900073Y7152993D01*
X897403Y7159439D01*
X893155Y7164975D01*
X889228Y7168902D01*
Y7471000D01*
X966499D01*
Y7564000D01*
X848814D01*
X847652Y7564846D01*
X847651Y7564846D01*
X837234Y7572428D01*
X829118Y7583030D01*
Y7583030D01*
X811806Y7605649D01*
X811527Y7612499D01*
X811806Y7619350D01*
X829119Y7641970D01*
Y7641970D01*
X837234Y7652571D01*
X848814Y7660999D01*
X966499D01*
X966499Y7660999D01*
X993548Y7663500D01*
X1006450D01*
X1018913Y7666839D01*
X1030086Y7673290D01*
X1039209Y7682413D01*
X1045660Y7693586D01*
X1048999Y7706049D01*
Y7718951D01*
X1045660Y7731413D01*
X1039209Y7742586D01*
X1030086Y7751710D01*
X1018913Y7758161D01*
X1006450Y7761500D01*
X1006449Y7761500D01*
X993548Y7761500D01*
X993520Y7761492D01*
X981086Y7758161D01*
X966529Y7754008D01*
X966499Y7754000D01*
X966499Y7753999D01*
X813499D01*
Y7731802D01*
X765070Y7693577D01*
X739522Y7700833D01*
X736499Y7708025D01*
Y7753999D01*
X596728D01*
X595269Y7755901D01*
Y7768803D01*
X591930Y7781265D01*
X585479Y7792439D01*
X576356Y7801562D01*
X565182Y7808013D01*
X552720Y7811352D01*
X539818D01*
X527356Y7808013D01*
X516182Y7801562D01*
X507059Y7792439D01*
X500608Y7781265D01*
X497269Y7768803D01*
Y7755901D01*
X500608Y7743438D01*
X507059Y7732265D01*
X514497Y7724827D01*
Y7706343D01*
X491872Y7683717D01*
X486822Y7677137D01*
X483648Y7669475D01*
X482566Y7661251D01*
Y7653990D01*
X459339Y7630763D01*
X424999D01*
X422935Y7630491D01*
X335999D01*
Y7557491D01*
Y7492491D01*
Y7427491D01*
Y7362491D01*
X503999D01*
Y7387095D01*
X510324Y7436613D01*
X517242Y7437523D01*
X523688Y7440194D01*
X529224Y7444441D01*
X540026Y7455243D01*
X583499Y7470999D01*
Y7471000D01*
X736499D01*
Y7516974D01*
X739522Y7524166D01*
X765070Y7531422D01*
X813499Y7493197D01*
Y7471000D01*
X813499D01*
X831012Y7427289D01*
X808210Y7380815D01*
X760001Y7380816D01*
X759999Y7380816D01*
X759998Y7380815D01*
X753561Y7379535D01*
X753560Y7379533D01*
X748103Y7375888D01*
X748103Y7375887D01*
X735603Y7363388D01*
X731957Y7357930D01*
X731956Y7357930D01*
X731744Y7356861D01*
X730676Y7351493D01*
X730675Y7351492D01*
X730675Y7351491D01*
X730676Y7342962D01*
Y7267040D01*
X730175Y7264052D01*
X729156Y7261078D01*
X680676Y7218996D01*
X655255D01*
X651829Y7218315D01*
X543530Y7218315D01*
X541640Y7218316D01*
X541639Y7218315D01*
X534999Y7218316D01*
X534998Y7218315D01*
X528561Y7217035D01*
X528559Y7217033D01*
X523103Y7213388D01*
X523103Y7213387D01*
X510603Y7200888D01*
X506957Y7195430D01*
X505676Y7188993D01*
X505675Y7188992D01*
X505676Y7188990D01*
X505676Y7184763D01*
X495290Y7134764D01*
X436500D01*
X428277Y7133681D01*
X420614Y7130507D01*
X414034Y7125458D01*
X337533Y7048957D01*
X332484Y7042377D01*
X329310Y7034715D01*
X328280Y7026892D01*
X320470Y7021396D01*
X286256Y6998921D01*
X274403Y7002076D01*
X264744Y7003997D01*
X205255D01*
X195596Y7002076D01*
X187407Y6996604D01*
X181936Y6988416D01*
X180015Y6978757D01*
Y6929227D01*
X181936Y6919568D01*
X187407Y6911380D01*
X191829Y6884755D01*
Y6883228D01*
X187407Y6856604D01*
X181936Y6848416D01*
X180015Y6838757D01*
Y6789227D01*
X181936Y6779568D01*
X187407Y6771379D01*
X181852Y6757356D01*
X179182Y6750910D01*
X178271Y6743992D01*
Y6683992D01*
X179182Y6677074D01*
X181852Y6670628D01*
X186099Y6665092D01*
X191635Y6660844D01*
X198082Y6658174D01*
X205000Y6657263D01*
X262941D01*
X264999Y6657263D01*
X265000Y6657263D01*
X271917Y6658174D01*
X309680Y6660353D01*
X318023Y6660223D01*
X330254Y6658987D01*
X337012Y6658987D01*
X389744D01*
X399403Y6660908D01*
X407592Y6666380D01*
X413063Y6674568D01*
X414984Y6684227D01*
Y6731228D01*
X429337Y6749832D01*
X440445Y6760109D01*
X455068Y6769024D01*
X455255Y6768987D01*
X514744D01*
X522104Y6765783D01*
X561957Y6735430D01*
X560676Y6728992D01*
Y6698991D01*
X561957Y6692553D01*
X564336Y6688991D01*
X561957Y6685430D01*
X560676Y6678991D01*
Y6648992D01*
X561957Y6642553D01*
X565603Y6637095D01*
X571061Y6633449D01*
X577499Y6632168D01*
X609547D01*
X651534Y6625526D01*
X655494Y6600492D01*
X653548Y6550492D01*
X641086Y6547153D01*
X629913Y6540702D01*
X620789Y6531579D01*
X614338Y6520405D01*
X610999Y6507943D01*
Y6495041D01*
X614338Y6482578D01*
X620789Y6471405D01*
X629913Y6462282D01*
X641086Y6455831D01*
X653548Y6452492D01*
X666451D01*
X678913Y6455831D01*
X701181Y6458006D01*
X710304Y6448883D01*
X721478Y6442432D01*
X733940Y6439093D01*
X746842D01*
X759304Y6442432D01*
X770478Y6448883D01*
X779601Y6458006D01*
X786052Y6469180D01*
X789391Y6481642D01*
Y6494544D01*
X791918Y6499290D01*
X806551Y6519424D01*
X814727Y6527373D01*
X825000Y6534668D01*
X854999D01*
X861437Y6535949D01*
X864999Y6538329D01*
X868561Y6535949D01*
X874999Y6534668D01*
X904999D01*
X911438Y6535949D01*
X914999Y6538329D01*
X918561Y6535949D01*
X924999Y6534668D01*
X925417D01*
X936407Y6527171D01*
X961711Y6496144D01*
X963500Y6485879D01*
Y6481049D01*
X966839Y6468587D01*
X973290Y6457413D01*
X982413Y6448290D01*
X993587Y6441839D01*
X1006049Y6438500D01*
X1018951D01*
X1031413Y6441839D01*
X1042587Y6448290D01*
X1045015Y6450718D01*
X1074621Y6445991D01*
X1096541Y6435062D01*
X1096936Y6433076D01*
X1102407Y6424887D01*
X1103369Y6398255D01*
X1066182Y6353999D01*
X1043499D01*
X966499Y6354000D01*
X916499Y6353999D01*
X839499D01*
Y6171000D01*
X874271D01*
Y6099003D01*
X874270Y6099001D01*
X875181Y6092083D01*
X877851Y6085637D01*
X882099Y6080101D01*
X1077003Y5885196D01*
X1076000Y5881451D01*
Y5868549D01*
X1079339Y5856087D01*
X1085790Y5844913D01*
X1094913Y5835790D01*
X1106087Y5829339D01*
X1118549Y5826000D01*
X1131451D01*
X1143913Y5829339D01*
X1155087Y5835790D01*
X1164210Y5844913D01*
X1170661Y5856087D01*
X1174000Y5868549D01*
Y5881451D01*
X1170661Y5893913D01*
X1164210Y5905087D01*
X1160475Y5908821D01*
X1159305Y5912039D01*
X1157102Y5937500D01*
X1159305Y5962961D01*
X1160475Y5966179D01*
X1164210Y5969913D01*
X1170661Y5981087D01*
X1174000Y5993549D01*
Y6006451D01*
X1170661Y6018913D01*
X1164210Y6030087D01*
X1155087Y6039210D01*
X1143913Y6045661D01*
X1131451Y6049000D01*
X1118549D01*
X1114803Y6047997D01*
X1064138Y6098662D01*
X1067465Y6152797D01*
X1093499Y6170999D01*
X1139499Y6171000D01*
X1216499Y6170999D01*
X1266499Y6171000D01*
X1343499Y6170999D01*
X1382271Y6143891D01*
Y5795070D01*
X1260196Y5672997D01*
X1256451Y5674000D01*
X1243549D01*
X1231087Y5670661D01*
X1219913Y5664210D01*
X1210790Y5655087D01*
X1204339Y5643913D01*
X1201000Y5631451D01*
Y5618549D01*
X1204339Y5606087D01*
X1210790Y5594913D01*
X1219913Y5585790D01*
X1231087Y5579339D01*
X1243549Y5576000D01*
X1256451D01*
X1268913Y5579339D01*
X1280087Y5585790D01*
X1289210Y5594913D01*
X1295661Y5606087D01*
X1299000Y5618549D01*
Y5631451D01*
X1297997Y5635196D01*
X1427898Y5765098D01*
X1427899Y5765099D01*
X1432147Y5770635D01*
X1434817Y5777081D01*
X1435728Y5783999D01*
X1435728Y5784001D01*
Y6143891D01*
X1474499Y6170999D01*
X1520499Y6171000D01*
X1597499Y6170999D01*
X1647499Y6171000D01*
X1724499Y6170999D01*
X1774499Y6171000D01*
X1851499Y6170999D01*
X1885227Y6134970D01*
Y6058001D01*
X1886310Y6049778D01*
X1889484Y6042115D01*
X1894533Y6035535D01*
X1952534Y5977534D01*
X1959114Y5972485D01*
X1966777Y5969311D01*
X1975000Y5968228D01*
X2362500D01*
X2370723Y5969311D01*
X2378386Y5972485D01*
X2384966Y5977534D01*
X2408499Y6001067D01*
X2458499Y5980356D01*
Y5903376D01*
X2445328Y5891746D01*
X2408499Y5885797D01*
X2405087Y5889210D01*
X2393913Y5895661D01*
X2381451Y5899000D01*
X2368549D01*
X2356087Y5895661D01*
X2344913Y5889210D01*
X2335790Y5880087D01*
X2329339Y5868913D01*
X2326000Y5856451D01*
Y5843549D01*
X2329339Y5831087D01*
X2335790Y5819913D01*
X2344913Y5810790D01*
X2348271Y5808851D01*
Y5561072D01*
X1644099Y4856899D01*
X1639851Y4851364D01*
X1637181Y4844917D01*
X1636270Y4837999D01*
X1636271Y4837997D01*
Y4657006D01*
X1586500Y4656451D01*
X1583161Y4668913D01*
X1576710Y4680087D01*
X1567587Y4689210D01*
X1556413Y4695661D01*
X1543951Y4699000D01*
X1531049D01*
X1518587Y4695661D01*
X1507413Y4689210D01*
X1498290Y4680087D01*
X1491839Y4668913D01*
X1488500Y4656451D01*
X1439229Y4658211D01*
Y4826486D01*
X1439229Y4826488D01*
X1438318Y4833406D01*
X1435648Y4839852D01*
X1431400Y4845388D01*
X1431399Y4845389D01*
X1289229Y4987559D01*
Y5388928D01*
X1477303Y5577003D01*
X1481049Y5576000D01*
X1493951D01*
X1506413Y5579339D01*
X1517587Y5585790D01*
X1526710Y5594913D01*
X1533161Y5606087D01*
X1536500Y5618549D01*
Y5631451D01*
X1533161Y5643913D01*
X1526710Y5655087D01*
X1517587Y5664210D01*
X1506413Y5670661D01*
X1493951Y5674000D01*
X1481049D01*
X1468587Y5670661D01*
X1457413Y5664210D01*
X1448290Y5655087D01*
X1441839Y5643913D01*
X1438500Y5631451D01*
Y5618549D01*
X1439503Y5614803D01*
X1243600Y5418900D01*
X1239352Y5413364D01*
X1236682Y5406918D01*
X1235771Y5400000D01*
X1235771Y5399998D01*
Y4976490D01*
X1235771Y4976488D01*
X1236682Y4969570D01*
X1239352Y4963123D01*
X1243600Y4957588D01*
X1385771Y4815416D01*
Y4622656D01*
X1343499Y4604000D01*
X1297499Y4603999D01*
X1220499Y4604000D01*
X1170499Y4603999D01*
X1093499Y4604000D01*
X1043499Y4603999D01*
X966500D01*
X966498Y4604001D01*
X965784Y4605226D01*
X965543Y4606438D01*
X961897Y4611895D01*
X961896Y4611896D01*
X956439Y4615542D01*
X956438Y4615543D01*
X950000Y4616823D01*
X950000Y4616824D01*
X921811Y4616823D01*
X850000D01*
X843562Y4615543D01*
X838104Y4611896D01*
X834457Y4606438D01*
X833177Y4600000D01*
X833176Y4050001D01*
X825000Y4025231D01*
X821829Y4019084D01*
X805497Y4000000D01*
X30586D01*
Y4306837D01*
X33253Y4320246D01*
X38487Y4332880D01*
X46083Y4344248D01*
X55751Y4353917D01*
X67119Y4361513D01*
X79753Y4366746D01*
X84171Y4367625D01*
X111997Y4352950D01*
X134171Y4333568D01*
Y4207513D01*
X265829D01*
Y4208176D01*
X562500D01*
X568938Y4209457D01*
X574396Y4213104D01*
X578043Y4218562D01*
X579323Y4225000D01*
Y4369589D01*
X586302Y4369932D01*
X588501Y4370483D01*
X590769D01*
X609995Y4374307D01*
X612778Y4375460D01*
X615733Y4376048D01*
X633844Y4383550D01*
X636349Y4385223D01*
X639133Y4386376D01*
X655432Y4397267D01*
X657562Y4399397D01*
X660067Y4401071D01*
X673928Y4414932D01*
X675602Y4417437D01*
X677732Y4419567D01*
X688623Y4435867D01*
X689776Y4438650D01*
X691450Y4441155D01*
X698952Y4459266D01*
X699540Y4462221D01*
X700693Y4465004D01*
X704517Y4484231D01*
Y4486498D01*
X705068Y4488696D01*
X705550Y4498498D01*
X705438Y4499252D01*
X705587Y4500000D01*
Y6274999D01*
X705438Y6275746D01*
X705550Y6276500D01*
X705068Y6286302D01*
X704517Y6288501D01*
Y6290768D01*
X700693Y6309995D01*
X699540Y6312778D01*
X698952Y6315732D01*
X691450Y6333844D01*
X689777Y6336349D01*
X688624Y6339132D01*
X677732Y6355432D01*
X675602Y6357562D01*
X673929Y6360067D01*
X660068Y6373928D01*
X657563Y6375601D01*
X655433Y6377731D01*
X639133Y6388623D01*
X636350Y6389776D01*
X633844Y6391450D01*
X615733Y6398951D01*
X612779Y6399539D01*
X609996Y6400692D01*
X590769Y6404516D01*
X588502D01*
X586303Y6405067D01*
X576501Y6405549D01*
X575747Y6405437D01*
X575000Y6405586D01*
X93162D01*
X79753Y6408253D01*
X67120Y6413486D01*
X55751Y6421082D01*
X46082Y6430751D01*
X38487Y6442118D01*
X33253Y6454753D01*
X30586Y6468162D01*
X30586Y6475000D01*
X30586Y8700000D01*
X650000D01*
X712500Y8637500D01*
D02*
G37*
G36*
X8900000Y9175000D02*
Y8900000D01*
X9225000Y8575000D01*
Y7975000D01*
X9125000Y7875000D01*
X8725000D01*
X8500000Y8100000D01*
Y9175000D01*
X8600000Y9275000D01*
X8800000D01*
X8900000Y9175000D01*
D02*
G37*
G36*
X6825000Y9275000D02*
X6925000Y9175000D01*
Y8575000D01*
X7075000Y8425000D01*
Y7975000D01*
X6975000Y7875000D01*
X6575000D01*
X6500000Y7950000D01*
Y9175000D01*
X6600000Y9275000D01*
X6825000Y9275000D01*
D02*
G37*
G36*
X4925000Y9175000D02*
Y7975000D01*
X4900000Y7950000D01*
X4825000Y7875000D01*
X4425000D01*
X4350000Y7950000D01*
Y8450000D01*
X4475000Y8575000D01*
Y9175000D01*
X4575000Y9275000D01*
X4825000D01*
X4925000Y9175000D01*
D02*
G37*
G36*
X2875000Y9200000D02*
X2875000Y8075000D01*
X2750000Y7950000D01*
X2675000Y7875000D01*
X2275000D01*
X2200000Y7950000D01*
Y8450000D01*
X2425000Y8675000D01*
Y9100000D01*
X2600000Y9275000D01*
X2800000D01*
X2875000Y9200000D01*
D02*
G37*
G36*
X2781867Y7635622D02*
X2787338Y7627433D01*
X2795527Y7621962D01*
X2805185Y7620040D01*
X2854715D01*
X2864374Y7621962D01*
X2872562Y7627433D01*
X2892001Y7630661D01*
X2937296Y7602277D01*
X2938179Y7601592D01*
Y7337194D01*
X2887702Y7286717D01*
X2870003Y7286441D01*
X2835182Y7296342D01*
X2830400Y7300125D01*
X2825469Y7306552D01*
X2820456Y7310398D01*
X2818045Y7337525D01*
X2820456Y7364652D01*
X2825469Y7368498D01*
X2832779Y7378025D01*
X2837374Y7389119D01*
X2838942Y7401025D01*
X2837374Y7412931D01*
X2832779Y7424025D01*
X2825469Y7433552D01*
X2815942Y7440862D01*
X2804847Y7445458D01*
X2792942Y7447025D01*
X2634239D01*
X2622334Y7445458D01*
X2611239Y7440862D01*
X2601713Y7433552D01*
X2556754Y7445653D01*
X2548951Y7453457D01*
Y7506593D01*
X2685611Y7643253D01*
X2780349D01*
X2781867Y7635622D01*
D02*
G37*
G36*
X3518228Y7437821D02*
Y7138160D01*
X3324340Y6944272D01*
X2881392D01*
X2869020Y6953007D01*
X2842456Y6982780D01*
X2842455Y6994272D01*
Y7042270D01*
X2840534Y7051928D01*
X2835063Y7060117D01*
X2828490Y7064509D01*
X2826212Y7088629D01*
X2825469Y7114498D01*
X2832779Y7124025D01*
X2837374Y7135119D01*
X2838942Y7147025D01*
X2838818Y7147968D01*
X2910446Y7219597D01*
X2939091Y7190952D01*
X2945672Y7185903D01*
X2953334Y7182729D01*
X2961557Y7181646D01*
X3061353D01*
Y7101418D01*
X3311268D01*
Y7171811D01*
X3341807Y7192696D01*
X3354312Y7198607D01*
X3360546Y7194441D01*
X3370205Y7192520D01*
X3429695D01*
X3439354Y7194441D01*
X3447543Y7199912D01*
X3453014Y7208101D01*
X3454935Y7217760D01*
Y7267290D01*
X3453014Y7276949D01*
X3447543Y7285137D01*
X3443121Y7311761D01*
Y7313288D01*
X3447543Y7339913D01*
X3453014Y7348101D01*
X3454935Y7357760D01*
Y7407290D01*
X3453014Y7416949D01*
X3447543Y7425137D01*
X3446656Y7430220D01*
X3450397Y7448199D01*
X3471064Y7460808D01*
X3518228Y7437821D01*
D02*
G37*
G36*
X2221887Y7560601D02*
X2227359Y7552413D01*
X2235547Y7546941D01*
X2245206Y7545020D01*
X2304696D01*
X2305767Y7545233D01*
X2312310D01*
X2350951Y7506593D01*
Y7408525D01*
X2504018D01*
X2533984Y7378559D01*
X2540564Y7373510D01*
X2548227Y7370336D01*
X2556450Y7369253D01*
X2559962D01*
X2579693Y7337525D01*
X2559962Y7305797D01*
X2556451D01*
X2548227Y7304714D01*
X2540565Y7301540D01*
X2533985Y7296491D01*
X2504018Y7266525D01*
X2350951D01*
Y7188269D01*
X2338653Y7176455D01*
X2304695Y7155030D01*
X2245206D01*
X2235547Y7153109D01*
X2222516Y7147637D01*
X2202385D01*
X2189354Y7153109D01*
X2179696Y7155030D01*
X2144878D01*
X1972416Y7327491D01*
X1965836Y7332541D01*
X1958174Y7335715D01*
X1949950Y7336797D01*
X1933951D01*
Y7356525D01*
X1850173D01*
X1847450Y7356884D01*
X1827313D01*
X1790671Y7393525D01*
X1811382Y7443525D01*
X1933951D01*
Y7501593D01*
X1995611Y7563253D01*
X2221360D01*
X2221887Y7560601D01*
D02*
G37*
G36*
X4090601Y7756545D02*
X4080960D01*
Y7603545D01*
X4139028D01*
X4200688Y7541884D01*
Y7316136D01*
X4198036Y7315608D01*
X4189847Y7310137D01*
X4184376Y7301948D01*
X4182455Y7292289D01*
Y7232800D01*
X4182668Y7231728D01*
Y7225185D01*
X4144027Y7186545D01*
X4045959D01*
Y7033477D01*
X4015993Y7003511D01*
X4010944Y6996931D01*
X4007770Y6989268D01*
X4006687Y6981045D01*
Y6977534D01*
X3974959Y6957803D01*
X3943231Y6977534D01*
Y6981045D01*
X3942149Y6989268D01*
X3938975Y6996931D01*
X3933925Y7003511D01*
X3903959Y7033477D01*
Y7186545D01*
X3825704D01*
X3813889Y7198842D01*
X3792464Y7232800D01*
Y7292289D01*
X3790543Y7301948D01*
X3785072Y7314979D01*
Y7335110D01*
X3790543Y7348141D01*
X3792464Y7357800D01*
Y7392617D01*
X3964926Y7565079D01*
X3969975Y7571659D01*
X3973149Y7579322D01*
X3974232Y7587545D01*
Y7603545D01*
X3993960D01*
Y7756545D01*
X3984318D01*
Y7837500D01*
X4090601D01*
Y7756545D01*
D02*
G37*
G36*
X8090642Y7756500D02*
X8081000D01*
Y7603500D01*
X8139068D01*
X8200728Y7541840D01*
Y7316092D01*
X8198076Y7315564D01*
X8189888Y7310093D01*
X8184416Y7301904D01*
X8182495Y7292245D01*
Y7232755D01*
X8182708Y7231684D01*
Y7225141D01*
X8144068Y7186500D01*
X8046000D01*
Y7033433D01*
X8016034Y7003467D01*
X8010984Y6996887D01*
X8007811Y6989224D01*
X8006728Y6981001D01*
Y6977489D01*
X7975000Y6957758D01*
X7943272Y6977489D01*
Y6981001D01*
X7942189Y6989224D01*
X7939015Y6996886D01*
X7933966Y7003467D01*
X7904000Y7033433D01*
Y7186500D01*
X7825744D01*
X7813930Y7198798D01*
X7792505Y7232756D01*
Y7292245D01*
X7790584Y7301904D01*
X7785112Y7314935D01*
Y7335066D01*
X7790584Y7348097D01*
X7792505Y7357755D01*
Y7392573D01*
X7964966Y7565035D01*
X7970016Y7571615D01*
X7973190Y7579277D01*
X7974272Y7587501D01*
Y7603500D01*
X7994000D01*
Y7756500D01*
X7984358D01*
Y7837500D01*
X8090642D01*
Y7756500D01*
D02*
G37*
G36*
X6090642Y7756500D02*
X6081000D01*
Y7603500D01*
X6139068D01*
X6200728Y7541839D01*
Y7316091D01*
X6198076Y7315563D01*
X6189888Y7310092D01*
X6184416Y7301903D01*
X6182495Y7292244D01*
Y7232755D01*
X6182708Y7231683D01*
Y7225140D01*
X6144068Y7186500D01*
X6046000D01*
Y7033432D01*
X6016034Y7003466D01*
X6010984Y6996886D01*
X6007810Y6989223D01*
X6006728Y6981000D01*
Y6977489D01*
X5975000Y6957757D01*
X5943272Y6977489D01*
Y6981000D01*
X5942189Y6989223D01*
X5939015Y6996886D01*
X5933966Y7003466D01*
X5904000Y7033432D01*
Y7186500D01*
X5825744D01*
X5813929Y7198797D01*
X5792505Y7232755D01*
Y7292244D01*
X5790584Y7301903D01*
X5785112Y7314934D01*
Y7335065D01*
X5790584Y7348096D01*
X5792505Y7357755D01*
Y7392572D01*
X5964966Y7565034D01*
X5970015Y7571614D01*
X5973189Y7579277D01*
X5974272Y7587500D01*
Y7603500D01*
X5994000D01*
Y7756500D01*
X5984358D01*
Y7837500D01*
X6090642D01*
Y7756500D01*
D02*
G37*
G36*
X954999Y6956492D02*
Y6953508D01*
X952716Y6947995D01*
X948496Y6943775D01*
X942983Y6941492D01*
X937016D01*
X931503Y6943775D01*
X927283Y6947995D01*
X924999Y6953508D01*
Y6956492D01*
Y7026491D01*
X954999D01*
Y6956492D01*
D02*
G37*
G36*
X904999D02*
Y6953508D01*
X902716Y6947995D01*
X898496Y6943775D01*
X892983Y6941492D01*
X887016D01*
X881503Y6943775D01*
X877283Y6947995D01*
X875000Y6953508D01*
Y6956492D01*
X874999D01*
Y7026491D01*
X904999D01*
Y6956492D01*
D02*
G37*
G36*
X854999D02*
Y6953508D01*
X852716Y6947995D01*
X848496Y6943775D01*
X842983Y6941492D01*
X837016D01*
X831503Y6943775D01*
X827283Y6947995D01*
X824999Y6953508D01*
Y6956492D01*
Y7026491D01*
X854999D01*
Y6956492D01*
D02*
G37*
G36*
X804999D02*
Y6953508D01*
X802716Y6947995D01*
X798496Y6943775D01*
X792983Y6941492D01*
X787016D01*
X781503Y6943775D01*
X777283Y6947995D01*
X774999Y6953508D01*
Y6956492D01*
Y7026491D01*
X804999D01*
Y6956492D01*
D02*
G37*
G36*
X834999Y7351492D02*
Y7157402D01*
X821706Y7145435D01*
X808804D01*
X796342Y7142095D01*
X785168Y7135644D01*
X776045Y7126521D01*
X769594Y7115348D01*
X766255Y7102885D01*
Y7089983D01*
X769594Y7077521D01*
X770115Y7076619D01*
X766852Y7072366D01*
X764181Y7065920D01*
X763271Y7059002D01*
X763271Y7059000D01*
Y7054763D01*
X759999Y7051492D01*
Y7033742D01*
X759457Y7032930D01*
X758176Y7026491D01*
Y6953508D01*
X758813Y6950305D01*
X747500Y6938992D01*
X672500D01*
X660000Y6951492D01*
X659999Y7051491D01*
X747500Y7138992D01*
X747499Y7351492D01*
X759999Y7363992D01*
X822499D01*
X834999Y7351492D01*
D02*
G37*
G36*
X893489Y6938014D02*
X913154Y6935253D01*
X917414Y6934071D01*
X919606Y6931879D01*
X925065Y6928232D01*
X930578Y6925948D01*
X951110Y6884453D01*
X952887Y6875659D01*
X951956Y6873413D01*
X950676Y6866975D01*
Y6861008D01*
X951956Y6854570D01*
X954240Y6849057D01*
X957887Y6843599D01*
Y6834384D01*
X955450Y6830737D01*
Y6830737D01*
X954240Y6828926D01*
Y6828925D01*
X951956Y6823413D01*
X950676Y6816975D01*
Y6811008D01*
X951956Y6804570D01*
X954240Y6799058D01*
Y6799057D01*
X957887Y6793599D01*
X957887Y6784384D01*
X957887Y6784384D01*
X955450Y6780737D01*
X954240Y6778926D01*
Y6778925D01*
X951956Y6773413D01*
X950676Y6766975D01*
Y6761008D01*
X951956Y6754570D01*
X954240Y6749057D01*
X957887Y6743599D01*
X957887Y6734384D01*
X955450Y6730737D01*
Y6730737D01*
X954240Y6728926D01*
Y6728925D01*
X951956Y6723413D01*
X950676Y6716975D01*
Y6711008D01*
X951956Y6704570D01*
X952886Y6702324D01*
X949417Y6685154D01*
X944799Y6673299D01*
X942500Y6672171D01*
Y6661491D01*
X920735D01*
X900527Y6651576D01*
X899421Y6652034D01*
X892983Y6653315D01*
X887016D01*
X880578Y6652034D01*
X875065Y6649751D01*
X875064D01*
X869607Y6646104D01*
X860392Y6646104D01*
X860391Y6646104D01*
X857668Y6647924D01*
X857668D01*
X854934Y6649751D01*
X854934D01*
X849421Y6652034D01*
X842983Y6653315D01*
X837016D01*
X830577Y6652034D01*
X825065Y6649751D01*
X825064D01*
X819607Y6646104D01*
X819606Y6646104D01*
X810392Y6646104D01*
X810391Y6646104D01*
X807668Y6647924D01*
X804934Y6649751D01*
X804934D01*
X799421Y6652034D01*
X792983Y6653315D01*
X787016D01*
X780578Y6652034D01*
X775065Y6649751D01*
X775064D01*
X769607Y6646104D01*
X769606Y6646104D01*
X760392Y6646104D01*
X757668Y6647924D01*
X757668D01*
X754934Y6649751D01*
X754934D01*
X749421Y6652034D01*
X742983Y6653315D01*
X737016D01*
X730577Y6652034D01*
X728333Y6651104D01*
X706289Y6655559D01*
X701647Y6657655D01*
X695682Y6661491D01*
X687499D01*
Y6669676D01*
X684871Y6673762D01*
X680671Y6684713D01*
X677112Y6702324D01*
X678042Y6704569D01*
X679323Y6711007D01*
Y6716975D01*
X678042Y6723413D01*
X675759Y6728926D01*
Y6728926D01*
X672112Y6734384D01*
X670426Y6736379D01*
X668220Y6738991D01*
X672110Y6743597D01*
X672112Y6743599D01*
Y6743599D01*
X673932Y6746323D01*
Y6746323D01*
X675759Y6749056D01*
Y6749057D01*
X678042Y6754569D01*
X679323Y6761008D01*
Y6766975D01*
X678042Y6773413D01*
X675759Y6778926D01*
Y6778926D01*
X672112Y6784384D01*
X670426Y6786379D01*
X668220Y6788992D01*
X672110Y6793597D01*
X672112Y6793599D01*
Y6793599D01*
X673932Y6796323D01*
Y6796323D01*
X675759Y6799056D01*
Y6799057D01*
X678042Y6804569D01*
X679323Y6811007D01*
Y6816975D01*
X678042Y6823413D01*
X675759Y6828926D01*
Y6828926D01*
X672112Y6834384D01*
X670426Y6836380D01*
X668220Y6838991D01*
X672110Y6843597D01*
X672112Y6843599D01*
Y6843599D01*
X673932Y6846323D01*
Y6846323D01*
X675759Y6849056D01*
Y6849057D01*
X678042Y6854569D01*
X679323Y6861008D01*
Y6866975D01*
X678042Y6873413D01*
X687499Y6896697D01*
Y6916492D01*
X701620D01*
X724700Y6922168D01*
X747500D01*
X753938Y6923449D01*
X759396Y6927096D01*
X775066Y6928232D01*
X780578Y6925949D01*
X787016Y6924668D01*
X792983D01*
X799421Y6925949D01*
X804934Y6928232D01*
X810392Y6931879D01*
X819606D01*
X819607Y6931879D01*
X825065Y6928232D01*
X825065D01*
X830578Y6925948D01*
X830578Y6925949D01*
X837016Y6924668D01*
X837016Y6924668D01*
X842983Y6924668D01*
X842983Y6924668D01*
X849421Y6925948D01*
X849421Y6925949D01*
X854933Y6928232D01*
X854934D01*
X860391Y6931879D01*
X860392D01*
X862585Y6934072D01*
X866839Y6935252D01*
X886679Y6938038D01*
X889638Y6938129D01*
X893489Y6938014D01*
D02*
G37*
G36*
X9591774Y9961381D02*
X9651212Y9945455D01*
X9708062Y9921907D01*
X9761350Y9891141D01*
X9810169Y9853681D01*
X9853680Y9810170D01*
X9891140Y9761351D01*
X9921907Y9708062D01*
X9945455Y9651212D01*
X9961381Y9591774D01*
X9969413Y9530766D01*
Y9500000D01*
Y6082443D01*
X9949517Y6052629D01*
X9942505Y6042505D01*
X9920999Y6021000D01*
Y6020999D01*
X9762500Y5862500D01*
X7862500D01*
X7550000Y5550000D01*
Y3800000D01*
X7487500Y3737500D01*
X7225000Y3737500D01*
X7137501Y3825000D01*
X6875000D01*
X6709401Y3990599D01*
Y4508499D01*
X6728995Y4525790D01*
X6743925Y4527361D01*
X6785790Y4519913D01*
X6794913Y4510790D01*
X6806087Y4504339D01*
X6818549Y4501000D01*
X6827110D01*
X6834937Y4496542D01*
X6842328Y4489922D01*
X6863413Y4468377D01*
X6867495Y4460851D01*
Y4407755D01*
X6869416Y4398096D01*
X6874887Y4389908D01*
Y4372592D01*
X6869416Y4364404D01*
X6867495Y4354745D01*
Y4295255D01*
X6869416Y4285596D01*
X6874887Y4277407D01*
Y4260092D01*
X6869416Y4251904D01*
X6867495Y4242245D01*
Y4182755D01*
X6869416Y4173096D01*
X6874887Y4164908D01*
Y4147592D01*
X6869416Y4139403D01*
X6867495Y4129745D01*
Y4070255D01*
X6869416Y4060596D01*
X6874887Y4052407D01*
Y4035092D01*
X6869416Y4026904D01*
X6867495Y4017245D01*
Y3957755D01*
X6869416Y3948096D01*
X6874887Y3939908D01*
X6883076Y3934436D01*
X6892734Y3932515D01*
X6942264D01*
X6951923Y3934436D01*
X6960112Y3939908D01*
X6965583Y3948096D01*
X6967504Y3957755D01*
Y4017245D01*
X6965583Y4026904D01*
X6960112Y4035092D01*
Y4052408D01*
X6965583Y4060596D01*
X6967504Y4070255D01*
Y4127836D01*
X6972532Y4135047D01*
X6993784Y4157463D01*
X7002711Y4163180D01*
X7009759Y4165759D01*
X7014888Y4164907D01*
X7023076Y4159436D01*
X7032735Y4157515D01*
X7082265D01*
X7091924Y4159436D01*
X7096212Y4162301D01*
X7129563Y4152711D01*
X7136360Y4100955D01*
X7132132Y4095446D01*
X7127448Y4084136D01*
X7125850Y4072000D01*
X7127448Y4059864D01*
X7132132Y4048554D01*
X7139584Y4038843D01*
X7149296Y4031391D01*
X7160605Y4026706D01*
X7172741Y4025109D01*
X7264226D01*
X7276362Y4026706D01*
X7287672Y4031391D01*
X7297383Y4038843D01*
X7304835Y4048554D01*
X7309520Y4059864D01*
X7311117Y4072000D01*
X7310890Y4073731D01*
X7348183Y4111024D01*
X7353232Y4117604D01*
X7356406Y4125267D01*
X7357488Y4133490D01*
Y4264510D01*
X7356406Y4272733D01*
X7353232Y4280396D01*
X7348183Y4286976D01*
X7310890Y4324269D01*
X7311117Y4326000D01*
X7310890Y4327731D01*
X7348183Y4365024D01*
X7353232Y4371604D01*
X7356406Y4379267D01*
X7357488Y4387490D01*
Y5024284D01*
X7356406Y5032507D01*
X7353232Y5040169D01*
X7348183Y5046750D01*
X7311038Y5083895D01*
X7311117Y5084500D01*
X7310890Y5086232D01*
X7348183Y5123525D01*
X7353232Y5130105D01*
X7356406Y5137767D01*
X7357488Y5145991D01*
Y5277010D01*
X7356406Y5285233D01*
X7353232Y5292896D01*
X7348183Y5299476D01*
X7310890Y5336769D01*
X7311117Y5338500D01*
X7310890Y5340232D01*
X7348183Y5377525D01*
X7353232Y5384105D01*
X7356406Y5391767D01*
X7357488Y5399991D01*
Y5737500D01*
Y5824283D01*
X7356406Y5832507D01*
X7353232Y5840169D01*
X7348183Y5846750D01*
X7322466Y5872466D01*
X7315886Y5877516D01*
X7311236Y5879442D01*
X7303399Y5889485D01*
X7292857Y5908706D01*
X7286739Y5931772D01*
X7296332Y5952931D01*
X7302912Y5957980D01*
X7454976Y6110044D01*
X7460025Y6116624D01*
X7463199Y6124287D01*
X7464282Y6132510D01*
Y6519330D01*
X7639947Y6694995D01*
X7679745D01*
X7689403Y6696917D01*
X7697592Y6702388D01*
X7701466Y6708186D01*
X7756921D01*
X7761500Y6704672D01*
X7772594Y6700077D01*
X7784500Y6698509D01*
X7785443Y6698634D01*
X7857072Y6627005D01*
X7828427Y6598360D01*
X7823378Y6591780D01*
X7820204Y6584117D01*
X7819121Y6575894D01*
Y6476099D01*
X7738893D01*
Y6226183D01*
X7809286D01*
X7830171Y6195644D01*
X7836082Y6183140D01*
X7831916Y6176905D01*
X7829995Y6167246D01*
Y6107756D01*
X7831916Y6098097D01*
X7837387Y6089909D01*
X7845576Y6084437D01*
X7855235Y6082516D01*
X7904765D01*
X7914424Y6084437D01*
X7922612Y6089908D01*
X7949236Y6094330D01*
X7950763D01*
X7977388Y6089908D01*
X7985576Y6084437D01*
X7995235Y6082516D01*
X8044765D01*
X8054424Y6084437D01*
X8062612Y6089908D01*
X8067695Y6090795D01*
X8075793Y6089110D01*
X8092167Y6058238D01*
X8072781Y6024272D01*
X7820660D01*
X7749000Y6095932D01*
Y6106451D01*
X7745661Y6118913D01*
X7739210Y6130087D01*
X7730087Y6139210D01*
X7718913Y6145661D01*
X7706451Y6149000D01*
X7693549D01*
X7681087Y6145661D01*
X7669913Y6139210D01*
X7660790Y6130087D01*
X7654339Y6118913D01*
X7651000Y6106451D01*
Y6093549D01*
X7654339Y6081087D01*
X7660790Y6069913D01*
X7669913Y6060790D01*
X7681087Y6054339D01*
X7693549Y6051000D01*
X7704068D01*
X7785034Y5970034D01*
X7791614Y5964985D01*
X7799277Y5961811D01*
X7807500Y5960728D01*
X8108908D01*
X8109436Y5958076D01*
X8114907Y5949888D01*
X8123096Y5944417D01*
X8132755Y5942495D01*
X8192244D01*
X8201903Y5944417D01*
X8214934Y5949888D01*
X8235065D01*
X8248097Y5944417D01*
X8257755Y5942495D01*
X8317245D01*
X8326904Y5944417D01*
X8335092Y5949888D01*
X8340564Y5958076D01*
X8342485Y5967735D01*
Y6017265D01*
X8340564Y6026924D01*
X8335092Y6035113D01*
X8326904Y6040584D01*
X8317245Y6042505D01*
X8257755D01*
X8234935Y6050931D01*
X8215563Y6098077D01*
X8217484Y6107736D01*
Y6157266D01*
X8215563Y6166924D01*
X8210092Y6175113D01*
X8201903Y6180584D01*
X8195772Y6181804D01*
Y6237532D01*
X8198027Y6239263D01*
X8205337Y6248790D01*
X8209933Y6259884D01*
X8211500Y6271790D01*
Y6430492D01*
X8209933Y6442398D01*
X8205337Y6453492D01*
X8198027Y6463019D01*
X8188500Y6470329D01*
X8177406Y6474925D01*
X8165500Y6476492D01*
X8153594Y6474925D01*
X8142500Y6470329D01*
X8132973Y6463019D01*
X8129126Y6458006D01*
X8102000Y6455595D01*
X8074873Y6458006D01*
X8071027Y6463019D01*
X8061500Y6470329D01*
X8050406Y6474925D01*
X8038500Y6476492D01*
X8026594Y6474925D01*
X8015500Y6470329D01*
X8005973Y6463019D01*
X8002126Y6458006D01*
X7975000Y6455595D01*
X7947873Y6458006D01*
X7944027Y6463019D01*
X7934500Y6470329D01*
X7923406Y6474925D01*
X7917731Y6512028D01*
X7921404Y6515710D01*
X7953286Y6536811D01*
X7961509Y6535729D01*
X8258909D01*
X8259437Y6533077D01*
X8264908Y6524888D01*
X8273096Y6519417D01*
X8282755Y6517495D01*
X8342245D01*
X8351904Y6519417D01*
X8360093Y6524888D01*
X8365564Y6533077D01*
X8367485Y6542735D01*
Y6592265D01*
X8365564Y6601924D01*
X8360093Y6610113D01*
X8355671Y6636737D01*
Y6638264D01*
X8360093Y6664889D01*
X8365564Y6673077D01*
X8367485Y6682736D01*
Y6732266D01*
X8365564Y6741925D01*
X8360093Y6750113D01*
X8351904Y6755584D01*
X8344272Y6757103D01*
Y6998869D01*
X8343190Y7007092D01*
X8340016Y7014755D01*
X8334966Y7021335D01*
X8246335Y7109966D01*
X8239754Y7115016D01*
X8232092Y7118190D01*
X8220388Y7143560D01*
X8216704Y7169272D01*
X8236946Y7189515D01*
X8241995Y7196095D01*
X8245169Y7203758D01*
X8245664Y7207515D01*
X8257265D01*
X8266924Y7209437D01*
X8275112Y7214908D01*
X8280584Y7223097D01*
X8282505Y7232755D01*
Y7271784D01*
X8332329Y7292671D01*
X8649302Y6975697D01*
X8724998Y6900002D01*
X8925000Y6900000D01*
X9600000D01*
X9700000Y7000000D01*
Y7800000D01*
X9550000Y7950000D01*
X9300000D01*
X9250000Y8000000D01*
Y8625000D01*
X8950000Y8925000D01*
Y9225000D01*
X8875000Y9300000D01*
X7500000D01*
X7449995Y9249995D01*
X7449995Y8949995D01*
X7350000Y8850000D01*
X7050000D01*
X6958008Y8941991D01*
X6958009Y9241991D01*
X6900000Y9300000D01*
X5500000D01*
X5450000Y9250000D01*
Y9000000D01*
X5300000Y8850000D01*
X5100000D01*
X4950000Y9000000D01*
Y9225000D01*
X4850000Y9325000D01*
X3550000D01*
X3450000Y9224999D01*
X3450000Y8950000D01*
X3350000Y8850000D01*
X3050000D01*
X2950000Y8950000D01*
Y9300000D01*
X2900000Y9350000D01*
X1650000D01*
X1450000Y9150000D01*
Y8950000D01*
X1250000Y8750000D01*
X30586D01*
Y9500000D01*
Y9530766D01*
X38618Y9591774D01*
X54544Y9651212D01*
X78093Y9708062D01*
X108859Y9761350D01*
X146319Y9810169D01*
X189829Y9853680D01*
X238648Y9891140D01*
X291938Y9921907D01*
X348787Y9945455D01*
X408225Y9961381D01*
X469234Y9969413D01*
X9530766D01*
X9591774Y9961381D01*
D02*
G37*
G36*
X1052499Y6898992D02*
X979516D01*
X974003Y6901275D01*
X969783Y6905495D01*
X967499Y6911008D01*
Y6913992D01*
Y6916975D01*
X969783Y6922488D01*
X974003Y6926708D01*
X979516Y6928991D01*
X1052499D01*
Y6898992D01*
D02*
G37*
G36*
X722499Y7138992D02*
X647500Y7063992D01*
Y7062484D01*
X644457Y7057929D01*
X643176Y7051491D01*
X643176Y7051490D01*
X643176Y6951492D01*
X644457Y6945053D01*
X647500Y6940499D01*
Y6928991D01*
X650483D01*
X655996Y6926708D01*
X660216Y6922488D01*
X662499Y6916975D01*
Y6913992D01*
Y6911008D01*
X660216Y6905495D01*
X655996Y6901275D01*
X650483Y6898992D01*
X577499D01*
Y6901492D01*
X572499D01*
X547500Y6926492D01*
Y7063992D01*
X522500Y7088992D01*
Y7188992D01*
X534999Y7201492D01*
X722499D01*
Y7138992D01*
D02*
G37*
G36*
X5900642Y7756500D02*
X5891000D01*
Y7603500D01*
X5871602Y7561534D01*
X5752553Y7442484D01*
X5717735D01*
X5708076Y7440563D01*
X5699888Y7435092D01*
X5694416Y7426903D01*
X5692495Y7417244D01*
Y7357755D01*
X5694416Y7348096D01*
X5699888Y7335065D01*
Y7314934D01*
X5694416Y7301903D01*
X5692495Y7292244D01*
Y7232755D01*
X5694416Y7223096D01*
X5699888Y7214907D01*
X5708076Y7209436D01*
X5710728Y7208908D01*
Y7179499D01*
X5711811Y7171276D01*
X5714985Y7163614D01*
X5720034Y7157033D01*
X5744534Y7132534D01*
X5751114Y7127484D01*
X5758776Y7124310D01*
X5761000Y7124018D01*
Y6994290D01*
X5760999Y6988500D01*
X5757474Y6939960D01*
X5751973Y6935738D01*
X5744662Y6926211D01*
X5740067Y6915117D01*
X5721980Y6902567D01*
X5700396Y6893175D01*
X5688500Y6891625D01*
X5687500Y6891824D01*
X5687500Y6891824D01*
X5687499Y6891824D01*
X5680860Y6891823D01*
X5350000D01*
X5343562Y6890543D01*
X5338104Y6886896D01*
X5338103Y6886895D01*
X5063104Y6611896D01*
X5059457Y6606438D01*
X5058176Y6600000D01*
X5058177Y6599999D01*
Y6470700D01*
X5052556Y6460185D01*
X5047324Y6442937D01*
X5045557Y6425000D01*
Y6075000D01*
X5047324Y6057063D01*
X5052556Y6039815D01*
X5058177Y6029300D01*
Y5200000D01*
X5058176Y5069468D01*
X5043031Y5054323D01*
X4933529Y5054324D01*
X4925001Y5054324D01*
X4925000Y5054324D01*
X4924999Y5054324D01*
X4918562Y5053044D01*
X4918560Y5053042D01*
X4913104Y5049396D01*
X4913103Y5049395D01*
X4900604Y5036896D01*
X4896958Y5031439D01*
X4896957Y5031438D01*
X4896745Y5030370D01*
X4896744D01*
X4895677Y5025001D01*
X4895676Y5025000D01*
X4895676Y5025000D01*
X4895676Y5018361D01*
X4895676Y5018360D01*
X4895677Y5016471D01*
Y4925001D01*
X4895676Y4925000D01*
X4896957Y4918562D01*
X4900604Y4913104D01*
X4900605Y4913103D01*
X5058176Y4755532D01*
Y4650000D01*
X5059456Y4643562D01*
X5063103Y4638104D01*
X5063104Y4638103D01*
X5100603Y4600605D01*
X5100604Y4600604D01*
X5106062Y4596957D01*
X5108628Y4596446D01*
X5113769Y4590475D01*
X5124370Y4572002D01*
X5126010Y4568731D01*
X5133193Y4545676D01*
X5132515Y4542265D01*
Y4513196D01*
X5082691Y4492309D01*
X5025000Y4550000D01*
X3701620D01*
X3682486Y4596194D01*
X3886896Y4800604D01*
X3890543Y4806062D01*
X3891824Y4812500D01*
X3891824Y4812501D01*
Y5468032D01*
X3919468Y5495677D01*
X4035521D01*
X4308166Y5223032D01*
X4308166Y5137510D01*
X4309446Y5131072D01*
X4313093Y5125614D01*
X4313094Y5125614D01*
X4338103Y5100605D01*
X4338104Y5100604D01*
X4343204Y5097196D01*
X4343562Y5096957D01*
X4354096Y5089740D01*
X4378834Y5066567D01*
X4379694Y5065698D01*
X4380931Y5060070D01*
X4383177Y5046657D01*
Y4987500D01*
X4384457Y4981062D01*
X4388104Y4975604D01*
X4388105Y4975603D01*
X4463104Y4900604D01*
X4468562Y4896957D01*
X4475000Y4895676D01*
X4475001Y4895677D01*
X4666470Y4895676D01*
X4668360Y4895676D01*
X4668360Y4895676D01*
X4675000Y4895676D01*
X4675001Y4895677D01*
X4681439Y4896956D01*
X4681440Y4896958D01*
X4686896Y4900604D01*
X4686897Y4900605D01*
X4699396Y4913104D01*
X4703043Y4918562D01*
X4704323Y4924998D01*
X4704324Y4925000D01*
X4704324Y4925001D01*
X4704323Y4933530D01*
Y5018032D01*
X4936896Y5250604D01*
X4940543Y5256062D01*
X4941824Y5262500D01*
X4941823Y5262502D01*
X4941824Y5391470D01*
X4941824Y5393360D01*
X4941824Y5393361D01*
X4941824Y5400000D01*
X4941823Y5400001D01*
X4940544Y5406439D01*
X4940542Y5406440D01*
X4936896Y5411896D01*
X4936895Y5411897D01*
X4924396Y5424396D01*
X4918938Y5428043D01*
X4912502Y5429323D01*
X4912500Y5429324D01*
X4912499Y5429324D01*
X4903970Y5429323D01*
X4662501D01*
X4662500Y5429324D01*
X4656062Y5428043D01*
X4650604Y5424396D01*
X4650603Y5424395D01*
X4525604Y5299396D01*
X4521957Y5293938D01*
X4520676Y5287500D01*
X4520676Y5287498D01*
X4520677Y5214569D01*
X4487310Y5187944D01*
X4441813Y5207776D01*
Y5298032D01*
X4561896Y5418115D01*
X4565543Y5423573D01*
X4566824Y5430011D01*
X4566823Y5430013D01*
X4566823Y5882127D01*
X4605372Y5920677D01*
X4828269Y5920676D01*
X4848980Y5870676D01*
X4832902Y5854598D01*
X4826250Y5845929D01*
X4822068Y5835834D01*
X4820642Y5825000D01*
Y5743484D01*
X4815582Y5742818D01*
X4809136Y5740148D01*
X4803600Y5735900D01*
X4799352Y5730364D01*
X4796682Y5723918D01*
X4795771Y5717000D01*
Y5657000D01*
X4796682Y5650082D01*
X4799352Y5643636D01*
X4803600Y5638100D01*
X4809136Y5633852D01*
X4815582Y5631182D01*
X4822500Y5630271D01*
X4902500D01*
X4909418Y5631182D01*
X4915864Y5633852D01*
X4921400Y5638100D01*
X4925648Y5643636D01*
X4928318Y5650082D01*
X4929229Y5657000D01*
Y5717000D01*
X4928318Y5723918D01*
X4925648Y5730364D01*
X4921400Y5735900D01*
X4915864Y5740148D01*
X4909418Y5742818D01*
X4904358Y5743484D01*
Y5807662D01*
X4979598Y5882902D01*
X4986250Y5891571D01*
X4990432Y5901666D01*
X4991858Y5912500D01*
Y6450000D01*
X4990432Y6460834D01*
X4986250Y6470929D01*
X4979598Y6479598D01*
X4904358Y6554838D01*
Y7124500D01*
X4908161Y7131087D01*
X4911500Y7143549D01*
Y7156451D01*
X4908161Y7168913D01*
X4901710Y7180087D01*
X4892587Y7189210D01*
X4881413Y7195661D01*
X4868951Y7199000D01*
X4856049D01*
X4843587Y7195661D01*
X4832413Y7189210D01*
X4823290Y7180087D01*
X4816839Y7168913D01*
X4813500Y7156451D01*
Y7143549D01*
X4816839Y7131087D01*
X4820642Y7124500D01*
Y6537500D01*
X4822068Y6526666D01*
X4826250Y6516571D01*
X4817412Y6486429D01*
X4803270Y6466823D01*
X4801212D01*
X4800000Y6466943D01*
X4650000D01*
X4648788Y6466823D01*
X4587501D01*
X4587500Y6466824D01*
X4581062Y6465543D01*
X4575604Y6461896D01*
X4575603Y6461895D01*
X4550604Y6436896D01*
X4546957Y6431438D01*
X4545676Y6425000D01*
X4545676Y6424998D01*
X4545676Y6131968D01*
X4392444Y5978737D01*
X4342444Y5999447D01*
Y6017310D01*
X4340523Y6026968D01*
X4335052Y6035157D01*
X4326863Y6040628D01*
X4317204Y6042550D01*
X4257715D01*
X4234895Y6050975D01*
X4215523Y6098121D01*
X4217444Y6107780D01*
Y6157310D01*
X4215523Y6166969D01*
X4210051Y6175157D01*
X4201863Y6180628D01*
X4195731Y6181848D01*
Y6237576D01*
X4197986Y6239307D01*
X4205297Y6248834D01*
X4209892Y6259928D01*
X4211459Y6271834D01*
Y6430536D01*
X4209892Y6442442D01*
X4205297Y6453536D01*
X4197986Y6463063D01*
X4188459Y6470373D01*
X4177365Y6474969D01*
X4165459Y6476536D01*
X4153554Y6474969D01*
X4142459Y6470373D01*
X4132932Y6463063D01*
X4129086Y6458051D01*
X4101959Y6455640D01*
X4074832Y6458051D01*
X4070986Y6463063D01*
X4061459Y6470373D01*
X4050365Y6474969D01*
X4038459Y6476536D01*
X4026554Y6474969D01*
X4015459Y6470373D01*
X4005932Y6463063D01*
X4002086Y6458051D01*
X3974959Y6455640D01*
X3947832Y6458051D01*
X3943986Y6463063D01*
X3934459Y6470373D01*
X3923365Y6474969D01*
X3917691Y6512073D01*
X3921364Y6515754D01*
X3953245Y6536855D01*
X3961468Y6535773D01*
X4258869D01*
X4259396Y6533121D01*
X4264868Y6524932D01*
X4273056Y6519461D01*
X4282715Y6517540D01*
X4342205D01*
X4351864Y6519461D01*
X4360052Y6524932D01*
X4365523Y6533121D01*
X4367445Y6542780D01*
Y6592310D01*
X4365523Y6601969D01*
X4360052Y6610157D01*
X4355630Y6636781D01*
Y6638308D01*
X4360052Y6664933D01*
X4365523Y6673121D01*
X4367445Y6682780D01*
Y6732310D01*
X4365523Y6741969D01*
X4360052Y6750157D01*
X4351864Y6755629D01*
X4344232Y6757147D01*
Y6998913D01*
X4343149Y7007136D01*
X4339975Y7014799D01*
X4334926Y7021379D01*
X4246294Y7110011D01*
X4239714Y7115060D01*
X4232051Y7118234D01*
X4220348Y7143604D01*
X4216663Y7169316D01*
X4236906Y7189559D01*
X4241955Y7196139D01*
X4245129Y7203802D01*
X4245624Y7207560D01*
X4257225D01*
X4266884Y7209481D01*
X4275072Y7214952D01*
X4280543Y7223141D01*
X4282465Y7232800D01*
Y7292289D01*
X4280543Y7301948D01*
X4275072Y7310137D01*
X4266884Y7315608D01*
X4264232Y7316136D01*
Y7555045D01*
X4263149Y7563268D01*
X4259975Y7570931D01*
X4254926Y7577511D01*
X4183960Y7648477D01*
Y7756545D01*
X4174318D01*
Y7837500D01*
X5900642D01*
Y7756500D01*
D02*
G37*
G36*
X3900602Y7756545D02*
X3890960D01*
Y7603545D01*
X3871562Y7561579D01*
X3752512Y7442529D01*
X3717694D01*
X3708036Y7440608D01*
X3699847Y7435137D01*
X3694376Y7426948D01*
X3692454Y7417289D01*
Y7357800D01*
X3694376Y7348141D01*
X3699847Y7335110D01*
Y7314979D01*
X3694376Y7301948D01*
X3692454Y7292289D01*
Y7232800D01*
X3694376Y7223141D01*
X3699847Y7214952D01*
X3708036Y7209481D01*
X3710688Y7208953D01*
Y7179544D01*
X3711770Y7171321D01*
X3714944Y7163659D01*
X3719993Y7157078D01*
X3744493Y7132579D01*
X3751073Y7127529D01*
X3758736Y7124355D01*
X3760959Y7124063D01*
Y6994335D01*
X3760959Y6988545D01*
X3757434Y6940005D01*
X3751932Y6935783D01*
X3744622Y6926256D01*
X3740027Y6915162D01*
X3738459Y6903256D01*
Y6882285D01*
X3691976Y6868412D01*
X3688459Y6868338D01*
X3680087Y6876710D01*
X3668913Y6883161D01*
X3656451Y6886500D01*
X3643549D01*
X3631087Y6883161D01*
X3619913Y6876710D01*
X3610790Y6867587D01*
X3604339Y6856413D01*
X3601000Y6843951D01*
Y6831049D01*
X3608377Y6801740D01*
X3602367Y6787612D01*
X3596896Y6779424D01*
X3594974Y6769765D01*
Y6720235D01*
X3596896Y6710576D01*
X3602367Y6702388D01*
X3610555Y6696917D01*
X3620214Y6694995D01*
X3679704D01*
X3689363Y6696917D01*
X3697551Y6702388D01*
X3701455Y6708230D01*
X3756880D01*
X3761459Y6704716D01*
X3772554Y6700121D01*
X3784459Y6698554D01*
X3785403Y6698678D01*
X3857032Y6627049D01*
X3828387Y6598404D01*
X3823337Y6591824D01*
X3820163Y6584161D01*
X3819081Y6575938D01*
Y6476143D01*
X3738853D01*
Y6226227D01*
X3809245D01*
X3830131Y6195689D01*
X3836042Y6183184D01*
X3831875Y6176949D01*
X3829954Y6167290D01*
Y6107800D01*
X3831875Y6098141D01*
X3837347Y6089953D01*
X3845535Y6084481D01*
X3855194Y6082560D01*
X3904724D01*
X3914383Y6084481D01*
X3922571Y6089953D01*
X3949196Y6094374D01*
X3950723D01*
X3977347Y6089953D01*
X3985536Y6084481D01*
X3995194Y6082560D01*
X4044724D01*
X4054383Y6084481D01*
X4062572Y6089953D01*
X4067655Y6090839D01*
X4075753Y6089154D01*
X4092126Y6058282D01*
X4072740Y6024316D01*
X3808116D01*
X3635917Y6196515D01*
Y6433355D01*
X3634834Y6441578D01*
X3631661Y6449241D01*
X3626611Y6455821D01*
X3397466Y6684966D01*
X3390886Y6690015D01*
X3383223Y6693189D01*
X3375000Y6694272D01*
X2000000D01*
X1991777Y6693189D01*
X1984114Y6690015D01*
X1977534Y6684966D01*
X1797533Y6504965D01*
X1792484Y6498385D01*
X1789310Y6490723D01*
X1788228Y6482499D01*
Y6353999D01*
X1728499Y6354000D01*
X1694771Y6390029D01*
Y6499839D01*
X2075660Y6880728D01*
X3337500D01*
X3345723Y6881811D01*
X3353386Y6884985D01*
X3359966Y6890034D01*
X3572466Y7102534D01*
X3577515Y7109114D01*
X3580689Y7116777D01*
X3581772Y7125000D01*
Y7473563D01*
X3587563Y7477432D01*
X3593034Y7485621D01*
X3594956Y7495280D01*
Y7554769D01*
X3593034Y7564428D01*
X3587563Y7577459D01*
Y7597590D01*
X3593034Y7610622D01*
X3594956Y7620280D01*
Y7679770D01*
X3593034Y7689429D01*
X3587563Y7697617D01*
X3579375Y7703089D01*
X3569716Y7705010D01*
X3520186D01*
X3510527Y7703089D01*
X3502338Y7697617D01*
X3496867Y7689429D01*
X3494946Y7679770D01*
Y7620280D01*
X3486520Y7597460D01*
X3439374Y7578088D01*
X3429716Y7580009D01*
X3380186D01*
X3370527Y7578088D01*
X3362338Y7572617D01*
X3356867Y7564428D01*
X3355647Y7558297D01*
X3299919D01*
X3298188Y7560552D01*
X3288661Y7567862D01*
X3277567Y7572458D01*
X3265661Y7574025D01*
X3106959D01*
X3095053Y7572458D01*
X3083959Y7567862D01*
X3074432Y7560552D01*
X3067122Y7551025D01*
X3062527Y7539931D01*
X3060959Y7528025D01*
X3062527Y7516119D01*
X3067122Y7505025D01*
X3074432Y7495498D01*
X3079445Y7491652D01*
X3081856Y7464525D01*
X3079445Y7437398D01*
X3074432Y7433552D01*
X3067122Y7424025D01*
X3062527Y7412931D01*
X3060959Y7401025D01*
X3062527Y7389119D01*
X3067122Y7378025D01*
X3074432Y7368498D01*
X3079445Y7364652D01*
X3081856Y7337525D01*
X3079445Y7310398D01*
X3074432Y7306552D01*
X3067122Y7297025D01*
X3062527Y7285931D01*
X3025423Y7280256D01*
X3021741Y7283929D01*
X3000640Y7315811D01*
X3001722Y7324034D01*
Y7621434D01*
X3004374Y7621962D01*
X3012563Y7627433D01*
X3018034Y7635622D01*
X3019956Y7645280D01*
Y7704770D01*
X3018034Y7714429D01*
X3012563Y7722618D01*
X3004374Y7728089D01*
X2994716Y7730010D01*
X2945186D01*
X2935527Y7728089D01*
X2927339Y7722618D01*
X2900714Y7718196D01*
X2899187D01*
X2872562Y7722618D01*
X2864374Y7728089D01*
X2854715Y7730010D01*
X2805185D01*
X2795527Y7728089D01*
X2787338Y7722618D01*
X2781867Y7714429D01*
X2780349Y7706797D01*
X2672451D01*
X2664228Y7705715D01*
X2656565Y7702541D01*
X2649985Y7697491D01*
X2504018Y7551525D01*
X2395883D01*
X2347936Y7599471D01*
X2341356Y7604520D01*
X2333694Y7607694D01*
X2329936Y7608189D01*
Y7619790D01*
X2328014Y7629449D01*
X2322543Y7637638D01*
X2314355Y7643109D01*
X2304696Y7645030D01*
X2245206D01*
X2235547Y7643109D01*
X2227359Y7637638D01*
X2221887Y7629449D01*
X2221360Y7626797D01*
X1982451D01*
X1974227Y7625714D01*
X1966565Y7622541D01*
X1959985Y7617491D01*
X1945503Y7603009D01*
X1899309Y7622144D01*
Y7837500D01*
X3900602D01*
Y7756545D01*
D02*
G37*
G36*
X7900642Y7756500D02*
X7891000D01*
Y7603501D01*
X7871602Y7561535D01*
X7752553Y7442485D01*
X7717735D01*
X7708076Y7440564D01*
X7699888Y7435093D01*
X7694416Y7426904D01*
X7692495Y7417245D01*
Y7357755D01*
X7694416Y7348097D01*
X7699888Y7335066D01*
Y7314935D01*
X7694416Y7301904D01*
X7692495Y7292245D01*
Y7232755D01*
X7694416Y7223097D01*
X7699888Y7214908D01*
X7708076Y7209437D01*
X7710728Y7208909D01*
Y7179500D01*
X7711811Y7171277D01*
X7714985Y7163614D01*
X7720034Y7157034D01*
X7744534Y7132534D01*
X7751114Y7127485D01*
X7758776Y7124311D01*
X7761000Y7124019D01*
Y6994291D01*
X7760999Y6988500D01*
X7757475Y6939960D01*
X7751973Y6935739D01*
X7744662Y6926212D01*
X7740067Y6915117D01*
X7738500Y6903212D01*
Y6882215D01*
X7691828Y6868364D01*
X7688500Y6868297D01*
X7680087Y6876710D01*
X7668913Y6883161D01*
X7656451Y6886500D01*
X7643549D01*
X7631087Y6883161D01*
X7619913Y6876710D01*
X7610790Y6867587D01*
X7604339Y6856413D01*
X7601000Y6843951D01*
Y6831049D01*
X7608401Y6801769D01*
X7602407Y6787612D01*
X7596936Y6779424D01*
X7595015Y6769765D01*
Y6739928D01*
X7410044Y6554957D01*
X7404995Y6548377D01*
X7401821Y6540714D01*
X7400738Y6532491D01*
Y6510022D01*
X7390618Y6497505D01*
X7356451Y6474001D01*
X7350738Y6474000D01*
X7343549D01*
X7339803Y6472997D01*
X7318900Y6493900D01*
X7313364Y6498148D01*
X7306918Y6500818D01*
X7300000Y6501729D01*
X7270005Y6504745D01*
X7270005Y6504749D01*
X7268084Y6517130D01*
Y6557870D01*
X7270005Y6570252D01*
X7270005Y6570255D01*
X7270005Y6573210D01*
Y6629745D01*
X7268084Y6639404D01*
X7262612Y6647592D01*
X7254424Y6653064D01*
X7244765Y6654985D01*
X7206476D01*
X7162915Y6698546D01*
X7157379Y6702794D01*
X7150933Y6705464D01*
X7144015Y6706375D01*
X7144013Y6706375D01*
X6934099D01*
X6934097Y6706375D01*
X6927179Y6705464D01*
X6920733Y6702794D01*
X6915197Y6698546D01*
X6915196Y6698545D01*
X6881100Y6664449D01*
X6876852Y6658913D01*
X6874182Y6652467D01*
X6873271Y6645549D01*
X6873271Y6645547D01*
Y5775002D01*
X6873271Y5775000D01*
X6874182Y5768082D01*
X6876852Y5761635D01*
X6881100Y5756100D01*
X6885771Y5751428D01*
Y5703649D01*
X6882413Y5701710D01*
X6873290Y5692587D01*
X6866839Y5681413D01*
X6863500Y5668951D01*
Y5656049D01*
X6866839Y5643587D01*
X6866860Y5643551D01*
X6873290Y5632413D01*
X6874835Y5610821D01*
X6869416Y5601904D01*
X6867495Y5592245D01*
Y5532755D01*
X6869416Y5523096D01*
X6874887Y5514908D01*
Y5497592D01*
X6869416Y5489404D01*
X6867495Y5479745D01*
Y5420255D01*
X6869416Y5410596D01*
X6874887Y5402408D01*
Y5385092D01*
X6869416Y5376904D01*
X6867495Y5367245D01*
Y5307755D01*
X6869416Y5298096D01*
X6874887Y5289908D01*
Y5272592D01*
X6869416Y5264404D01*
X6867495Y5254745D01*
Y5195255D01*
X6869416Y5185596D01*
X6869417Y5185594D01*
X6874887Y5177408D01*
Y5160092D01*
X6869416Y5151904D01*
X6867495Y5142245D01*
Y5089149D01*
X6863413Y5081623D01*
X6842328Y5060078D01*
X6834937Y5053458D01*
X6827110Y5049000D01*
X6818549D01*
X6806087Y5045661D01*
X6794913Y5039210D01*
X6785790Y5030087D01*
X6779339Y5018913D01*
X6776000Y5006451D01*
Y4999910D01*
X6770993Y4989795D01*
X6724396Y4974396D01*
X6724395Y4974397D01*
X6591823Y5106969D01*
X6591824Y5191471D01*
X6591824Y5199999D01*
X6591824Y5200000D01*
X6591824Y5200001D01*
X6590544Y5206438D01*
X6590542Y5206440D01*
X6586896Y5211896D01*
X6586895Y5211897D01*
X6574396Y5224396D01*
X6568939Y5228042D01*
X6568938Y5228043D01*
X6567870Y5228255D01*
Y5228256D01*
X6562501Y5229324D01*
X6562500Y5229325D01*
X6562500Y5229324D01*
X6555861Y5229324D01*
X6555860Y5229324D01*
X6553971Y5229324D01*
X6471030Y5229324D01*
X6469140Y5229324D01*
X6469139Y5229324D01*
X6462500Y5229324D01*
X6462499Y5229324D01*
X6456061Y5228044D01*
X6456060Y5228042D01*
X6450604Y5224396D01*
X6450603Y5224395D01*
X6438104Y5211896D01*
X6434457Y5206438D01*
X6433177Y5200002D01*
X6433176Y5200001D01*
X6433176Y5199999D01*
X6433177Y5191470D01*
Y5144469D01*
X6118031Y4829323D01*
X6012501D01*
X6012500Y4829324D01*
X6006062Y4828043D01*
X6000604Y4824396D01*
X6000603Y4824395D01*
X5943031Y4766823D01*
X5855944D01*
X5836810Y4813017D01*
X5911896Y4888104D01*
X5915543Y4893562D01*
X5916824Y4900000D01*
X5916823Y4900001D01*
X5916824Y5828971D01*
X5916824Y5830860D01*
X5916824Y5830860D01*
X5916824Y5837500D01*
X5916823Y5837501D01*
X5915543Y5843939D01*
X5915541Y5843940D01*
X5911896Y5849396D01*
X5911895Y5849397D01*
X5911500Y5849791D01*
Y5854001D01*
X5902462Y5858830D01*
X5899396Y5861896D01*
X5893938Y5865543D01*
X5887502Y5866823D01*
X5887500Y5866824D01*
X5887499Y5866824D01*
X5866811Y5866823D01*
X5687500Y5866824D01*
X5687499Y5866824D01*
X5687499Y5866824D01*
X5681061Y5865544D01*
X5681060Y5865541D01*
X5675604Y5861896D01*
X5675603Y5861895D01*
X5663105Y5849396D01*
X5663104Y5849396D01*
X5659458Y5843939D01*
X5659457Y5843938D01*
X5658176Y5837501D01*
X5658176Y5837500D01*
X5658176Y5837499D01*
X5658176Y5830860D01*
X5658176Y5830860D01*
X5658177Y5828970D01*
Y5016886D01*
X5652589Y5011890D01*
X5627321Y4997771D01*
X5608176Y4991806D01*
X5604765Y4992485D01*
X5555235D01*
X5545576Y4990563D01*
X5537387Y4985092D01*
X5531916Y4976903D01*
X5529995Y4967245D01*
X5516981Y4966296D01*
X5507453Y4965042D01*
X5502251Y4962887D01*
X5498574Y4961364D01*
X5490949Y4955513D01*
X5490948Y4955512D01*
X5423036Y4887601D01*
X5417186Y4879976D01*
X5413508Y4871097D01*
X5412253Y4861568D01*
Y4841923D01*
X5392600D01*
X5384172Y4840247D01*
X5377027Y4835473D01*
X5372253Y4828328D01*
X5370577Y4819900D01*
Y4770100D01*
X5372253Y4761672D01*
X5377027Y4754527D01*
X5384172Y4749753D01*
X5392600Y4748077D01*
X5482400D01*
X5490828Y4749753D01*
X5497972Y4754527D01*
X5502747Y4761672D01*
X5504423Y4770100D01*
Y4819900D01*
X5502747Y4828328D01*
X5497972Y4835472D01*
X5506561Y4852895D01*
X5545576Y4884436D01*
X5555235Y4882515D01*
X5604765D01*
X5608176Y4883193D01*
X5612381Y4881884D01*
X5629748Y4851511D01*
X5636267Y4834146D01*
X5634457Y4831438D01*
X5633176Y4824999D01*
X5633176Y4824998D01*
Y4775001D01*
X5633176Y4775000D01*
X5634457Y4768562D01*
X5638104Y4763104D01*
Y4736896D01*
X5634457Y4731438D01*
X5633176Y4725000D01*
X5633176Y4724999D01*
Y4675001D01*
X5633176Y4675000D01*
X5634457Y4668562D01*
X5638104Y4663104D01*
X5647253Y4638328D01*
X5645577Y4629900D01*
Y4607096D01*
X5645043Y4602475D01*
X5623034Y4580466D01*
X5617984Y4573886D01*
X5614810Y4566224D01*
X5613728Y4558000D01*
Y4528691D01*
X5610576Y4528064D01*
X5602388Y4522592D01*
X5596916Y4514404D01*
X5594995Y4504745D01*
Y4445255D01*
X5596916Y4435596D01*
X5602388Y4427408D01*
X5610576Y4421937D01*
X5620235Y4420015D01*
X5669765D01*
X5679424Y4421937D01*
X5687612Y4427408D01*
X5693084Y4435596D01*
X5695005Y4445255D01*
Y4504745D01*
X5694342Y4508077D01*
X5697854Y4519077D01*
X5722367Y4533294D01*
X5737054Y4536958D01*
X5784436Y4533076D01*
X5789907Y4524888D01*
X5798096Y4519416D01*
X5807755Y4517495D01*
X5867245D01*
X5876903Y4519416D01*
X5885092Y4524888D01*
X5890563Y4533076D01*
X5892485Y4542735D01*
Y4592265D01*
X5891806Y4595676D01*
X5897772Y4614823D01*
X5911891Y4640089D01*
X5916886Y4645677D01*
X6212500D01*
X6218938Y4646957D01*
X6224396Y4650604D01*
X6224396Y4650605D01*
X6269469Y4695677D01*
X6549999D01*
X6550000Y4695676D01*
X6556438Y4696957D01*
X6561896Y4700604D01*
X6561897Y4700605D01*
X6724396Y4863104D01*
X6725634Y4864956D01*
X6735771Y4868670D01*
X6772919Y4848306D01*
X6785771Y4828664D01*
Y4806414D01*
X6785771Y4806412D01*
X6786682Y4799494D01*
X6789352Y4793047D01*
X6793600Y4787511D01*
X6926127Y4654985D01*
X6905416Y4604985D01*
X6892734D01*
X6883076Y4603063D01*
X6874887Y4597592D01*
X6860730Y4591599D01*
X6831451Y4599000D01*
X6818549D01*
X6806087Y4595661D01*
X6794913Y4589210D01*
X6785790Y4580087D01*
X6779339Y4568913D01*
X6779229Y4568501D01*
X6729229Y4575084D01*
Y4618000D01*
X6728318Y4624918D01*
X6725648Y4631364D01*
X6721400Y4636900D01*
X6715864Y4641148D01*
X6709418Y4643818D01*
X6702500Y4644729D01*
X6622500D01*
X6615582Y4643818D01*
X6609136Y4641148D01*
X6603600Y4636900D01*
X6599352Y4631364D01*
X6596682Y4624918D01*
X6595771Y4618000D01*
Y4558000D01*
X6596682Y4551082D01*
X6599352Y4544636D01*
X6603600Y4539100D01*
X6609136Y4534852D01*
X6615582Y4532182D01*
X6615599Y4532180D01*
Y4075000D01*
X6300000D01*
X6175000Y4200000D01*
X5375000D01*
X5157328Y4417672D01*
X5178216Y4467495D01*
X5217245D01*
X5226903Y4469416D01*
X5235092Y4474888D01*
X5252408D01*
X5260597Y4469416D01*
X5270255Y4467495D01*
X5329745D01*
X5339404Y4469416D01*
X5347593Y4474888D01*
X5353064Y4483076D01*
X5354985Y4492735D01*
Y4504665D01*
X5356243Y4504831D01*
X5363905Y4508005D01*
X5370486Y4513054D01*
X5415509Y4558077D01*
X5482400D01*
X5490828Y4559753D01*
X5497972Y4564528D01*
X5502747Y4571672D01*
X5504423Y4580100D01*
Y4629900D01*
X5502747Y4638328D01*
X5497972Y4645473D01*
X5490828Y4650247D01*
X5482400Y4651923D01*
X5392600D01*
X5384172Y4650247D01*
X5377027Y4645473D01*
X5372253Y4638328D01*
X5370577Y4629900D01*
Y4603009D01*
X5334859Y4567292D01*
X5330817D01*
X5329745Y4567505D01*
X5274508D01*
X5268270Y4574902D01*
X5253043Y4618562D01*
X5253255Y4619631D01*
X5254324Y4625000D01*
X5254324Y4625000D01*
X5254324Y4625001D01*
X5254324Y4631640D01*
Y4687499D01*
X5254324Y4687500D01*
X5253043Y4693938D01*
X5249396Y4699396D01*
X5249395Y4699396D01*
X5216823Y4731969D01*
Y4930531D01*
X5361896Y5075604D01*
X5365543Y5081062D01*
X5366824Y5087500D01*
X5366823Y5087501D01*
X5366823Y6029299D01*
X5372444Y6039815D01*
X5377676Y6057063D01*
X5379443Y6075000D01*
Y6425000D01*
X5377676Y6442937D01*
X5372444Y6460185D01*
X5366823Y6470701D01*
Y6643032D01*
X5406968Y6683177D01*
X5687500D01*
X5693938Y6684457D01*
X5699396Y6688104D01*
X5699397Y6688105D01*
X5711896Y6700604D01*
X5755741Y6704199D01*
X5757466Y6704119D01*
X5763966Y6703650D01*
X5772594Y6700076D01*
X5784500Y6698509D01*
X5785443Y6698633D01*
X5857072Y6627004D01*
X5828427Y6598359D01*
X5823378Y6591779D01*
X5820204Y6584116D01*
X5819121Y6575893D01*
Y6476098D01*
X5738893D01*
Y6226182D01*
X5809286D01*
X5830171Y6195644D01*
X5836082Y6183139D01*
X5831916Y6176904D01*
X5829995Y6167245D01*
Y6107755D01*
X5831916Y6098096D01*
X5837387Y6089908D01*
X5845576Y6084436D01*
X5855235Y6082515D01*
X5904765D01*
X5914424Y6084436D01*
X5922612Y6089908D01*
X5949236Y6094329D01*
X5950763D01*
X5977388Y6089908D01*
X5985576Y6084436D01*
X5995235Y6082515D01*
X6044765D01*
X6054424Y6084436D01*
X6062612Y6089908D01*
X6067695Y6090794D01*
X6086814Y6086816D01*
X6112045Y6052273D01*
X6110670Y6044456D01*
X6098408Y6002953D01*
X6096093Y6001995D01*
X6089513Y5996946D01*
X6066568Y5974000D01*
X6056049D01*
X6043587Y5970661D01*
X6032413Y5964210D01*
X6023290Y5955087D01*
X6016839Y5943913D01*
X6013500Y5931451D01*
Y5918549D01*
X6016839Y5906087D01*
X6023290Y5894913D01*
X6032413Y5885790D01*
X6043587Y5879339D01*
X6056049Y5876000D01*
X6068951D01*
X6081413Y5879339D01*
X6092587Y5885790D01*
X6101710Y5894913D01*
X6108161Y5906087D01*
X6111500Y5918549D01*
X6132755Y5942495D01*
X6192244D01*
X6201903Y5944416D01*
X6214934Y5949887D01*
X6235065D01*
X6248096Y5944416D01*
X6257755Y5942495D01*
X6317245D01*
X6326904Y5944416D01*
X6335092Y5949887D01*
X6340564Y5958076D01*
X6342485Y5967735D01*
Y6017265D01*
X6340564Y6026923D01*
X6335092Y6035112D01*
X6326904Y6040583D01*
X6317245Y6042505D01*
X6257755D01*
X6234935Y6050930D01*
X6215563Y6098076D01*
X6217484Y6107735D01*
Y6157265D01*
X6215563Y6166924D01*
X6210092Y6175112D01*
X6201903Y6180584D01*
X6195771Y6181803D01*
Y6237531D01*
X6198027Y6239262D01*
X6205337Y6248789D01*
X6209932Y6259883D01*
X6211500Y6271789D01*
Y6430491D01*
X6209932Y6442397D01*
X6205337Y6453491D01*
X6198027Y6463018D01*
X6188500Y6470328D01*
X6177405Y6474924D01*
X6165500Y6476491D01*
X6153594Y6474924D01*
X6142500Y6470328D01*
X6132973Y6463018D01*
X6129126Y6458005D01*
X6102000Y6455594D01*
X6074873Y6458005D01*
X6071027Y6463018D01*
X6061500Y6470328D01*
X6050405Y6474924D01*
X6038500Y6476491D01*
X6026594Y6474924D01*
X6015500Y6470328D01*
X6005973Y6463018D01*
X6002126Y6458005D01*
X5975000Y6455594D01*
X5947873Y6458005D01*
X5944027Y6463018D01*
X5934500Y6470328D01*
X5923406Y6474924D01*
X5917731Y6512028D01*
X5921404Y6515709D01*
X5953286Y6536810D01*
X5961509Y6535728D01*
X6258909D01*
X6259437Y6533076D01*
X6264908Y6524887D01*
X6273096Y6519416D01*
X6282755Y6517495D01*
X6342245D01*
X6351904Y6519416D01*
X6360092Y6524887D01*
X6365564Y6533076D01*
X6367485Y6542735D01*
Y6592265D01*
X6365564Y6601924D01*
X6360093Y6610112D01*
X6355671Y6636736D01*
Y6638263D01*
X6360093Y6664888D01*
X6365564Y6673076D01*
X6367485Y6682735D01*
Y6732265D01*
X6365564Y6741924D01*
X6360092Y6750112D01*
X6351904Y6755584D01*
X6344272Y6757102D01*
Y6998868D01*
X6343189Y7007091D01*
X6340016Y7014754D01*
X6334966Y7021334D01*
X6246334Y7109966D01*
X6239754Y7115015D01*
X6232092Y7118189D01*
X6220388Y7143559D01*
X6216704Y7169271D01*
X6236946Y7189514D01*
X6241995Y7196094D01*
X6245169Y7203757D01*
X6245664Y7207515D01*
X6257265D01*
X6266924Y7209436D01*
X6275112Y7214907D01*
X6280584Y7223096D01*
X6282505Y7232755D01*
Y7292244D01*
X6280584Y7301903D01*
X6275112Y7310092D01*
X6266924Y7315563D01*
X6264272Y7316091D01*
Y7555000D01*
X6263189Y7563223D01*
X6260015Y7570886D01*
X6254966Y7577466D01*
X6184000Y7648432D01*
Y7756500D01*
X6174358D01*
Y7837500D01*
X7900642D01*
Y7756500D01*
D02*
G37*
G36*
X1052499Y6848991D02*
X982499Y6848992D01*
X979516D01*
X974003Y6851275D01*
X969783Y6855495D01*
X967499Y6861008D01*
Y6863992D01*
Y6866975D01*
X969783Y6872488D01*
X974003Y6876708D01*
X979516Y6878992D01*
X1052499D01*
Y6848991D01*
D02*
G37*
G36*
X655996Y6876708D02*
X660216Y6872488D01*
X662499Y6866975D01*
Y6863992D01*
Y6861008D01*
X660216Y6855495D01*
X655996Y6851275D01*
X650483Y6848992D01*
X647499D01*
Y6848991D01*
X577499D01*
Y6878992D01*
X650483D01*
X655996Y6876708D01*
D02*
G37*
G36*
X1052499Y6798991D02*
X979516D01*
X974003Y6801275D01*
X969783Y6805495D01*
X967499Y6811008D01*
Y6813991D01*
Y6816975D01*
X969783Y6822488D01*
X974003Y6826708D01*
X979516Y6828991D01*
X1052499D01*
Y6798991D01*
D02*
G37*
G36*
X655996Y6826708D02*
X660216Y6822488D01*
X662499Y6816975D01*
Y6813991D01*
Y6811008D01*
X660216Y6805495D01*
X655996Y6801275D01*
X650483Y6798991D01*
X577499D01*
Y6828991D01*
X650483D01*
X655996Y6826708D01*
D02*
G37*
G36*
X1052499Y6748992D02*
X979516D01*
X974003Y6751275D01*
X969783Y6755495D01*
X967499Y6761008D01*
Y6763992D01*
Y6766975D01*
X969783Y6772488D01*
X974003Y6776708D01*
X979516Y6778992D01*
X1052499D01*
Y6748992D01*
D02*
G37*
G36*
X655996Y6776708D02*
X660216Y6772488D01*
X662499Y6766975D01*
Y6763992D01*
Y6761008D01*
X660216Y6755495D01*
X655996Y6751275D01*
X650483Y6748992D01*
X577499D01*
Y6778992D01*
X650483D01*
X655996Y6776708D01*
D02*
G37*
G36*
X1052499Y6698991D02*
X979516D01*
X974003Y6701275D01*
X969783Y6705495D01*
X967499Y6711008D01*
Y6713991D01*
Y6716975D01*
X969783Y6722488D01*
X974003Y6726708D01*
X979516Y6728991D01*
X982499D01*
Y6728992D01*
X1052499D01*
Y6698991D01*
D02*
G37*
G36*
X647499Y6728991D02*
X650483D01*
X655996Y6726708D01*
X660216Y6722488D01*
X662499Y6716975D01*
Y6713991D01*
Y6711008D01*
X660216Y6705495D01*
X655996Y6701275D01*
X650483Y6698991D01*
X577499D01*
Y6728992D01*
X647499Y6728991D01*
D02*
G37*
G36*
X4280688Y6985753D02*
Y6757147D01*
X4273056Y6755629D01*
X4264868Y6750157D01*
X4259396Y6741969D01*
X4257475Y6732310D01*
Y6682780D01*
X4259396Y6673121D01*
X4264867Y6664933D01*
X4268096Y6645494D01*
X4239711Y6600199D01*
X4239026Y6599316D01*
X3974628D01*
X3924152Y6649793D01*
X3923875Y6667493D01*
X3933776Y6702313D01*
X3937560Y6707096D01*
X3943986Y6712027D01*
X3947832Y6717039D01*
X3974959Y6719450D01*
X4002086Y6717039D01*
X4005932Y6712027D01*
X4015459Y6704716D01*
X4026554Y6700121D01*
X4038459Y6698554D01*
X4050365Y6700121D01*
X4061459Y6704716D01*
X4070986Y6712027D01*
X4078297Y6721553D01*
X4082892Y6732648D01*
X4084459Y6744554D01*
Y6903256D01*
X4082892Y6915162D01*
X4078297Y6926256D01*
X4070986Y6935783D01*
X4083088Y6980741D01*
X4090891Y6988545D01*
X4188959D01*
Y7006771D01*
X4238959Y7027482D01*
X4280688Y6985753D01*
D02*
G37*
G36*
X8280728Y6985708D02*
Y6757103D01*
X8273096Y6755584D01*
X8264908Y6750113D01*
X8259437Y6741925D01*
X8257515Y6732266D01*
Y6682736D01*
X8259437Y6673077D01*
X8264908Y6664889D01*
X8268136Y6645450D01*
X8239752Y6600155D01*
X8239067Y6599272D01*
X7974669D01*
X7924192Y6649749D01*
X7923916Y6667448D01*
X7933816Y6702269D01*
X7937600Y6707051D01*
X7944027Y6711983D01*
X7947873Y6716995D01*
X7975000Y6719406D01*
X8002126Y6716995D01*
X8005973Y6711983D01*
X8015500Y6704672D01*
X8026594Y6700077D01*
X8038500Y6698509D01*
X8050406Y6700077D01*
X8061500Y6704672D01*
X8071027Y6711983D01*
X8078337Y6721510D01*
X8082933Y6732604D01*
X8084500Y6744509D01*
Y6903212D01*
X8082933Y6915117D01*
X8078337Y6926212D01*
X8071027Y6935738D01*
X8083128Y6980697D01*
X8090931Y6988500D01*
X8189000D01*
Y7006726D01*
X8239000Y7027437D01*
X8280728Y6985708D01*
D02*
G37*
G36*
X6280728Y6985708D02*
Y6757102D01*
X6273096Y6755584D01*
X6264908Y6750112D01*
X6259437Y6741924D01*
X6257515Y6732265D01*
Y6682735D01*
X6259437Y6673076D01*
X6264908Y6664888D01*
X6268136Y6645449D01*
X6239752Y6600154D01*
X6239067Y6599272D01*
X5974669D01*
X5924192Y6649748D01*
X5923916Y6667448D01*
X5933817Y6702269D01*
X5937601Y6707051D01*
X5944027Y6711982D01*
X5947873Y6716994D01*
X5975000Y6719405D01*
X6002126Y6716994D01*
X6005973Y6711982D01*
X6015500Y6704671D01*
X6026594Y6700076D01*
X6038500Y6698509D01*
X6050405Y6700076D01*
X6061500Y6704671D01*
X6071027Y6711982D01*
X6078337Y6721509D01*
X6082932Y6732603D01*
X6084500Y6744509D01*
Y6903211D01*
X6082932Y6915117D01*
X6078337Y6926211D01*
X6071027Y6935738D01*
X6083128Y6980696D01*
X6090931Y6988500D01*
X6189000D01*
Y7006726D01*
X6238999Y7027437D01*
X6280728Y6985708D01*
D02*
G37*
G36*
X1052499Y6648992D02*
X979516D01*
X974003Y6651275D01*
X969783Y6655495D01*
X967499Y6661008D01*
Y6663991D01*
Y6666975D01*
X969783Y6672488D01*
X974003Y6676708D01*
X979516Y6678991D01*
X1052499D01*
Y6648992D01*
D02*
G37*
G36*
X655996Y6676708D02*
X660216Y6672488D01*
X662499Y6666975D01*
Y6663991D01*
Y6661008D01*
X660216Y6655495D01*
X655996Y6651275D01*
X650483Y6648992D01*
X577499D01*
Y6678991D01*
X650483D01*
X655996Y6676708D01*
D02*
G37*
G36*
X948496Y6634208D02*
X952716Y6629988D01*
X954999Y6624475D01*
Y6621491D01*
Y6551492D01*
X924999D01*
Y6621491D01*
Y6624475D01*
X927283Y6629988D01*
X931503Y6634208D01*
X937016Y6636491D01*
X942983D01*
X948496Y6634208D01*
D02*
G37*
G36*
X898496D02*
X902716Y6629988D01*
X904999Y6624475D01*
Y6621491D01*
Y6551492D01*
X874999D01*
X875000Y6621491D01*
Y6624475D01*
X877283Y6629988D01*
X881503Y6634208D01*
X887016Y6636491D01*
X892983D01*
X898496Y6634208D01*
D02*
G37*
G36*
X848496D02*
X852716Y6629988D01*
X854999Y6624475D01*
Y6621491D01*
Y6551492D01*
X824999D01*
Y6621491D01*
Y6624475D01*
X827283Y6629988D01*
X831503Y6634208D01*
X837016Y6636491D01*
X842983D01*
X848496Y6634208D01*
D02*
G37*
G36*
X798496D02*
X802716Y6629988D01*
X804999Y6624475D01*
Y6621491D01*
Y6551492D01*
X774999D01*
Y6621491D01*
Y6624475D01*
X777283Y6629988D01*
X781503Y6634208D01*
X787016Y6636491D01*
X792983D01*
X798496Y6634208D01*
D02*
G37*
G36*
X748496D02*
X752716Y6629988D01*
X754999Y6624475D01*
Y6621491D01*
X755000D01*
Y6551492D01*
X724999D01*
Y6621491D01*
Y6624475D01*
X727283Y6629988D01*
X731502Y6634208D01*
X737016Y6636491D01*
X742983D01*
X748496Y6634208D01*
D02*
G37*
G36*
X698496D02*
X702716Y6629988D01*
X704999Y6624475D01*
Y6621491D01*
Y6551492D01*
X674999D01*
Y6621491D01*
Y6624475D01*
X677283Y6629988D01*
X681503Y6634208D01*
X687016Y6636491D01*
X692983D01*
X698496Y6634208D01*
D02*
G37*
G36*
X4887500Y6425000D02*
X4887500Y5975000D01*
X4850000Y5937500D01*
X4587500Y5937500D01*
X4550000Y5900000D01*
X4550000Y5430011D01*
X4424989Y5305000D01*
Y5137489D01*
X4400000Y5112500D01*
X4350000D01*
X4324989Y5137510D01*
X4324989Y5230000D01*
X4042490Y5512500D01*
X3912500D01*
X3875000Y5475000D01*
Y4812500D01*
X3212500Y4150000D01*
X2562499Y4150000D01*
X2527457Y4185043D01*
X2526710Y4186337D01*
X2517587Y4195460D01*
X2516293Y4196207D01*
X2506250Y4206250D01*
Y4293750D01*
X2562500Y4350000D01*
X3262499Y4349999D01*
X3600000Y4687500D01*
Y5125000D01*
X3525000Y5200000D01*
X3425000D01*
X3400000Y5225000D01*
Y5350000D01*
X3425000Y5375000D01*
X3524999Y5374999D01*
X3600000Y5450000D01*
X3600000Y5954990D01*
X3529990Y6025000D01*
X3450000D01*
X3400000Y6075000D01*
Y6175000D01*
X3425000Y6200000D01*
X3525000D01*
X3800000Y5925000D01*
X4362500D01*
X4562500Y6125000D01*
X4562500Y6425000D01*
X4587500Y6450000D01*
X4862500D01*
X4887500Y6425000D01*
D02*
G37*
G36*
X7293945Y5556988D02*
X7291497Y5550558D01*
X7264226Y5512392D01*
X7172741D01*
X7160605Y5510794D01*
X7149296Y5506110D01*
X7139584Y5498658D01*
X7132132Y5488946D01*
X7127448Y5477637D01*
X7125850Y5465500D01*
X7127448Y5453364D01*
X7127964Y5452117D01*
X7074708Y5398861D01*
X7024708Y5407877D01*
Y5595570D01*
X7100815Y5671677D01*
X7123469Y5685349D01*
X7144730Y5689579D01*
X7163761Y5689783D01*
X7168549Y5688500D01*
X7181451D01*
X7193913Y5691839D01*
X7205087Y5698290D01*
X7212525Y5705728D01*
X7293945D01*
Y5556988D01*
D02*
G37*
G36*
X2790056Y6077314D02*
X2798552Y6061419D01*
X2809986Y6047486D01*
X2823919Y6036052D01*
X2839815Y6027555D01*
X2857063Y6022323D01*
X2875000Y6020557D01*
X3225000D01*
X3242937Y6022323D01*
X3286126Y5989716D01*
X3279704Y5979252D01*
X3242937Y5952676D01*
X3225000Y5954442D01*
X2875000D01*
X2857063Y5952676D01*
X2839815Y5947444D01*
X2823919Y5938947D01*
X2809986Y5927513D01*
X2798552Y5913580D01*
X2790056Y5897684D01*
X2784823Y5880437D01*
X2783057Y5862499D01*
Y5712500D01*
X2784823Y5694562D01*
X2790056Y5677315D01*
X2798552Y5661419D01*
X2809986Y5647486D01*
X2823919Y5636052D01*
X2839815Y5627555D01*
X2857063Y5622323D01*
X2875000Y5620557D01*
X3225000D01*
X3242937Y5622323D01*
X3260185Y5627555D01*
X3276080Y5636052D01*
X3290013Y5647486D01*
X3301447Y5661419D01*
X3309944Y5677315D01*
X3315176Y5694562D01*
X3316943Y5712500D01*
Y5862499D01*
X3315176Y5880437D01*
X3311730Y5891798D01*
X3363599Y5943667D01*
X3368649Y5950247D01*
X3371823Y5957910D01*
X3372905Y5966133D01*
Y6007592D01*
X3422905Y6028303D01*
X3438104Y6013104D01*
X3443562Y6009457D01*
X3450000Y6008176D01*
X3450001Y6008176D01*
X3482149D01*
X3484199Y6006500D01*
X3483228Y5990598D01*
X3460725Y5953937D01*
X3457031Y5951625D01*
X3442974Y5945802D01*
X3427578Y5935515D01*
X3414485Y5922422D01*
X3404198Y5907026D01*
X3397112Y5889919D01*
X3393500Y5871758D01*
Y5853242D01*
X3397112Y5835081D01*
X3404198Y5817974D01*
X3414485Y5802578D01*
X3427578Y5789485D01*
X3442974Y5779198D01*
X3460081Y5772112D01*
X3478242Y5768500D01*
X3496758D01*
X3514919Y5772112D01*
X3532026Y5779198D01*
X3533176Y5779967D01*
X3573929Y5763570D01*
X3583176Y5754530D01*
X3583176Y5456968D01*
X3518031Y5391823D01*
X3425001Y5391823D01*
X3425000Y5391824D01*
X3418562Y5390543D01*
X3413104Y5386896D01*
X3413103Y5386895D01*
X3388104Y5361896D01*
X3384457Y5356438D01*
X3383176Y5350000D01*
X3383177Y5349999D01*
Y5225001D01*
X3383176Y5225000D01*
X3384457Y5218562D01*
X3388104Y5213104D01*
X3388105Y5213103D01*
X3413104Y5188104D01*
X3418562Y5184457D01*
X3425000Y5183176D01*
X3425001Y5183177D01*
X3470777D01*
X3472882Y5179665D01*
X3467562Y5158144D01*
X3448499Y5123090D01*
X3442974Y5120802D01*
X3427578Y5110515D01*
X3414485Y5097422D01*
X3404198Y5082026D01*
X3397112Y5064919D01*
X3393500Y5046758D01*
Y5028242D01*
X3397112Y5010081D01*
X3404198Y4992974D01*
X3414485Y4977578D01*
X3427578Y4964485D01*
X3442974Y4954198D01*
X3460081Y4947112D01*
X3478242Y4943500D01*
X3496758D01*
X3514919Y4947112D01*
X3532026Y4954198D01*
X3533177Y4954967D01*
X3573929Y4938570D01*
X3583176Y4929530D01*
Y4694468D01*
X3364036Y4475328D01*
X3319395Y4493229D01*
X3315462Y4497464D01*
X3316943Y4512500D01*
Y4662499D01*
X3315176Y4680437D01*
X3309944Y4697685D01*
X3301447Y4713580D01*
X3290013Y4727513D01*
X3276080Y4738947D01*
X3260185Y4747444D01*
X3242937Y4752676D01*
X3225000Y4754442D01*
X2875000D01*
X2857063Y4752676D01*
X2839815Y4747444D01*
X2823919Y4738947D01*
X2809986Y4727513D01*
X2798552Y4713580D01*
X2790056Y4697685D01*
X2784823Y4680437D01*
X2783057Y4662499D01*
Y4574103D01*
X2486499D01*
Y4603999D01*
X2409499D01*
X2363499Y4604000D01*
X2313499Y4603999D01*
X2236499Y4604000D01*
X2186499Y4603999D01*
X2109499Y4604000D01*
X2059499Y4603999D01*
X1982499Y4604000D01*
X1932499Y4603999D01*
X1855499Y4604000D01*
X1805499Y4603999D01*
X1728499Y4604000D01*
X1689728Y4631108D01*
Y4826928D01*
X2393900Y5531100D01*
X2398148Y5536636D01*
X2400818Y5543082D01*
X2401729Y5550000D01*
X2401729Y5550002D01*
Y5764648D01*
X2408499Y5774728D01*
X2419895Y5775025D01*
X2458499Y5747610D01*
X2458499Y5720999D01*
X2458499Y5644000D01*
X2458499Y5593999D01*
X2458499Y5517000D01*
X2458499Y5466999D01*
X2458499Y5390000D01*
X2458499Y5339999D01*
X2458499Y5263000D01*
X2458499Y5212999D01*
X2458499Y5136000D01*
X2458499Y5085999D01*
X2458499Y5009000D01*
X2458499Y4958999D01*
Y4882000D01*
X2641499D01*
Y4911413D01*
X2783164D01*
X2784823Y4894562D01*
X2790056Y4877315D01*
X2798552Y4861419D01*
X2809986Y4847486D01*
X2823919Y4836052D01*
X2839815Y4827555D01*
X2857063Y4822323D01*
X2875000Y4820557D01*
X3225000D01*
X3242937Y4822323D01*
X3260185Y4827555D01*
X3276080Y4836052D01*
X3290013Y4847486D01*
X3301447Y4861419D01*
X3309944Y4877315D01*
X3315176Y4894562D01*
X3316943Y4912500D01*
Y5062499D01*
X3315176Y5080437D01*
X3309944Y5097684D01*
X3301447Y5113580D01*
X3290013Y5127513D01*
X3276080Y5138947D01*
X3260185Y5147444D01*
X3242937Y5152676D01*
X3225000Y5154442D01*
X2875000D01*
X2857063Y5152676D01*
X2839815Y5147444D01*
X2823919Y5138947D01*
X2809986Y5127513D01*
X2798552Y5113580D01*
X2790056Y5097684D01*
X2784823Y5080437D01*
X2783057Y5062499D01*
Y4974956D01*
X2677398D01*
X2641499Y5009000D01*
X2641499Y5055000D01*
X2641499Y5132000D01*
X2641499Y5182000D01*
X2641499Y5259000D01*
X2641499Y5309000D01*
X2641499Y5386000D01*
X2641499Y5464605D01*
X2691499Y5485316D01*
X2717435Y5459380D01*
X2724015Y5454330D01*
X2731678Y5451156D01*
X2739901Y5450074D01*
X2783057D01*
Y5312500D01*
X2784823Y5294562D01*
X2790056Y5277315D01*
X2798552Y5261419D01*
X2809986Y5247486D01*
X2823919Y5236052D01*
X2839815Y5227555D01*
X2857063Y5222323D01*
X2875000Y5220557D01*
X3225000D01*
X3242937Y5222323D01*
X3260185Y5227555D01*
X3276080Y5236052D01*
X3290013Y5247486D01*
X3301447Y5261419D01*
X3309944Y5277315D01*
X3315176Y5294562D01*
X3316943Y5312500D01*
Y5462499D01*
X3315176Y5480437D01*
X3309944Y5497684D01*
X3301447Y5513580D01*
X3290013Y5527513D01*
X3276080Y5538947D01*
X3260185Y5547444D01*
X3242937Y5552676D01*
X3225000Y5554442D01*
X2875000D01*
X2857063Y5552676D01*
X2839815Y5547444D01*
X2823919Y5538947D01*
X2809986Y5527513D01*
X2801559Y5517244D01*
X2750951Y5515728D01*
X2713092Y5553587D01*
Y5893680D01*
X2712010Y5901903D01*
X2708836Y5909566D01*
X2703787Y5916146D01*
X2667036Y5952896D01*
X2660456Y5957946D01*
X2652793Y5961120D01*
X2644570Y5962202D01*
X2641499D01*
Y6021000D01*
X2548747D01*
X2522021Y6071000D01*
X2528522Y6080728D01*
X2789020D01*
X2790056Y6077314D01*
D02*
G37*
G36*
X4925000Y5400000D02*
Y5262500D01*
X4687500Y5025000D01*
Y4925000D01*
X4675000Y4912500D01*
X4475000D01*
X4400000Y4987500D01*
Y5062500D01*
X4537500Y5200000D01*
X4537500Y5287500D01*
X4662500Y5412500D01*
X4912500D01*
X4925000Y5400000D01*
D02*
G37*
G36*
X7129563Y5165212D02*
X7136360Y5113456D01*
X7132132Y5107946D01*
X7127448Y5096637D01*
X7125850Y5084500D01*
X7127448Y5072364D01*
X7132132Y5061055D01*
X7139584Y5051343D01*
X7149296Y5043891D01*
X7160605Y5039207D01*
X7172741Y5037609D01*
X7264226D01*
X7293945Y5000154D01*
Y4544488D01*
X7291497Y4538057D01*
X7264226Y4499891D01*
X7172741D01*
X7160605Y4498294D01*
X7149296Y4493609D01*
X7139584Y4486157D01*
X7132132Y4476446D01*
X7127448Y4465136D01*
X7125850Y4453000D01*
X7127448Y4440864D01*
X7127964Y4439616D01*
X7079152Y4390804D01*
X7025739Y4397865D01*
X7014229Y4427283D01*
Y4631409D01*
X7014229Y4631411D01*
X7013318Y4638329D01*
X7010648Y4644776D01*
X7006400Y4650312D01*
X7006399Y4650312D01*
X6839229Y4817483D01*
Y4871351D01*
X6842587Y4873290D01*
X6851710Y4882413D01*
X6853649Y4885771D01*
X6962498D01*
X6962500Y4885771D01*
X6969418Y4886682D01*
X6975864Y4889352D01*
X6981400Y4893600D01*
X7016880Y4929080D01*
X7021127Y4934615D01*
X7023798Y4941062D01*
X7024709Y4947980D01*
X7024708Y4947982D01*
Y5163428D01*
X7032735Y5170015D01*
X7082265D01*
X7091924Y5171937D01*
X7096212Y5174802D01*
X7129563Y5165212D01*
D02*
G37*
G36*
X5900000Y5837500D02*
Y4900000D01*
X5762500Y4762500D01*
X5662500D01*
X5650000Y4775000D01*
Y4824999D01*
X5675000Y4850000D01*
Y5837500D01*
X5687500Y5850000D01*
X5887500D01*
X5900000Y5837500D01*
D02*
G37*
G36*
X6575000Y5200000D02*
Y5100000D01*
X6712500Y4962500D01*
Y4875000D01*
X6550000Y4712500D01*
X6262500D01*
X6212500Y4662500D01*
X5662500D01*
X5650000Y4675000D01*
Y4725000D01*
X5662500Y4737500D01*
X5775000D01*
X5787500Y4750000D01*
X5950000D01*
X6012500Y4812500D01*
X6125000D01*
X6450000Y5137500D01*
Y5200000D01*
X6462500Y5212500D01*
X6562500D01*
X6575000Y5200000D01*
D02*
G37*
G36*
X5700000Y6862500D02*
Y6712500D01*
X5687500Y6700000D01*
X5400000D01*
X5350000Y6650000D01*
X5350000Y5087500D01*
X5200000Y4937500D01*
Y4725000D01*
X5237500Y4687500D01*
Y4625000D01*
X5225000Y4612500D01*
X5112500D01*
X5074999Y4650000D01*
Y4762501D01*
X4912500Y4925000D01*
Y5025000D01*
X4925000Y5037500D01*
X5050000D01*
X5075000Y5062500D01*
X5075000Y5200000D01*
Y6600000D01*
X5350000Y6875000D01*
X5687500D01*
X5700000Y6862500D01*
D02*
G37*
G36*
X2784823Y4494563D02*
X2790056Y4477315D01*
X2798552Y4461419D01*
X2809986Y4447486D01*
X2823919Y4436052D01*
X2839815Y4427556D01*
X2857063Y4422323D01*
X2875000Y4420557D01*
X3189291D01*
X3217146Y4370557D01*
X3214835Y4366823D01*
X2562501Y4366823D01*
X2562500Y4366823D01*
X2556062Y4365543D01*
X2550603Y4361896D01*
X2550603Y4361895D01*
X2494354Y4305646D01*
X2490707Y4300188D01*
X2489426Y4293750D01*
X2489427Y4293749D01*
Y4206251D01*
X2489426Y4206250D01*
X2490707Y4199812D01*
X2494354Y4194354D01*
X2500000Y4188708D01*
Y4050000D01*
X2450000Y4000000D01*
X1161283D01*
X1126898Y4030196D01*
X1122359Y4042694D01*
X1145235Y4070015D01*
X1194765D01*
X1204424Y4071936D01*
X1212612Y4077408D01*
X1218083Y4085596D01*
X1220005Y4095255D01*
Y4154745D01*
X1218083Y4164404D01*
X1212612Y4172592D01*
X1204424Y4178064D01*
X1194765Y4179985D01*
X1164967D01*
X1080005Y4264947D01*
Y4304745D01*
X1078084Y4314404D01*
X1072613Y4322592D01*
X1066789Y4338061D01*
X1073999Y4368549D01*
Y4379077D01*
X1076397Y4384231D01*
X1102301Y4414272D01*
X1112756Y4420999D01*
X1139499Y4421000D01*
X1216499Y4420999D01*
X1266499Y4421000D01*
X1343499Y4420999D01*
X1393499Y4421000D01*
X1470499Y4420999D01*
X1520499Y4421000D01*
X1597499Y4420999D01*
X1622394D01*
X1638961Y4385569D01*
X1618238Y4369807D01*
X1617244Y4370005D01*
X1557755D01*
X1548096Y4368083D01*
X1539907Y4362612D01*
X1534436Y4354424D01*
X1532515Y4344765D01*
Y4295235D01*
X1534436Y4285576D01*
X1539907Y4277387D01*
X1548096Y4271916D01*
X1557755Y4269995D01*
X1615336D01*
X1622546Y4264968D01*
X1644963Y4243716D01*
X1650680Y4234788D01*
X1653259Y4227740D01*
X1652407Y4222612D01*
X1646936Y4214423D01*
X1645015Y4204765D01*
Y4155235D01*
X1646936Y4145576D01*
X1652408Y4137387D01*
X1660033Y4130746D01*
X1654340Y4118915D01*
X1654339Y4118913D01*
X1651000Y4106451D01*
Y4093549D01*
X1654339Y4081086D01*
X1660790Y4069913D01*
X1669913Y4060790D01*
X1681087Y4054339D01*
X1693549Y4051000D01*
X1706451D01*
X1718914Y4054339D01*
X1730087Y4060790D01*
X1739210Y4069913D01*
X1745661Y4081086D01*
X1749000Y4093549D01*
Y4106451D01*
X1745661Y4118913D01*
X1745660Y4118915D01*
X1739967Y4130746D01*
X1747592Y4137387D01*
X1753064Y4145576D01*
X1754985Y4155235D01*
Y4204765D01*
X1753064Y4214423D01*
X1749173Y4220245D01*
X1750206Y4227555D01*
X1780562Y4267135D01*
X1784664Y4269995D01*
X1798210Y4269995D01*
X1840336D01*
X1847546Y4264969D01*
X1869963Y4243716D01*
X1875680Y4234789D01*
X1878260Y4227740D01*
X1877408Y4222612D01*
X1871937Y4214424D01*
X1870015Y4204765D01*
Y4155235D01*
X1871937Y4145576D01*
X1877408Y4137387D01*
X1885033Y4130746D01*
X1879340Y4118915D01*
X1879339Y4118913D01*
X1876000Y4106451D01*
Y4093549D01*
X1879339Y4081087D01*
X1885790Y4069913D01*
X1894914Y4060790D01*
X1906087Y4054339D01*
X1918549Y4051000D01*
X1931452D01*
X1943914Y4054339D01*
X1955087Y4060790D01*
X1964210Y4069913D01*
X1970662Y4081087D01*
X1974001Y4093549D01*
Y4106451D01*
X1970662Y4118913D01*
X1970661Y4118915D01*
X1964967Y4130746D01*
X1972593Y4137388D01*
X1978064Y4145576D01*
X1979985Y4155235D01*
Y4204765D01*
X1978064Y4214424D01*
X1974174Y4220245D01*
X1975207Y4227558D01*
X2005559Y4267132D01*
X2009664Y4269995D01*
X2023210Y4269995D01*
X2065336D01*
X2072544Y4264970D01*
X2094963Y4243716D01*
X2100680Y4234788D01*
X2103259Y4227740D01*
X2102408Y4222612D01*
X2096936Y4214423D01*
X2095015Y4204765D01*
Y4155235D01*
X2096936Y4145576D01*
X2102408Y4137387D01*
X2110033Y4130746D01*
X2104340Y4118915D01*
X2104339Y4118913D01*
X2101000Y4106451D01*
Y4093549D01*
X2104339Y4081086D01*
X2110790Y4069913D01*
X2119913Y4060790D01*
X2131087Y4054339D01*
X2143549Y4051000D01*
X2156451D01*
X2168914Y4054339D01*
X2180087Y4060790D01*
X2189210Y4069913D01*
X2195661Y4081086D01*
X2199000Y4093549D01*
Y4106451D01*
X2195662Y4118913D01*
X2195660Y4118915D01*
X2189967Y4130746D01*
X2197593Y4137387D01*
X2203064Y4145576D01*
X2204985Y4155235D01*
Y4204765D01*
X2203064Y4214423D01*
X2199173Y4220245D01*
X2200206Y4227555D01*
X2230562Y4267135D01*
X2234664Y4269995D01*
X2248210Y4269995D01*
X2290337D01*
X2297546Y4264969D01*
X2319963Y4243716D01*
X2325680Y4234789D01*
X2328260Y4227740D01*
X2327408Y4222612D01*
X2321937Y4214424D01*
X2320015Y4204765D01*
Y4155235D01*
X2321937Y4145576D01*
X2327408Y4137387D01*
X2335033Y4130746D01*
X2329341Y4118915D01*
X2329339Y4118913D01*
X2326000Y4106451D01*
Y4093549D01*
X2329340Y4081087D01*
X2335791Y4069913D01*
X2344914Y4060790D01*
X2356087Y4054339D01*
X2368549Y4051000D01*
X2381452D01*
X2393914Y4054339D01*
X2405087Y4060790D01*
X2414211Y4069913D01*
X2420662Y4081087D01*
X2424001Y4093549D01*
Y4106451D01*
X2420662Y4118913D01*
X2420661Y4118915D01*
X2414967Y4130746D01*
X2422593Y4137388D01*
X2428064Y4145576D01*
X2429985Y4155235D01*
Y4204765D01*
X2428064Y4214424D01*
X2422593Y4222612D01*
X2418171Y4249236D01*
Y4250763D01*
X2422593Y4277388D01*
X2428064Y4285576D01*
X2429985Y4295235D01*
Y4344765D01*
X2428064Y4354424D01*
X2422593Y4362612D01*
X2414404Y4368084D01*
X2404745Y4370005D01*
X2345255D01*
X2344261Y4369807D01*
X2323540Y4385568D01*
X2340108Y4420999D01*
X2359499D01*
X2409499Y4421000D01*
X2486499D01*
Y4510560D01*
X2783248D01*
X2784823Y4494563D01*
D02*
G37*
G36*
X4140000Y4450000D02*
Y4150000D01*
X4100000Y4110000D01*
X3470000D01*
X3440000Y4140000D01*
Y4270000D01*
X3440000D01*
X3660000Y4490000D01*
X4100000D01*
X4140000Y4450000D01*
D02*
G37*
G36*
X950000Y4250000D02*
X1012500Y4187500D01*
X1050000Y4187500D01*
X1075000Y4162500D01*
Y4050000D01*
X1050000Y4025000D01*
X875000Y4025000D01*
X850000Y4050000D01*
X850000Y4600000D01*
X950000D01*
Y4250000D01*
D02*
G37*
G36*
X5312500Y4150000D02*
X6150000Y4150000D01*
X6300000Y4000000D01*
X6600000D01*
X6850000Y3750000D01*
X7100000D01*
X7150000Y3700000D01*
X7150000Y2950000D01*
X7100000Y2900000D01*
X6600000D01*
X6550000Y2950000D01*
Y3450000D01*
X6400000Y3600000D01*
X5100000D01*
X5050000Y3550000D01*
Y3000000D01*
X4950000Y2900000D01*
X4500000D01*
X4400000Y3000000D01*
Y3550000D01*
X4350000Y3600000D01*
X2950000D01*
X2900000Y3550000D01*
Y3000000D01*
X2800000Y2900000D01*
X2350000D01*
X2250000Y3000000D01*
Y3550000D01*
X2200000Y3600000D01*
X1450000D01*
X750000Y2900000D01*
Y2700000D01*
X1000000Y2450000D01*
Y2150000D01*
X850000Y2000000D01*
X200000D01*
X150000Y2050000D01*
Y2950000D01*
X149999Y3849999D01*
X200000Y3900000D01*
X2537500D01*
Y4000000D01*
X4100000D01*
X4250000Y4150000D01*
Y4450000D01*
X4300000Y4500000D01*
X4962500D01*
X5312500Y4150000D01*
D02*
G37*
G36*
X8600000Y3450000D02*
Y2150000D01*
X8450000Y2000000D01*
X8100000D01*
X7950000Y2150000D01*
Y3500000D01*
X8012500Y3562500D01*
X8487500D01*
X8600000Y3450000D01*
D02*
G37*
G36*
X6400000Y3500000D02*
Y3000000D01*
X6699840Y2700160D01*
X6699840Y2150000D01*
X6549840Y2000000D01*
X6299840D01*
X5800000Y2499842D01*
Y3500000D01*
X5862500Y3562500D01*
X6337500D01*
X6400000Y3500000D01*
D02*
G37*
G36*
X4200000D02*
X4200000Y3099998D01*
X4799920Y2500078D01*
X4799920Y2150000D01*
X4649920Y2000000D01*
X4399920D01*
X3650000Y2749924D01*
Y3500000D01*
X3712500Y3562500D01*
X4137500D01*
X4200000Y3500000D01*
D02*
G37*
G36*
X2200000Y3500000D02*
Y2975000D01*
X2325000Y2850000D01*
X2500000D01*
X2900000Y2450000D01*
Y2150000D01*
X2750000Y2000000D01*
X2500000D01*
X1500000Y3000005D01*
Y3500000D01*
X1562500Y3562500D01*
X2137500D01*
X2200000Y3500000D01*
D02*
G37*
G36*
X7912500Y2800000D02*
Y2112500D01*
X8275000Y1750000D01*
X9969413D01*
Y500000D01*
Y469234D01*
X9961381Y408225D01*
X9945455Y348787D01*
X9921907Y291938D01*
X9891141Y238649D01*
X9853681Y189830D01*
X9810170Y146319D01*
X9761351Y108859D01*
X9708062Y78093D01*
X9651212Y54544D01*
X9591774Y38618D01*
X9530766Y30586D01*
X469233D01*
X408225Y38618D01*
X348787Y54544D01*
X291938Y78093D01*
X238649Y108859D01*
X189830Y146319D01*
X146319Y189829D01*
X108859Y238648D01*
X78093Y291938D01*
X54544Y348787D01*
X38618Y408225D01*
X30586Y469234D01*
Y500000D01*
Y1900000D01*
X812500D01*
X1037500Y2125000D01*
Y2512500D01*
X787500Y2762500D01*
Y2812500D01*
X812500Y2837500D01*
X1587500Y2837500D01*
X2475000Y1950000D01*
X2800000D01*
X2937500Y2087500D01*
Y2512499D01*
X2900001Y2549999D01*
X2899999Y2799999D01*
X2950000Y2850000D01*
X3550000Y2850000D01*
X3600000Y2800000D01*
Y2750000D01*
X3287500Y2437500D01*
Y2150000D01*
X3687500Y1750000D01*
X4500000D01*
X4837500Y2087500D01*
Y2737500D01*
X4949999Y2850000D01*
X5700000D01*
X5750000Y2800000D01*
Y2700000D01*
X5650000Y2600000D01*
X5350000D01*
X5150000Y2400000D01*
Y2187500D01*
X5587500Y1750000D01*
X6400000D01*
X6737500Y2087500D01*
Y2700000D01*
X6887500Y2850000D01*
X7862500D01*
X7912500Y2800000D01*
D02*
G37*
%LPC*%
G36*
X9517774Y9816500D02*
X9482226D01*
X9446901Y9812520D01*
X9412243Y9804609D01*
X9378690Y9792868D01*
X9346662Y9777445D01*
X9316562Y9758531D01*
X9288769Y9736367D01*
X9263632Y9711231D01*
X9241468Y9683438D01*
X9222555Y9653338D01*
X9207131Y9621310D01*
X9195390Y9587756D01*
X9187480Y9553099D01*
X9183500Y9517774D01*
Y9482226D01*
X9187480Y9446901D01*
X9195390Y9412243D01*
X9207131Y9378690D01*
X9222555Y9346662D01*
X9241468Y9316562D01*
X9263632Y9288769D01*
X9288769Y9263632D01*
X9316562Y9241468D01*
X9346662Y9222555D01*
X9378690Y9207131D01*
X9412243Y9195390D01*
X9446901Y9187480D01*
X9482226Y9183500D01*
X9517774D01*
X9553099Y9187480D01*
X9587756Y9195390D01*
X9621310Y9207131D01*
X9653338Y9222555D01*
X9683438Y9241468D01*
X9711231Y9263632D01*
X9736367Y9288769D01*
X9758531Y9316562D01*
X9777445Y9346662D01*
X9792868Y9378690D01*
X9804609Y9412243D01*
X9812520Y9446901D01*
X9816500Y9482226D01*
Y9517774D01*
X9812520Y9553099D01*
X9804609Y9587756D01*
X9792868Y9621310D01*
X9777445Y9653338D01*
X9758531Y9683438D01*
X9736367Y9711231D01*
X9711231Y9736367D01*
X9683438Y9758531D01*
X9653338Y9777445D01*
X9621310Y9792868D01*
X9587756Y9804609D01*
X9553099Y9812520D01*
X9517774Y9816500D01*
D02*
G37*
G36*
X517774D02*
X482226D01*
X446901Y9812520D01*
X412244Y9804609D01*
X378690Y9792868D01*
X346662Y9777445D01*
X316562Y9758531D01*
X288769Y9736367D01*
X263632Y9711231D01*
X241468Y9683438D01*
X222555Y9653338D01*
X207131Y9621310D01*
X195391Y9587756D01*
X187480Y9553099D01*
X183500Y9517774D01*
Y9482226D01*
X187480Y9446901D01*
X195391Y9412243D01*
X207131Y9378690D01*
X222555Y9346662D01*
X241468Y9316562D01*
X263632Y9288769D01*
X288769Y9263632D01*
X316562Y9241468D01*
X346662Y9222555D01*
X378690Y9207131D01*
X412244Y9195390D01*
X446901Y9187480D01*
X482226Y9183500D01*
X517774D01*
X553099Y9187480D01*
X587757Y9195390D01*
X621310Y9207131D01*
X653338Y9222555D01*
X683438Y9241468D01*
X711231Y9263632D01*
X736368Y9288769D01*
X758532Y9316562D01*
X777445Y9346662D01*
X792869Y9378690D01*
X804610Y9412243D01*
X812520Y9446901D01*
X816500Y9482226D01*
Y9517774D01*
X812520Y9553099D01*
X804610Y9587756D01*
X792869Y9621310D01*
X777445Y9653338D01*
X758532Y9683438D01*
X736368Y9711231D01*
X711231Y9736367D01*
X683438Y9758531D01*
X653338Y9777445D01*
X621310Y9792868D01*
X587757Y9804609D01*
X553099Y9812520D01*
X517774Y9816500D01*
D02*
G37*
G36*
X6412865Y5919661D02*
X6399963D01*
X6387500Y5916322D01*
X6376327Y5909871D01*
X6367204Y5900748D01*
X6360753Y5889574D01*
X6357413Y5877112D01*
Y5864210D01*
X6358417Y5860465D01*
X6327925Y5829973D01*
X6327924Y5829972D01*
X6081100Y5583148D01*
X6076852Y5577612D01*
X6074182Y5571166D01*
X6073271Y5564248D01*
X6073271Y5564246D01*
Y5441149D01*
X6069913Y5439210D01*
X6060790Y5430087D01*
X6054339Y5418913D01*
X6051000Y5406451D01*
Y5393549D01*
X6054339Y5381087D01*
X6060790Y5369913D01*
X6069913Y5360790D01*
X6081087Y5354339D01*
X6093549Y5351000D01*
X6106451D01*
X6118913Y5354339D01*
X6130087Y5360790D01*
X6139210Y5369913D01*
X6145661Y5381087D01*
X6149000Y5393549D01*
Y5406451D01*
X6153299Y5416248D01*
X6174833Y5445067D01*
X6181451Y5451000D01*
X6193913Y5454339D01*
X6205087Y5460790D01*
X6214210Y5469913D01*
X6220661Y5481087D01*
X6224000Y5493549D01*
Y5506451D01*
X6222997Y5510196D01*
X6389803Y5677003D01*
X6393549Y5676000D01*
X6406451D01*
X6418913Y5679339D01*
X6430087Y5685790D01*
X6439210Y5694913D01*
X6445661Y5706087D01*
X6449000Y5718549D01*
Y5731451D01*
X6445661Y5743913D01*
X6439210Y5755087D01*
X6430087Y5764210D01*
X6418913Y5770661D01*
X6415767Y5771504D01*
X6415207Y5772631D01*
X6414918Y5778669D01*
X6425327Y5825000D01*
X6436500Y5831451D01*
X6445624Y5840574D01*
X6452075Y5851748D01*
X6455414Y5864210D01*
Y5877112D01*
X6452075Y5889574D01*
X6445624Y5900748D01*
X6436500Y5909871D01*
X6425327Y5916322D01*
X6412865Y5919661D01*
D02*
G37*
G36*
X6781451Y5786500D02*
X6768549D01*
X6756087Y5783161D01*
X6744913Y5776710D01*
X6735790Y5767587D01*
X6729339Y5756413D01*
X6728102Y5751799D01*
X6520032Y5543729D01*
X6472500D01*
X6465582Y5542818D01*
X6459136Y5540148D01*
X6453600Y5535900D01*
X6449352Y5530364D01*
X6446682Y5523918D01*
X6445771Y5517000D01*
Y5457000D01*
X6446682Y5450082D01*
X6449352Y5443636D01*
X6453600Y5438100D01*
X6459136Y5433852D01*
X6465582Y5431182D01*
X6472500Y5430271D01*
X6552500D01*
X6559418Y5431182D01*
X6565864Y5433852D01*
X6571400Y5438100D01*
X6575648Y5443636D01*
X6578318Y5450082D01*
X6579229Y5457000D01*
Y5484532D01*
X6783835Y5689139D01*
X6793913Y5691839D01*
X6805087Y5698290D01*
X6814210Y5707413D01*
X6820661Y5718587D01*
X6824000Y5731049D01*
Y5743951D01*
X6820661Y5756413D01*
X6814210Y5767587D01*
X6805087Y5776710D01*
X6793913Y5783161D01*
X6781451Y5786500D01*
D02*
G37*
G36*
X3756451Y5686500D02*
X3743549D01*
X3731087Y5683161D01*
X3719913Y5676710D01*
X3710790Y5667587D01*
X3704339Y5656413D01*
X3701000Y5643951D01*
Y5631049D01*
X3704339Y5618587D01*
X3710790Y5607413D01*
X3719913Y5598290D01*
X3731087Y5591839D01*
X3743549Y5588500D01*
X3756451D01*
X3768913Y5591839D01*
X3780087Y5598290D01*
X3789210Y5607413D01*
X3795661Y5618587D01*
X3799000Y5631049D01*
Y5643951D01*
X3795661Y5656413D01*
X3789210Y5667587D01*
X3780087Y5676710D01*
X3768913Y5683161D01*
X3756451Y5686500D01*
D02*
G37*
G36*
X3756452Y4949000D02*
X3743550D01*
X3731088Y4945661D01*
X3719915Y4939210D01*
X3710791Y4930087D01*
X3704340Y4918913D01*
X3701001Y4906451D01*
Y4893549D01*
X3704340Y4881087D01*
X3710791Y4869913D01*
X3719915Y4860790D01*
X3731088Y4854339D01*
X3743550Y4851000D01*
X3756452D01*
X3768915Y4854339D01*
X3780088Y4860790D01*
X3789211Y4869913D01*
X3795662Y4881087D01*
X3799002Y4893549D01*
Y4906451D01*
X3795662Y4918913D01*
X3789211Y4930087D01*
X3780088Y4939210D01*
X3768915Y4945661D01*
X3756452Y4949000D01*
D02*
G37*
G36*
X7374900Y2599671D02*
X7341347Y2597787D01*
X7308217Y2592158D01*
X7275925Y2582855D01*
X7244877Y2569995D01*
X7215465Y2553739D01*
X7188058Y2534293D01*
X7163000Y2511900D01*
X7140607Y2486842D01*
X7121161Y2459435D01*
X7104905Y2430023D01*
X7092045Y2398975D01*
X7082742Y2366683D01*
X7077113Y2333553D01*
X7075228Y2300000D01*
X7077113Y2266447D01*
X7082742Y2233317D01*
X7092045Y2201025D01*
X7104905Y2169977D01*
X7121161Y2140565D01*
X7140607Y2113158D01*
X7163000Y2088100D01*
X7188058Y2065707D01*
X7215465Y2046261D01*
X7244877Y2030005D01*
X7275925Y2017145D01*
X7308217Y2007842D01*
X7341347Y2002213D01*
X7374900Y2000328D01*
X7408453Y2002213D01*
X7441583Y2007842D01*
X7473875Y2017145D01*
X7504923Y2030005D01*
X7534335Y2046261D01*
X7561742Y2065707D01*
X7586800Y2088100D01*
X7609193Y2113158D01*
X7628639Y2140565D01*
X7644895Y2169977D01*
X7657755Y2201025D01*
X7667058Y2233317D01*
X7672687Y2266447D01*
X7674571Y2300000D01*
X7672687Y2333553D01*
X7667058Y2366683D01*
X7657755Y2398975D01*
X7644895Y2430023D01*
X7628639Y2459435D01*
X7609193Y2486842D01*
X7586800Y2511900D01*
X7561742Y2534293D01*
X7534335Y2553739D01*
X7504923Y2569995D01*
X7473875Y2582855D01*
X7441583Y2592158D01*
X7408453Y2597787D01*
X7374900Y2599671D01*
D02*
G37*
G36*
X7006451Y874000D02*
X6993549D01*
X6981087Y870661D01*
X6969913Y864210D01*
X6965938Y860234D01*
X6949706Y861223D01*
X6947665Y862354D01*
X6947492Y862612D01*
X6939304Y868084D01*
X6929645Y870005D01*
X6870155D01*
X6860496Y868084D01*
X6852308Y862612D01*
X6846836Y854424D01*
X6844915Y844765D01*
Y795235D01*
X6846836Y785576D01*
X6852308Y777388D01*
X6860496Y771916D01*
X6870155Y769995D01*
X6929645D01*
X6939304Y771916D01*
X6947492Y777388D01*
X6952436Y784787D01*
X6958625Y786142D01*
X6968567Y787136D01*
X6969913Y785790D01*
X6981087Y779339D01*
X6993549Y776000D01*
X7006451D01*
X7018913Y779339D01*
X7030087Y785790D01*
X7039210Y794913D01*
X7045661Y806087D01*
X7049000Y818549D01*
Y831451D01*
X7045661Y843913D01*
X7039210Y855087D01*
X7030087Y864210D01*
X7018913Y870661D01*
X7006451Y874000D01*
D02*
G37*
G36*
X8829595Y870005D02*
X8770105D01*
X8760446Y868084D01*
X8752258Y862612D01*
X8746786Y854424D01*
X8745398Y847445D01*
X8734423D01*
X8726200Y846363D01*
X8718538Y843189D01*
X8711957Y838139D01*
X8157404Y283586D01*
X8152355Y277006D01*
X8149181Y269343D01*
X8148098Y261120D01*
Y148645D01*
X8142040Y142587D01*
X8135589Y131413D01*
X8132250Y118951D01*
Y106049D01*
X8135589Y93587D01*
X8142040Y82413D01*
X8151163Y73290D01*
X8162337Y66839D01*
X8174799Y63500D01*
X8187701D01*
X8200163Y66839D01*
X8211337Y73290D01*
X8220460Y82413D01*
X8226911Y93587D01*
X8230250Y106049D01*
Y118951D01*
X8226911Y131413D01*
X8220460Y142587D01*
X8211642Y151405D01*
Y247959D01*
X8736962Y773280D01*
X8752258Y777388D01*
X8760446Y771916D01*
X8770105Y769995D01*
X8829595D01*
X8839254Y771916D01*
X8847442Y777388D01*
X8852913Y785576D01*
X8854835Y795235D01*
Y844765D01*
X8852913Y854424D01*
X8847442Y862612D01*
X8839254Y868084D01*
X8829595Y870005D01*
D02*
G37*
G36*
X443951Y1161500D02*
X431049D01*
X418587Y1158161D01*
X407413Y1151710D01*
X398290Y1142587D01*
X391839Y1131413D01*
X388500Y1118951D01*
Y1106049D01*
X391839Y1093587D01*
X398290Y1082413D01*
X407413Y1073290D01*
X418587Y1066839D01*
X431049Y1063500D01*
X441568D01*
X707534Y797534D01*
X714114Y792485D01*
X721777Y789311D01*
X730000Y788228D01*
X1146408D01*
X1146936Y785576D01*
X1152407Y777388D01*
X1160596Y771916D01*
X1170255Y769995D01*
X1229745D01*
X1239403Y771916D01*
X1247592Y777388D01*
X1253063Y785576D01*
X1254985Y795235D01*
Y844765D01*
X1253063Y854424D01*
X1247592Y862612D01*
X1239403Y868084D01*
X1229745Y870005D01*
X1170255D01*
X1160596Y868084D01*
X1152407Y862612D01*
X1146936Y854424D01*
X1146408Y851772D01*
X743160D01*
X486500Y1108432D01*
Y1118951D01*
X483161Y1131413D01*
X476710Y1142587D01*
X467587Y1151710D01*
X456413Y1158161D01*
X443951Y1161500D01*
D02*
G37*
G36*
X7887701Y786500D02*
X7874799D01*
X7862337Y783161D01*
X7851163Y776710D01*
X7847264Y772811D01*
X7837500Y769245D01*
X7827736Y772811D01*
X7823837Y776710D01*
X7812663Y783161D01*
X7800201Y786500D01*
X7787299D01*
X7774837Y783161D01*
X7763663Y776710D01*
X7754540Y767587D01*
X7748089Y756413D01*
X7744750Y743951D01*
Y731049D01*
X7748089Y718587D01*
X7754540Y707413D01*
X7763663Y698290D01*
X7774837Y691839D01*
X7787299Y688500D01*
X7800201D01*
X7812663Y691839D01*
X7823837Y698290D01*
X7827736Y702189D01*
X7837500Y705755D01*
X7847264Y702189D01*
X7851163Y698290D01*
X7862337Y691839D01*
X7874799Y688500D01*
X7887701D01*
X7900163Y691839D01*
X7911337Y698290D01*
X7920460Y707413D01*
X7926911Y718587D01*
X7930250Y731049D01*
Y743951D01*
X7926911Y756413D01*
X7920460Y767587D01*
X7911337Y776710D01*
X7900163Y783161D01*
X7887701Y786500D01*
D02*
G37*
G36*
X5029745Y870005D02*
X4970255D01*
X4960596Y868084D01*
X4952407Y862612D01*
X4946936Y854424D01*
X4945015Y844765D01*
Y795235D01*
X4946936Y785576D01*
X4952407Y777388D01*
X4960596Y771916D01*
X4970255Y769995D01*
X5029745D01*
X5039403Y771916D01*
X5046711Y776799D01*
X5048809Y777669D01*
X5065176Y778027D01*
X5069913Y773290D01*
X5081087Y766839D01*
X5093549Y763500D01*
X5106451D01*
X5118913Y766839D01*
X5130087Y773290D01*
X5139210Y782413D01*
X5145661Y793587D01*
X5149000Y806049D01*
Y818951D01*
X5145661Y831413D01*
X5139210Y842587D01*
X5130087Y851710D01*
X5118913Y858161D01*
X5106451Y861500D01*
X5093549D01*
X5081087Y858161D01*
X5069913Y851710D01*
X5069023Y850820D01*
X5053327Y853097D01*
X5053063Y854424D01*
X5047592Y862612D01*
X5039403Y868084D01*
X5029745Y870005D01*
D02*
G37*
G36*
X4043951Y786500D02*
X4031049D01*
X4018587Y783161D01*
X4007413Y776710D01*
X3998290Y767587D01*
X3991839Y756413D01*
X3988500Y743951D01*
Y731049D01*
X3991839Y718587D01*
X3998290Y707413D01*
X4007413Y698290D01*
X4018587Y691839D01*
X4031049Y688500D01*
X4043951D01*
X4056413Y691839D01*
X4067587Y698290D01*
X4076710Y707413D01*
X4083161Y718587D01*
X4086500Y731049D01*
Y743951D01*
X4083161Y756413D01*
X4076710Y767587D01*
X4067587Y776710D01*
X4056413Y783161D01*
X4043951Y786500D01*
D02*
G37*
G36*
X4323951Y747750D02*
X4311049D01*
X4298587Y744411D01*
X4287413Y737960D01*
X4278290Y728837D01*
X4271839Y717664D01*
X4268500Y705201D01*
Y692299D01*
X4271839Y679837D01*
X4278290Y668663D01*
X4287413Y659540D01*
X4298587Y653089D01*
X4311049Y649750D01*
X4323951D01*
X4336413Y653089D01*
X4347587Y659540D01*
X4356710Y668663D01*
X4363161Y679837D01*
X4366500Y692299D01*
Y705201D01*
X4363161Y717664D01*
X4356710Y728837D01*
X4347587Y737960D01*
X4336413Y744411D01*
X4323951Y747750D01*
D02*
G37*
G36*
X8123994Y747724D02*
X8111092D01*
X8098629Y744385D01*
X8087456Y737934D01*
X8078333Y728811D01*
X8071882Y717638D01*
X8068543Y705175D01*
Y692273D01*
X8071882Y679811D01*
X8078333Y668637D01*
X8087456Y659514D01*
X8098629Y653063D01*
X8111092Y649724D01*
X8123994D01*
X8136456Y653063D01*
X8147630Y659514D01*
X8156753Y668637D01*
X8163204Y679811D01*
X8166543Y692273D01*
Y705175D01*
X8163204Y717638D01*
X8156753Y728811D01*
X8147630Y737934D01*
X8136456Y744385D01*
X8123994Y747724D01*
D02*
G37*
G36*
X8829595Y730005D02*
X8770105D01*
X8760446Y728084D01*
X8752258Y722612D01*
X8746786Y714424D01*
X8744865Y704765D01*
Y655235D01*
X8746786Y645576D01*
X8749802Y641063D01*
X8752103Y636615D01*
X8749084Y621468D01*
X8746702Y618364D01*
X8744032Y611918D01*
X8743121Y605000D01*
Y545000D01*
X8744032Y538082D01*
X8746702Y531636D01*
X8750950Y526100D01*
X8756486Y521852D01*
X8762932Y519182D01*
X8769850Y518272D01*
X8829850D01*
X8836768Y519182D01*
X8843214Y521852D01*
X8848750Y526100D01*
X8852998Y531636D01*
X8855668Y538082D01*
X8856579Y545000D01*
Y605000D01*
X8855668Y611918D01*
X8852998Y618364D01*
X8850616Y621468D01*
X8847596Y636615D01*
X8849898Y641063D01*
X8852913Y645576D01*
X8854835Y655235D01*
Y704765D01*
X8852913Y714424D01*
X8847442Y722612D01*
X8839254Y728084D01*
X8829595Y730005D01*
D02*
G37*
G36*
X6929645D02*
X6870155D01*
X6860496Y728084D01*
X6852308Y722612D01*
X6846836Y714424D01*
X6844915Y704765D01*
Y655235D01*
X6846836Y645576D01*
X6849852Y641063D01*
X6852153Y636615D01*
X6849134Y621468D01*
X6846752Y618364D01*
X6844082Y611918D01*
X6843171Y605000D01*
Y545000D01*
X6844082Y538082D01*
X6846752Y531636D01*
X6851000Y526100D01*
X6856536Y521852D01*
X6862982Y519182D01*
X6869900Y518272D01*
X6929900D01*
X6936818Y519182D01*
X6943264Y521852D01*
X6948800Y526100D01*
X6953048Y531636D01*
X6955718Y538082D01*
X6956629Y545000D01*
Y605000D01*
X6955718Y611918D01*
X6953048Y618364D01*
X6950666Y621468D01*
X6947646Y636615D01*
X6949948Y641063D01*
X6952963Y645576D01*
X6954885Y655235D01*
Y704765D01*
X6952963Y714424D01*
X6947492Y722612D01*
X6939304Y728084D01*
X6929645Y730005D01*
D02*
G37*
G36*
X5029745D02*
X4970255D01*
X4960596Y728084D01*
X4952407Y722612D01*
X4946936Y714424D01*
X4945015Y704765D01*
Y655235D01*
X4946936Y645576D01*
X4949952Y641063D01*
X4952253Y636615D01*
X4949233Y621468D01*
X4946852Y618364D01*
X4944182Y611918D01*
X4943271Y605000D01*
Y545000D01*
X4944182Y538082D01*
X4946852Y531636D01*
X4951100Y526100D01*
X4956636Y521852D01*
X4963082Y519182D01*
X4970000Y518272D01*
X5030000D01*
X5036918Y519182D01*
X5043364Y521852D01*
X5048900Y526100D01*
X5053148Y531636D01*
X5055818Y538082D01*
X5056729Y545000D01*
Y605000D01*
X5055818Y611918D01*
X5053148Y618364D01*
X5050766Y621468D01*
X5047746Y636615D01*
X5050048Y641063D01*
X5053063Y645576D01*
X5054985Y655235D01*
Y704765D01*
X5053063Y714424D01*
X5047592Y722612D01*
X5039403Y728084D01*
X5029745Y730005D01*
D02*
G37*
G36*
X3129845D02*
X3070355D01*
X3060696Y728084D01*
X3052507Y722612D01*
X3047036Y714424D01*
X3045115Y704765D01*
Y655235D01*
X3047036Y645576D01*
X3050052Y641063D01*
X3052353Y636615D01*
X3049333Y621468D01*
X3046952Y618365D01*
X3044282Y611918D01*
X3043371Y605000D01*
Y545000D01*
X3044282Y538082D01*
X3046952Y531636D01*
X3051200Y526100D01*
X3056736Y521852D01*
X3063182Y519182D01*
X3070100Y518272D01*
X3130100D01*
X3137018Y519182D01*
X3143464Y521852D01*
X3149000Y526100D01*
X3153248Y531636D01*
X3155918Y538082D01*
X3156829Y545000D01*
Y605000D01*
X3155918Y611918D01*
X3153248Y618365D01*
X3150866Y621468D01*
X3147846Y636615D01*
X3150148Y641063D01*
X3153163Y645576D01*
X3155085Y655235D01*
Y704765D01*
X3153163Y714424D01*
X3147692Y722612D01*
X3139503Y728084D01*
X3129845Y730005D01*
D02*
G37*
G36*
X1229745D02*
X1170255D01*
X1160596Y728084D01*
X1152407Y722612D01*
X1146936Y714424D01*
X1145015Y704765D01*
Y655235D01*
X1146936Y645576D01*
X1149952Y641063D01*
X1152253Y636615D01*
X1149233Y621468D01*
X1146852Y618364D01*
X1144182Y611918D01*
X1143271Y605000D01*
Y545000D01*
X1144182Y538082D01*
X1146852Y531636D01*
X1151100Y526100D01*
X1156635Y521852D01*
X1163082Y519182D01*
X1170000Y518272D01*
X1230000D01*
X1236918Y519182D01*
X1243364Y521852D01*
X1248900Y526100D01*
X1253148Y531636D01*
X1255818Y538082D01*
X1256728Y545000D01*
Y605000D01*
X1255818Y611918D01*
X1253148Y618364D01*
X1250766Y621468D01*
X1247746Y636615D01*
X1250048Y641063D01*
X1253063Y645576D01*
X1254985Y655235D01*
Y704765D01*
X1253063Y714424D01*
X1247592Y722612D01*
X1239403Y728084D01*
X1229745Y730005D01*
D02*
G37*
G36*
X9517774Y816500D02*
X9482226D01*
X9446901Y812520D01*
X9412243Y804610D01*
X9378690Y792869D01*
X9346662Y777445D01*
X9316562Y758532D01*
X9288769Y736368D01*
X9263632Y711231D01*
X9241468Y683438D01*
X9222555Y653338D01*
X9207131Y621310D01*
X9195390Y587757D01*
X9187480Y553099D01*
X9183500Y517774D01*
Y482226D01*
X9187480Y446901D01*
X9195390Y412244D01*
X9207131Y378690D01*
X9222555Y346662D01*
X9241468Y316562D01*
X9263632Y288769D01*
X9288769Y263632D01*
X9316562Y241468D01*
X9346662Y222555D01*
X9378690Y207131D01*
X9412243Y195391D01*
X9446901Y187480D01*
X9482226Y183500D01*
X9517774D01*
X9553099Y187480D01*
X9587756Y195391D01*
X9621310Y207131D01*
X9653338Y222555D01*
X9683438Y241468D01*
X9711231Y263632D01*
X9736367Y288769D01*
X9758531Y316562D01*
X9777445Y346662D01*
X9792868Y378690D01*
X9804609Y412244D01*
X9812520Y446901D01*
X9816500Y482226D01*
Y517774D01*
X9812520Y553099D01*
X9804609Y587757D01*
X9792868Y621310D01*
X9777445Y653338D01*
X9758531Y683438D01*
X9736367Y711231D01*
X9711231Y736368D01*
X9683438Y758532D01*
X9653338Y777445D01*
X9621310Y792869D01*
X9587756Y804610D01*
X9553099Y812520D01*
X9517774Y816500D01*
D02*
G37*
G36*
X517774D02*
X482226D01*
X446901Y812520D01*
X412244Y804610D01*
X378690Y792869D01*
X346662Y777445D01*
X316562Y758532D01*
X288769Y736368D01*
X263632Y711231D01*
X241468Y683438D01*
X222555Y653338D01*
X207131Y621310D01*
X195391Y587757D01*
X187480Y553099D01*
X183500Y517774D01*
Y482226D01*
X187480Y446901D01*
X195391Y412244D01*
X207131Y378690D01*
X222555Y346662D01*
X241468Y316562D01*
X263632Y288769D01*
X288769Y263632D01*
X316562Y241468D01*
X346662Y222555D01*
X378690Y207131D01*
X412244Y195391D01*
X446901Y187480D01*
X482226Y183500D01*
X517774D01*
X553099Y187480D01*
X587757Y195391D01*
X621310Y207131D01*
X653338Y222555D01*
X683438Y241468D01*
X711231Y263632D01*
X736368Y288769D01*
X758532Y316562D01*
X777445Y346662D01*
X792869Y378690D01*
X804610Y412244D01*
X812520Y446901D01*
X816500Y482226D01*
Y517774D01*
X812520Y553099D01*
X804610Y587757D01*
X792869Y621310D01*
X777445Y653338D01*
X758532Y683438D01*
X736368Y711231D01*
X711231Y736368D01*
X683438Y758532D01*
X653338Y777445D01*
X621310Y792869D01*
X587757Y804610D01*
X553099Y812520D01*
X517774Y816500D01*
D02*
G37*
G36*
X3129845Y870005D02*
X3070355D01*
X3060696Y868084D01*
X3052507Y862612D01*
X3047036Y854424D01*
X3045115Y844765D01*
Y795235D01*
X3047036Y785576D01*
X3052507Y777388D01*
X3060696Y771916D01*
X3070355Y769995D01*
X3129845D01*
X3139503Y771916D01*
X3147692Y777388D01*
X3153163Y785576D01*
X3153691Y788228D01*
X3429340D01*
X4040519Y177049D01*
X4047099Y172000D01*
X4054762Y168826D01*
X4062985Y167743D01*
X4125460D01*
X4132413Y160790D01*
X4143587Y154339D01*
X4156049Y151000D01*
X4168951D01*
X4181413Y154339D01*
X4192587Y160790D01*
X4201710Y169913D01*
X4208161Y181087D01*
X4211500Y193549D01*
Y206451D01*
X4208161Y218913D01*
X4201710Y230087D01*
X4192587Y239210D01*
X4181413Y245661D01*
X4168951Y249000D01*
X4156049D01*
X4143587Y245661D01*
X4132413Y239210D01*
X4124490Y231287D01*
X4076145D01*
X3464966Y842466D01*
X3458386Y847515D01*
X3450723Y850689D01*
X3442500Y851772D01*
X3153691D01*
X3153163Y854424D01*
X3147692Y862612D01*
X3139503Y868084D01*
X3129845Y870005D01*
D02*
G37*
%LPD*%
D10*
X219999Y7823991D02*
G03*
X219999Y7823991I-25000J0D01*
G01*
X129999D02*
G03*
X129999Y7823991I-25000J0D01*
G01*
X129999Y7103991D02*
G03*
X129999Y7103991I-25000J0D01*
G01*
X220000D02*
G03*
X220000Y7103991I-25000J0D01*
G01*
X4862500Y5825000D02*
X4950000Y5912500D01*
Y6450000D01*
X4862500Y6537500D02*
X4950000Y6450000D01*
X4862500Y6537500D02*
Y7150000D01*
Y5687000D02*
Y5825000D01*
X6773000Y5737500D02*
X6775000D01*
X6522500Y5487000D02*
X6773000Y5737500D01*
X6512500Y5487000D02*
X6522500D01*
X5942500Y7680000D02*
Y8917500D01*
X5762000Y9098000D02*
X5942500Y8917500D01*
X1857451Y7495025D02*
Y8433058D01*
X2206000Y8781607D01*
Y9098000D01*
X4238000Y8781750D02*
Y9098000D01*
X4132460Y8676210D02*
X4238000Y8781750D01*
X4132460Y7680045D02*
Y8676210D01*
X6132500Y7680000D02*
Y8881946D01*
X6270000Y9019446D01*
Y9098000D01*
X7942500Y7680000D02*
Y8892947D01*
X8132500Y7680000D02*
Y8913946D01*
X8302000Y9083446D02*
Y9098000D01*
X8132500Y8913946D02*
X8302000Y9083446D01*
X7794000Y9041448D02*
X7942500Y8892947D01*
X7794000Y9041448D02*
Y9098000D01*
X3735210Y8877290D02*
Y9092789D01*
X3942460Y7680045D02*
Y8670040D01*
X3730000Y9098000D02*
X3735210Y9092789D01*
Y8877290D02*
X3942460Y8670040D01*
X1698000Y9098000D02*
X1712524Y9083476D01*
X1809975Y7315026D02*
X1847450D01*
X1712524Y7412476D02*
X1809975Y7315026D01*
X1712524Y7412476D02*
Y9083476D01*
X1847450Y7315026D02*
X1857451Y7305025D01*
D11*
X5805000Y5462500D02*
D03*
X5245000D02*
D03*
D12*
X8799850Y575000D02*
D03*
Y425000D02*
D03*
X6899900Y575000D02*
D03*
Y425000D02*
D03*
X1200000D02*
D03*
Y575000D02*
D03*
X3100100Y425000D02*
D03*
X235000Y6563992D02*
D03*
X5000000Y425000D02*
D03*
X235000Y6713992D02*
D03*
X5000000Y575000D02*
D03*
X3100100D02*
D03*
D13*
X1925000Y4180000D02*
D03*
X3100100Y820000D02*
D03*
X7937500Y4207500D02*
D03*
Y4067500D02*
D03*
Y4317500D02*
D03*
Y4457500D02*
D03*
Y5330000D02*
D03*
Y5470000D02*
D03*
Y5080000D02*
D03*
Y5220000D02*
D03*
X1700000Y4180000D02*
D03*
Y4320000D02*
D03*
X1925000Y4320000D02*
D03*
X1587499Y4320000D02*
D03*
Y4180000D02*
D03*
X1812500Y4180000D02*
D03*
Y4320000D02*
D03*
X2150000Y4180000D02*
D03*
Y4320000D02*
D03*
X2037499D02*
D03*
Y4180000D02*
D03*
X2262500Y4320000D02*
D03*
Y4180000D02*
D03*
X2375000Y4320000D02*
D03*
Y4180000D02*
D03*
X5000000Y820000D02*
D03*
X8799850D02*
D03*
X6899900D02*
D03*
X1200000Y680000D02*
D03*
Y820000D02*
D03*
X1262499Y6907500D02*
D03*
X1262499Y7182500D02*
D03*
X5187500Y4657500D02*
D03*
X4312460Y6567545D02*
D03*
X3399950Y7242525D02*
D03*
X8312500Y6567500D02*
D03*
X6312500Y6567500D02*
D03*
X5650000Y6745000D02*
D03*
X3649959D02*
D03*
X7650000D02*
D03*
X5425000D02*
D03*
X3950000Y5557500D02*
D03*
X5000000Y680000D02*
D03*
X5425000Y6605000D02*
D03*
X3950000Y5417500D02*
D03*
X685000Y7168992D02*
D03*
X570001Y7166492D02*
D03*
X359999Y6958992D02*
D03*
X235000Y6953992D02*
D03*
X7650000Y6605000D02*
D03*
X8287500Y6132501D02*
D03*
X6287500Y6132500D02*
D03*
X5950000Y4567500D02*
D03*
X5650000Y6605000D02*
D03*
X4287460Y6132545D02*
D03*
X5300000Y4657500D02*
D03*
X2274951Y7455025D02*
D03*
X2149951Y7245025D02*
D03*
X3649959Y6605000D02*
D03*
X2274951Y7245025D02*
D03*
X685000Y7308992D02*
D03*
X570001Y7306492D02*
D03*
X359999Y6568992D02*
D03*
X5950000Y4707500D02*
D03*
X5837500D02*
D03*
X2274951Y7105025D02*
D03*
Y7595025D02*
D03*
X6162499Y6132500D02*
D03*
Y5992500D02*
D03*
X6287500D02*
D03*
X6312500Y6707500D02*
D03*
X8162500Y5992500D02*
D03*
Y6132501D02*
D03*
X8287500Y5992500D02*
D03*
X8312500Y6707501D02*
D03*
X359999Y6708992D02*
D03*
Y6818992D02*
D03*
X485000Y6958992D02*
D03*
Y6818992D02*
D03*
X1149999Y6607500D02*
D03*
Y6467499D02*
D03*
X1274999Y6607500D02*
D03*
Y6467499D02*
D03*
X1262499Y6767500D02*
D03*
X1262499Y7042500D02*
D03*
X2149951Y7105025D02*
D03*
X3399950Y7382525D02*
D03*
X4162459Y6132545D02*
D03*
Y5992545D02*
D03*
X4287460D02*
D03*
X4312460Y6707545D02*
D03*
X5187500Y4517500D02*
D03*
X5300000D02*
D03*
X5837500Y4567500D02*
D03*
X235000Y6813992D02*
D03*
X3100100Y680000D02*
D03*
X8799850D02*
D03*
X8312500Y3817500D02*
D03*
Y3957500D02*
D03*
Y4067500D02*
D03*
Y4207500D02*
D03*
Y4457500D02*
D03*
Y4317500D02*
D03*
Y4707500D02*
D03*
Y4567500D02*
D03*
Y4970000D02*
D03*
Y4830000D02*
D03*
Y5220000D02*
D03*
Y5080000D02*
D03*
Y5470000D02*
D03*
Y5330000D02*
D03*
Y5720000D02*
D03*
Y5580000D02*
D03*
X6899900Y680000D02*
D03*
D14*
X1916999Y4512499D02*
D03*
X1789999D02*
D03*
X2170999D02*
D03*
X2043999D02*
D03*
X773999D02*
D03*
Y6262500D02*
D03*
X2170999D02*
D03*
X1662999D02*
D03*
X1789999D02*
D03*
X1154999Y4512499D02*
D03*
X1281999D02*
D03*
X1408999D02*
D03*
X1535999D02*
D03*
X2297999D02*
D03*
X2424999D02*
D03*
Y6262500D02*
D03*
X2297999D02*
D03*
X2043999D02*
D03*
X1916999D02*
D03*
X1535999D02*
D03*
X1281999D02*
D03*
X1154999D02*
D03*
X900999Y4512499D02*
D03*
X1408999Y6262500D02*
D03*
X1662999Y4512499D02*
D03*
X900999Y6262500D02*
D03*
X1027999D02*
D03*
Y4512499D02*
D03*
D15*
X1405999Y5097500D02*
D03*
X1545999Y5237500D02*
D03*
Y5097500D02*
D03*
X1405999Y5237500D02*
D03*
Y5377500D02*
D03*
X1545999D02*
D03*
X1685999Y5097500D02*
D03*
Y5377500D02*
D03*
Y5237500D02*
D03*
D16*
X2549999Y4816500D02*
D03*
Y4943500D02*
D03*
Y5070500D02*
D03*
Y5197500D02*
D03*
Y5324500D02*
D03*
Y5451500D02*
D03*
Y5578500D02*
D03*
Y5705500D02*
D03*
Y5832500D02*
D03*
Y5959500D02*
D03*
D17*
X5880000Y6137500D02*
D03*
X6020000D02*
D03*
X1030000Y4275000D02*
D03*
X1170000Y4125000D02*
D03*
X7220000Y6475000D02*
D03*
X7080000D02*
D03*
X7220000Y6350000D02*
D03*
X7080000D02*
D03*
X7220000Y6600000D02*
D03*
X7080000D02*
D03*
X7220000Y6225000D02*
D03*
X7080000D02*
D03*
X6917499Y4325000D02*
D03*
Y4437500D02*
D03*
Y4550000D02*
D03*
Y5000000D02*
D03*
Y5112500D02*
D03*
Y5225000D02*
D03*
Y5337500D02*
D03*
Y5450000D02*
D03*
Y5562500D02*
D03*
Y4212500D02*
D03*
Y3987500D02*
D03*
Y4100000D02*
D03*
X7880000Y6137501D02*
D03*
X8020000D02*
D03*
X7080000Y5850000D02*
D03*
X7220000D02*
D03*
X7080000Y6100000D02*
D03*
X7220000D02*
D03*
Y5975000D02*
D03*
X7080000D02*
D03*
X5142500Y4875000D02*
D03*
Y4762500D02*
D03*
X3879959Y6137545D02*
D03*
X2969951Y7675025D02*
D03*
X2792450Y7012525D02*
D03*
X1029999Y4125000D02*
D03*
X895000Y4250000D02*
D03*
Y4125000D02*
D03*
X5742500Y7387500D02*
D03*
Y7262500D02*
D03*
X3544951Y7650025D02*
D03*
Y7525025D02*
D03*
X4445000Y5025000D02*
D03*
X4305000D02*
D03*
X8092500Y7262500D02*
D03*
X7882500D02*
D03*
Y7387500D02*
D03*
X7057500Y5112500D02*
D03*
Y5450000D02*
D03*
Y4550000D02*
D03*
Y5000000D02*
D03*
Y4437500D02*
D03*
Y5562500D02*
D03*
X6092500Y7262500D02*
D03*
X5882500Y7387500D02*
D03*
Y7262500D02*
D03*
X4092459Y7262545D02*
D03*
X5505000Y4475000D02*
D03*
X5282500Y4875000D02*
D03*
Y4762500D02*
D03*
X7057500Y4100000D02*
D03*
Y3987500D02*
D03*
X3404951Y7650025D02*
D03*
X3882460Y7387545D02*
D03*
Y7262545D02*
D03*
X2932451Y7012525D02*
D03*
X930000Y7318991D02*
D03*
X929999Y7193991D02*
D03*
X1170000Y4275000D02*
D03*
X755000Y4125000D02*
D03*
Y4250000D02*
D03*
X3742459Y7387545D02*
D03*
X7742500Y7262500D02*
D03*
X3742459Y7262545D02*
D03*
X4232460D02*
D03*
X7742500Y7387500D02*
D03*
X414999Y8038992D02*
D03*
X555000D02*
D03*
X2829950Y7675025D02*
D03*
X3404951Y7525025D02*
D03*
X4019959Y6137545D02*
D03*
X5645000Y4475000D02*
D03*
X7057500Y4212500D02*
D03*
Y4325000D02*
D03*
Y5225000D02*
D03*
Y5337500D02*
D03*
X417500Y8162500D02*
D03*
X557500D02*
D03*
X789999Y7193991D02*
D03*
X789999Y7318991D02*
D03*
X5720000Y4937500D02*
D03*
X5580000D02*
D03*
X6232500Y7262500D02*
D03*
X8232500Y7262500D02*
D03*
D18*
X1407499Y7017500D02*
D03*
X1667499Y7112500D02*
D03*
X1407499Y7207500D02*
D03*
X2117451Y7400025D02*
D03*
X1857451Y7305025D02*
D03*
Y7495025D02*
D03*
X1667499Y6762500D02*
D03*
X1407499Y6667500D02*
D03*
Y6857500D02*
D03*
D19*
X1010000Y6663991D02*
D03*
X619999Y6913992D02*
D03*
X889999Y6983992D02*
D03*
X939999D02*
D03*
X839999Y6985538D02*
D03*
X789999Y6983992D02*
D03*
X739999D02*
D03*
X689999Y7011491D02*
D03*
X619999Y6863992D02*
D03*
X618453Y6813991D02*
D03*
X619999Y6763992D02*
D03*
Y6713991D02*
D03*
X592499Y6663991D02*
D03*
X689999Y6593991D02*
D03*
X739999D02*
D03*
X789999Y6592445D02*
D03*
X839999Y6593991D02*
D03*
X889999D02*
D03*
X939999Y6592445D02*
D03*
X1010000Y6713991D02*
D03*
X1011546Y6763992D02*
D03*
X1010000Y6813991D02*
D03*
Y6863992D02*
D03*
X1011546Y6913992D02*
D03*
D20*
X4725000Y6200000D02*
D03*
X5212500Y6250000D02*
D03*
D21*
X5350000Y7050000D02*
D03*
X3050000Y6187499D02*
D03*
Y5387500D02*
D03*
Y4587500D02*
D03*
Y4987500D02*
D03*
Y5787499D02*
D03*
D22*
X6975000Y6475000D02*
D03*
X6825000D02*
D03*
X6975000Y6350000D02*
D03*
X6825000D02*
D03*
X6975000Y6225000D02*
D03*
X6825000D02*
D03*
X6975000Y6600000D02*
D03*
X6825000D02*
D03*
X6975000Y6100000D02*
D03*
X6825000D02*
D03*
X6975000Y5975000D02*
D03*
X6825000D02*
D03*
X6975000Y5850000D02*
D03*
X6825000D02*
D03*
X159999Y8038992D02*
D03*
X310000D02*
D03*
X162500Y8162500D02*
D03*
X312500D02*
D03*
D23*
X3790000Y4300000D02*
D03*
X4660000D02*
D03*
D24*
X6662500Y4588000D02*
D03*
X6512500Y5487000D02*
D03*
X4862500Y5363000D02*
D03*
Y5687000D02*
D03*
X6662500Y4912000D02*
D03*
X6512500Y5163000D02*
D03*
X8137500Y4174500D02*
D03*
Y3850500D02*
D03*
Y4350500D02*
D03*
Y4674500D02*
D03*
Y4863000D02*
D03*
Y5187000D02*
D03*
Y5363000D02*
D03*
Y5687000D02*
D03*
D25*
X7784500Y6823861D02*
D03*
X3784459Y6823905D02*
D03*
X5784500Y6823860D02*
D03*
X5911500Y6351140D02*
D03*
X6038500D02*
D03*
X6165500D02*
D03*
X6038500Y6823860D02*
D03*
X5911500D02*
D03*
X6165500D02*
D03*
X8165500Y6823861D02*
D03*
X4165459Y6823905D02*
D03*
X3911459D02*
D03*
X4038459D02*
D03*
X4165459Y6351185D02*
D03*
X4038459D02*
D03*
X3911459D02*
D03*
X7911500Y6823861D02*
D03*
X8038500D02*
D03*
X8165500Y6351141D02*
D03*
X8038500D02*
D03*
X7911500D02*
D03*
D26*
X2713590Y7147025D02*
D03*
Y7528025D02*
D03*
X3186310Y7274025D02*
D03*
Y7401025D02*
D03*
X2713590D02*
D03*
Y7274025D02*
D03*
X3186310Y7528025D02*
D03*
D27*
X4962000Y4975000D02*
D03*
X4638000D02*
D03*
D28*
X7218484Y5338500D02*
D03*
Y5084500D02*
D03*
Y4072000D02*
D03*
Y4326000D02*
D03*
X7756516D02*
D03*
Y5338500D02*
D03*
X7218484Y4199000D02*
D03*
Y4453000D02*
D03*
Y5211500D02*
D03*
Y5465500D02*
D03*
X7756516D02*
D03*
Y5211500D02*
D03*
Y4199000D02*
D03*
Y4453000D02*
D03*
D29*
X4375000Y5817500D02*
D03*
D30*
Y5207500D02*
D03*
X4605000D02*
D03*
D31*
X5784500Y6351140D02*
D03*
X3784459Y6351185D02*
D03*
X7784500Y6351141D02*
D03*
D32*
X5832500Y7087500D02*
D03*
X6117500D02*
D03*
X7832500Y7087500D02*
D03*
X8117500D02*
D03*
X3832459Y7087545D02*
D03*
X4117459D02*
D03*
D33*
X5942500Y7680000D02*
D03*
X8037500Y7420000D02*
D03*
X6037500Y7420000D02*
D03*
X4037460Y7420045D02*
D03*
X6132500Y7680000D02*
D03*
X7942500Y7680000D02*
D03*
X8132500D02*
D03*
X3942460Y7680045D02*
D03*
X4132460D02*
D03*
D34*
X4145000Y5207500D02*
D03*
D35*
X659999Y7612500D02*
D03*
X889999D02*
D03*
X659999Y7517500D02*
D03*
Y7707499D02*
D03*
X889999D02*
D03*
Y7517500D02*
D03*
D36*
X419999Y7593991D02*
D03*
Y7333991D02*
D03*
Y7528991D02*
D03*
Y7463991D02*
D03*
Y7398991D02*
D03*
D37*
X6112500Y4462364D02*
D03*
Y4737636D02*
D03*
D38*
X5437500Y4700000D02*
D03*
X5712500D02*
D03*
X5437500Y4795000D02*
D03*
Y4605000D02*
D03*
X5712500D02*
D03*
Y4795000D02*
D03*
D39*
X6387500Y4422500D02*
D03*
Y4852500D02*
D03*
D40*
X149999Y7363991D02*
D03*
Y7563991D02*
D03*
D41*
X814999Y6788992D02*
D03*
D42*
X2449951Y7195025D02*
D03*
Y7480025D02*
D03*
D43*
X3186310Y7147025D02*
D03*
D44*
X7756516Y4072000D02*
D03*
Y5084500D02*
D03*
D45*
X8795523Y815673D02*
X8799850Y820000D01*
X8734423Y815673D02*
X8795523D01*
X8179870Y261120D02*
X8734423Y815673D01*
X8179870Y113880D02*
Y261120D01*
Y113880D02*
X8181250Y112500D01*
X437500Y1112500D02*
X730000Y820000D01*
X1200000D01*
X6899900Y575000D02*
X6899900Y575000D01*
X6899900Y575000D02*
Y680000D01*
X8799850Y575000D02*
X8799850Y575000D01*
X8799850Y575000D02*
Y680000D01*
X5000000Y575000D02*
X5000000Y575000D01*
X5000000Y575000D02*
Y680000D01*
X3100100Y575000D02*
Y680000D01*
X3100100Y680000D02*
X3100100Y680000D01*
X1700000Y4100000D02*
Y4179999D01*
X1700000Y4180000D02*
X1700000Y4179999D01*
X5003750Y816250D02*
X5096250D01*
X5000000Y820000D02*
X5003750Y816250D01*
X5096250D02*
X5100000Y812500D01*
X1916999Y4512499D02*
X1925000Y4504498D01*
Y4320000D02*
Y4504498D01*
X1812500Y4320000D02*
X1925000D01*
X1759999Y4482499D02*
X1789999Y4512499D01*
X1759999Y4409999D02*
Y4482499D01*
X1723000Y4373000D02*
X1759999Y4409999D01*
X1723000Y4338020D02*
Y4373000D01*
X1587499Y4320000D02*
X1700000D01*
X1704980D01*
X1723000Y4338020D01*
X2170999Y4512499D02*
X2197320Y4486179D01*
Y4415180D02*
Y4486179D01*
Y4415180D02*
X2239500Y4373000D01*
Y4338020D02*
Y4373000D01*
Y4338020D02*
X2257520Y4320000D01*
X2375000D01*
X2037499Y4506000D02*
X2043999Y4512499D01*
X2037499Y4320000D02*
Y4506000D01*
Y4320000D02*
X2150000D01*
X1925000Y4100000D02*
Y4180000D01*
X1925000Y4180000D02*
X1925000Y4180000D01*
X3100100Y820000D02*
X3442500D01*
X4062985Y199515D01*
X4162015D01*
X4162500Y200000D01*
X2375001Y4100000D02*
Y4180000D01*
X2375000Y4180000D02*
X2375001Y4180000D01*
X6899900Y820000D02*
X6902400Y822500D01*
X6997500D01*
X7000000Y825000D01*
X2150000Y4100000D02*
Y4179999D01*
X2150000Y4180000D02*
X2150000Y4179999D01*
X1667499Y7112500D02*
X1668750Y7111249D01*
Y7025000D02*
Y7111249D01*
X5650000Y6531250D02*
Y6605000D01*
Y6531250D02*
X5650000Y6531250D01*
X6062500Y5925000D02*
X6111979Y5974480D01*
X6144479D01*
X6162499Y5992500D01*
X1357479Y6997500D02*
X1387499D01*
X1407499Y7017500D01*
X1262499Y6907500D02*
X1267479D01*
X1357479Y6997500D01*
X1024999Y4375000D02*
X1027500Y4372499D01*
Y4277500D02*
Y4372499D01*
Y4277500D02*
X1030000Y4275000D01*
Y4270020D02*
Y4275000D01*
Y4270020D02*
X1151980Y4148040D01*
Y4143020D02*
Y4148040D01*
Y4143020D02*
X1170000Y4125000D01*
X1024999Y4375000D02*
Y4509499D01*
X1390995Y7190996D02*
X1407499Y7207500D01*
X1270995Y7190996D02*
X1390995D01*
X1262499Y7182500D02*
X1270995Y7190996D01*
X6975000Y6600000D02*
X7080000D01*
X7080000Y6600000D01*
X6975000Y6475000D02*
X7080000D01*
X7080000Y6475000D01*
X7080000Y6350000D02*
X7080000Y6350000D01*
X6975000Y6350000D02*
X7080000D01*
X6975000Y6225000D02*
X7080000D01*
X7080000Y6225000D01*
X7300000Y5850000D02*
X7325717Y5824283D01*
X7220000Y5850000D02*
X7300000D01*
X7325717Y5737500D02*
Y5824283D01*
Y5399991D02*
Y5737500D01*
X7175000D02*
X7325717D01*
X7218484Y5084500D02*
X7264226D01*
X7315529Y6150000D02*
X7325000D01*
X7288529Y6123000D02*
X7315529Y6150000D01*
X7238020Y6123000D02*
X7288529D01*
X7220000Y6104980D02*
X7238020Y6123000D01*
X7220000Y6100000D02*
Y6104980D01*
Y5975000D02*
X7225446Y5980446D01*
X7280446D02*
X7432510Y6132510D01*
X7225446Y5980446D02*
X7280446D01*
X6917499Y4437500D02*
Y4550000D01*
Y4325000D02*
Y4437500D01*
Y5112500D02*
Y5225000D01*
Y5000000D02*
Y5112500D01*
X6917499Y5000000D02*
X6917499Y5000000D01*
X6825000Y5000000D02*
X6917499D01*
X6917499Y5337500D02*
Y5450000D01*
Y5562500D01*
X6915000Y5565000D02*
X6917499Y5562500D01*
X6915000Y5565000D02*
Y5660000D01*
X6912500Y5662500D02*
X6915000Y5660000D01*
X6917499Y4100000D02*
Y4212500D01*
Y3987500D02*
Y4100000D01*
X7432510Y6132510D02*
Y6532491D01*
X7264226Y5084500D02*
X7265500D01*
X1812500Y4100000D02*
Y4180000D01*
X2862500Y4491000D02*
Y4520242D01*
X2840411Y4542332D02*
X2862500Y4520242D01*
X2454831Y4542332D02*
X2840411D01*
X7057500Y4550000D02*
X7137500D01*
X7137500Y4550000D01*
X5362500Y4875000D02*
X5362500Y4875000D01*
X5282500Y4875000D02*
X5362500D01*
X5875507Y6141993D02*
Y6202831D01*
X5850893Y6227445D02*
X5875507Y6202831D01*
Y6141993D02*
X5880000Y6137500D01*
X5784500Y6744508D02*
X5902004Y6627004D01*
X5850893Y6227445D02*
Y6575893D01*
X5902004Y6627004D01*
X5961509Y6567500D01*
X6312500D01*
X2772163Y7147025D02*
X2782552Y7136636D01*
X2772163Y7147025D02*
X2792942D01*
X2910446Y7264529D02*
X2961557Y7213418D01*
X2910446Y7264529D02*
X2969951Y7324034D01*
X2792942Y7147025D02*
X2910446Y7264529D01*
X2961557Y7213418D02*
X3310006D01*
X2969951Y7324034D02*
Y7675025D01*
X3310006Y7213418D02*
X3334619Y7238032D01*
X3395458D01*
X3399950Y7242525D01*
X3961468Y6567545D02*
X4312460D01*
X3901964Y6627049D02*
X3961468Y6567545D01*
X3850853Y6575938D02*
X3901964Y6627049D01*
X3875466Y6142038D02*
X3879959Y6137545D01*
X3784459Y6744553D02*
X3901964Y6627049D01*
X3875466Y6142038D02*
Y6202876D01*
X3850853Y6227490D02*
X3875466Y6202876D01*
X3850853Y6227490D02*
Y6575938D01*
X7850893Y6227446D02*
Y6575894D01*
X7902004Y6627005D02*
X7961509Y6567500D01*
X7784500Y6744509D02*
X7902004Y6627005D01*
X7850893Y6575894D02*
X7902004Y6627005D01*
X7850893Y6227446D02*
X7875507Y6202832D01*
Y6141994D02*
Y6202832D01*
Y6141994D02*
X7880000Y6137501D01*
X7961509Y6567500D02*
X8312500D01*
X5771467Y6745000D02*
X5784500Y6758033D01*
Y6823860D01*
X7432510Y6532491D02*
X7645020Y6745000D01*
X7650000D01*
X6975000Y5975000D02*
X7080000D01*
X7080000Y5975000D01*
X6975000Y5850000D02*
X7080000D01*
X7080000Y5850000D01*
X7264226Y5338500D02*
X7325717Y5277010D01*
Y5145991D02*
Y5277010D01*
X7264226Y5338500D02*
X7325717Y5399991D01*
X7218484Y5338500D02*
X7264226D01*
X7265500Y5084500D02*
X7325717Y5024284D01*
Y4387490D02*
Y5024284D01*
X7264226Y4326000D02*
X7325717Y4387490D01*
Y4133490D02*
Y4264510D01*
X7264226Y4072000D02*
X7325717Y4133490D01*
X7264226Y4326000D02*
X7325717Y4264510D01*
X7264226Y5084500D02*
X7325717Y5145991D01*
X7218484Y4326000D02*
X7264226D01*
X7218484Y4072000D02*
X7264226D01*
X6975000Y6100000D02*
X7080000D01*
X7080000Y6100000D01*
X1200000Y680000D02*
X1200000Y680000D01*
Y575000D02*
Y680000D01*
X514338Y7661251D02*
X546269Y7693183D01*
Y7762352D01*
X514338Y7640830D02*
Y7661251D01*
X472499Y7598991D02*
X514338Y7640830D01*
X424999Y7598991D02*
X472499D01*
X419999Y7593991D02*
X424999Y7598991D01*
X8127500Y4674500D02*
X8134579Y4667421D01*
X8214926D02*
X8244847Y4637500D01*
X8425000D01*
X8134579Y4667421D02*
X8214926D01*
X8425000Y4637500D02*
X8912500Y4150000D01*
X9150000D01*
Y3650000D02*
X9400000Y3900000D01*
Y4250000D01*
X9250000Y4400000D02*
X9400000Y4250000D01*
X8912500Y4400000D02*
X9250000D01*
X8605000Y4707500D02*
X8912500Y4400000D01*
X8312500Y4707500D02*
X8605000D01*
X8317480Y5220000D02*
X8887481Y4650000D01*
X9150000D01*
X8312500Y5220000D02*
X8317480D01*
X8247480Y4335520D02*
X8294480D01*
X8137500Y4350500D02*
X8232500D01*
X8247480Y4335520D01*
X8294480D02*
X8312500Y4317500D01*
X8119500Y4192500D02*
X8155803Y4156196D01*
X7942480Y4457500D02*
X8102500Y4617520D01*
X2873451Y7526525D02*
X2874951Y7525025D01*
X2713590Y7528025D02*
X2715090Y7526525D01*
X2873451D01*
X7700000Y6100000D02*
X7807500Y5992500D01*
X8162500D01*
X8287500D01*
X2739901Y5481846D02*
X2855653D01*
X2681321Y5540426D02*
X2739901Y5481846D01*
X2681321Y5540426D02*
Y5893680D01*
X2644570Y5930430D02*
X2681321Y5893680D01*
X2579069Y5930430D02*
X2644570D01*
X2549999Y5959500D02*
X2579069Y5930430D01*
X2855653Y5481846D02*
X2950000Y5387500D01*
X3604145Y6183355D02*
X3794955Y5992545D01*
X4162459D01*
X4287460D01*
X1916999Y6058001D02*
X1975000Y6000000D01*
X2362500D01*
X2475000Y6112500D01*
X1916999Y6058001D02*
Y6262500D01*
X3162499Y5787499D02*
X3243750Y5868750D01*
X3341133Y5966133D01*
X2862500Y4520242D02*
X2982743D01*
X2424999Y4512499D02*
X2454831Y4542332D01*
X2672451Y7675025D02*
X2829950D01*
X2477450Y7480025D02*
X2672451Y7675025D01*
X2449951Y7480025D02*
X2477450D01*
X3324950Y7650025D02*
X3324951Y7650025D01*
X3404951D01*
X3012450Y7012525D02*
X3012451Y7012525D01*
X2932451Y7012525D02*
X3012450D01*
X4287459Y6212545D02*
X4287460Y6212545D01*
Y6132545D02*
Y6212545D01*
X5765500Y7410500D02*
X5942500Y7587500D01*
X5742500Y7179499D02*
Y7262500D01*
Y7179499D02*
X5767000Y7155000D01*
X5742500Y7262500D02*
Y7387500D01*
X5767000Y7155000D02*
X5792499D01*
X5942500Y7587500D02*
Y7680000D01*
X5911500Y6823860D02*
Y6981000D01*
X5832500Y7060000D02*
X5911500Y6981000D01*
X3950000Y5337500D02*
X3950000Y5337500D01*
X7057500Y5000000D02*
X7137500D01*
X7137500Y5000000D01*
X2225000Y6535901D02*
Y6537500D01*
X2170999Y6481900D02*
X2225000Y6535901D01*
X2170999Y6262500D02*
Y6481900D01*
X2424999Y6262500D02*
Y6386000D01*
X2475000Y6112500D02*
X2862500D01*
X2918750D01*
X2993749Y6187499D02*
X3050000D01*
X2918750Y6112500D02*
X2993749Y6187499D01*
X3544951Y7525025D02*
X3550000Y7519975D01*
Y7125000D02*
Y7519975D01*
X3337500Y6912500D02*
X3550000Y7125000D01*
X2062500Y6912500D02*
X3337500D01*
X1662999Y6512999D02*
X2062500Y6912500D01*
X1662999Y6262500D02*
Y6512999D01*
X3544951Y7525025D02*
Y7650025D01*
X2950000Y5387500D02*
X3050000D01*
X7057500Y4437500D02*
Y4550000D01*
Y3987500D02*
Y4100000D01*
X7137500Y3987500D02*
X7137500Y3987500D01*
X7057500Y3987500D02*
X7137500D01*
X7057500Y5000000D02*
Y5112500D01*
Y5450000D02*
Y5562500D01*
X7137500D02*
X7137500Y5562500D01*
X7057500Y5562500D02*
X7137500D01*
X6287500Y6132500D02*
Y6212500D01*
X6287500Y6212500D02*
X6287500Y6212500D01*
X3649959Y6525000D02*
Y6605000D01*
X3649959Y6605000D02*
X3649959Y6605000D01*
X5425000Y6525000D02*
X5425000Y6525000D01*
X5425000Y6525000D02*
Y6605000D01*
X659999Y7612500D02*
X762499D01*
X565020Y7166492D02*
X570001D01*
X547000Y7148472D02*
X565020Y7166492D01*
X547000Y7120566D02*
Y7148472D01*
X529427Y7102992D02*
X547000Y7120566D01*
X436500Y7102992D02*
X529427D01*
X359999Y7026491D02*
X436500Y7102992D01*
X359999Y6958992D02*
Y7026491D01*
X237500Y6956492D02*
X357499D01*
X359999Y6958992D01*
X235000Y6953992D02*
X237500Y6956492D01*
X424833Y7329158D02*
X532499D01*
X537145Y7324512D02*
X547000D01*
X419999Y7333991D02*
X424833Y7329158D01*
X532499D02*
X537145Y7324512D01*
X547000D02*
X565020Y7306492D01*
X570001D01*
X8164000Y6822361D02*
X8165500Y6823861D01*
X8164000Y6664000D02*
Y6822361D01*
X8162500Y6662501D02*
X8164000Y6664000D01*
X7650000Y6605001D02*
X7650000Y6605000D01*
Y6525000D02*
Y6605000D01*
X8287500Y6132501D02*
Y6212500D01*
X6164000Y6822360D02*
X6165500Y6823860D01*
X6164000Y6664000D02*
Y6822360D01*
X6162500Y6662500D02*
X6164000Y6664000D01*
X4163959Y6664045D02*
Y6822405D01*
X4165459Y6823905D01*
X4162460Y6662545D02*
X4163959Y6664045D01*
X996753Y7315746D02*
X999999Y7312499D01*
X933003Y7196996D02*
X996995D01*
X930000Y7318991D02*
X933246Y7315746D01*
X996753D01*
X996995Y7196996D02*
X999999Y7200000D01*
X929999Y7193991D02*
X933003Y7196996D01*
X581027Y7380803D02*
X587724Y7387500D01*
X581027Y7317519D02*
Y7380803D01*
X889999Y6866677D02*
Y6983992D01*
X570001Y7306492D02*
X581027Y7317519D01*
X885888Y6862566D02*
X889999Y6866677D01*
X1812500Y4180000D02*
X1812500Y4180000D01*
X2262500Y4180000D02*
X2262500Y4180000D01*
Y4100000D02*
Y4180000D01*
X2037500Y4100000D02*
Y4179999D01*
X2037499Y4180000D02*
X2037500Y4179999D01*
X1587499Y4180000D02*
X1587500Y4179999D01*
X754999Y4250000D02*
X755000Y4250000D01*
X754999Y4125000D02*
X755000Y4125000D01*
X1587500Y4100000D02*
Y4179999D01*
X675000Y4250000D02*
X754999D01*
X675000Y4125000D02*
X754999D01*
X3604145Y6183355D02*
Y6433355D01*
X3375000Y6662500D02*
X3604145Y6433355D01*
X3275000Y6475000D02*
X3341133Y6408867D01*
Y5966133D02*
Y6408867D01*
X2037500Y6256000D02*
X2043999Y6262500D01*
X2037500Y6125000D02*
Y6256000D01*
X6157519Y5992500D02*
X6287500D01*
X2550314Y4943184D02*
X3005685D01*
X2350000Y6475000D02*
X3275000D01*
X2297999Y6422999D02*
X2350000Y6475000D01*
X2297999Y6262500D02*
Y6422999D01*
X2000000Y6662500D02*
X3375000D01*
X1819999Y6482499D02*
X2000000Y6662500D01*
X1819999Y6292500D02*
Y6482499D01*
X1789999Y6262500D02*
X1819999Y6292500D01*
X1537500Y6772501D02*
Y7051132D01*
X1432499Y6667500D02*
X1537500Y6772501D01*
X1407499Y6667500D02*
X1432499D01*
X1267480Y7042500D02*
X1331413Y7106433D01*
X1482199D02*
X1537500Y7051132D01*
X1331413Y7106433D02*
X1482199D01*
X1262499Y7042500D02*
X1267480D01*
X2292971Y7577005D02*
X2325470D01*
X2422451Y7480025D01*
X1982451Y7595025D02*
X2274951D01*
X1882451Y7495025D02*
X1982451Y7595025D01*
X2556450Y7401025D02*
X2713590D01*
X2477450Y7480025D02*
X2556450Y7401025D01*
X4132460Y7655045D02*
X4232460Y7555045D01*
X4214440Y7212025D02*
Y7244524D01*
X4038459Y6981045D02*
X4117459Y7060045D01*
X4038459Y6823905D02*
Y6981045D01*
X4232460Y7262545D02*
Y7555045D01*
X4117459Y7115044D02*
X4214440Y7212025D01*
X4223828Y7087545D02*
X4312460Y6998913D01*
X4117459Y7087545D02*
X4223828D01*
X4312460Y6707545D02*
Y6998913D01*
X6038500Y6823860D02*
Y6981000D01*
X6117500Y7060000D01*
Y7114999D02*
X6214480Y7211980D01*
Y7244480D01*
X6132500Y7655000D02*
X6232500Y7555000D01*
Y7262500D02*
Y7555000D01*
X6312500Y6707500D02*
Y6998868D01*
X6117500Y7060000D02*
Y7087500D01*
X6223868D01*
X6312500Y6998868D01*
X5300000Y4517500D02*
X5318020Y4535520D01*
X5348020D02*
X5417500Y4605000D01*
X5318020Y4535520D02*
X5348020D01*
X5187500Y4517500D02*
X5300000D01*
X5417500Y4605000D02*
X5437500D01*
X5765074Y4567500D02*
X5837500D01*
X5747500Y4585074D02*
X5765074Y4567500D01*
X5747500Y4585074D02*
Y4590000D01*
X5732500Y4605000D02*
X5747500Y4590000D01*
X5712500Y4605000D02*
X5732500D01*
X5692500D02*
X5712500D01*
X5645500Y4558000D02*
X5692500Y4605000D01*
X5645500Y4475500D02*
Y4558000D01*
X5645000Y4475000D02*
X5645500Y4475500D01*
X8312500Y6707501D02*
Y6998869D01*
X8117500Y7087500D02*
X8223868D01*
X8312500Y6998869D01*
X8137500Y3850500D02*
X8232500D01*
X8247480Y3835520D01*
X8294480D02*
X8312500Y3817500D01*
X8247480Y3835520D02*
X8294480D01*
X8037500Y4062500D02*
X8137500Y3962500D01*
Y3850500D02*
Y3962500D01*
X7935250Y4069750D02*
X7942500Y4062500D01*
X8037500D01*
X7756516Y4072000D02*
X7758766Y4069750D01*
X7935250D01*
X8119500Y4332500D02*
X8137500Y4350500D01*
X7933250Y4321750D02*
X7937500Y4317500D01*
X8027500D02*
X8042500Y4332500D01*
X8119500D01*
X7937500Y4317500D02*
X8027500D01*
X7756516Y4326000D02*
X7760766Y4321750D01*
X7933250D01*
X8137500Y4863000D02*
X8232500D01*
X8247480Y4848020D01*
X8294480D01*
X8137500Y4863000D02*
Y4975000D01*
X8037500Y5075001D02*
X8137500Y4975000D01*
X7942500Y5075001D02*
X8037500D01*
X7758766Y5082250D02*
X7935250D01*
X8137500Y5363000D02*
X8232500D01*
X8247480Y5348020D01*
X8294480D01*
X8042500Y5345000D02*
X8119500D01*
X8027500Y5330000D02*
X8042500Y5345000D01*
X7937500Y5330000D02*
X8027500D01*
X7760766Y5334250D02*
X7933250D01*
X235000Y6713992D02*
Y6813992D01*
X359999Y6708992D02*
Y6818992D01*
X8020000Y6137501D02*
X8038020Y6155521D01*
Y6197203D01*
X8038500Y6197683D01*
Y6351141D01*
X7911500D02*
X8038500D01*
X6038500Y6197682D02*
Y6351140D01*
X6038020Y6197202D02*
X6038500Y6197682D01*
X6038020Y6155520D02*
Y6197202D01*
X5911500Y6351140D02*
X6038500D01*
X4037979Y6155565D02*
Y6197247D01*
X4038459Y6197727D02*
Y6351185D01*
X3911459D02*
X4038459D01*
X4037979Y6197247D02*
X4038459Y6197727D01*
X3340248Y7400545D02*
X3381930D01*
X3186310Y7401025D02*
X3339768D01*
X3340248Y7400545D01*
X3186310Y7274025D02*
Y7401025D01*
X8162500Y6132501D02*
X8164000Y6134001D01*
Y6349641D01*
X8165500Y6351141D01*
X6164000Y6134000D02*
Y6349640D01*
X4163959Y6134045D02*
Y6349685D01*
X3187810Y7526525D02*
X3403450D01*
X8312500Y3957500D02*
Y4067500D01*
X7212747Y4204736D02*
X7218484Y4199000D01*
X7065263Y4204736D02*
X7212747D01*
X7057500Y4212500D02*
X7065263Y4204736D01*
X8312500Y4457500D02*
Y4567500D01*
X7167005Y4433725D02*
Y4439151D01*
X7075520Y4348000D02*
X7081280D01*
X7167005Y4439151D02*
X7180854Y4453000D01*
X7081280Y4348000D02*
X7167005Y4433725D01*
X7058280Y4325000D02*
Y4330760D01*
X7180854Y4453000D02*
X7218484D01*
X7058280Y4330760D02*
X7075520Y4348000D01*
X8312500Y4970000D02*
Y5080000D01*
X7065263Y5217237D02*
X7212747D01*
X8312500Y5470000D02*
Y5580000D01*
X7081280Y5360500D02*
X7167005Y5446225D01*
X7742500Y7179500D02*
Y7262500D01*
Y7179500D02*
X7767000Y7155000D01*
X7792500D01*
X7832500Y7115000D01*
Y7087500D02*
Y7115000D01*
Y7060001D02*
Y7087500D01*
X8038500Y6823861D02*
Y6981001D01*
X8117500Y7060001D01*
Y7087500D01*
Y7115000D01*
X8132500Y7655000D02*
Y7680000D01*
X8117500Y7115000D02*
X8214480Y7211981D01*
X8132500Y7655000D02*
X8232500Y7555000D01*
X8214480Y7211981D02*
Y7244480D01*
X8232500Y7262500D01*
Y7555000D01*
X7765500Y7410501D02*
X7942500Y7587501D01*
X7832500Y7060001D02*
X7911500Y6981001D01*
Y6823861D02*
Y6981001D01*
X7760520Y7410501D02*
X7765500D01*
X7742500Y7262500D02*
Y7387500D01*
Y7392481D02*
X7760520Y7410501D01*
X7942500Y7587501D02*
Y7680000D01*
X8923189Y3376812D02*
X9150000Y3150000D01*
X8443174Y4207500D02*
X8923189Y3727485D01*
Y3376812D02*
Y3727485D01*
X8312500Y4207500D02*
X8443174D01*
X8312500Y5720000D02*
X8580000D01*
X9150000Y5150000D01*
X9000000Y5800000D02*
X9150000Y5650000D01*
X8187500Y5800000D02*
X9000000D01*
X8159500Y5772000D02*
X8187500Y5800000D01*
X8159500Y5709001D02*
Y5772000D01*
X8137500Y5687000D02*
X8159500Y5709001D01*
X8102500Y5630020D02*
Y5662000D01*
X7942480Y5470000D02*
X8102500Y5630020D01*
X7758766Y5467751D02*
X7935250D01*
X7649283Y5404010D02*
X7710773Y5465500D01*
X7649283Y5272991D02*
Y5404010D01*
Y5272991D02*
X7710773Y5211500D01*
X7760766Y5215751D02*
X7933250D01*
X7937500Y5220000D02*
X8027500D01*
X8042500Y5205001D01*
X8119500D01*
X7649283Y4260490D02*
X7710773Y4199000D01*
X7756516D01*
X7760766Y4203250D01*
X7933250D01*
X7710773Y4453000D02*
X7756516D01*
X7649283Y4260490D02*
Y4391510D01*
X7710773Y4453000D01*
X7758766Y4455250D02*
X7935250D01*
X7756516Y4453000D02*
X7758766Y4455250D01*
X7935250D02*
X7937500Y4457500D01*
X7942480D01*
X8102500Y4617520D02*
Y4649500D01*
X7933250Y4203250D02*
X7937500Y4207500D01*
X8027500D02*
X8042500Y4192500D01*
X7937500Y4207500D02*
X8027500D01*
X8042500Y4192500D02*
X8119500D01*
X8102500Y4649500D02*
X8127500Y4674500D01*
X2274951Y7105025D02*
X2357951D01*
X2477450Y7195025D02*
X2556451Y7274025D01*
X2382451Y7129525D02*
Y7155025D01*
X2357951Y7105025D02*
X2382451Y7129525D01*
X2149951Y7105025D02*
X2274951D01*
X1949950Y7305025D02*
X2126951Y7128025D01*
X1857451Y7305025D02*
X1949950D01*
X2556451Y7274025D02*
X2713590D01*
X3832459Y7060045D02*
X3911459Y6981045D01*
Y6823905D02*
Y6981045D01*
X3942460Y7587545D02*
Y7680045D01*
X3742459Y7262545D02*
Y7387545D01*
Y7179544D02*
X3766959Y7155045D01*
X3792459D01*
X3742459Y7179544D02*
Y7262545D01*
X3765460Y7410545D02*
X3942460Y7587545D01*
X1149999Y6267499D02*
X1154999Y6262500D01*
X1149999Y6267499D02*
Y6467499D01*
X1692499Y6762500D02*
X1712499Y6782500D01*
X1669341Y6762500D02*
X1692499D01*
X1712499Y6782500D02*
Y6845159D01*
X1714373Y6847033D01*
X1274999Y6269499D02*
Y6467499D01*
Y6269499D02*
X1281999Y6262500D01*
X1138445Y6619054D02*
X1149999Y6607500D01*
X1090222Y6713991D02*
X1138445Y6665769D01*
Y6619054D02*
Y6665769D01*
X1010000Y6713991D02*
X1090222D01*
X1011546Y6763992D02*
X1124867D01*
X1270019Y6607500D02*
X1274999D01*
X1251999Y6625520D02*
X1270019Y6607500D01*
X1251999Y6625520D02*
Y6636859D01*
X1124867Y6763992D02*
X1251999Y6636859D01*
X1267479Y6767500D02*
X1337479Y6837499D01*
X1262499Y6767500D02*
X1267479D01*
X1337479Y6837499D02*
X1387499D01*
X1407499Y6857500D01*
D46*
X1010000Y6663991D02*
X1011250Y6662741D01*
Y6488750D02*
X1012500Y6487500D01*
X1011250Y6488750D02*
Y6662741D01*
X7087500Y5696162D02*
Y5743608D01*
X7150000Y5806108D02*
Y6150020D01*
X7087500Y5743608D02*
X7150000Y5806108D01*
X6997980Y5606641D02*
X7087500Y5696162D01*
X6175000Y5500000D02*
X6400000Y5725000D01*
X6175000Y5500000D02*
Y5500000D01*
X6346824Y5811072D02*
X6346825D01*
X6100000Y5564248D02*
X6346824Y5811072D01*
X6100000Y5400000D02*
Y5564248D01*
X6346825Y5811072D02*
X6406414Y5870661D01*
X6934097Y6679646D02*
X7144015D01*
X6900000Y5775000D02*
Y6645549D01*
X6934097Y6679646D01*
X7144015D02*
X7195660Y6628000D01*
X6912500Y5662500D02*
Y5762500D01*
X6900000Y5775000D02*
X6912500Y5762500D01*
X7196980Y6628000D02*
X7220000Y6604980D01*
Y6600000D02*
Y6604980D01*
X7195660Y6628000D02*
X7196980D01*
X7300000Y6475000D02*
X7350000Y6425000D01*
X7220000Y6475000D02*
X7300000D01*
X7275000Y6350000D02*
X7350000Y6275000D01*
X7220000Y6350000D02*
X7275000D01*
X7150000Y6150020D02*
X7220000Y6220020D01*
X6962500Y4912500D02*
X6997980Y4947980D01*
X6812500Y4912500D02*
X6962500D01*
X6997980Y4947980D02*
Y5606641D01*
X7220000Y6220020D02*
Y6225000D01*
X6825000Y4550000D02*
X6917499D01*
X6917499Y4550000D01*
X1027999Y6097001D02*
Y6262500D01*
Y6097001D02*
X1125000Y6000000D01*
X900999Y6099001D02*
Y6262500D01*
Y6099001D02*
X1125000Y5875000D01*
X1662999Y4512499D02*
Y4837999D01*
X2375000Y5550000D01*
Y5850000D01*
X6812500Y4806412D02*
Y4912500D01*
X6987500Y4287481D02*
Y4631411D01*
X6812500Y4806412D02*
X6987500Y4631411D01*
X6917499Y4217480D02*
X6987500Y4287481D01*
X6917499Y4212500D02*
Y4217480D01*
X1408999Y5783999D02*
Y6262500D01*
X1250000Y5625000D02*
X1408999Y5783999D01*
X1537500Y4514000D02*
Y4650000D01*
X564344Y7589847D02*
Y7644693D01*
X505784Y7531287D02*
X564344Y7589847D01*
Y7644693D02*
X607150Y7687499D01*
X639999D01*
X659999Y7707499D01*
X235000Y6563992D02*
X236695Y6562296D01*
Y6447498D02*
Y6562296D01*
X1262500Y5400000D02*
X1487500Y5625000D01*
X1262500Y4976488D02*
Y5400000D01*
Y4976488D02*
X1412500Y4826488D01*
Y4516000D02*
Y4826488D01*
X1535999Y4512499D02*
X1537500Y4514000D01*
X1408999Y4512499D02*
X1412500Y4516000D01*
X889999Y7612500D02*
X999999D01*
X686250Y7386250D02*
X687499Y7387500D01*
X686250Y7310241D02*
Y7386250D01*
X685000Y7308992D02*
X686250Y7310241D01*
X359999Y6568992D02*
X361249Y6567742D01*
Y6488750D02*
Y6567742D01*
Y6488750D02*
X362499Y6487500D01*
X894999Y7712500D02*
X999999D01*
X889999Y7707499D02*
X894999Y7712500D01*
X485000Y7038992D02*
X485000Y7038992D01*
Y6958992D02*
Y7038992D01*
X310000Y8038992D02*
X310000Y8038992D01*
X414999D01*
X312500Y8162500D02*
X312500Y8162500D01*
X417500D01*
X562581Y6863992D02*
X619999D01*
X364979Y6818992D02*
X435840Y6889852D01*
X536720D02*
X562581Y6863992D01*
X435840Y6889852D02*
X536720D01*
X359999Y6818992D02*
X364979D01*
X420649Y7463341D02*
X510324D01*
X420815Y7528175D02*
X423927Y7531287D01*
X505784D01*
X510324Y7463341D02*
X564482Y7517500D01*
X162500Y8162500D02*
X238869Y8086130D01*
Y7998504D02*
Y8086130D01*
X564482Y7517500D02*
X659999D01*
X557500Y8157520D02*
X569216Y8145804D01*
Y8053208D02*
Y8100000D01*
Y8145804D01*
Y8100000D02*
X637500D01*
X485000Y6818992D02*
X488661Y6815331D01*
X617113D02*
X618453Y6813991D01*
X488661Y6815331D02*
X617113D01*
X659999Y6513669D02*
X689999Y6543669D01*
Y6593991D01*
X740195Y6488289D02*
X740391Y6488093D01*
X740195Y6488289D02*
Y6593796D01*
X659999Y6501492D02*
Y6513669D01*
X555000Y8038992D02*
X569216Y8053208D01*
X299873Y7937500D02*
X375000D01*
X238869Y7998504D02*
X299873Y7937500D01*
X815255Y7084257D02*
Y7096434D01*
X839999Y7037025D02*
X874255Y7071281D01*
Y7146075D01*
X862499Y7157830D02*
X874255Y7146075D01*
X882499Y7517500D02*
X889999D01*
X862499Y7157830D02*
Y7497500D01*
X882499Y7517500D01*
X162500Y7950000D02*
Y8036492D01*
X159999Y8038992D02*
X162500Y8036492D01*
X739999Y6593991D02*
X740195Y6593796D01*
X789999Y6983992D02*
Y7059002D01*
X815255Y7084257D01*
X1010000Y6863992D02*
X1073705D01*
X1234193Y7024479D02*
X1244479D01*
X1073705Y6863992D02*
X1234193Y7024479D01*
X1244479D02*
X1262499Y7042500D01*
X839999Y6985538D02*
Y7037025D01*
D47*
X6600000Y3900000D02*
X6662500Y3962500D01*
Y4588000D01*
D48*
X2782696Y7015778D02*
Y7138612D01*
X2713590Y7147025D02*
X2774283D01*
X2782696Y7138612D01*
X7776087Y6745001D02*
X7784500Y6753414D01*
X7650000Y6745001D02*
X7776087D01*
X7784500Y6753414D02*
Y6823861D01*
X7650000Y6745001D02*
Y6837500D01*
X7650000Y6837500D01*
X5650000Y6837500D02*
X5650000Y6837500D01*
X3649959Y6837459D02*
X3650000Y6837500D01*
X3649959Y6745045D02*
Y6837459D01*
X3784459Y6753458D02*
Y6823905D01*
X3649959Y6745045D02*
X3776046D01*
X3784459Y6753458D01*
X5650000Y6732500D02*
Y6837500D01*
Y6745000D02*
X5771467D01*
X2687500Y7012500D02*
X2687512Y7012512D01*
X2779430D01*
X2782696Y7015778D01*
X5437500Y4795000D02*
X5439068D01*
X5449068Y4805000D01*
Y4861568D02*
X5516981Y4929481D01*
X5449068Y4805000D02*
Y4861568D01*
X5516981Y4929481D02*
X5571981D01*
X5580000Y4937500D01*
D49*
X186671Y4260013D02*
X213329D01*
X200000D01*
Y4339987D01*
X186671Y4326658D01*
D50*
X725180Y2300000D02*
D03*
X2625100D02*
D03*
X1675140D02*
D03*
X3575060D02*
D03*
X5474980D02*
D03*
X6424940D02*
D03*
X8324860D02*
D03*
X4525020D02*
D03*
X7374900D02*
D03*
D51*
X9274820D02*
D03*
D52*
X3925000Y3420000D02*
D03*
Y3080000D02*
D03*
X2575000Y3420000D02*
D03*
Y3080000D02*
D03*
X4725000Y3420000D02*
D03*
Y3080000D02*
D03*
X6875000Y3420000D02*
D03*
Y3080000D02*
D03*
X425000Y3420000D02*
D03*
Y3080000D02*
D03*
X7575000Y8030000D02*
D03*
Y8370000D02*
D03*
X3275000Y8030000D02*
D03*
Y8370000D02*
D03*
X5425000Y8030000D02*
D03*
Y8370000D02*
D03*
X1125000D02*
D03*
Y8030000D02*
D03*
X1774999Y3080000D02*
D03*
Y3420000D02*
D03*
X6075000Y3080000D02*
D03*
Y3420000D02*
D03*
X8225000Y3080000D02*
D03*
Y3420000D02*
D03*
X2475000Y8370000D02*
D03*
Y8030000D02*
D03*
X6775000Y8370000D02*
D03*
Y8030000D02*
D03*
X4625000Y8370000D02*
D03*
Y8030000D02*
D03*
X8925000Y8370000D02*
D03*
Y8030000D02*
D03*
D53*
X3487500Y6116500D02*
D03*
Y5291500D02*
D03*
Y5037500D02*
D03*
Y5862500D02*
D03*
D54*
X9150000Y5150000D02*
D03*
Y5650000D02*
D03*
Y4150000D02*
D03*
Y4650000D02*
D03*
Y3150000D02*
D03*
Y3650000D02*
D03*
X5694000Y9098000D02*
D03*
X7194000D02*
D03*
X5194000D02*
D03*
X3194000D02*
D03*
X1194000D02*
D03*
X4194000D02*
D03*
X4694000D02*
D03*
X2194000D02*
D03*
X2694000D02*
D03*
X6194000D02*
D03*
X6694000D02*
D03*
X3694000D02*
D03*
X8694000D02*
D03*
X8194000D02*
D03*
X7694000D02*
D03*
X1694000D02*
D03*
D55*
X3487500Y4783500D02*
D03*
Y5608500D02*
D03*
D56*
X419999Y7713991D02*
D03*
Y7213991D02*
D03*
D57*
X500000Y728600D02*
D03*
X338355Y661645D02*
D03*
X271400Y500000D02*
D03*
X338355Y338355D02*
D03*
X500000Y271400D02*
D03*
X661645Y338355D02*
D03*
X728600Y500000D02*
D03*
X661645Y661645D02*
D03*
X500000Y9728600D02*
D03*
X338355Y9661644D02*
D03*
X271400Y9500000D02*
D03*
X338355Y9338355D02*
D03*
X500000Y9271400D02*
D03*
X661645Y9338355D02*
D03*
X728600Y9500000D02*
D03*
X661645Y9661644D02*
D03*
X9500000Y728600D02*
D03*
X9338355Y661645D02*
D03*
X9271400Y500000D02*
D03*
X9338355Y338355D02*
D03*
X9500000Y271400D02*
D03*
X9661644Y338355D02*
D03*
X9728600Y500000D02*
D03*
X9661644Y661645D02*
D03*
X9500000Y9728600D02*
D03*
X9338355Y9661644D02*
D03*
X9271400Y9500000D02*
D03*
X9338355Y9338355D02*
D03*
X9500000Y9271400D02*
D03*
X9661644Y9338355D02*
D03*
X9728600Y9500000D02*
D03*
X9661644Y9661644D02*
D03*
D58*
X500000Y500000D02*
D03*
Y9500000D02*
D03*
X9500000Y500000D02*
D03*
Y9500000D02*
D03*
D59*
X8181250Y112500D02*
D03*
X875000Y87500D02*
D03*
X2000000D02*
D03*
X1250000D02*
D03*
X1625000D02*
D03*
X3125000D02*
D03*
X2375000D02*
D03*
X2750000D02*
D03*
X437500Y1112500D02*
D03*
X1700000Y4100000D02*
D03*
X5100000Y812500D02*
D03*
X1925000Y4100000D02*
D03*
X4162500Y200000D02*
D03*
X2375001Y4100000D02*
D03*
X7000000Y825000D02*
D03*
X2150000Y4100000D02*
D03*
X4840000Y4087500D02*
D03*
X4990000D02*
D03*
X5065000D02*
D03*
X4915000D02*
D03*
X5140000D02*
D03*
X4390000D02*
D03*
X4540000D02*
D03*
X4615000D02*
D03*
X4465000D02*
D03*
X4690000D02*
D03*
X1012500Y6487500D02*
D03*
X1668750Y7025000D02*
D03*
X5650000Y6531250D02*
D03*
X6062500Y5925000D02*
D03*
X1324999Y6962500D02*
D03*
X1024999Y4375000D02*
D03*
X5687500Y6950000D02*
D03*
X5525000Y7150000D02*
D03*
Y6950000D02*
D03*
X5350000Y7150000D02*
D03*
Y6950000D02*
D03*
X5175000Y7150000D02*
D03*
Y6950000D02*
D03*
X5312500Y6237500D02*
D03*
X5112500D02*
D03*
X5312500Y6062500D02*
D03*
X5112500D02*
D03*
X4625000Y6012500D02*
D03*
X4825000D02*
D03*
Y6225000D02*
D03*
X4625000D02*
D03*
X7925000Y5912500D02*
D03*
X8225000D02*
D03*
X6387500Y6075000D02*
D03*
X6400000Y5725000D02*
D03*
X6406414Y5870661D02*
D03*
X6612500Y5437500D02*
D03*
X6100000Y5400000D02*
D03*
X7350000Y6425000D02*
D03*
X6175000Y5500000D02*
D03*
X7350000Y6275000D02*
D03*
X6825000Y6412500D02*
D03*
Y4550000D02*
D03*
X1125000Y6000000D02*
D03*
Y5875000D02*
D03*
X6825000Y5000000D02*
D03*
X6912500Y5662500D02*
D03*
X2375000Y5850000D02*
D03*
X6812500Y4912500D02*
D03*
X1250000Y5625000D02*
D03*
X6825000Y6037500D02*
D03*
X7325000Y6150000D02*
D03*
X6775000Y5737500D02*
D03*
X7175000D02*
D03*
X3137500Y4093750D02*
D03*
X2818750Y4400000D02*
D03*
X2487500Y4156250D02*
D03*
X4970000Y4337500D02*
D03*
X4920000Y4387500D02*
D03*
X4970000Y4262500D02*
D03*
X4907500Y4300000D02*
D03*
X4920000Y4212500D02*
D03*
X4957500Y4150000D02*
D03*
X4882500D02*
D03*
X4807500D02*
D03*
X4657500D02*
D03*
X4400000Y4387500D02*
D03*
Y4212500D02*
D03*
X4350000Y4262500D02*
D03*
X4432500Y4150000D02*
D03*
X4582500D02*
D03*
X4507500D02*
D03*
X4412500Y4300000D02*
D03*
X4350000Y4337500D02*
D03*
X4357500Y4150000D02*
D03*
X5499998Y1162500D02*
D03*
X5424999D02*
D03*
X5349999D02*
D03*
X4349998D02*
D03*
X4274999D02*
D03*
X4199999D02*
D03*
X8150041Y1162474D02*
D03*
X8075041D02*
D03*
X8000041D02*
D03*
X9300041D02*
D03*
X9225041D02*
D03*
X9150041D02*
D03*
X8550043D02*
D03*
X8587542Y1099974D02*
D03*
X8625042Y1162474D02*
D03*
X8700042D02*
D03*
X8662542Y1099974D02*
D03*
X8775042Y1162474D02*
D03*
X8737542Y1099974D02*
D03*
X8962542D02*
D03*
X9000042Y1162474D02*
D03*
X8887542Y1099974D02*
D03*
X8925042Y1162474D02*
D03*
X8812542Y1099974D02*
D03*
X9187541D02*
D03*
X9112541D02*
D03*
X9075042Y1162474D02*
D03*
X9037541Y1099974D02*
D03*
X9262541D02*
D03*
X9337541D02*
D03*
X7400043Y1162474D02*
D03*
X7437542Y1099974D02*
D03*
X7475042Y1162474D02*
D03*
X7550042D02*
D03*
X7512542Y1099974D02*
D03*
X7625042Y1162474D02*
D03*
X7587542Y1099974D02*
D03*
X7812542D02*
D03*
X7850042Y1162474D02*
D03*
X7737542Y1099974D02*
D03*
X7775042Y1162474D02*
D03*
X7662542Y1099974D02*
D03*
X8037541D02*
D03*
X7962541D02*
D03*
X7925042Y1162474D02*
D03*
X7887542Y1099974D02*
D03*
X8112541D02*
D03*
X8187541D02*
D03*
X4750000Y1162500D02*
D03*
X4787500Y1100000D02*
D03*
X4825000Y1162500D02*
D03*
X4900000D02*
D03*
X4862500Y1100000D02*
D03*
X4974999Y1162500D02*
D03*
X4937499Y1100000D02*
D03*
X5162499D02*
D03*
X5199999Y1162500D02*
D03*
X5087499Y1100000D02*
D03*
X5124999Y1162500D02*
D03*
X5012499Y1100000D02*
D03*
X5387498D02*
D03*
X5312499D02*
D03*
X5274999Y1162500D02*
D03*
X5237499Y1100000D02*
D03*
X5462498D02*
D03*
X5537498D02*
D03*
X4387498D02*
D03*
X4312498D02*
D03*
X4087499D02*
D03*
X4124999Y1162500D02*
D03*
X4162499Y1100000D02*
D03*
X4237499D02*
D03*
X3862499D02*
D03*
X3974999Y1162500D02*
D03*
X3937499Y1100000D02*
D03*
X4049999Y1162500D02*
D03*
X4012499Y1100000D02*
D03*
X3787499D02*
D03*
X3824999Y1162500D02*
D03*
X3712500Y1100000D02*
D03*
X3750000Y1162500D02*
D03*
X3675000D02*
D03*
X3637500Y1100000D02*
D03*
X3237500Y4675000D02*
D03*
X2862500Y4500000D02*
D03*
Y4675000D02*
D03*
X2862500Y4587500D02*
D03*
X3049999Y4499999D02*
D03*
Y4674999D02*
D03*
X8562500Y6562500D02*
D03*
X8775000Y6350000D02*
D03*
X8762500Y6725000D02*
D03*
X7881250Y737500D02*
D03*
X7793750D02*
D03*
X2550000Y4406250D02*
D03*
X1812500Y4100000D02*
D03*
X5825000Y4275000D02*
D03*
X2543750Y4256250D02*
D03*
X2712500Y5212500D02*
D03*
X4037500Y5262500D02*
D03*
X2507500Y4712500D02*
D03*
X4650000Y4762500D02*
D03*
X3950000Y4756250D02*
D03*
X2375000Y4700000D02*
D03*
X1525000Y4825000D02*
D03*
X1750000Y4675000D02*
D03*
X1537500Y4650000D02*
D03*
X7137500Y4550000D02*
D03*
X7162500Y4775000D02*
D03*
X5950000Y4487500D02*
D03*
X5575000Y4706250D02*
D03*
X5350000Y4725000D02*
D03*
X6237500Y4337500D02*
D03*
X6212500Y5037500D02*
D03*
X5362500Y4875000D02*
D03*
X6887500Y3887500D02*
D03*
X7350000Y6612500D02*
D03*
X8995803Y6567424D02*
D03*
X7650000Y6837500D02*
D03*
X5650000D02*
D03*
X3650000D02*
D03*
X2687500Y7012500D02*
D03*
X5537500Y6837500D02*
D03*
X5425000D02*
D03*
X8117543Y698724D02*
D03*
X4317500Y698750D02*
D03*
X4037500Y737500D02*
D03*
X9400000Y6962500D02*
D03*
X9090641Y7090641D02*
D03*
X8962500Y7400000D02*
D03*
X9090641Y7709359D02*
D03*
X9400000Y7837500D02*
D03*
X9232576Y7804197D02*
D03*
X9567424D02*
D03*
Y6995803D02*
D03*
X9232576D02*
D03*
X8995803Y7232576D02*
D03*
Y7567424D02*
D03*
X4112500Y5800000D02*
D03*
X2600000Y4300000D02*
D03*
Y4200000D02*
D03*
X900000Y4362500D02*
D03*
X962500Y4187500D02*
D03*
Y4062500D02*
D03*
X5000000Y87500D02*
D03*
X4625000D02*
D03*
X5375000D02*
D03*
X3875000D02*
D03*
X3500000D02*
D03*
X4250000D02*
D03*
X9912500Y1437500D02*
D03*
Y1062500D02*
D03*
Y687500D02*
D03*
X9125000Y87500D02*
D03*
X9500000D02*
D03*
X8750000D02*
D03*
X6992000Y9098000D02*
D03*
X7396000Y9098000D02*
D03*
X7194000Y8896000D02*
D03*
X7194000Y9300000D02*
D03*
X7051165Y9240836D02*
D03*
X7336836Y9240835D02*
D03*
X7336835Y8955164D02*
D03*
X7051164Y8955165D02*
D03*
X4992000Y9098000D02*
D03*
X5396000Y9098000D02*
D03*
X5194000Y8896000D02*
D03*
X5194000Y9300000D02*
D03*
X5051165Y9240836D02*
D03*
X5336836Y9240835D02*
D03*
X5336835Y8955164D02*
D03*
X5051164Y8955165D02*
D03*
X2992000Y9098000D02*
D03*
X3396000Y9098000D02*
D03*
X3194000Y8896000D02*
D03*
X3194000Y9300000D02*
D03*
X3051165Y9240836D02*
D03*
X3336836Y9240835D02*
D03*
X3336835Y8955164D02*
D03*
X3051164Y8955165D02*
D03*
X1051164D02*
D03*
X1336835Y8955164D02*
D03*
X1336835Y9240835D02*
D03*
X1051164Y9240836D02*
D03*
X1194000Y9300000D02*
D03*
X1193999Y8896000D02*
D03*
X1395999Y9098000D02*
D03*
X992000Y9098000D02*
D03*
X546269Y7762352D02*
D03*
X9900000Y9225000D02*
D03*
Y9612500D02*
D03*
X9512500Y9912500D02*
D03*
X9125000D02*
D03*
Y9225000D02*
D03*
X7537501Y9575000D02*
D03*
Y9500000D02*
D03*
Y9425000D02*
D03*
Y9350000D02*
D03*
X5537500Y9575000D02*
D03*
Y9500000D02*
D03*
Y9425000D02*
D03*
Y9350000D02*
D03*
X3537500Y9575000D02*
D03*
Y9500000D02*
D03*
Y9425000D02*
D03*
Y9350000D02*
D03*
X1537500D02*
D03*
Y9425000D02*
D03*
Y9500000D02*
D03*
Y9575000D02*
D03*
X875000Y9225000D02*
D03*
Y9912500D02*
D03*
X487500D02*
D03*
X100000Y9612500D02*
D03*
Y9225000D02*
D03*
X875000Y8837500D02*
D03*
X487500D02*
D03*
X100000D02*
D03*
X1250000Y4037500D02*
D03*
X7000000Y4775000D02*
D03*
X8637500Y5968750D02*
D03*
X6043750Y5781250D02*
D03*
X8975000Y5968750D02*
D03*
X4862500Y7150000D02*
D03*
X4012460Y7262545D02*
D03*
X2212450Y7325025D02*
D03*
X3962459Y7325045D02*
D03*
X2274950Y7375025D02*
D03*
X2874951Y7525025D02*
D03*
X4862500Y7550000D02*
D03*
X4037460Y7550044D02*
D03*
X1987451Y7400025D02*
D03*
X6037500Y7549999D02*
D03*
X8037500Y7550000D02*
D03*
X7700000Y6100000D02*
D03*
X8375000Y87500D02*
D03*
X7625000D02*
D03*
X8000000D02*
D03*
X6875000D02*
D03*
X7250000D02*
D03*
X6125000D02*
D03*
X6500000D02*
D03*
X5750000D02*
D03*
X500000D02*
D03*
X87500Y687500D02*
D03*
Y1062500D02*
D03*
Y1437500D02*
D03*
Y1812500D02*
D03*
X4525000Y6737500D02*
D03*
X7187500Y5637500D02*
D03*
X7012500Y5737500D02*
D03*
X6612500Y5725000D02*
D03*
X7293750Y7437500D02*
D03*
X6725000Y7312500D02*
D03*
X6500000Y7375000D02*
D03*
X7487500Y6937500D02*
D03*
X6762500Y6762500D02*
D03*
X7437500D02*
D03*
X6525000Y6750000D02*
D03*
X5725000Y5912500D02*
D03*
X5512500Y5887500D02*
D03*
Y5562500D02*
D03*
X7562500Y6212500D02*
D03*
X7375000Y5950000D02*
D03*
X6275000Y6375000D02*
D03*
X6750000Y6937500D02*
D03*
X6450000Y5275000D02*
D03*
X5912500Y4812500D02*
D03*
X5987500Y5375000D02*
D03*
X5512500Y5112500D02*
D03*
Y5337500D02*
D03*
X5918750Y5931250D02*
D03*
X5712500Y6131250D02*
D03*
X5562500Y6275000D02*
D03*
X5412500Y6225000D02*
D03*
X6550000Y4162500D02*
D03*
X4987500Y5162500D02*
D03*
X4812500Y4987500D02*
D03*
X3950000Y4937500D02*
D03*
X2712500Y5987500D02*
D03*
X2762500Y5612500D02*
D03*
X3412500Y5987500D02*
D03*
X3312500Y5187500D02*
D03*
X2137500Y5175000D02*
D03*
X2400000Y5450000D02*
D03*
X1850000Y4875000D02*
D03*
X1812500Y5112500D02*
D03*
X2162500Y5487500D02*
D03*
X1875000D02*
D03*
X2175000Y5687500D02*
D03*
X1662500D02*
D03*
X1687500Y5825000D02*
D03*
X1675000Y6931250D02*
D03*
X5012500Y6531250D02*
D03*
X5025000Y5962500D02*
D03*
X5000000Y5562500D02*
D03*
X4637500D02*
D03*
X4750000Y5887500D02*
D03*
X4731250Y6525000D02*
D03*
X4437500Y6937500D02*
D03*
X5725000Y7500000D02*
D03*
X5000000Y7387500D02*
D03*
X5050000Y6750000D02*
D03*
X5075000Y6937500D02*
D03*
X6412500D02*
D03*
X7212500D02*
D03*
X7687500Y7087500D02*
D03*
X8425000Y6337500D02*
D03*
Y6875000D02*
D03*
X8350000Y7175000D02*
D03*
X7725000Y7662500D02*
D03*
X6325000D02*
D03*
X5812500D02*
D03*
X5375000D02*
D03*
X4962500D02*
D03*
X4487500D02*
D03*
X3750000D02*
D03*
X3112500D02*
D03*
X2362500D02*
D03*
X1962500D02*
D03*
X1612500Y7600000D02*
D03*
X1175000Y7787500D02*
D03*
X3787500Y6606250D02*
D03*
X3744955Y6134065D02*
D03*
X3462500Y6762500D02*
D03*
X3000000D02*
D03*
X2587500D02*
D03*
X2037500D02*
D03*
X1737500Y6425000D02*
D03*
X1593750Y6525000D02*
D03*
X906250Y6462500D02*
D03*
X625000Y7937500D02*
D03*
X87500Y8300000D02*
D03*
X637500Y8287500D02*
D03*
X625000Y8637500D02*
D03*
X87500D02*
D03*
X6437500Y4637500D02*
D03*
X6675000Y4712500D02*
D03*
X7062500Y3862500D02*
D03*
X7500000Y5400000D02*
D03*
Y5075000D02*
D03*
Y4425000D02*
D03*
Y4081250D02*
D03*
X9400000Y5962500D02*
D03*
X9090641Y6090641D02*
D03*
Y6709359D02*
D03*
X9400000Y6837500D02*
D03*
X9232576Y6804197D02*
D03*
X9567424D02*
D03*
Y5995803D02*
D03*
X9232576D02*
D03*
X8995803Y6232576D02*
D03*
X1150000Y4800000D02*
D03*
Y5500000D02*
D03*
X1700000Y6075000D02*
D03*
X1250000D02*
D03*
X2275000Y5900000D02*
D03*
X2375000Y4875000D02*
D03*
X775000Y6100000D02*
D03*
Y4675000D02*
D03*
X1475000Y4050000D02*
D03*
X625000D02*
D03*
X100000Y4300000D02*
D03*
Y4050000D02*
D03*
X7250000Y3775000D02*
D03*
X6425000Y4237500D02*
D03*
X6350000D02*
D03*
X6150000Y4337500D02*
D03*
X6062500D02*
D03*
X5425000Y4475000D02*
D03*
X4225000Y5025000D02*
D03*
X1250000Y4275000D02*
D03*
X236695Y6447498D02*
D03*
X3237500Y5874999D02*
D03*
X2862500Y5873500D02*
D03*
X3049999D02*
D03*
X2862500Y5787500D02*
D03*
X4100000Y4337500D02*
D03*
Y4262500D02*
D03*
X4037500Y4300000D02*
D03*
X4050000Y4212500D02*
D03*
X4087500Y4150000D02*
D03*
X4012500D02*
D03*
X3937500D02*
D03*
X3862500D02*
D03*
X3787500D02*
D03*
X3712500D02*
D03*
X3530000Y4212500D02*
D03*
X3542500Y4300000D02*
D03*
X3637500Y4150000D02*
D03*
X3480000Y4262500D02*
D03*
X3487500Y4150000D02*
D03*
X3562500D02*
D03*
X737498Y6380000D02*
D03*
X817498Y6380000D02*
D03*
X7550000Y2787500D02*
D03*
X7475000D02*
D03*
X7400000D02*
D03*
X7250000D02*
D03*
X7325000D02*
D03*
X7700000D02*
D03*
X7625000D02*
D03*
X7850000D02*
D03*
X7775000D02*
D03*
X5400000D02*
D03*
X5325000D02*
D03*
X5250000D02*
D03*
X5100000D02*
D03*
X5175000D02*
D03*
X5550000D02*
D03*
X5475000D02*
D03*
X5700000D02*
D03*
X5625000D02*
D03*
X3250000D02*
D03*
X3175000D02*
D03*
X3100000D02*
D03*
X2950000D02*
D03*
X3025000D02*
D03*
X3400000D02*
D03*
X3325000D02*
D03*
X3550000D02*
D03*
X3475000D02*
D03*
X1325000D02*
D03*
X1400000D02*
D03*
X1175000D02*
D03*
X1250000D02*
D03*
X875000D02*
D03*
X950000D02*
D03*
X1025000D02*
D03*
X1100000D02*
D03*
X3324950Y7650025D02*
D03*
X3012451Y7012525D02*
D03*
X4287459Y6212545D02*
D03*
X4037500Y5125000D02*
D03*
X4145000Y5062500D02*
D03*
X3950000Y5337500D02*
D03*
X7137500Y5000000D02*
D03*
X2225000Y6537500D02*
D03*
X2424999Y6386000D02*
D03*
X1618185Y5307323D02*
D03*
X1615823Y5165314D02*
D03*
X1473814Y5167676D02*
D03*
X1476176Y5309685D02*
D03*
X1487500Y5625000D02*
D03*
X3237499Y6187499D02*
D03*
X3237500Y6274999D02*
D03*
X2862500Y6187500D02*
D03*
X2862500Y6274999D02*
D03*
X3237500Y5300000D02*
D03*
X2862500D02*
D03*
X2862500Y5387500D02*
D03*
X3237499Y5387499D02*
D03*
X3237500Y5474999D02*
D03*
X3750001Y4900000D02*
D03*
X3750000Y5637500D02*
D03*
X3049999Y6274999D02*
D03*
Y6099999D02*
D03*
X2862500Y6099999D02*
D03*
X3237500D02*
D03*
X2862500Y5474999D02*
D03*
X3049999Y5299999D02*
D03*
Y5474999D02*
D03*
X2862500Y5700000D02*
D03*
X3049999Y5699999D02*
D03*
X3237500Y5700000D02*
D03*
X7137500Y3987500D02*
D03*
Y5562500D02*
D03*
X6287500Y6212500D02*
D03*
X3649959Y6525000D02*
D03*
X5425000D02*
D03*
X762499Y7612500D02*
D03*
X565786Y7086053D02*
D03*
X7962500Y7325001D02*
D03*
X8012500Y7262501D02*
D03*
X8162500Y6662501D02*
D03*
X7650000Y6525000D02*
D03*
X8287500Y6212500D02*
D03*
X6012500Y7262500D02*
D03*
X5962500Y7325000D02*
D03*
X6162500Y6662500D02*
D03*
X4162460Y6662545D02*
D03*
X8150043Y474974D02*
D03*
X7987543Y499974D02*
D03*
Y399974D02*
D03*
X4187500Y500000D02*
D03*
X4350000Y475000D02*
D03*
X4187500Y400000D02*
D03*
X999999Y7612500D02*
D03*
Y7312499D02*
D03*
Y7200000D02*
D03*
X687499Y7387500D02*
D03*
X587724D02*
D03*
X885888Y6862566D02*
D03*
X887499Y6712499D02*
D03*
X735888Y6862023D02*
D03*
X737499Y6712500D02*
D03*
X3600000Y1162500D02*
D03*
X2262500Y4100000D02*
D03*
X2037500Y4100000D02*
D03*
X362499Y6487500D02*
D03*
X1587500Y4100000D02*
D03*
X696302Y4367365D02*
D03*
X675000Y4250000D02*
D03*
Y4125000D02*
D03*
X2037500Y6125000D02*
D03*
X3049999Y5074999D02*
D03*
Y4899999D02*
D03*
X2862500Y4987500D02*
D03*
X2862500Y5075000D02*
D03*
Y4900000D02*
D03*
X3237500Y5075000D02*
D03*
Y4900000D02*
D03*
X3237499Y4987499D02*
D03*
Y5787499D02*
D03*
X999999Y7712500D02*
D03*
X637500Y8100000D02*
D03*
X485000Y7038992D02*
D03*
X1714373Y6847033D02*
D03*
X740391Y6488093D02*
D03*
X659999Y6501492D02*
D03*
X815255Y7096434D02*
D03*
X786467Y7256113D02*
D03*
X162500Y7950000D02*
D03*
X375000Y7937500D02*
D03*
%TF.MD5,8a2b8fbd71783e4c3b15b6ec13c66c4e*%
M02*
